  0
SECTION
  2
HEADER
  9
$ACADVER
  1
AC1014
  9
$ACADMAINTVER
 70
     9
  9
$DWGCODEPAGE
  3
ANSI_1252
  9
$INSBASE
 10
0.0
 20
0.0
 30
0.0
  9
$EXTMIN
 10
0.9652000000000001
 20
0.4826
 30
-0.0000000000000006
  9
$EXTMAX
 10
279.4
 20
215.4174
 30
0.0000000000000006
  9
$LIMMIN
 10
0.0
 20
0.0
  9
$LIMMAX
 10
12.0
 20
9.0
  9
$ORTHOMODE
 70
     0
  9
$REGENMODE
 70
     1
  9
$FILLMODE
 70
     1
  9
$QTEXTMODE
 70
     0
  9
$MIRRTEXT
 70
     1
  9
$DRAGMODE
 70
     2
  9
$LTSCALE
 40
0.5
  9
$OSMODE
 70
    23
  9
$ATTMODE
 70
     1
  9
$TEXTSIZE
 40
0.12
  9
$TRACEWID
 40
0.05
  9
$TEXTSTYLE
  7
ONSHAPE-STANDARD
  9
$CLAYER
  8
0
  9
$CELTYPE
  6
BYLAYER
  9
$CECOLOR
 62
   256
  9
$CELTSCALE
 40
1.0
  9
$DELOBJ
 70
     1
  9
$DISPSILH
 70
     0
  9
$DIMSCALE
 40
25.4
  9
$DIMASZ
 40
0.18
  9
$DIMEXO
 40
0.0625
  9
$DIMDLI
 40
0.38
  9
$DIMRND
 40
0.0
  9
$DIMDLE
 40
0.0
  9
$DIMEXE
 40
0.08
  9
$DIMTP
 40
0.0
  9
$DIMTM
 40
0.0
  9
$DIMTXT
 40
0.12
  9
$DIMCEN
 40
0.09
  9
$DIMTSZ
 40
0.0
  9
$DIMTOL
 70
     0
  9
$DIMLIM
 70
     0
  9
$DIMTIH
 70
     1
  9
$DIMTOH
 70
     1
  9
$DIMSE1
 70
     0
  9
$DIMSE2
 70
     0
  9
$DIMTAD
 70
     0
  9
$DIMZIN
 70
    11
  9
$DIMBLK
  1

  9
$DIMASO
 70
     1
  9
$DIMSHO
 70
     1
  9
$DIMPOST
  1

  9
$DIMAPOST
  1

  9
$DIMALT
 70
     1
  9
$DIMALTD
 70
     3
  9
$DIMALTF
 40
0.0393700787401575
  9
$DIMLFAC
 40
0.4999999999999999
  9
$DIMTOFL
 70
     0
  9
$DIMTVP
 40
0.0
  9
$DIMTIX
 70
     0
  9
$DIMSOXD
 70
     0
  9
$DIMSAH
 70
     0
  9
$DIMBLK1
  1

  9
$DIMBLK2
  1

  9
$DIMSTYLE
  2
ONSHAPE-STANDARD
  9
$DIMCLRD
 70
     7
  9
$DIMCLRE
 70
     7
  9
$DIMCLRT
 70
     7
  9
$DIMTFAC
 40
1.0
  9
$DIMGAP
 40
0.09
  9
$DIMJUST
 70
     0
  9
$DIMSD1
 70
     0
  9
$DIMSD2
 70
     0
  9
$DIMTOLJ
 70
     1
  9
$DIMTZIN
 70
    11
  9
$DIMALTZ
 70
    11
  9
$DIMALTTZ
 70
     0
  9
$DIMFIT
 70
     3
  9
$DIMUPT
 70
     1
  9
$DIMUNIT
 70
     2
  9
$DIMDEC
 70
     2
  9
$DIMTDEC
 70
     2
  9
$DIMALTU
 70
     2
  9
$DIMALTTD
 70
     3
  9
$DIMTXSTY
  7
ONSHAPE-STANDARD-DIMENSION
  9
$DIMAUNIT
 70
     0
  9
$LUNITS
 70
     2
  9
$LUPREC
 70
     4
  9
$SKETCHINC
 40
0.1
  9
$FILLETRAD
 40
0.5
  9
$AUNITS
 70
     0
  9
$AUPREC
 70
     0
  9
$MENU
  1
.
  9
$ELEVATION
 40
0.0
  9
$PELEVATION
 40
0.0
  9
$THICKNESS
 40
0.0
  9
$LIMCHECK
 70
     0
  9
$CHAMFERA
 40
0.0
  9
$CHAMFERB
 40
0.0
  9
$CHAMFERC
 40
0.0
  9
$CHAMFERD
 40
0.0
  9
$SKPOLY
 70
     0
  9
$TDCREATE
 40
2461200.968196887
  9
$TDUPDATE
 40
2461200.968197755
  9
$TDINDWG
 40
0.0
  9
$TDUSRTIMER
 40
0.0
  9
$USRTIMER
 70
     1
  9
$ANGBASE
 50
0.0
  9
$ANGDIR
 70
     0
  9
$PDMODE
 70
    33
  9
$PDSIZE
 40
0.9999999999999999
  9
$PLINEWID
 40
0.0
  9
$COORDS
 70
     1
  9
$SPLFRAME
 70
     0
  9
$SPLINETYPE
 70
     6
  9
$SPLINESEGS
 70
     8
  9
$ATTDIA
 70
     0
  9
$ATTREQ
 70
     1
  9
$HANDLING
 70
     1
  9
$HANDSEED
  5
29B
  9
$SURFTAB1
 70
     6
  9
$SURFTAB2
 70
     6
  9
$SURFTYPE
 70
     6
  9
$SURFU
 70
     6
  9
$SURFV
 70
     6
  9
$UCSNAME
  2

  9
$UCSORG
 10
0.0
 20
0.0
 30
0.0
  9
$UCSXDIR
 10
1.0
 20
0.0
 30
0.0
  9
$UCSYDIR
 10
0.0
 20
1.0
 30
0.0
  9
$PUCSNAME
  2

  9
$PUCSORG
 10
0.0
 20
0.0
 30
0.0
  9
$PUCSXDIR
 10
1.0
 20
0.0
 30
0.0
  9
$PUCSYDIR
 10
0.0
 20
1.0
 30
0.0
  9
$USERI1
 70
     0
  9
$USERI2
 70
     0
  9
$USERI3
 70
     0
  9
$USERI4
 70
     0
  9
$USERI5
 70
     0
  9
$USERR1
 40
0.0
  9
$USERR2
 40
0.0
  9
$USERR3
 40
0.0
  9
$USERR4
 40
0.0
  9
$USERR5
 40
0.0
  9
$WORLDVIEW
 70
     1
  9
$SHADEDGE
 70
     3
  9
$SHADEDIF
 70
    70
  9
$TILEMODE
 70
     1
  9
$MAXACTVP
 70
    64
  9
$PINSBASE
 10
0.0
 20
0.0
 30
0.0
  9
$PLIMCHECK
 70
     0
  9
$PEXTMIN
 10
1.000000000000000E+20
 20
1.000000000000000E+20
 30
1.000000000000000E+20
  9
$PEXTMAX
 10
-1.000000000000000E+20
 20
-1.000000000000000E+20
 30
-1.000000000000000E+20
  9
$PLIMMIN
 10
0.0
 20
0.0
  9
$PLIMMAX
 10
12.0
 20
9.0
  9
$UNITMODE
 70
     0
  9
$VISRETAIN
 70
     1
  9
$PLINEGEN
 70
     0
  9
$PSLTSCALE
 70
     1
  9
$TREEDEPTH
 70
  3020
  9
$PICKSTYLE
 70
     1
  9
$CMLSTYLE
  2
STANDARD
  9
$CMLJUST
 70
     0
  9
$CMLSCALE
 40
1.0
  9
$PROXYGRAPHICS
 70
     1
  9
$MEASUREMENT
 70
     0
  0
ENDSEC
  0
SECTION
  2
CLASSES
  0
CLASS
  1
ACDBDICTIONARYWDFLT
  2
AcDbDictionaryWithDefault
  3
ObjectDBX Classes
 90
        0
280
     0
281
     0
  0
CLASS
  1
VISUALSTYLE
  2
AcDbVisualStyle
  3
ObjectDBX Classes
 90
     4095
280
     0
281
     0
  0
CLASS
  1
MATERIAL
  2
AcDbMaterial
  3
ObjectDBX Classes
 90
     1153
280
     0
281
     0
  0
CLASS
  1
SCALE
  2
AcDbScale
  3
ObjectDBX Classes
 90
     1153
280
     0
281
     0
  0
CLASS
  1
TABLESTYLE
  2
AcDbTableStyle
  3
ObjectDBX Classes
 90
     4095
280
     0
281
     0
  0
CLASS
  1
MLEADERSTYLE
  2
AcDbMLeaderStyle
  3
ACDB_MLEADERSTYLE_CLASS
 90
     4095
280
     0
281
     0
  0
CLASS
  1
SUN
  2
AcDbSun
  3
SCENEOE
 90
     1153
280
     0
281
     0
  0
CLASS
  1
DICTIONARYVAR
  2
AcDbDictionaryVar
  3
ObjectDBX Classes
 90
        0
280
     0
281
     0
  0
CLASS
  1
FIELD
  2
AcDbField
  3
ObjectDBX Classes
 90
     1152
280
     0
281
     0
  0
CLASS
  1
FIELDLIST
  2
AcDbFieldList
  3
ObjectDBX Classes
 90
     1152
280
     0
281
     0
  0
CLASS
  1
DIMASSOC
  2
AcDbDimAssoc
  3
"AcDbDimAssoc|Product Desc:     AcDim ARX App For Dimension|Company:          Autodesk, Inc.|WEB Address:      www.autodesk.com"
 90
        0
280
     0
281
     0
  0
CLASS
  1
BREAKDATA
  2
AcDbBreakData
  3
ObjectDBX Classes
 90
     1024
280
     0
281
     0
  0
CLASS
  1
XRECORD
  2
AcDbXrecord
  3
ObjectDBX Classes
 90
        0
280
     0
281
     0
  0
CLASS
  1
LWPOLYLINE
  2
AcDbPolyline
  3
ObjectDBX Classes
 90
        0
280
     0
281
     1
  0
CLASS
  1
HATCH
  2
AcDbHatch
  3
ObjectDBX Classes
 90
        0
280
     0
281
     1
  0
CLASS
  1
ACDBPLACEHOLDER
  2
AcDbPlaceHolder
  3
ObjectDBX Classes
 90
        0
280
     0
281
     0
  0
CLASS
  1
LAYOUT
  2
AcDbLayout
  3
ObjectDBX Classes
 90
        0
280
     0
281
     0
  0
ENDSEC
  0
SECTION
  2
TABLES
  0
TABLE
  2
VPORT
  5
8
102
{ACAD_XDICTIONARY
360
28F
102
}
330
0
100
AcDbSymbolTable
 70
     1
  0
VPORT
  5
29
330
8
100
AcDbSymbolTableRecord
100
AcDbViewportTableRecord
  2
*ACTIVE
 70
     0
 10
0.0
 20
0.0
 11
1.0
 21
1.0
 12
140.1826
 22
111.5049791553133
 13
0.0
 23
0.0
 14
0.5
 24
0.5
 15
0.5
 25
0.5
 16
0.0
 26
0.0
 36
1.0
 17
0.0
 27
0.0
 37
0.0
 40
226.4856534768392
 41
1.253957995308708
 42
50.0
 43
0.0
 44
0.0
 50
0.0
 51
0.0
 71
     0
 72
   100
 73
     1
 74
     3
 75
     0
 76
     0
 77
     0
 78
     0
  0
ENDTAB
  0
TABLE
  2
LTYPE
  5
5
330
0
100
AcDbSymbolTable
 70
     1
  0
LTYPE
  5
14
330
5
100
AcDbSymbolTableRecord
100
AcDbLinetypeTableRecord
  2
BYBLOCK
 70
     0
  3

 72
    65
 73
     0
 40
0.0
  0
LTYPE
  5
15
330
5
100
AcDbSymbolTableRecord
100
AcDbLinetypeTableRecord
  2
BYLAYER
 70
     0
  3

 72
    65
 73
     0
 40
0.0
  0
LTYPE
  5
16
330
5
100
AcDbSymbolTableRecord
100
AcDbLinetypeTableRecord
  2
CONTINUOUS
 70
     0
  3
Solid line
 72
    65
 73
     0
 40
0.0
  0
ENDTAB
  0
TABLE
  2
LAYER
  5
2
330
0
100
AcDbSymbolTable
 70
     8
  0
LAYER
  5
10
330
2
100
AcDbSymbolTableRecord
100
AcDbLayerTableRecord
  2
0
 70
     0
 62
     7
  6
CONTINUOUS
  0
LAYER
  5
70
330
2
100
AcDbSymbolTableRecord
100
AcDbLayerTableRecord
  2
DEFPOINTS
 70
     0
 62
     7
  6
CONTINUOUS
  0
LAYER
  5
74
330
2
100
AcDbSymbolTableRecord
100
AcDbLayerTableRecord
  2
VISIBLE
 70
     0
 62
     7
  6
CONTINUOUS
  0
LAYER
  5
7E
330
2
100
AcDbSymbolTableRecord
100
AcDbLayerTableRecord
  2
TANGENT_LINES
 70
     0
 62
     7
  6
CONTINUOUS
  0
LAYER
  5
9C
330
2
100
AcDbSymbolTableRecord
100
AcDbLayerTableRecord
  2
BORDER_FRAME
 70
     0
 62
     7
  6
CONTINUOUS
  0
LAYER
  5
A2
330
2
100
AcDbSymbolTableRecord
100
AcDbLayerTableRecord
  2
BORDER_ZONES
 70
     0
 62
     7
  6
CONTINUOUS
  0
LAYER
  5
B0
330
2
100
AcDbSymbolTableRecord
100
AcDbLayerTableRecord
  2
TITLE_BLOCK
 70
     0
 62
     7
  6
CONTINUOUS
  0
LAYER
  5
150
330
2
100
AcDbSymbolTableRecord
100
AcDbLayerTableRecord
  2
ANNOTATION_TEXT
 70
     0
 62
     7
  6
CONTINUOUS
  0
ENDTAB
  0
TABLE
  2
STYLE
  5
3
330
0
100
AcDbSymbolTable
 70
    36
  0
STYLE
  5
11
330
3
100
AcDbSymbolTableRecord
100
AcDbTextStyleTableRecord
  2
STANDARD
 70
     0
 40
0.0
 41
1.0
 50
0.0
 71
     0
 42
0.12
  3
txt
  4

  0
STYLE
  5
71
330
3
100
AcDbSymbolTableRecord
100
AcDbTextStyleTableRecord
  2
ONSHAPE-STANDARD
 70
     0
 40
0.0
 41
1.0
 50
0.0
 71
     0
 42
0.12
  3
NotoSans-Regular.ttf
  4

1001
ACAD
1000
Noto Sans
1071
        0
  0
STYLE
  5
73
330
3
100
AcDbSymbolTableRecord
100
AcDbTextStyleTableRecord
  2
ONSHAPE-STANDARD-DIMENSION
 70
     0
 40
0.0
 41
1.0
 50
0.0
 71
     0
 42
0.12
  3

  4

1001
ACAD
1000
Noto Sans
1071
        0
  0
STYLE
  5
E5
330
3
100
AcDbSymbolTableRecord
100
AcDbTextStyleTableRecord
  2
ONSHAPE-STANDARD-FIELDS
 70
     0
 40
0.0
 41
1.0
 50
0.0
 71
     0
 42
0.12
  3

  4

1001
ACAD
1000
Noto Sans
1071
        0
  0
STYLE
  5
1DE
330
3
100
AcDbSymbolTableRecord
100
AcDbTextStyleTableRecord
  2
ONSHAPE-STANDARD-VIEW-LABE
 70
     0
 40
0.12
 41
1.0
 50
0.0
 71
     0
 42
0.12
  3
NotoSans-Regular.ttf
  4

1001
ACAD
1000
Noto Sans
1071
        0
  0
STYLE
  5
20C
330
3
100
AcDbSymbolTableRecord
100
AcDbTextStyleTableRecord
  2
ONSHAPE-STANDARD-TCFIELDS
 70
     0
 40
0.0
 41
1.0
 50
0.0
 71
     0
 42
0.12
  3
NotoSansTC-Regular.otf
  4

1001
ACAD
1000
Noto Sans TC
1071
        0
  0
STYLE
  5
20D
330
3
100
AcDbSymbolTableRecord
100
AcDbTextStyleTableRecord
  2
ONSHAPE-STANDARD-SCFIELDS
 70
     0
 40
0.0
 41
1.0
 50
0.0
 71
     0
 42
0.12
  3
NotoSansSC-Regular.otf
  4

1001
ACAD
1000
Noto Sans SC
1071
        0
  0
STYLE
  5
20E
330
3
100
AcDbSymbolTableRecord
100
AcDbTextStyleTableRecord
  2
ONSHAPE-STANDARD-KOREANFIE
 70
     0
 40
0.0
 41
1.0
 50
0.0
 71
     0
 42
0.12
  3
NotoSansKR-Regular.otf
  4

1001
ACAD
1000
Noto Sans KR
1071
        0
  0
STYLE
  5
20F
330
3
100
AcDbSymbolTableRecord
100
AcDbTextStyleTableRecord
  2
ONSHAPE-STANDARD-JAPANESEF
 70
     0
 40
0.0
 41
1.0
 50
0.0
 71
     0
 42
0.12
  3
NotoSansJP-Regular.otf
  4

1001
ACAD
1000
Noto Sans JP
1071
        0
  0
STYLE
  5
211
330
3
100
AcDbSymbolTableRecord
100
AcDbTextStyleTableRecord
  2
ONSHAPE-STANDARD-BOLD
 70
     0
 40
0.0
 41
1.0
 50
0.0
 71
     0
 42
0.12
  3
NotoSans-Bold.ttf
  4

1001
ACAD
1000
Noto Sans
1071
 33554432
  0
STYLE
  5
214
330
3
100
AcDbSymbolTableRecord
100
AcDbTextStyleTableRecord
  2
TTFSTYLE
 70
     0
 40
0.0
 41
1.0
 50
0.0
 71
     0
 42
0.12
  3

  4

1001
ACAD
1000
Verdana
1071
       34
  0
STYLE
  5
215
330
3
100
AcDbSymbolTableRecord
100
AcDbTextStyleTableRecord
  2
ONSHAPE-STANDARD-GTOLERANC
 70
     0
 40
0.0
 41
1.0
 50
0.0
 71
     0
 42
0.12
  3

  4

1001
ACAD
1000
Noto Sans
1071
        0
  0
STYLE
  5
216
330
3
100
AcDbSymbolTableRecord
100
AcDbTextStyleTableRecord
  2
ONSHAPE-STANDARD-TABLE-DAT
 70
     0
 40
0.0
 41
1.0
 50
0.0
 71
     0
 42
0.12
  3
NotoSans-Regular.ttf
  4

1001
ACAD
1000
Noto Sans
1071
        0
  0
STYLE
  5
217
330
3
100
AcDbSymbolTableRecord
100
AcDbTextStyleTableRecord
  2
ONSHAPE-STANDARD-TABLE-TIT
 70
     0
 40
0.0
 41
1.0
 50
0.0
 71
     0
 42
0.12
  3
NotoSans-Bold.ttf
  4

1001
ACAD
1000
Noto Sans
1071
 33554432
  0
STYLE
  5
218
330
3
100
AcDbSymbolTableRecord
100
AcDbTextStyleTableRecord
  2
ONSHAPE-STANDARD-TABLE-HEA
 70
     0
 40
0.0
 41
1.0
 50
0.0
 71
     0
 42
0.12
  3
NotoSans-Bold.ttf
  4

1001
ACAD
1000
Noto Sans
1071
 33554432
  0
STYLE
  5
219
330
3
100
AcDbSymbolTableRecord
100
AcDbTextStyleTableRecord
  2
ONSHAPE-STANDARD-BOMTABLE-
 70
     0
 40
0.0
 41
1.0
 50
0.0
 71
     0
 42
0.12
  3
NotoSans-Regular.ttf
  4

1001
ACAD
1000
Noto Sans
1071
        0
  0
STYLE
  5
21A
330
3
100
AcDbSymbolTableRecord
100
AcDbTextStyleTableRecord
  2
ONSHAPE-STANDARD-BOMTABLE0
 70
     0
 40
0.0
 41
1.0
 50
0.0
 71
     0
 42
0.12
  3
NotoSans-Bold.ttf
  4

1001
ACAD
1000
Noto Sans
1071
 33554432
  0
STYLE
  5
21B
330
3
100
AcDbSymbolTableRecord
100
AcDbTextStyleTableRecord
  2
ONSHAPE-STANDARD-BOMTABLE1
 70
     0
 40
0.0
 41
1.0
 50
0.0
 71
     0
 42
0.12
  3
NotoSans-Bold.ttf
  4

1001
ACAD
1000
Noto Sans
1071
 33554432
  0
STYLE
  5
21C
330
3
100
AcDbSymbolTableRecord
100
AcDbTextStyleTableRecord
  2
ONSHAPE-STANDARD-NOTESTYLE
 70
     0
 40
0.12
 41
1.0
 50
0.0
 71
     0
 42
0.12
  3
NotoSans-Regular.ttf
  4

1001
ACAD
1000
Noto Sans
1071
        0
  0
STYLE
  5
21D
330
3
100
AcDbSymbolTableRecord
100
AcDbTextStyleTableRecord
  2
ONSHAPE-STANDARD-DATUM-DIM
 70
     0
 40
0.12
 41
1.0
 50
0.0
 71
     0
 42
0.12
  3
NotoSans-Regular.ttf
  4

1001
ACAD
1000
Noto Sans
1071
        0
  0
STYLE
  5
21F
330
3
100
AcDbSymbolTableRecord
100
AcDbTextStyleTableRecord
  2
ONSHAPE-DETAIL-VIEW-LEADER
 70
     0
 40
0.12
 41
1.0
 50
0.0
 71
     0
 42
0.12
  3
NotoSans-Regular.ttf
  4

1001
ACAD
1000
Noto Sans
1071
        0
  0
STYLE
  5
220
330
3
100
AcDbSymbolTableRecord
100
AcDbTextStyleTableRecord
  2
ONSHAPE-STANDARD-HOLE-CALL
 70
     0
 40
0.12
 41
1.0
 50
0.0
 71
     0
 42
0.12
  3
NotoSans-Regular.ttf
  4

1001
ACAD
1000
Noto Sans
1071
        0
  0
STYLE
  5
221
330
3
100
AcDbSymbolTableRecord
100
AcDbTextStyleTableRecord
  2
ONSHAPE-STANDARD-HOLETABLE
 70
     0
 40
0.0
 41
1.0
 50
0.0
 71
     0
 42
0.12
  3
NotoSans-Regular.ttf
  4

1001
ACAD
1000
Noto Sans
1071
        0
  0
STYLE
  5
222
330
3
100
AcDbSymbolTableRecord
100
AcDbTextStyleTableRecord
  2
ONSHAPE-STANDARD-HOLETABL0
 70
     0
 40
0.0
 41
1.0
 50
0.0
 71
     0
 42
0.12
  3
NotoSans-Bold.ttf
  4

1001
ACAD
1000
Noto Sans
1071
 33554432
  0
STYLE
  5
223
330
3
100
AcDbSymbolTableRecord
100
AcDbTextStyleTableRecord
  2
ONSHAPE-STANDARD-HOLETABL1
 70
     0
 40
0.0
 41
1.0
 50
0.0
 71
     0
 42
0.12
  3
NotoSans-Bold.ttf
  4

1001
ACAD
1000
Noto Sans
1071
 33554432
  0
STYLE
  5
224
330
3
100
AcDbSymbolTableRecord
100
AcDbTextStyleTableRecord
  2
ONSHAPE-STANDARD-HOLE-TAG
 70
     0
 40
0.12
 41
1.0
 50
0.0
 71
     0
 42
0.12
  3
NotoSans-Regular.ttf
  4

1001
ACAD
1000
Noto Sans
1071
        0
  0
STYLE
  5
225
330
3
100
AcDbSymbolTableRecord
100
AcDbTextStyleTableRecord
  2
ONSHAPE-STANDARD-REVISIONT
 70
     0
 40
0.0
 41
1.0
 50
0.0
 71
     0
 42
0.12
  3
NotoSans-Regular.ttf
  4

1001
ACAD
1000
Noto Sans
1071
        0
  0
STYLE
  5
226
330
3
100
AcDbSymbolTableRecord
100
AcDbTextStyleTableRecord
  2
ONSHAPE-STANDARD-REVISION0
 70
     0
 40
0.0
 41
1.0
 50
0.0
 71
     0
 42
0.12
  3
NotoSans-Bold.ttf
  4

1001
ACAD
1000
Noto Sans
1071
 33554432
  0
STYLE
  5
227
330
3
100
AcDbSymbolTableRecord
100
AcDbTextStyleTableRecord
  2
ONSHAPE-STANDARD-REVISION1
 70
     0
 40
0.0
 41
1.0
 50
0.0
 71
     0
 42
0.12
  3
NotoSans-Bold.ttf
  4

1001
ACAD
1000
Noto Sans
1071
 33554432
  0
STYLE
  5
228
330
3
100
AcDbSymbolTableRecord
100
AcDbTextStyleTableRecord
  2
ONSHAPE-STANDARD-REVISION-
 70
     0
 40
0.12
 41
1.0
 50
0.0
 71
     0
 42
0.12
  3
NotoSans-Regular.ttf
  4

1001
ACAD
1000
Noto Sans
1071
        0
  0
STYLE
  5
229
330
3
100
AcDbSymbolTableRecord
100
AcDbTextStyleTableRecord
  2
ONSHAPE-STANDARD-CUTLISTTA
 70
     0
 40
0.0
 41
1.0
 50
0.0
 71
     0
 42
0.12
  3
NotoSans-Regular.ttf
  4

1001
ACAD
1000
Noto Sans
1071
        0
  0
STYLE
  5
22A
330
3
100
AcDbSymbolTableRecord
100
AcDbTextStyleTableRecord
  2
ONSHAPE-STANDARD-CUTLISTT0
 70
     0
 40
0.0
 41
1.0
 50
0.0
 71
     0
 42
0.12
  3
NotoSans-Bold.ttf
  4

1001
ACAD
1000
Noto Sans
1071
 33554432
  0
STYLE
  5
22B
330
3
100
AcDbSymbolTableRecord
100
AcDbTextStyleTableRecord
  2
ONSHAPE-STANDARD-CUTLISTT1
 70
     0
 40
0.0
 41
1.0
 50
0.0
 71
     0
 42
0.12
  3
NotoSans-Bold.ttf
  4

1001
ACAD
1000
Noto Sans
1071
 33554432
  0
STYLE
  5
22C
330
3
100
AcDbSymbolTableRecord
100
AcDbTextStyleTableRecord
  2
ONSHAPE-STANDARD-CUSTOMTAB
 70
     0
 40
0.0
 41
1.0
 50
0.0
 71
     0
 42
0.12
  3
NotoSans-Regular.ttf
  4

1001
ACAD
1000
Noto Sans
1071
        0
  0
STYLE
  5
22D
330
3
100
AcDbSymbolTableRecord
100
AcDbTextStyleTableRecord
  2
ONSHAPE-STANDARD-CUSTOMTA0
 70
     0
 40
0.0
 41
1.0
 50
0.0
 71
     0
 42
0.12
  3
NotoSans-Bold.ttf
  4

1001
ACAD
1000
Noto Sans
1071
 33554432
  0
STYLE
  5
22E
330
3
100
AcDbSymbolTableRecord
100
AcDbTextStyleTableRecord
  2
ONSHAPE-STANDARD-CUSTOMTA1
 70
     0
 40
0.0
 41
1.0
 50
0.0
 71
     0
 42
0.12
  3
NotoSans-Bold.ttf
  4

1001
ACAD
1000
Noto Sans
1071
 33554432
  0
ENDTAB
  0
TABLE
  2
VIEW
  5
6
330
0
100
AcDbSymbolTable
 70
     0
  0
ENDTAB
  0
TABLE
  2
UCS
  5
7
330
0
100
AcDbSymbolTable
 70
     0
  0
ENDTAB
  0
TABLE
  2
APPID
  5
9
330
0
100
AcDbSymbolTable
 70
     9
  0
APPID
  5
12
330
9
100
AcDbSymbolTableRecord
100
AcDbRegAppTableRecord
  2
ACAD
 70
     0
  0
APPID
  5
BE
330
9
100
AcDbSymbolTableRecord
100
AcDbRegAppTableRecord
  2
ONSHAPE_NOTES_REORDERING_D
 70
     0
  0
APPID
  5
BF
330
9
100
AcDbSymbolTableRecord
100
AcDbRegAppTableRecord
  2
ONSHAPE_NOTES_ANNOTATION_D
 70
     0
  0
APPID
  5
164
330
9
100
AcDbSymbolTableRecord
100
AcDbRegAppTableRecord
  2
ACAD_DIMASSOC_CALC_DIMLFAC
 70
     0
  0
APPID
  5
165
330
9
100
AcDbSymbolTableRecord
100
AcDbRegAppTableRecord
  2
ACAD_DIMASSOC_DIMLFAC
 70
     0
  0
APPID
  5
166
330
9
100
AcDbSymbolTableRecord
100
AcDbRegAppTableRecord
  2
ACAD_DIMASSOC_OVERRIDDEN_D
 70
     0
  0
APPID
  5
158
330
9
100
AcDbSymbolTableRecord
100
AcDbRegAppTableRecord
  2
INDEX
 70
     0
  0
APPID
  5
199
330
9
100
AcDbSymbolTableRecord
100
AcDbRegAppTableRecord
  2
ACAD_DSTYLE_DIMRADIAL_EXTE
 70
     0
  0
APPID
  5
299
330
9
100
AcDbSymbolTableRecord
100
AcDbRegAppTableRecord
  2
ACAD_MLEADERVER
 70
     0
  0
ENDTAB
  0
TABLE
  2
DIMSTYLE
  5
A
330
0
100
AcDbSymbolTable
 70
    21
  0
DIMSTYLE
105
27
330
A
100
AcDbSymbolTableRecord
100
AcDbDimStyleTableRecord
  2
STANDARD
 70
     0
  3

  4

  5

  6

  7

 40
25.4
 41
0.18
 42
0.0625
 43
0.38
 44
0.18
 45
0.0
 46
0.0
 47
0.0
 48
0.0
140
0.18
141
0.09
142
0.0
143
0.0393700787401575
144
1.0
145
0.0
146
1.0
147
0.09
 71
     0
 72
     0
 73
     1
 74
     1
 75
     0
 76
     0
 77
     0
 78
     0
170
     0
171
     2
172
     0
173
     0
174
     0
175
     0
176
     0
177
     0
178
     0
270
     2
271
     4
272
     4
273
     2
274
     2
340
11
275
     0
280
     0
281
     0
282
     0
283
     1
284
     0
285
     0
286
     0
287
     3
288
     0
  0
DIMSTYLE
105
72
330
A
100
AcDbSymbolTableRecord
100
AcDbDimStyleTableRecord
  2
ONSHAPE-STANDARD
 70
     0
  3

  4

  5

  6

  7

 40
25.4
 41
0.18
 42
0.0625
 43
0.38
 44
0.08
 45
0.0
 46
0.0
 47
0.0
 48
0.0
140
0.12
141
0.09
142
0.0
143
0.0393700787401575
144
25.4
145
0.0
146
1.0
147
0.09
 71
     0
 72
     0
 73
     1
 74
     1
 75
     0
 76
     0
 77
     0
 78
    11
170
     0
171
     3
172
     0
173
     0
174
     0
175
     0
176
     7
177
     7
178
     7
179
     1
270
     2
271
     2
272
     2
273
     2
274
     3
340
73
275
     0
280
     0
281
     0
282
     0
283
     1
284
    11
285
    11
286
     0
287
     3
288
     1
  0
DIMSTYLE
105
153
102
{ACAD_REACTORS
330
14A
330
167
330
19D
330
1BB
330
1E0
102
}
330
A
100
AcDbSymbolTableRecord
100
AcDbDimStyleTableRecord
  2
ONSHAPE-STANDARD$0
 70
     0
  3

  4

  5

  6

  7

 40
25.4
 41
0.18
 42
0.0625
 43
0.38
 44
0.08
 45
0.0
 46
0.0
 47
0.0
 48
0.0
140
0.12
141
0.09
142
0.0
143
0.0393700787401575
144
25.4
145
0.0
146
1.0
147
0.09
 71
     0
 72
     0
 73
     1
 74
     1
 75
     0
 76
     0
 77
     0
 78
    11
170
     0
171
     3
172
     0
173
     0
174
     0
175
     0
176
     7
177
     7
178
     7
179
     1
270
     2
271
     2
272
     2
273
     2
274
     3
340
73
275
     0
280
     0
281
     0
282
     0
283
     1
284
    11
285
    11
286
     0
287
     3
288
     1
  0
DIMSTYLE
105
18D
102
{ACAD_REACTORS
330
184
102
}
330
A
100
AcDbSymbolTableRecord
100
AcDbDimStyleTableRecord
  2
ONSHAPE-STANDARD$4
 70
     0
  3

  4

  5

  6

  7

 40
25.4
 41
0.18
 42
0.0625
 43
0.38
 44
0.08
 45
0.0
 46
0.0
 47
0.0
 48
0.0
140
0.12
141
0.0
142
0.0
143
0.0393700787401575
144
25.4
145
0.0
146
1.0
147
0.09
 71
     0
 72
     0
 73
     1
 74
     1
 75
     0
 76
     0
 77
     0
 78
    11
170
     0
171
     3
172
     0
173
     0
174
     0
175
     0
176
     7
177
     7
178
     7
179
     1
270
     2
271
     2
272
     2
273
     2
274
     3
340
73
275
     0
280
     0
281
     0
282
     0
283
     1
284
    11
285
    11
286
     0
287
     3
288
     1
  0
DIMSTYLE
105
231
330
A
100
AcDbSymbolTableRecord
100
AcDbDimStyleTableRecord
  2
ANSI
 70
     0
  3

  4
mm
  5

  6

  7

 40
25.4
 41
0.12
 42
0.05
 43
0.5
 44
0.1
 45
0.0
 46
0.0
 47
0.1
 48
0.1
140
0.12
141
0.0
142
0.0
143
0.0393700787401575
144
25.4
145
0.0
146
0.71
147
0.06
 71
     0
 72
     0
 73
     1
 74
     1
 75
     0
 76
     0
 77
     0
 78
    11
170
     0
171
     3
172
     0
173
     0
174
     0
175
     0
176
     7
177
     7
178
     7
270
     2
271
     2
272
     3
273
     2
274
     3
340
11
275
     0
280
     0
281
     0
282
     0
283
     1
284
    11
285
    11
286
     0
287
     3
288
     1
  0
DIMSTYLE
105
232
330
A
100
AcDbSymbolTableRecord
100
AcDbDimStyleTableRecord
  2
ANSI$3
 70
     0
  3

  4
mm
  5

  6

  7

 40
25.4
 41
0.12
 42
0.05
 43
0.5
 44
0.1
 45
0.0
 46
0.0
 47
0.1
 48
0.1
140
0.12
141
0.0
142
0.0
143
0.0393700787401575
144
25.4
145
0.0
146
0.71
147
0.06
 71
     0
 72
     0
 73
     1
 74
     1
 75
     0
 76
     0
 77
     0
 78
    11
170
     0
171
     3
172
     0
173
     0
174
     0
175
     0
176
     7
177
     7
178
     7
270
     2
271
     2
272
     3
273
     2
274
     3
340
11
275
     0
280
     0
281
     0
282
     0
283
     1
284
    11
285
    11
286
     0
288
     1
  0
DIMSTYLE
105
233
330
A
100
AcDbSymbolTableRecord
100
AcDbDimStyleTableRecord
  2
ANSI$4
 70
     0
  3

  4
mm
  5

  6

  7

 40
25.4
 41
0.12
 42
0.05
 43
0.5
 44
0.1
 45
0.0
 46
0.0
 47
0.1
 48
0.1
140
0.12
141
0.0
142
0.0
143
0.0393700787401575
144
25.4
145
0.0
146
0.71
147
0.06
 71
     0
 72
     0
 73
     1
 74
     1
 75
     0
 76
     0
 77
     0
 78
    11
170
     0
171
     3
172
     0
173
     0
174
     0
175
     0
176
     7
177
     7
178
     7
270
     2
271
     2
272
     3
273
     2
274
     3
340
11
275
     0
280
     0
281
     0
282
     0
283
     1
284
    11
285
    11
286
     0
287
     3
288
     1
  0
DIMSTYLE
105
234
330
A
100
AcDbSymbolTableRecord
100
AcDbDimStyleTableRecord
  2
ANSI$7
 70
     0
  3

  4
mm
  5

  6

  7

 40
25.4
 41
0.12
 42
0.05
 43
0.5
 44
0.1
 45
0.0
 46
0.0
 47
0.1
 48
0.1
140
0.12
141
0.0
142
0.0
143
0.0393700787401575
144
25.4
145
0.0
146
0.71
147
0.06
 71
     0
 72
     0
 73
     1
 74
     1
 75
     0
 76
     0
 77
     0
 78
    11
170
     0
171
     3
172
     0
173
     0
174
     0
175
     0
176
     7
177
     7
178
     7
270
     2
271
     2
272
     3
273
     2
274
     3
340
11
275
     0
280
     0
281
     0
282
     0
283
     1
284
    11
285
    11
286
     0
287
     3
288
     1
  0
DIMSTYLE
105
235
330
A
100
AcDbSymbolTableRecord
100
AcDbDimStyleTableRecord
  2
ANSI$SF
 70
     0
  3

  4
mm
  5

  6

  7

 40
25.4
 41
0.12
 42
0.05
 43
0.5
 44
0.1
 45
0.0
 46
0.0
 47
0.1
 48
0.1
140
0.12
141
0.0
142
0.0
143
0.0393700787401575
144
25.4
145
0.0
146
0.71
147
0.06
 71
     0
 72
     0
 73
     1
 74
     1
 75
     1
 76
     1
 77
     0
 78
    11
170
     0
171
     3
172
     0
173
     0
174
     0
175
     0
176
     7
177
     7
178
     7
270
     2
271
     2
272
     3
273
     2
274
     3
340
11
275
     0
280
     0
281
     0
282
     0
283
     1
284
    11
285
    11
286
     0
287
     3
288
     1
  0
DIMSTYLE
105
236
330
A
100
AcDbSymbolTableRecord
100
AcDbDimStyleTableRecord
  2
ANSI$SH
 70
     0
  3

  4
mm
  5

  6

  7

 40
25.4
 41
0.12
 42
0.05
 43
0.5
 44
0.1
 45
0.0
 46
0.0
 47
0.1
 48
0.1
140
0.12
141
0.0
142
0.0
143
0.0393700787401575
144
25.4
145
0.0
146
0.71
147
0.06
 71
     0
 72
     0
 73
     1
 74
     1
 75
     1
 76
     1
 77
     0
 78
    11
170
     0
171
     3
172
     0
173
     1
174
     0
175
     0
176
     7
177
     7
178
     7
270
     2
271
     2
272
     3
273
     2
274
     3
340
11
275
     0
280
     0
281
     0
282
     0
283
     1
284
    11
285
    11
286
     0
287
     3
288
     1
  0
DIMSTYLE
105
23A
330
A
100
AcDbSymbolTableRecord
100
AcDbDimStyleTableRecord
  2
ONSHAPE-STANDARD$2
 70
     0
  3

  4

  5

  6

  7

 40
25.4
 41
0.18
 42
0.0625
 43
0.38
 44
0.08
 45
0.0
 46
0.0
 47
0.0
 48
0.0
140
0.12
141
0.09
142
0.0
143
0.0393700787401575
144
25.4
145
0.0
146
1.0
147
0.09
 71
     0
 72
     0
 73
     1
 74
     1
 75
     0
 76
     0
 77
     0
 78
    11
170
     0
171
     3
172
     0
173
     0
174
     0
175
     0
176
     7
177
     7
178
     7
179
     1
270
     2
271
     2
272
     2
273
     2
274
     3
340
73
275
     0
280
     0
281
     0
282
     0
283
     1
284
    11
285
    11
286
     0
287
     3
288
     1
  0
DIMSTYLE
105
23B
330
A
100
AcDbSymbolTableRecord
100
AcDbDimStyleTableRecord
  2
ONSHAPE-STANDARD$3
 70
     0
  3

  4

  5

  6

  7

 40
25.4
 41
0.18
 42
0.0625
 43
0.38
 44
0.08
 45
0.0
 46
0.0
 47
0.0
 48
0.0
140
0.12
141
0.0
142
0.0
143
0.0393700787401575
144
25.4
145
0.0
146
1.0
147
0.09
 71
     0
 72
     0
 73
     1
 74
     1
 75
     0
 76
     0
 77
     0
 78
    11
170
     0
171
     3
172
     0
173
     0
174
     0
175
     0
176
     7
177
     7
178
     7
179
     1
270
     2
271
     2
272
     2
273
     2
274
     3
340
73
275
     0
280
     0
281
     0
282
     0
283
     1
284
    11
285
    11
286
     0
287
     3
288
     1
  0
DIMSTYLE
105
23D
330
A
100
AcDbSymbolTableRecord
100
AcDbDimStyleTableRecord
  2
ONSHAPE-STANDARD$6
 70
     0
  3

  4

  5

  6

  7

 40
25.4
 41
0.02
 42
0.0625
 43
0.38
 44
0.08
 45
0.0
 46
0.0
 47
0.0
 48
0.0
140
0.12
141
0.09
142
0.0
143
0.0393700787401575
144
25.4
145
0.0
146
1.0
147
0.09
 71
     0
 72
     0
 73
     1
 74
     1
 75
     0
 76
     0
 77
     0
 78
    11
170
     0
171
     3
172
     0
173
     0
174
     0
175
     0
176
     7
177
     7
178
     7
179
     1
270
     2
271
     2
272
     2
273
     2
274
     3
340
73
275
     0
280
     0
281
     0
282
     0
283
     1
284
    11
285
    11
286
     0
287
     3
288
     1
  0
DIMSTYLE
105
23E
330
A
100
AcDbSymbolTableRecord
100
AcDbDimStyleTableRecord
  2
ONSHAPE-STANDARD$7
 70
     0
  3

  4

  5

  6

  7

 40
25.4
 41
0.18
 42
0.0625
 43
0.38
 44
0.08
 45
0.0
 46
0.0
 47
0.0
 48
0.0
140
0.12
141
0.09
142
0.0
143
0.0393700787401575
144
25.4
145
0.0
146
1.0
147
0.09
 71
     0
 72
     0
 73
     1
 74
     1
 75
     0
 76
     0
 77
     0
 78
    11
170
     0
171
     3
172
     0
173
     0
174
     0
175
     0
176
     7
177
     7
178
     7
179
     1
270
     2
271
     2
272
     2
273
     2
274
     3
340
73
275
     0
280
     0
281
     0
282
     0
283
     1
284
    11
285
    11
286
     0
287
     3
288
     1
  0
DIMSTYLE
105
23F
330
A
100
AcDbSymbolTableRecord
100
AcDbDimStyleTableRecord
  2
ONSHAPE-STANDARD-GTOLERANC
 70
     0
  3

  4

  5

  6

  7

 40
1.0
 41
0.18
 42
0.0625
 43
0.38
 44
0.08
 45
0.0
 46
0.0
 47
0.0
 48
0.0
140
0.12
141
0.09
142
0.0
143
0.0393700787401575
144
25.4
145
0.0
146
1.0
147
0.09
 71
     0
 72
     0
 73
     1
 74
     1
 75
     0
 76
     0
 77
     0
 78
    11
170
     0
171
     3
172
     0
173
     0
174
     0
175
     0
176
     7
177
     7
178
     7
179
     1
270
     2
271
     2
272
     2
273
     2
274
     3
340
215
275
     0
280
     0
281
     0
282
     0
283
     1
284
    11
285
    11
286
     0
287
     3
288
     1
  0
DIMSTYLE
105
241
330
A
100
AcDbSymbolTableRecord
100
AcDbDimStyleTableRecord
  2
ONSHAPE-ORDINATESTYLE
 70
     0
  3

  4

  5

  6

  7

 40
25.4
 41
0.02
 42
0.0625
 43
0.38
 44
0.08
 45
0.0
 46
0.0
 47
0.0
 48
0.0
140
0.12
141
0.09
142
0.0
143
0.0393700787401575
144
25.4
145
0.0
146
1.0
147
0.09
 71
     0
 72
     0
 73
     1
 74
     1
 75
     0
 76
     0
 77
     0
 78
    11
170
     0
171
     3
172
     0
173
     0
174
     0
175
     0
176
     7
177
     7
178
     7
179
     1
270
     2
271
     2
272
     2
273
     2
274
     3
340
73
275
     0
280
     0
281
     0
282
     0
283
     1
284
    11
285
    11
286
     0
287
     3
288
     1
  0
DIMSTYLE
105
242
330
A
100
AcDbSymbolTableRecord
100
AcDbDimStyleTableRecord
  2
ONSHAPE-CHAMFERDIMSTYLE
 70
     0
  3

  4

  5

  6

  7

 40
25.4
 41
0.18
 42
0.0625
 43
0.38
 44
0.08
 45
0.0
 46
0.0
 47
0.0
 48
0.0
140
0.12
141
0.09
142
0.0
143
0.0393700787401575
144
25.4
145
0.0
146
1.0
147
0.09
 71
     0
 72
     0
 73
     1
 74
     1
 75
     0
 76
     0
 77
     0
 78
    11
170
     0
171
     3
172
     0
173
     0
174
     0
175
     0
176
     7
177
     7
178
     7
179
     1
270
     2
271
     2
272
     2
273
     2
274
     3
340
73
275
     0
280
     0
281
     0
282
     0
283
     1
284
    11
285
    11
286
     0
287
     3
288
     1
  0
DIMSTYLE
105
243
330
A
100
AcDbSymbolTableRecord
100
AcDbDimStyleTableRecord
  2
ONSHAPE-SKETCHDRIVENDIMSTY
 70
     0
  3

  4

  5

  6

  7

 40
25.4
 41
0.18
 42
0.0625
 43
0.38
 44
0.08
 45
0.0
 46
0.0
 47
0.0
 48
0.0
140
0.12
141
0.09
142
0.0
143
0.0393700787401575
144
25.4
145
0.0
146
1.0
147
0.09
 71
     0
 72
     0
 73
     1
 74
     1
 75
     0
 76
     0
 77
     0
 78
    11
170
     0
171
     3
172
     0
173
     0
174
     0
175
     0
176
   251
177
   251
178
   251
179
     1
270
     2
271
     2
272
     2
273
     2
274
     3
340
73
275
     0
280
     0
281
     0
282
     0
283
     1
284
    11
285
    11
286
     0
287
     3
288
     1
  0
DIMSTYLE
105
244
330
A
100
AcDbSymbolTableRecord
100
AcDbDimStyleTableRecord
  2
ONSHAPE-SKETCHDRIVENDIMST0
 70
     0
  3

  4

  5

  6

  7

 40
25.4
 41
0.18
 42
0.0625
 43
0.38
 44
0.08
 45
0.0
 46
0.0
 47
0.0
 48
0.0
140
0.12
141
0.09
142
0.0
143
0.0393700787401575
144
25.4
145
0.0
146
1.0
147
0.09
 71
     0
 72
     0
 73
     1
 74
     1
 75
     0
 76
     0
 77
     0
 78
    11
170
     0
171
     3
172
     0
173
     0
174
     0
175
     0
176
   251
177
   251
178
   251
179
     1
270
     2
271
     2
272
     2
273
     2
274
     3
340
73
275
     0
280
     0
281
     0
282
     0
283
     1
284
    11
285
    11
286
     0
287
     3
288
     1
  0
DIMSTYLE
105
245
330
A
100
AcDbSymbolTableRecord
100
AcDbDimStyleTableRecord
  2
ONSHAPE-SKETCHDRIVENDIMST1
 70
     0
  3

  4

  5

  6

  7

 40
25.4
 41
0.18
 42
0.0625
 43
0.38
 44
0.08
 45
0.0
 46
0.0
 47
0.0
 48
0.0
140
0.12
141
0.0
142
0.0
143
0.0393700787401575
144
25.4
145
0.0
146
1.0
147
0.09
 71
     0
 72
     0
 73
     1
 74
     1
 75
     0
 76
     0
 77
     0
 78
    11
170
     0
171
     3
172
     0
173
     0
174
     0
175
     0
176
   251
177
   251
178
   251
179
     1
270
     2
271
     2
272
     2
273
     2
274
     3
340
73
275
     0
280
     0
281
     0
282
     0
283
     1
284
    11
285
    11
286
     0
287
     3
288
     1
  0
DIMSTYLE
105
246
330
A
100
AcDbSymbolTableRecord
100
AcDbDimStyleTableRecord
  2
ONSHAPE-SKETCHDRIVENDIMST2
 70
     0
  3

  4

  5

  6

  7

 40
25.4
 41
0.18
 42
0.0625
 43
0.38
 44
0.08
 45
0.0
 46
0.0
 47
0.0
 48
0.0
140
0.12
141
0.0
142
0.0
143
0.0393700787401575
144
25.4
145
0.0
146
1.0
147
0.09
 71
     0
 72
     0
 73
     1
 74
     1
 75
     0
 76
     0
 77
     0
 78
    11
170
     0
171
     3
172
     0
173
     0
174
     0
175
     0
176
   251
177
   251
178
   251
179
     1
270
     2
271
     2
272
     2
273
     2
274
     3
340
73
275
     0
280
     0
281
     0
282
     0
283
     1
284
    11
285
    11
286
     0
287
     3
288
     1
  0
ENDTAB
  0
TABLE
  2
BLOCK_RECORD
  5
1
330
0
100
AcDbSymbolTable
 70
     6
  0
BLOCK_RECORD
  5
1F
330
1
100
AcDbSymbolTableRecord
100
AcDbBlockTableRecord
  2
*MODEL_SPACE
  0
BLOCK_RECORD
  5
1B
330
1
100
AcDbSymbolTableRecord
100
AcDbBlockTableRecord
  2
*PAPER_SPACE
  0
BLOCK_RECORD
  5
155
330
1
100
AcDbSymbolTableRecord
100
AcDbBlockTableRecord
  2
*D1
  0
BLOCK_RECORD
  5
172
330
1
100
AcDbSymbolTableRecord
100
AcDbBlockTableRecord
  2
*D2
  0
BLOCK_RECORD
  5
18F
330
1
100
AcDbSymbolTableRecord
100
AcDbBlockTableRecord
  2
*D3
  0
BLOCK_RECORD
  5
1A8
330
1
100
AcDbSymbolTableRecord
100
AcDbBlockTableRecord
  2
*D4
  0
BLOCK_RECORD
  5
1C6
330
1
100
AcDbSymbolTableRecord
100
AcDbBlockTableRecord
  2
*D5
  0
BLOCK_RECORD
  5
1EB
330
1
100
AcDbSymbolTableRecord
100
AcDbBlockTableRecord
  2
*D6
  0
ENDTAB
  0
ENDSEC
  0
SECTION
  2
BLOCKS
  0
BLOCK
  5
20
330
1F
100
AcDbEntity
  8
0
100
AcDbBlockBegin
  2
*MODEL_SPACE
 70
     0
 10
0.0
 20
0.0
 30
0.0
  3
*MODEL_SPACE
  1

  0
ENDBLK
  5
21
330
1F
100
AcDbEntity
  8
0
100
AcDbBlockEnd
  0
BLOCK
  5
1C
330
1B
100
AcDbEntity
 67
     1
  8
0
100
AcDbBlockBegin
  2
*PAPER_SPACE
 70
     0
 10
0.0
 20
0.0
 30
0.0
  3
*PAPER_SPACE
  1

  0
ENDBLK
  5
1D
330
1B
100
AcDbEntity
 67
     1
  8
0
100
AcDbBlockEnd
  0
BLOCK
  5
156
330
155
100
AcDbEntity
  8
0
100
AcDbBlockBegin
  2
*D1
 70
     1
 10
0.0
 20
0.0
 30
0.0
  3
*D1
  1

  0
LINE
  5
157
330
155
100
AcDbEntity
  8
ANNOTATION_TEXT
 62
     7
100
AcDbLine
 10
30.89141340531334
 20
172.7937264406444
 30
0.0
 11
13.36138007872114
 21
172.7937264406444
 31
0.0
1001
INDEX
1070
     0
  0
LINE
  5
159
330
155
100
AcDbEntity
  8
ANNOTATION_TEXT
 62
     7
100
AcDbLine
 10
30.89141340531334
 20
112.7937264406445
 30
0.0
 11
13.36138007872114
 21
112.7937264406445
 31
0.0
1001
INDEX
1070
     1
  0
LINE
  5
15A
330
155
100
AcDbEntity
  8
ANNOTATION_TEXT
 62
     7
100
AcDbLine
 10
15.39338007872114
 20
168.2217264406444
 30
0.0
 11
15.39338007872114
 21
130.7941117833718
 31
0.0
1001
INDEX
1070
     3
  0
LINE
  5
15B
330
155
100
AcDbEntity
  8
ANNOTATION_TEXT
 62
     7
100
AcDbLine
 10
15.39338007872114
 20
117.3657264406445
 30
0.0
 11
15.39338007872114
 21
123.0972888950885
 31
0.0
1001
INDEX
1070
     3
  0
SOLID
  5
15C
330
155
100
AcDbEntity
  8
ANNOTATION_TEXT
 62
     7
100
AcDbTrace
 10
16.15538007872114
 20
168.2217264406444
 30
0.0
 11
14.63138007872114
 21
168.2217264406444
 31
0.0
 12
15.39338007872114
 22
172.7937264406444
 32
0.0
 13
15.39338007872114
 23
172.7937264406444
 33
0.0
  0
SOLID
  5
15D
330
155
100
AcDbEntity
  8
ANNOTATION_TEXT
 62
     7
100
AcDbTrace
 10
14.63138007872114
 20
117.3657264406445
 30
0.0
 11
16.15538007872114
 21
117.3657264406445
 31
0.0
 12
15.39338007872114
 22
112.7937264406445
 32
0.0
 13
15.39338007872114
 23
112.7937264406445
 33
0.0
  0
MTEXT
  5
15E
330
155
100
AcDbEntity
  8
ANNOTATION_TEXT
 62
     7
100
AcDbMText
 10
15.39338007872114
 20
126.9457003392302
 30
0.0
 40
3.048
 41
0.0
 71
     5
 72
     1
  1
\A1;30
  7
ONSHAPE-STANDARD-DIMENSION
  0
POINT
  5
15F
330
155
100
AcDbEntity
  8
DEFPOINTS
 62
     0
100
AcDbPoint
 10
32.47891340531334
 20
172.7937264406444
 30
0.0
  0
POINT
  5
160
330
155
100
AcDbEntity
  8
DEFPOINTS
 62
     0
100
AcDbPoint
 10
32.47891340531334
 20
112.7937264406445
 30
0.0
  0
POINT
  5
161
330
155
100
AcDbEntity
  8
DEFPOINTS
 62
     0
100
AcDbPoint
 10
15.39338007872114
 20
112.7937264406445
 30
0.0
  0
POINT
  5
162
330
155
100
AcDbEntity
  8
DEFPOINTS
 62
     0
100
AcDbPoint
 10
15.39338007872114
 20
112.7937264406445
 30
0.0
  0
ENDBLK
  5
163
330
155
100
AcDbEntity
  8
0
100
AcDbBlockEnd
  0
BLOCK
  5
173
330
172
100
AcDbEntity
  8
0
100
AcDbBlockBegin
  2
*D2
 70
     1
 10
0.0
 20
0.0
 30
0.0
  3
*D2
  1

  0
LINE
  5
174
330
172
100
AcDbEntity
  8
ANNOTATION_TEXT
 62
     7
100
AcDbLine
 10
52.47891340531334
 20
111.2062264406445
 30
0.0
 11
52.47891340531334
 21
95.17150557951395
 31
0.0
1001
INDEX
1070
     0
  0
LINE
  5
176
330
172
100
AcDbEntity
  8
ANNOTATION_TEXT
 62
     7
100
AcDbLine
 10
32.47891340531334
 20
111.2062264406445
 30
0.0
 11
32.47891340531334
 21
95.17150557951395
 31
0.0
1001
INDEX
1070
     1
  0
LINE
  5
177
330
172
100
AcDbEntity
  8
ANNOTATION_TEXT
 62
     7
100
AcDbLine
 10
57.05091340531334
 20
97.20350557951394
 30
0.0
 11
61.62291340531334
 21
97.20350557951394
 31
0.0
1001
INDEX
1070
     3
  0
LINE
  5
178
330
172
100
AcDbEntity
  8
ANNOTATION_TEXT
 62
     7
100
AcDbLine
 10
27.90691340531334
 20
97.20350557951394
 30
0.0
 11
23.33491340531334
 21
97.20350557951394
 31
0.0
1001
INDEX
1070
     3
  0
SOLID
  5
179
330
172
100
AcDbEntity
  8
ANNOTATION_TEXT
 62
     7
100
AcDbTrace
 10
57.05091340531334
 20
97.96550557951394
 30
0.0
 11
57.05091340531334
 21
96.44150557951394
 31
0.0
 12
52.47891340531334
 22
97.20350557951394
 32
0.0
 13
52.47891340531334
 23
97.20350557951394
 33
0.0
  0
SOLID
  5
17A
330
172
100
AcDbEntity
  8
ANNOTATION_TEXT
 62
     7
100
AcDbTrace
 10
27.90691340531334
 20
96.44150557951394
 30
0.0
 11
27.90691340531334
 21
97.96550557951394
 31
0.0
 12
32.47891340531334
 22
97.20350557951394
 32
0.0
 13
32.47891340531334
 23
97.20350557951394
 33
0.0
  0
MTEXT
  5
17B
330
172
100
AcDbEntity
  8
ANNOTATION_TEXT
 62
     7
100
AcDbMText
 10
47.55735634417126
 20
97.20350557951394
 30
0.0
 40
3.048
 41
0.0
 71
     5
 72
     1
  1
\A1;10
  7
ONSHAPE-STANDARD-DIMENSION
  0
POINT
  5
17C
330
172
100
AcDbEntity
  8
DEFPOINTS
 62
     0
100
AcDbPoint
 10
52.47891340531334
 20
112.7937264406445
 30
0.0
  0
POINT
  5
17D
330
172
100
AcDbEntity
  8
DEFPOINTS
 62
     0
100
AcDbPoint
 10
32.47891340531334
 20
112.7937264406445
 30
0.0
  0
POINT
  5
17E
330
172
100
AcDbEntity
  8
DEFPOINTS
 62
     0
100
AcDbPoint
 10
32.47891340531334
 20
97.20350557951394
 30
0.0
  0
POINT
  5
17F
330
172
100
AcDbEntity
  8
DEFPOINTS
 62
     0
100
AcDbPoint
 10
32.47891340531334
 20
97.20350557951394
 30
0.0
  0
ENDBLK
  5
180
330
172
100
AcDbEntity
  8
0
100
AcDbBlockEnd
  0
BLOCK
  5
190
330
18F
100
AcDbEntity
  8
0
100
AcDbBlockBegin
  2
*D3
 70
     1
 10
0.0
 20
0.0
 30
0.0
  3
*D3
  1

  0
LINE
  5
191
330
18F
100
AcDbEntity
  8
ANNOTATION_TEXT
 62
     7
100
AcDbLine
 10
80.37591647938935
 20
108.6158845016864
 30
0.0
 11
74.00792192898066
 21
108.6158845016864
 31
0.0
1001
INDEX
1070
     3
  0
LINE
  5
193
330
18F
100
AcDbEntity
  8
ANNOTATION_TEXT
 62
     7
100
AcDbLine
 10
74.00792192898066
 20
108.6158845016864
 30
0.0
 11
64.6489707499971
 21
114.7791841438499
 31
0.0
1001
INDEX
1070
     3
  0
MTEXT
  5
194
330
18F
100
AcDbEntity
  8
ANNOTATION_TEXT
 62
     7
100
AcDbMText
 10
87.93362765105147
 20
108.6158845016864
 30
0.0
 40
3.048
 41
0.0
 71
     5
 72
     1
  1
\A1;x2 R5
  7
ONSHAPE-STANDARD-DIMENSION
  0
SOLID
  5
195
330
18F
100
AcDbEntity
  8
ANNOTATION_TEXT
 62
     7
100
AcDbTrace
 10
65.06806773257722
 20
115.4155815976413
 30
0.0
 11
64.22987376741699
 21
114.1427866900585
 31
0.0
 12
60.83058602724839
 22
117.2937660393306
 32
0.0
 13
60.83058602724839
 23
117.2937660393306
 33
0.0
  0
POINT
  5
196
330
18F
100
AcDbEntity
  8
DEFPOINTS
 62
     0
100
AcDbPoint
 10
60.83058602724839
 20
117.2937660393306
 30
0.0
  0
POINT
  5
197
330
18F
100
AcDbEntity
  8
DEFPOINTS
 62
     0
100
AcDbPoint
 10
52.47891340531334
 20
122.7937264406444
 30
0.0
  0
ENDBLK
  5
198
330
18F
100
AcDbEntity
  8
0
100
AcDbBlockEnd
  0
BLOCK
  5
1A9
330
1A8
100
AcDbEntity
  8
0
100
AcDbBlockBegin
  2
*D4
 70
     1
 10
0.0
 20
0.0
 30
0.0
  3
*D4
  1

  0
LINE
  5
1AA
330
1A8
100
AcDbEntity
  8
ANNOTATION_TEXT
 62
     7
100
AcDbLine
 10
136.9137297132645
 20
174.3812264406444
 30
0.0
 11
136.9137297132645
 21
181.9673457229507
 31
0.0
1001
INDEX
1070
     0
  0
LINE
  5
1AC
330
1A8
100
AcDbEntity
  8
ANNOTATION_TEXT
 62
     7
100
AcDbLine
 10
142.9137297132645
 20
174.3812264406444
 30
0.0
 11
142.9137297132645
 21
181.9673457229507
 31
0.0
1001
INDEX
1070
     1
  0
LINE
  5
1AD
330
1A8
100
AcDbEntity
  8
ANNOTATION_TEXT
 62
     7
100
AcDbLine
 10
142.9137297132645
 20
179.9353457229507
 30
0.0
 11
155.061089386289
 21
179.9353457229507
 31
0.0
  0
LINE
  5
1AE
330
1A8
100
AcDbEntity
  8
ANNOTATION_TEXT
 62
     7
100
AcDbLine
 10
132.3417297132645
 20
179.9353457229507
 30
0.0
 11
127.7697297132645
 21
179.9353457229507
 31
0.0
1001
INDEX
1070
     3
  0
LINE
  5
1AF
330
1A8
100
AcDbEntity
  8
ANNOTATION_TEXT
 62
     7
100
AcDbLine
 10
147.4857297132645
 20
179.9353457229507
 30
0.0
 11
152.0577297132645
 21
179.9353457229507
 31
0.0
1001
INDEX
1070
     3
  0
SOLID
  5
1B0
330
1A8
100
AcDbEntity
  8
ANNOTATION_TEXT
 62
     7
100
AcDbTrace
 10
132.3417297132645
 20
179.1733457229507
 30
0.0
 11
132.3417297132645
 21
180.6973457229507
 31
0.0
 12
136.9137297132645
 22
179.9353457229507
 32
0.0
 13
136.9137297132645
 23
179.9353457229507
 33
0.0
  0
SOLID
  5
1B1
330
1A8
100
AcDbEntity
  8
ANNOTATION_TEXT
 62
     7
100
AcDbTrace
 10
147.4857297132645
 20
180.6973457229507
 30
0.0
 11
147.4857297132645
 21
179.1733457229507
 31
0.0
 12
142.9137297132645
 22
179.9353457229507
 32
0.0
 13
142.9137297132645
 23
179.9353457229507
 33
0.0
  0
MTEXT
  5
1B2
330
1A8
100
AcDbEntity
  8
ANNOTATION_TEXT
 62
     7
100
AcDbMText
 10
158.3468250811119
 20
179.9353457229507
 30
0.0
 40
3.048
 41
0.0
 71
     5
 72
     1
  1
\A1;3
  7
ONSHAPE-STANDARD-DIMENSION
  0
POINT
  5
1B3
330
1A8
100
AcDbEntity
  8
DEFPOINTS
 62
     0
100
AcDbPoint
 10
136.9137297132645
 20
172.7937264406444
 30
0.0
  0
POINT
  5
1B4
330
1A8
100
AcDbEntity
  8
DEFPOINTS
 62
     0
100
AcDbPoint
 10
142.9137297132645
 20
172.7937264406444
 30
0.0
  0
POINT
  5
1B5
330
1A8
100
AcDbEntity
  8
DEFPOINTS
 62
     0
100
AcDbPoint
 10
142.9137297132645
 20
179.9353457229507
 30
0.0
  0
POINT
  5
1B6
330
1A8
100
AcDbEntity
  8
DEFPOINTS
 62
     0
100
AcDbPoint
 10
142.9137297132645
 20
179.9353457229507
 30
0.0
  0
ENDBLK
  5
1B7
330
1A8
100
AcDbEntity
  8
0
100
AcDbBlockEnd
  0
BLOCK
  5
1C7
330
1C6
100
AcDbEntity
  8
0
100
AcDbBlockBegin
  2
*D5
 70
     1
 10
0.0
 20
0.0
 30
0.0
  3
*D5
  1

  0
LINE
  5
1C8
330
1C6
100
AcDbEntity
  8
ANNOTATION_TEXT
 62
     7
100
AcDbLine
 10
64.06641340531333
 20
162.7937264406445
 30
0.0
 11
75.2521582469204
 21
162.7937264406445
 31
0.0
1001
INDEX
1070
     0
  0
LINE
  5
1CA
330
1C6
100
AcDbEntity
  8
ANNOTATION_TEXT
 62
     7
100
AcDbLine
 10
64.06641340531333
 20
122.7937264406444
 30
0.0
 11
75.2521582469204
 21
122.7937264406444
 31
0.0
1001
INDEX
1070
     1
  0
LINE
  5
1CB
330
1C6
100
AcDbEntity
  8
ANNOTATION_TEXT
 62
     7
100
AcDbLine
 10
73.2201582469204
 20
158.2217264406445
 30
0.0
 11
73.2201582469204
 21
135.7941117833718
 31
0.0
1001
INDEX
1070
     3
  0
LINE
  5
1CC
330
1C6
100
AcDbEntity
  8
ANNOTATION_TEXT
 62
     7
100
AcDbLine
 10
73.2201582469204
 20
127.3657264406444
 30
0.0
 11
73.2201582469204
 21
128.0972888950884
 31
0.0
1001
INDEX
1070
     3
  0
SOLID
  5
1CD
330
1C6
100
AcDbEntity
  8
ANNOTATION_TEXT
 62
     7
100
AcDbTrace
 10
73.9821582469204
 20
158.2217264406445
 30
0.0
 11
72.4581582469204
 21
158.2217264406445
 31
0.0
 12
73.2201582469204
 22
162.7937264406445
 32
0.0
 13
73.2201582469204
 23
162.7937264406445
 33
0.0
  0
SOLID
  5
1CE
330
1C6
100
AcDbEntity
  8
ANNOTATION_TEXT
 62
     7
100
AcDbTrace
 10
72.4581582469204
 20
127.3657264406444
 30
0.0
 11
73.9821582469204
 21
127.3657264406444
 31
0.0
 12
73.2201582469204
 22
122.7937264406444
 32
0.0
 13
73.2201582469204
 23
122.7937264406444
 33
0.0
  0
MTEXT
  5
1CF
330
1C6
100
AcDbEntity
  8
ANNOTATION_TEXT
 62
     7
100
AcDbMText
 10
73.2201582469204
 20
131.9457003392301
 30
0.0
 40
3.048
 41
0.0
 71
     5
 72
     1
  1
\A1;20
  7
ONSHAPE-STANDARD-DIMENSION
  0
POINT
  5
1D0
330
1C6
100
AcDbEntity
  8
DEFPOINTS
 62
     0
100
AcDbPoint
 10
62.47891340531333
 20
162.7937264406445
 30
0.0
  0
POINT
  5
1D1
330
1C6
100
AcDbEntity
  8
DEFPOINTS
 62
     0
100
AcDbPoint
 10
62.47891340531333
 20
122.7937264406444
 30
0.0
  0
POINT
  5
1D2
330
1C6
100
AcDbEntity
  8
DEFPOINTS
 62
     0
100
AcDbPoint
 10
73.2201582469204
 20
122.7937264406444
 30
0.0
  0
POINT
  5
1D3
330
1C6
100
AcDbEntity
  8
DEFPOINTS
 62
     0
100
AcDbPoint
 10
73.2201582469204
 20
122.7937264406444
 30
0.0
  0
ENDBLK
  5
1D4
330
1C6
100
AcDbEntity
  8
0
100
AcDbBlockEnd
  0
BLOCK
  5
1EC
330
1EB
100
AcDbEntity
  8
0
100
AcDbBlockBegin
  2
*D6
 70
     1
 10
0.0
 20
0.0
 30
0.0
  3
*D6
  1

  0
LINE
  5
1ED
330
1EB
100
AcDbEntity
  8
ANNOTATION_TEXT
 62
     7
100
AcDbLine
 10
62.47891340531333
 20
164.3812264406445
 30
0.0
 11
62.47891340531333
 21
189.6325163659576
 31
0.0
1001
INDEX
1070
     0
  0
LINE
  5
1EF
330
1EB
100
AcDbEntity
  8
ANNOTATION_TEXT
 62
     7
100
AcDbLine
 10
32.47891340531334
 20
174.3812264406444
 30
0.0
 11
32.47891340531334
 21
189.6325163659576
 31
0.0
1001
INDEX
1070
     1
  0
LINE
  5
1F0
330
1EB
100
AcDbEntity
  8
ANNOTATION_TEXT
 62
     7
100
AcDbLine
 10
57.90691340531333
 20
187.6005163659576
 30
0.0
 11
51.88688615735694
 21
187.6005163659576
 31
0.0
1001
INDEX
1070
     3
  0
LINE
  5
1F1
330
1EB
100
AcDbEntity
  8
ANNOTATION_TEXT
 62
     7
100
AcDbLine
 10
37.05091340531334
 20
187.6005163659576
 30
0.0
 11
43.07094065326974
 21
187.6005163659576
 31
0.0
1001
INDEX
1070
     3
  0
SOLID
  5
1F2
330
1EB
100
AcDbEntity
  8
ANNOTATION_TEXT
 62
     7
100
AcDbTrace
 10
57.90691340531333
 20
186.8385163659576
 30
0.0
 11
57.90691340531333
 21
188.3625163659576
 31
0.0
 12
62.47891340531333
 22
187.6005163659576
 32
0.0
 13
62.47891340531333
 23
187.6005163659576
 33
0.0
  0
SOLID
  5
1F3
330
1EB
100
AcDbEntity
  8
ANNOTATION_TEXT
 62
     7
100
AcDbTrace
 10
37.05091340531334
 20
188.3625163659576
 30
0.0
 11
37.05091340531334
 21
186.8385163659576
 31
0.0
 12
32.47891340531334
 22
187.6005163659576
 32
0.0
 13
32.47891340531334
 23
187.6005163659576
 33
0.0
  0
MTEXT
  5
1F4
330
1EB
100
AcDbEntity
  8
ANNOTATION_TEXT
 62
     7
100
AcDbMText
 10
47.47891340531334
 20
187.6005163659576
 30
0.0
 40
3.048
 41
0.0
 71
     5
 72
     1
  1
\A1;15
  7
ONSHAPE-STANDARD-DIMENSION
  0
POINT
  5
1F5
330
1EB
100
AcDbEntity
  8
DEFPOINTS
 62
     0
100
AcDbPoint
 10
62.47891340531333
 20
162.7937264406445
 30
0.0
  0
POINT
  5
1F6
330
1EB
100
AcDbEntity
  8
DEFPOINTS
 62
     0
100
AcDbPoint
 10
32.47891340531334
 20
172.7937264406444
 30
0.0
  0
POINT
  5
1F7
330
1EB
100
AcDbEntity
  8
DEFPOINTS
 62
     0
100
AcDbPoint
 10
32.47891340531334
 20
187.6005163659576
 30
0.0
  0
POINT
  5
1F8
330
1EB
100
AcDbEntity
  8
DEFPOINTS
 62
     0
100
AcDbPoint
 10
32.47891340531334
 20
187.6005163659576
 30
0.0
  0
ENDBLK
  5
1F9
330
1EB
100
AcDbEntity
  8
0
100
AcDbBlockEnd
  0
ENDSEC
  0
SECTION
  2
ENTITIES
  0
LINE
  5
76
330
1F
100
AcDbEntity
  8
VISIBLE
100
AcDbLine
 10
32.47891340531334
 20
172.7937264406444
 30
0.0
 11
32.47891340531334
 21
112.7937264406445
 31
0.0
  0
LINE
  5
77
330
1F
100
AcDbEntity
  8
VISIBLE
100
AcDbLine
 10
52.47891340531334
 20
172.7937264406444
 30
0.0
 11
32.47891340531334
 21
172.7937264406444
 31
0.0
  0
ARC
  5
78
330
1F
100
AcDbEntity
  8
VISIBLE
100
AcDbCircle
 10
52.47891340531334
 20
162.7937264406445
 30
0.0000000000000006
 40
10.0
100
AcDbArc
 50
0.0000000000001628
 51
90.0
  0
LINE
  5
79
330
1F
100
AcDbEntity
  8
VISIBLE
100
AcDbLine
 10
62.47891340531333
 20
162.7937264406445
 30
0.0
 11
62.47891340531333
 21
122.7937264406444
 31
0.0
  0
ARC
  5
7A
330
1F
100
AcDbEntity
  8
VISIBLE
100
AcDbCircle
 10
52.47891340531334
 20
122.7937264406444
 30
-0.0000000000000006
 40
10.0
100
AcDbArc
 50
269.9999999999999
 51
0.0000000000001628
  0
LINE
  5
7B
330
1F
100
AcDbEntity
  8
VISIBLE
100
AcDbLine
 10
52.47891340531334
 20
112.7937264406445
 30
0.0
 11
32.47891340531334
 21
112.7937264406445
 31
0.0
  0
LINE
  5
7F
330
1F
100
AcDbEntity
  8
VISIBLE
100
AcDbLine
 10
136.9137297132645
 20
172.7937264406444
 30
0.0
 11
142.9137297132645
 21
172.7937264406444
 31
0.0
  0
LINE
  5
80
330
1F
100
AcDbEntity
  8
TANGENT_LINES
100
AcDbLine
 10
142.9137297132645
 20
162.7937264406444
 30
0.0
 11
136.9137297132645
 21
162.7937264406444
 31
0.0
  0
LINE
  5
81
330
1F
100
AcDbEntity
  8
VISIBLE
100
AcDbLine
 10
142.9137297132645
 20
172.7937264406445
 30
0.0
 11
142.9137297132645
 21
162.7937264406445
 31
0.0
  0
LINE
  5
82
330
1F
100
AcDbEntity
  8
VISIBLE
100
AcDbLine
 10
136.9137297132645
 20
162.7937264406445
 30
0.0
 11
136.9137297132645
 21
172.7937264406445
 31
0.0
  0
LINE
  5
83
330
1F
100
AcDbEntity
  8
TANGENT_LINES
100
AcDbLine
 10
136.9137297132645
 20
122.7937264406444
 30
0.0
 11
142.9137297132645
 21
122.7937264406444
 31
0.0
  0
LINE
  5
84
330
1F
100
AcDbEntity
  8
VISIBLE
100
AcDbLine
 10
142.9137297132645
 20
162.7937264406444
 30
0.0
 11
142.9137297132645
 21
122.7937264406444
 31
0.0
  0
LINE
  5
85
330
1F
100
AcDbEntity
  8
VISIBLE
100
AcDbLine
 10
136.9137297132645
 20
162.7937264406444
 30
0.0
 11
136.9137297132645
 21
122.7937264406444
 31
0.0
  0
LINE
  5
86
330
1F
100
AcDbEntity
  8
VISIBLE
100
AcDbLine
 10
142.9137297132645
 20
112.7937264406445
 30
0.0
 11
136.9137297132645
 21
112.7937264406445
 31
0.0
  0
LINE
  5
87
330
1F
100
AcDbEntity
  8
VISIBLE
100
AcDbLine
 10
142.9137297132645
 20
122.7937264406444
 30
0.0
 11
142.9137297132645
 21
112.7937264406444
 31
0.0
  0
LINE
  5
88
330
1F
100
AcDbEntity
  8
VISIBLE
100
AcDbLine
 10
136.9137297132645
 20
112.7937264406444
 30
0.0
 11
136.9137297132645
 21
122.7937264406444
 31
0.0
  0
LINE
  5
8C
330
1F
100
AcDbEntity
  8
VISIBLE
100
AcDbLine
 10
202.6915019961827
 20
106.4744202374281
 30
0.0
 11
188.5493663724517
 21
114.6393860467054
 31
0.0
  0
LINE
  5
8D
330
1F
100
AcDbEntity
  8
VISIBLE
100
AcDbLine
 10
209.7625698080482
 20
94.22697152351222
 30
0.0
 11
209.7625698080482
 21
61.56710828640318
 31
0.0
  0
LINE
  5
8E
330
1F
100
AcDbEntity
  8
TANGENT_LINES
100
AcDbLine
 10
205.5199291209289
 20
59.11761854362001
 30
0.0
 11
209.7625698080482
 21
61.56710828640318
 31
0.0
  0
LINE
  5
8F
330
1F
100
AcDbEntity
  8
VISIBLE
100
AcDbLine
 10
198.4488613090634
 20
104.0249304946449
 30
0.0
 11
184.3067256853325
 21
112.1898963039222
 31
0.0
  0
LINE
  5
90
330
1F
100
AcDbEntity
  8
VISIBLE
100
AcDbLine
 10
205.5199291209289
 20
91.77748178072905
 30
0.0
 11
205.5199291209289
 21
59.11761854362001
 31
0.0
  0
LINE
  5
91
330
1F
100
AcDbEntity
  8
VISIBLE
100
AcDbLine
 10
184.3067256853325
 20
112.1898963039222
 30
0.0
 11
184.3067256853324
 21
63.20010144825863
 31
0.0
  0
LINE
  5
92
330
1F
100
AcDbEntity
  8
VISIBLE
100
AcDbLine
 10
198.4488613090634
 20
55.03513563898137
 30
0.0
 11
184.3067256853324
 21
63.20010144825863
 31
0.0
  0
LINE
  5
93
330
1F
100
AcDbEntity
  8
VISIBLE
100
AcDbLine
 10
203.4488613090634
 20
54.53984741041425
 30
0.0
 11
207.6915019961827
 21
56.98933715319742
 31
0.0
  0
LINE
  5
94
330
1F
100
AcDbEntity
  8
TANGENT_LINES
100
AcDbLine
 10
198.4488613090634
 20
104.0249304946449
 30
0.0
 11
202.6915019961827
 21
106.4744202374281
 31
0.0
  0
LINE
  5
95
330
1F
100
AcDbEntity
  8
VISIBLE
100
AcDbLine
 10
184.3067256853325
 20
112.1898963039222
 30
0.0
 11
188.5493663724517
 21
114.6393860467054
 31
0.0
  0
LINE
  5
96
330
1F
100
AcDbEntity
  8
TANGENT_LINES
100
AcDbLine
 10
209.7625698080482
 20
94.22697152351222
 30
0.0
 11
205.5199291209289
 21
91.77748178072905
 31
0.0
  0
ELLIPSE
  5
97
330
1F
100
AcDbEntity
  8
VISIBLE
100
AcDbEllipse
 10
202.6915019961827
 20
65.64959119104182
 30
0.0
 11
-4.999999999999996
 21
8.660254037844389
 31
0.0
210
0.0
220
0.0
230
-1.0
 40
0.5773502691896258
 41
2.356194490192349
 42
3.141592653589793
  0
ELLIPSE
  5
98
330
1F
100
AcDbEntity
  8
VISIBLE
100
AcDbEllipse
 10
202.6915019961827
 20
98.30945442815084
 30
0.0
 11
-4.999999999999996
 21
8.660254037844389
 31
0.0
210
0.0
220
0.0
230
-1.0
 40
0.5773502691896258
 41
0.7853981633974475
 42
2.356194490192345
  0
ELLIPSE
  5
99
330
1F
100
AcDbEntity
  8
VISIBLE
100
AcDbEllipse
 10
198.4488613090634
 20
95.85996468536766
 30
0.0
 11
4.999999999999996
 21
-8.660254037844389
 31
0.0
210
0.0
220
0.0
230
1.0
 40
0.5773502691896258
 41
0.7853981633974492
 42
2.356194490192347
  0
ELLIPSE
  5
9A
330
1F
100
AcDbEntity
  8
VISIBLE
100
AcDbEllipse
 10
198.4488613090634
 20
63.20010144825863
 30
0.0
 11
4.999999999999996
 21
-8.660254037844389
 31
0.0
210
0.0
220
0.0
230
1.0
 40
0.5773502691896258
 41
11.78097245096172
 42
13.35176877775662
  0
LINE
  5
9B
330
1F
100
AcDbEntity
  8
BORDER_FRAME
100
AcDbLine
 10
10.1346
 20
9.652
 30
0.0
 11
10.1346
 21
206.248
 31
0.0
  0
LINE
  5
9E
102
{ACAD_REACTORS
330
1E5
102
}
330
1F
100
AcDbEntity
  8
BORDER_FRAME
100
AcDbLine
 10
10.1346
 20
206.248
 30
0.0
 11
270.2306
 21
206.248
 31
0.0
  0
LINE
  5
9F
330
1F
100
AcDbEntity
  8
BORDER_FRAME
100
AcDbLine
 10
270.2306
 20
206.248
 30
0.0
 11
270.2306
 21
9.652
 31
0.0
  0
LINE
  5
A0
330
1F
100
AcDbEntity
  8
BORDER_FRAME
100
AcDbLine
 10
270.2306
 20
9.652
 30
0.0
 11
10.1346
 21
9.652
 31
0.0
  0
LINE
  5
A1
330
1F
100
AcDbEntity
  8
BORDER_ZONES
100
AcDbLine
 10
140.1826
 20
9.652
 30
0.0
 11
140.1826
 21
0.4826
 31
0.0
  0
LINE
  5
A3
330
1F
100
AcDbEntity
  8
BORDER_ZONES
100
AcDbLine
 10
140.1826
 20
206.248
 30
0.0
 11
140.1826
 21
215.4174
 31
0.0
  0
MTEXT
  5
A4
330
1F
100
AcDbEntity
  8
BORDER_ZONES
100
AcDbMText
 10
70.3326
 20
4.826
 30
0.0
 40
4.571999999999999
 41
0.0
 71
     5
 72
     1
  1
2
  7
ONSHAPE-STANDARD
  0
MTEXT
  5
A6
330
1F
100
AcDbEntity
  8
BORDER_ZONES
100
AcDbMText
 10
70.3326
 20
211.074
 30
0.0
 40
4.571999999999999
 41
0.0
 71
     5
 72
     1
  1
2
  7
ONSHAPE-STANDARD
  0
MTEXT
  5
A7
330
1F
100
AcDbEntity
  8
BORDER_ZONES
100
AcDbMText
 10
210.0326
 20
4.826
 30
0.0
 40
4.571999999999999
 41
0.0
 71
     5
 72
     1
  1
1
  7
ONSHAPE-STANDARD
  0
MTEXT
  5
A8
330
1F
100
AcDbEntity
  8
BORDER_ZONES
100
AcDbMText
 10
210.0326
 20
211.074
 30
0.0
 40
4.571999999999999
 41
0.0
 71
     5
 72
     1
  1
1
  7
ONSHAPE-STANDARD
  0
LINE
  5
A9
330
1F
100
AcDbEntity
  8
BORDER_ZONES
100
AcDbLine
 10
10.1346
 20
107.95
 30
0.0
 11
0.9652000000000001
 21
107.95
 31
0.0
  0
LINE
  5
AA
330
1F
100
AcDbEntity
  8
BORDER_ZONES
100
AcDbLine
 10
270.2306
 20
107.95
 30
0.0
 11
279.4
 21
107.95
 31
0.0
  0
MTEXT
  5
AB
330
1F
100
AcDbEntity
  8
BORDER_ZONES
100
AcDbMText
 10
5.308599999999999
 20
53.97499999999999
 30
0.0
 40
4.571999999999999
 41
0.0
 71
     5
 72
     1
  1
A
  7
ONSHAPE-STANDARD
  0
MTEXT
  5
AC
330
1F
100
AcDbEntity
  8
BORDER_ZONES
100
AcDbMText
 10
275.0565999999999
 20
53.97499999999999
 30
0.0
 40
4.571999999999999
 41
0.0
 71
     5
 72
     1
  1
A
  7
ONSHAPE-STANDARD
  0
MTEXT
  5
AD
330
1F
100
AcDbEntity
  8
BORDER_ZONES
100
AcDbMText
 10
5.308599999999999
 20
161.925
 30
0.0
 40
4.571999999999999
 41
0.0
 71
     5
 72
     1
  1
B
  7
ONSHAPE-STANDARD
  0
MTEXT
  5
AE
330
1F
100
AcDbEntity
  8
BORDER_ZONES
100
AcDbMText
 10
275.0565999999999
 20
161.925
 30
0.0
 40
4.571999999999999
 41
0.0
 71
     5
 72
     1
  1
B
  7
ONSHAPE-STANDARD
  0
LINE
  5
AF
330
1F
100
AcDbEntity
  8
TITLE_BLOCK
100
AcDbLine
 10
115.9256
 20
9.652
 30
0.0
 11
115.9256
 21
47.752
 31
0.0
  0
LINE
  5
B1
330
1F
100
AcDbEntity
  8
TITLE_BLOCK
100
AcDbLine
 10
115.9256
 20
9.652
 30
0.0
 11
146.4056
 21
9.652
 31
0.0
  0
LINE
  5
B2
330
1F
100
AcDbEntity
  8
TITLE_BLOCK
100
AcDbLine
 10
115.9256
 20
17.272
 30
0.0
 11
146.4056
 21
17.272
 31
0.0
  0
LINE
  5
B3
330
1F
100
AcDbEntity
  8
TITLE_BLOCK
100
AcDbLine
 10
115.9256
 20
20.32
 30
0.0
 11
146.4056
 21
20.32
 31
0.0
  0
LINE
  5
B4
330
1F
100
AcDbEntity
  8
TITLE_BLOCK
100
AcDbLine
 10
115.9256
 20
25.5016
 30
0.0
 11
146.4056
 21
25.5016
 31
0.0
  0
LINE
  5
B5
330
1F
100
AcDbEntity
  8
TITLE_BLOCK
100
AcDbLine
 10
115.9256
 20
29.9212
 30
0.0
 11
146.4056
 21
29.9212
 31
0.0
  0
LINE
  5
B6
330
1F
100
AcDbEntity
  8
TITLE_BLOCK
100
AcDbLine
 10
115.9256
 20
47.752
 30
0.0
 11
146.4056
 21
47.752
 31
0.0
  0
MTEXT
  5
B7
330
1F
100
AcDbEntity
  8
TITLE_BLOCK
100
AcDbMText
 10
116.59616
 20
46.65472
 30
0.0
 40
1.2192
 41
29.8704
 71
     1
 72
     1
  1
UNLESS OTHERWISE SPECIFIED, DIMENSIONS ARE IN MILLIMETERS
  7
ONSHAPE-STANDARD
  0
MTEXT
  5
B8
330
1F
100
AcDbEntity
  8
TITLE_BLOCK
100
AcDbMText
 10
131.769104
 20
42.192448
 30
0.0
 40
1.09728
 41
14.93519999999999
 71
     1
 72
     1
  1
^JANGULAR = ± °^J
  7
ONSHAPE-STANDARD
  0
MTEXT
  5
B9
330
1F
100
AcDbEntity
  8
TITLE_BLOCK
100
AcDbMText
 10
116.59616
 20
34.76752
 30
0.0
 40
1.2192
 41
14.93520000000001
 71
     1
 72
     1
  1
SURFACE FINISH
  7
ONSHAPE-STANDARD
  0
LINE
  5
BA
330
1F
100
AcDbEntity
  8
TITLE_BLOCK
100
AcDbLine
 10
129.6416
 20
32.9692
 30
0.0
 11
130.4036
 21
31.64937728463251
 31
0.0
  0
LINE
  5
BB
330
1F
100
AcDbEntity
  8
TITLE_BLOCK
100
AcDbLine
 10
130.4036
 20
31.64937728463251
 30
0.0
 11
132.0038
 21
34.42100498690424
 31
0.0
  0
LINE
  5
BC
330
1F
100
AcDbEntity
  8
TITLE_BLOCK
100
AcDbLine
 10
132.0038
 20
34.42100498690424
 30
0.0
 11
133.6802
 21
34.42100498690424
 31
0.0
  0
MTEXT
  5
BD
102
{ACAD_XDICTIONARY
360
289
102
}
330
1F
100
AcDbEntity
  8
TITLE_BLOCK
100
AcDbMText
 10
116.2304
 20
28.494736
 30
0.0
 40
1.58496
 41
29.8704
 71
     1
 72
     1
  1
{\fNoto Sans|b0|i0|c0|p0;\W8.76135;  }SCALE 1:1
  7
ONSHAPE-STANDARD
1001
ONSHAPE_NOTES_REORDERING_D
1071
        0
1070
     0
1001
ACAD
1000
ACAD_MTEXT_DEFINED_HEIGHT_BEGIN
1070
    46
1040
1.616270517711172
1000
ACAD_MTEXT_DEFINED_HEIGHT_END
  0
MTEXT
  5
C0
330
1F
100
AcDbEntity
  8
TITLE_BLOCK
100
AcDbMText
 10
131.1656
 20
24.40432
 30
0.0
 40
1.2192
 41
29.8704
 71
     2
 72
     1
  1
BREAK ALL SHARP EDGES AND REMOVE BURRS
  7
ONSHAPE-STANDARD
  0
CIRCLE
  5
C1
330
1F
100
AcDbEntity
  8
TITLE_BLOCK
100
AcDbCircle
 10
127.7366
 20
13.43152
 30
0.0
 40
1.3716
  0
CIRCLE
  5
C2
330
1F
100
AcDbEntity
  8
TITLE_BLOCK
100
AcDbCircle
 10
127.7366
 20
13.43152
 30
0.0
 40
2.7432
  0
LINE
  5
C3
330
1F
100
AcDbEntity
  8
TITLE_BLOCK
100
AcDbLine
 10
128.4224
 20
13.43152
 30
0.0
 11
127.0508
 21
13.43152
 31
0.0
  0
LINE
  5
C4
330
1F
100
AcDbEntity
  8
TITLE_BLOCK
100
AcDbLine
 10
127.7366
 20
14.11732
 30
0.0
 11
127.7366
 21
12.74572
 31
0.0
  0
LINE
  5
C5
330
1F
100
AcDbEntity
  8
TITLE_BLOCK
100
AcDbLine
 10
129.1082
 20
13.43152
 30
0.0
 11
131.1656
 21
13.43152
 31
0.0
  0
LINE
  5
C6
330
1F
100
AcDbEntity
  8
TITLE_BLOCK
100
AcDbLine
 10
127.7366
 20
14.80312
 30
0.0
 11
127.7366
 21
16.86052
 31
0.0
  0
LINE
  5
C7
330
1F
100
AcDbEntity
  8
TITLE_BLOCK
100
AcDbLine
 10
126.365
 20
13.43152
 30
0.0
 11
124.3076
 21
13.43152
 31
0.0
  0
LINE
  5
C8
330
1F
100
AcDbEntity
  8
TITLE_BLOCK
100
AcDbLine
 10
127.7366
 20
12.05992
 30
0.0
 11
127.7366
 21
10.00252
 31
0.0
  0
LINE
  5
C9
330
1F
100
AcDbEntity
  8
TITLE_BLOCK
100
AcDbLine
 10
137.3378
 20
10.68832
 30
0.0
 11
137.3378
 21
16.17472
 31
0.0
  0
LINE
  5
CA
330
1F
100
AcDbEntity
  8
TITLE_BLOCK
100
AcDbLine
 10
137.3378
 20
16.17472
 30
0.0
 11
131.8514
 21
14.80312
 31
0.0
  0
LINE
  5
CB
330
1F
100
AcDbEntity
  8
TITLE_BLOCK
100
AcDbLine
 10
131.8514
 20
14.80312
 30
0.0
 11
131.8514
 21
12.05992
 31
0.0
  0
LINE
  5
CC
330
1F
100
AcDbEntity
  8
TITLE_BLOCK
100
AcDbLine
 10
131.8514
 20
12.05992
 30
0.0
 11
137.3378
 21
10.68832
 31
0.0
  0
LINE
  5
CD
330
1F
100
AcDbEntity
  8
TITLE_BLOCK
100
AcDbLine
 10
135.2804
 20
13.43152
 30
0.0
 11
137.6807
 21
13.43152
 31
0.0
  0
LINE
  5
CE
330
1F
100
AcDbEntity
  8
TITLE_BLOCK
100
AcDbLine
 10
134.8689199999999
 20
13.43152
 30
0.0
 11
134.32028
 21
13.43152
 31
0.0
  0
LINE
  5
CF
330
1F
100
AcDbEntity
  8
TITLE_BLOCK
100
AcDbLine
 10
133.9088
 20
13.43152
 30
0.0
 11
131.5085
 21
13.43152
 31
0.0
  0
MTEXT
  5
D0
330
1F
100
AcDbEntity
  8
TITLE_BLOCK
100
AcDbMText
 10
131.1656
 20
19.22272
 30
0.0
 40
1.2192
 41
29.8704
 71
     2
 72
     1
  1
THIRD ANGLE PROJECTION
  7
ONSHAPE-STANDARD
  0
LINE
  5
D1
330
1F
100
AcDbEntity
  8
TITLE_BLOCK
100
AcDbLine
 10
146.4056
 20
9.652
 30
0.0
 11
146.4056
 21
47.752
 31
0.0
  0
LINE
  5
D2
330
1F
100
AcDbEntity
  8
TITLE_BLOCK
100
AcDbLine
 10
161.6456
 20
20.32
 30
0.0
 11
161.6456
 21
47.752
 31
0.0
  0
LINE
  5
D3
330
1F
100
AcDbEntity
  8
TITLE_BLOCK
100
AcDbLine
 10
180.6956
 20
20.32
 30
0.0
 11
180.6956
 21
47.752
 31
0.0
  0
LINE
  5
D4
330
1F
100
AcDbEntity
  8
TITLE_BLOCK
100
AcDbLine
 10
169.2656
 20
9.652
 30
0.0
 11
169.2656
 21
20.32
 31
0.0
  0
LINE
  5
D5
330
1F
100
AcDbEntity
  8
TITLE_BLOCK
100
AcDbLine
 10
146.4056
 20
47.752
 30
0.0
 11
192.1256
 21
47.752
 31
0.0
  0
LINE
  5
D6
330
1F
100
AcDbEntity
  8
TITLE_BLOCK
100
AcDbLine
 10
146.4056
 20
43.18
 30
0.0
 11
192.1256
 21
43.18
 31
0.0
  0
LINE
  5
D7
330
1F
100
AcDbEntity
  8
TITLE_BLOCK
100
AcDbLine
 10
146.4056
 20
38.608
 30
0.0
 11
192.1256
 21
38.608
 31
0.0
  0
LINE
  5
D8
330
1F
100
AcDbEntity
  8
TITLE_BLOCK
100
AcDbLine
 10
146.4056
 20
34.03599999999999
 30
0.0
 11
192.1256
 21
34.03599999999999
 31
0.0
  0
LINE
  5
D9
330
1F
100
AcDbEntity
  8
TITLE_BLOCK
100
AcDbLine
 10
146.4056
 20
29.464
 30
0.0
 11
192.1256
 21
29.464
 31
0.0
  0
LINE
  5
DA
330
1F
100
AcDbEntity
  8
TITLE_BLOCK
100
AcDbLine
 10
146.4056
 20
24.892
 30
0.0
 11
192.1256
 21
24.892
 31
0.0
  0
LINE
  5
DB
330
1F
100
AcDbEntity
  8
TITLE_BLOCK
100
AcDbLine
 10
146.4056
 20
20.32
 30
0.0
 11
192.1256
 21
20.32
 31
0.0
  0
MTEXT
  5
DC
330
1F
100
AcDbEntity
  8
TITLE_BLOCK
100
AcDbMText
 10
162.31616
 20
46.65472
 30
0.0
 40
1.2192
 41
18.66899999999998
 71
     1
 72
     1
  1
NAME
  7
ONSHAPE-STANDARD
  0
MTEXT
  5
DD
330
1F
100
AcDbEntity
  8
TITLE_BLOCK
100
AcDbMText
 10
186.4106
 20
46.65472
 30
0.0
 40
1.2192
 41
11.20140000000003
 71
     2
 72
     1
  1
DATE
  7
ONSHAPE-STANDARD
  0
MTEXT
  5
DE
330
1F
100
AcDbEntity
  8
TITLE_BLOCK
100
AcDbMText
 10
147.07616
 20
42.08272
 30
0.0
 40
1.2192
 41
14.93520000000001
 71
     1
 72
     1
  1
DRAWN
  7
ONSHAPE-STANDARD
  0
MTEXT
  5
DF
102
{ACAD_XDICTIONARY
360
E0
102
}
330
1F
100
AcDbEntity
  8
TITLE_BLOCK
100
AcDbMText
 10
171.1706
 20
40.894
 30
0.0
 40
1.024128
 41
19.04999999999998
 71
     5
 72
     1
  1
MARCELO ALARCÓN
  7
ONSHAPE-STANDARD-FIELDS
1001
ACAD
1000
ACAD_MTEXT_DEFINED_HEIGHT_BEGIN
1070
    46
1040
4.572000000000004
1000
ACAD_MTEXT_DEFINED_HEIGHT_END
  0
MTEXT
  5
E6
102
{ACAD_XDICTIONARY
360
E7
102
}
330
1F
100
AcDbEntity
  8
TITLE_BLOCK
100
AcDbMText
 10
186.4106
 20
40.894
 30
0.0
 40
1.024128
 41
11.43000000000003
 71
     5
 72
     1
  1
06/08/2026
  7
ONSHAPE-STANDARD-FIELDS
1001
ACAD
1000
ACAD_MTEXT_DEFINED_HEIGHT_BEGIN
1070
    46
1040
4.572000000000004
1000
ACAD_MTEXT_DEFINED_HEIGHT_END
  0
MTEXT
  5
EC
330
1F
100
AcDbEntity
  8
TITLE_BLOCK
100
AcDbMText
 10
147.07616
 20
37.51072
 30
0.0
 40
1.2192
 41
14.93520000000001
 71
     1
 72
     1
  1
CHECKED
  7
ONSHAPE-STANDARD
  0
MTEXT
  5
ED
330
1F
100
AcDbEntity
  8
TITLE_BLOCK
100
AcDbMText
 10
171.1706
 20
36.322
 30
0.0
 40
1.024128
 41
19.04999999999998
 71
     5
 72
     1
  1
 
  7
ONSHAPE-STANDARD-FIELDS
1001
ACAD
1000
ACAD_MTEXT_DEFINED_HEIGHT_BEGIN
1070
    46
1040
4.572000000000004
1000
ACAD_MTEXT_DEFINED_HEIGHT_END
  0
MTEXT
  5
EE
330
1F
100
AcDbEntity
  8
TITLE_BLOCK
100
AcDbMText
 10
186.4106
 20
36.322
 30
0.0
 40
1.024128
 41
11.43000000000003
 71
     5
 72
     1
  1
 
  7
ONSHAPE-STANDARD-FIELDS
1001
ACAD
1000
ACAD_MTEXT_DEFINED_HEIGHT_BEGIN
1070
    46
1040
4.572000000000004
1000
ACAD_MTEXT_DEFINED_HEIGHT_END
  0
MTEXT
  5
EF
330
1F
100
AcDbEntity
  8
TITLE_BLOCK
100
AcDbMText
 10
147.07616
 20
32.93872
 30
0.0
 40
1.2192
 41
14.93520000000001
 71
     1
 72
     1
  1
APPROVED
  7
ONSHAPE-STANDARD
  0
MTEXT
  5
F0
102
{ACAD_XDICTIONARY
360
F1
102
}
330
1F
100
AcDbEntity
  8
TITLE_BLOCK
100
AcDbMText
 10
171.1706
 20
31.75
 30
0.0
 40
1.024128
 41
19.04999999999998
 71
     5
 72
     1
  1
----
  7
ONSHAPE-STANDARD-FIELDS
1001
ACAD
1000
ACAD_MTEXT_DEFINED_HEIGHT_BEGIN
1070
    46
1040
4.571999999999993
1000
ACAD_MTEXT_DEFINED_HEIGHT_END
  0
MTEXT
  5
F6
102
{ACAD_XDICTIONARY
360
F7
102
}
330
1F
100
AcDbEntity
  8
TITLE_BLOCK
100
AcDbMText
 10
186.4106
 20
31.75
 30
0.0
 40
1.024128
 41
11.43000000000003
 71
     5
 72
     1
  1
----
  7
ONSHAPE-STANDARD-FIELDS
1001
ACAD
1000
ACAD_MTEXT_DEFINED_HEIGHT_BEGIN
1070
    46
1040
4.571999999999993
1000
ACAD_MTEXT_DEFINED_HEIGHT_END
  0
MTEXT
  5
FC
330
1F
100
AcDbEntity
  8
TITLE_BLOCK
100
AcDbMText
 10
154.0256
 20
27.178
 30
0.0
 40
1.8288
 41
15.24000000000001
 71
     5
 72
     1
  1
 
  7
ONSHAPE-STANDARD-FIELDS
1001
ACAD
1000
ACAD_MTEXT_DEFINED_HEIGHT_BEGIN
1070
    46
1040
4.572000000000004
1000
ACAD_MTEXT_DEFINED_HEIGHT_END
  0
MTEXT
  5
FD
330
1F
100
AcDbEntity
  8
TITLE_BLOCK
100
AcDbMText
 10
171.1706
 20
27.178
 30
0.0
 40
1.024128
 41
19.04999999999998
 71
     5
 72
     1
  1
 
  7
ONSHAPE-STANDARD-FIELDS
1001
ACAD
1000
ACAD_MTEXT_DEFINED_HEIGHT_BEGIN
1070
    46
1040
4.572000000000004
1000
ACAD_MTEXT_DEFINED_HEIGHT_END
  0
MTEXT
  5
FE
330
1F
100
AcDbEntity
  8
TITLE_BLOCK
100
AcDbMText
 10
186.4106
 20
27.178
 30
0.0
 40
1.024128
 41
11.43000000000003
 71
     5
 72
     1
  1
 
  7
ONSHAPE-STANDARD-FIELDS
1001
ACAD
1000
ACAD_MTEXT_DEFINED_HEIGHT_BEGIN
1070
    46
1040
4.572000000000004
1000
ACAD_MTEXT_DEFINED_HEIGHT_END
  0
MTEXT
  5
FF
330
1F
100
AcDbEntity
  8
TITLE_BLOCK
100
AcDbMText
 10
154.0256
 20
22.606
 30
0.0
 40
1.8288
 41
15.24000000000001
 71
     5
 72
     1
  1
 
  7
ONSHAPE-STANDARD-FIELDS
1001
ACAD
1000
ACAD_MTEXT_DEFINED_HEIGHT_BEGIN
1070
    46
1040
4.571999999999998
1000
ACAD_MTEXT_DEFINED_HEIGHT_END
  0
MTEXT
  5
100
330
1F
100
AcDbEntity
  8
TITLE_BLOCK
100
AcDbMText
 10
171.1706
 20
22.606
 30
0.0
 40
1.024128
 41
19.04999999999998
 71
     5
 72
     1
  1
 
  7
ONSHAPE-STANDARD-FIELDS
1001
ACAD
1000
ACAD_MTEXT_DEFINED_HEIGHT_BEGIN
1070
    46
1040
4.571999999999998
1000
ACAD_MTEXT_DEFINED_HEIGHT_END
  0
MTEXT
  5
101
330
1F
100
AcDbEntity
  8
TITLE_BLOCK
100
AcDbMText
 10
186.4106
 20
22.606
 30
0.0
 40
1.024128
 41
11.43000000000003
 71
     5
 72
     1
  1
 
  7
ONSHAPE-STANDARD-FIELDS
1001
ACAD
1000
ACAD_MTEXT_DEFINED_HEIGHT_BEGIN
1070
    46
1040
4.571999999999998
1000
ACAD_MTEXT_DEFINED_HEIGHT_END
  0
MTEXT
  5
102
330
1F
100
AcDbEntity
  8
TITLE_BLOCK
100
AcDbMText
 10
147.07616
 20
19.22272
 30
0.0
 40
1.2192
 41
22.40280000000001
 71
     1
 72
     1
  1
MATERIAL
  7
ONSHAPE-STANDARD
  0
MTEXT
  5
103
102
{ACAD_XDICTIONARY
360
28B
102
}
330
1F
100
AcDbEntity
  8
TITLE_BLOCK
100
AcDbMText
 10
157.8356
 20
14.986
 30
0.0
 40
1.8288
 41
22.86000000000001
 71
     5
 72
     1
  1
 Acrilico negro
  7
ONSHAPE-STANDARD-FIELDS
1001
ONSHAPE_NOTES_REORDERING_D
1071
        0
1070
     0
1001
ACAD
1000
ACAD_MTEXT_DEFINED_HEIGHT_BEGIN
1070
    46
1040
1.85371553133515
1000
ACAD_MTEXT_DEFINED_HEIGHT_END
  0
MTEXT
  5
104
330
1F
100
AcDbEntity
  8
TITLE_BLOCK
100
AcDbMText
 10
169.93616
 20
19.22272
 30
0.0
 40
1.2192
 41
22.40280000000001
 71
     1
 72
     1
  1
FINISH
  7
ONSHAPE-STANDARD
  0
MTEXT
  5
105
330
1F
100
AcDbEntity
  8
TITLE_BLOCK
100
AcDbMText
 10
180.6956
 20
14.986
 30
0.0
 40
1.8288
 41
22.86000000000001
 71
     5
 72
     1
  1
 
  7
ONSHAPE-STANDARD-FIELDS
1001
ACAD
1000
ACAD_MTEXT_DEFINED_HEIGHT_BEGIN
1070
    46
1040
10.668
1000
ACAD_MTEXT_DEFINED_HEIGHT_END
  0
LINE
  5
106
330
1F
100
AcDbEntity
  8
TITLE_BLOCK
100
AcDbLine
 10
192.1256
 20
9.652
 30
0.0
 11
192.1256
 21
47.752
 31
0.0
  0
LINE
  5
107
330
1F
100
AcDbEntity
  8
TITLE_BLOCK
100
AcDbLine
 10
201.6506
 20
14.605
 30
0.0
 11
201.6506
 21
22.225
 31
0.0
  0
LINE
  5
108
330
1F
100
AcDbEntity
  8
TITLE_BLOCK
100
AcDbLine
 10
208.8895999999999
 20
9.652
 30
0.0
 11
208.8895999999999
 21
14.605
 31
0.0
  0
LINE
  5
109
330
1F
100
AcDbEntity
  8
TITLE_BLOCK
100
AcDbLine
 10
243.5605999999999
 20
9.652
 30
0.0
 11
243.5605999999999
 21
14.605
 31
0.0
  0
LINE
  5
10A
330
1F
100
AcDbEntity
  8
TITLE_BLOCK
100
AcDbLine
 10
262.6105999999999
 20
14.605
 30
0.0
 11
262.6105999999999
 21
22.225
 31
0.0
  0
LINE
  5
10B
330
1F
100
AcDbEntity
  8
TITLE_BLOCK
100
AcDbLine
 10
192.1256
 20
14.605
 30
0.0
 11
270.2306
 21
14.605
 31
0.0
  0
LINE
  5
10C
330
1F
100
AcDbEntity
  8
TITLE_BLOCK
100
AcDbLine
 10
192.1256
 20
22.225
 30
0.0
 11
270.2306
 21
22.225
 31
0.0
  0
LINE
  5
10D
330
1F
100
AcDbEntity
  8
TITLE_BLOCK
100
AcDbLine
 10
192.1256
 20
38.227
 30
0.0
 11
270.2306
 21
38.227
 31
0.0
  0
LINE
  5
10E
330
1F
100
AcDbEntity
  8
TITLE_BLOCK
100
AcDbLine
 10
192.1256
 20
47.752
 30
0.0
 11
270.2306
 21
47.752
 31
0.0
  0
MTEXT
  5
10F
330
1F
100
AcDbEntity
  8
TITLE_BLOCK
100
AcDbMText
 10
192.79616
 20
37.12972
 30
0.0
 40
1.2192
 41
9.334499999999998
 71
     1
 72
     1
  1
TITLE
  7
ONSHAPE-STANDARD
  0
MTEXT
  5
110
102
{ACAD_XDICTIONARY
360
111
102
}
330
1F
100
AcDbEntity
  8
TITLE_BLOCK
100
AcDbMText
 10
231.1781
 20
35.179
 30
0.0
 40
2.92608
 41
70.48499999999999
 71
     5
 72
     1
  1
----
  7
ONSHAPE-STANDARD-FIELDS
1001
ACAD
1000
ACAD_MTEXT_DEFINED_HEIGHT_BEGIN
1070
    46
1040
4.800599999999999
1000
ACAD_MTEXT_DEFINED_HEIGHT_END
  0
MTEXT
  5
116
102
{ACAD_XDICTIONARY
360
117
102
}
330
1F
100
AcDbEntity
  8
TITLE_BLOCK
100
AcDbMText
 10
231.1781
 20
30.3784
 30
0.0
 40
2.92608
 41
70.48499999999996
 71
     5
 72
     1
  1
Lengueta izquierda puerta superior
  7
ONSHAPE-STANDARD-FIELDS
1001
ONSHAPE_NOTES_REORDERING_D
1071
        0
1070
     0
1001
ACAD
1000
ACAD_MTEXT_DEFINED_HEIGHT_BEGIN
1070
    46
1040
2.96594485013624
1000
ACAD_MTEXT_DEFINED_HEIGHT_END
  0
MTEXT
  5
118
102
{ACAD_XDICTIONARY
360
119
102
}
330
1F
100
AcDbEntity
  8
TITLE_BLOCK
100
AcDbMText
 10
231.1781
 20
25.5778
 30
0.0
 40
2.92608
 41
70.48499999999996
 71
     5
 72
     1
  1
Se hace 2 veces
  7
ONSHAPE-STANDARD-FIELDS
1001
ONSHAPE_NOTES_REORDERING_D
1071
        0
1070
     0
1001
ACAD
1000
ACAD_MTEXT_DEFINED_HEIGHT_BEGIN
1070
    46
1040
2.96594485013624
1000
ACAD_MTEXT_DEFINED_HEIGHT_END
  0
MTEXT
  5
11A
330
1F
100
AcDbEntity
  8
TITLE_BLOCK
100
AcDbMText
 10
192.662048
 20
21.347176
 30
0.0
 40
0.97536
 41
9.334499999999998
 71
     1
 72
     1
  1
SIZE
  7
ONSHAPE-STANDARD
  0
MTEXT
  5
11B
102
{ACAD_XDICTIONARY
360
11C
102
}
330
1F
100
AcDbEntity
  8
TITLE_BLOCK
100
AcDbMText
 10
196.8881
 20
18.415
 30
0.0
 40
3.6576
 41
9.524999999999999
 71
     5
 72
     1
  1
A
  7
ONSHAPE-STANDARD-FIELDS
1001
ACAD
1000
ACAD_MTEXT_DEFINED_HEIGHT_BEGIN
1070
    46
1040
7.620000000000001
1000
ACAD_MTEXT_DEFINED_HEIGHT_END
  0
MTEXT
  5
121
330
1F
100
AcDbEntity
  8
TITLE_BLOCK
100
AcDbMText
 10
202.187048
 20
21.347176
 30
0.0
 40
0.97536
 41
59.74079999999996
 71
     1
 72
     1
  1
DWG NO.
  7
ONSHAPE-STANDARD
  0
MTEXT
  5
122
102
{ACAD_XDICTIONARY
360
123
102
}
330
1F
100
AcDbEntity
  8
TITLE_BLOCK
100
AcDbMText
 10
232.1306
 20
18.415
 30
0.0
 40
3.6576
 41
60.95999999999996
 71
     5
 72
     1
  1
----
  7
ONSHAPE-STANDARD-FIELDS
1001
ACAD
1000
ACAD_MTEXT_DEFINED_HEIGHT_BEGIN
1070
    46
1040
7.620000000000001
1000
ACAD_MTEXT_DEFINED_HEIGHT_END
  0
MTEXT
  5
128
330
1F
100
AcDbEntity
  8
TITLE_BLOCK
100
AcDbMText
 10
263.1470479999999
 20
21.347176
 30
0.0
 40
0.97536
 41
7.467600000000018
 71
     1
 72
     1
  1
REV.
  7
ONSHAPE-STANDARD
  0
MTEXT
  5
129
102
{ACAD_XDICTIONARY
360
12A
102
}
330
1F
100
AcDbEntity
  8
TITLE_BLOCK
100
AcDbMText
 10
266.8016
 20
18.415
 30
0.0
 40
3.6576
 41
6.858000000000034
 71
     5
 72
     1
  1
-
  7
ONSHAPE-STANDARD-FIELDS
1001
ACAD
1000
ACAD_MTEXT_DEFINED_HEIGHT_BEGIN
1070
    46
1040
7.620000000000001
1000
ACAD_MTEXT_DEFINED_HEIGHT_END
  0
MTEXT
  5
12F
330
1F
100
AcDbEntity
  8
TITLE_BLOCK
100
AcDbMText
 10
192.662048
 20
13.727176
 30
0.0
 40
0.97536
 41
16.42871999999996
 71
     1
 72
     1
  1
SCALE
  7
ONSHAPE-STANDARD
  0
MTEXT
  5
130
102
{ACAD_XDICTIONARY
360
131
102
}
330
1F
100
AcDbEntity
  8
TITLE_BLOCK
100
AcDbMText
 10
201.2696
 20
12.1285
 30
0.0
 40
2.19456
 41
15.23999999999997
 71
     5
 72
     1
  1
2:1
  7
ONSHAPE-STANDARD-FIELDS
1001
ACAD
1000
ACAD_MTEXT_DEFINED_HEIGHT_BEGIN
1070
    46
1040
4.952999999999999
1000
ACAD_MTEXT_DEFINED_HEIGHT_END
  0
MTEXT
  5
136
330
1F
100
AcDbEntity
  8
TITLE_BLOCK
100
AcDbMText
 10
209.4260479999999
 20
13.727176
 30
0.0
 40
0.97536
 41
33.97758
 71
     1
 72
     1
  1
WEIGHT
  7
ONSHAPE-STANDARD
  0
MTEXT
  5
137
330
1F
100
AcDbEntity
  8
TITLE_BLOCK
100
AcDbMText
 10
226.2251
 20
12.1285
 30
0.0
 40
2.19456
 41
34.67100000000001
 71
     5
 72
     1
  1
 
  7
ONSHAPE-STANDARD-FIELDS
1001
ACAD
1000
ACAD_MTEXT_DEFINED_HEIGHT_BEGIN
1070
    46
1040
4.952999999999999
1000
ACAD_MTEXT_DEFINED_HEIGHT_END
  0
MTEXT
  5
138
330
1F
100
AcDbEntity
  8
TITLE_BLOCK
100
AcDbMText
 10
244.0970479999999
 20
13.727176
 30
0.0
 40
0.97536
 41
26.13660000000001
 71
     1
 72
     1
  1
SHEET
  7
ONSHAPE-STANDARD
  0
MTEXT
  5
139
102
{ACAD_XDICTIONARY
360
13A
102
}
330
1F
100
AcDbEntity
  8
TITLE_BLOCK
100
AcDbMText
 10
257.6576
 20
12.1285
 30
0.0
 40
2.19456
 41
25.146
 71
     5
 72
     1
  1
1 of 1
  7
ONSHAPE-STANDARD-FIELDS
1001
ACAD
1000
ACAD_MTEXT_DEFINED_HEIGHT_BEGIN
1070
    46
1040
4.952999999999999
1000
ACAD_MTEXT_DEFINED_HEIGHT_END
  0
DIMENSION
  5
14A
102
{ACAD_REACTORS
102
}
102
{ACAD_XDICTIONARY
360
14B
102
}
330
1F
100
AcDbEntity
  8
ANNOTATION_TEXT
100
AcDbDimension
  2
*D1
 10
15.39338007872114
 20
112.7937264406445
 30
-0.0000000000000035
 11
15.39338007872114
 21
126.9457003392302
 31
-0.0000000000000035
 70
   161
  3
ONSHAPE-STANDARD$0
100
AcDbAlignedDimension
 13
32.47891340531334
 23
172.7937264406444
 33
-0.0000000000000035
 14
32.47891340531334
 24
112.7937264406445
 34
0.0000000000000035
1001
ACAD
1000
DSTYLE
1002
{
1070
    40
1040
25.4
1070
     4
1000
[]
1070
   144
1040
0.4999999999999999
1070
     3
1000

1070
   288
1070
     1
1002
}
1001
ACAD_DIMASSOC_CALC_DIMLFAC
1040
-0.5
1001
ACAD_DIMASSOC_DIMLFAC
1040
-12.7
1001
ACAD_DIMASSOC_OVERRIDDEN_D
1040
0.0
  0
DIMENSION
  5
167
102
{ACAD_REACTORS
330
188
102
}
102
{ACAD_XDICTIONARY
360
168
102
}
330
1F
100
AcDbEntity
  8
ANNOTATION_TEXT
100
AcDbDimension
  2
*D2
 10
32.47891340531334
 20
97.20350557951394
 30
0.0000000000000035
 11
47.55735634417126
 21
97.20350557951394
 31
0.0000000000000035
 70
   161
  3
ONSHAPE-STANDARD$0
100
AcDbAlignedDimension
 13
52.47891340531334
 23
112.7937264406445
 33
0.0000000000000035
 14
32.47891340531334
 24
112.7937264406445
 34
0.0000000000000035
1001
ACAD
1000
DSTYLE
1002
{
1070
    40
1040
25.4
1070
     4
1000
[]
1070
   144
1040
0.4999999999999999
1070
     3
1000

1070
   288
1070
     1
1002
}
1001
ACAD_DIMASSOC_CALC_DIMLFAC
1040
-0.5
1001
ACAD_DIMASSOC_DIMLFAC
1040
-12.7
1001
ACAD_DIMASSOC_OVERRIDDEN_D
1040
0.0
  0
DIMENSION
  5
184
102
{ACAD_REACTORS
102
}
102
{ACAD_XDICTIONARY
360
185
102
}
330
1F
100
AcDbEntity
  8
ANNOTATION_TEXT
100
AcDbDimension
  2
*D3
 10
52.47891340531334
 20
122.7937264406444
 30
0.0000000000000028
 11
87.93362765105147
 21
108.6158845016864
 31
0.0000000000000028
 70
   164
  3
ONSHAPE-STANDARD$4
100
AcDbRadialDimension
 15
60.83058602724839
 25
117.2937660393306
 35
0.0000000000000028
 40
0.0
1001
ACAD
1000
DSTYLE
1002
{
1070
   287
1070
     0
1070
    40
1040
25.4
1070
    44
1040
0.08
1070
     4
1000
[]
1070
    75
1070
     0
1070
   144
1040
0.4999999999999999
1070
   279
1070
     0
1070
   289
1070
     0
1070
   172
1070
     0
1070
     3
1000
x2 R<>
1002
}
1001
ACAD_DSTYLE_DIMRADIAL_EXTE
1070
   387
1070
     1
1070
   388
1040
4.712388980384689
1070
   390
1040
0.0000000000000018
1001
ACAD_DIMASSOC_CALC_DIMLFAC
1040
-0.5
1001
ACAD_DIMASSOC_DIMLFAC
1040
-12.7
1001
ACAD_DIMASSOC_OVERRIDDEN_D
1040
0.0
  0
DIMENSION
  5
19D
102
{ACAD_REACTORS
102
}
102
{ACAD_XDICTIONARY
360
19E
102
}
330
1F
100
AcDbEntity
  8
ANNOTATION_TEXT
100
AcDbDimension
  2
*D4
 10
142.9137297132645
 20
179.9353457229507
 30
0.0
 11
158.3468250811119
 21
179.9353457229507
 31
0.0
 70
   161
  3
ONSHAPE-STANDARD$0
100
AcDbAlignedDimension
 13
136.9137297132645
 23
172.7937264406444
 33
5.000000000000002
 14
142.9137297132645
 24
172.7937264406444
 34
5.000000000000002
1001
ACAD
1000
DSTYLE
1002
{
1070
    40
1040
25.4
1070
     4
1000
[]
1070
   144
1040
0.4999999999999999
1070
     3
1000

1070
   288
1070
     1
1002
}
1001
ACAD_DIMASSOC_CALC_DIMLFAC
1040
-0.5
1001
ACAD_DIMASSOC_DIMLFAC
1040
-12.7
1001
ACAD_DIMASSOC_OVERRIDDEN_D
1040
0.0
  0
DIMENSION
  5
1BB
102
{ACAD_REACTORS
330
188
102
}
102
{ACAD_XDICTIONARY
360
1BC
102
}
330
1F
100
AcDbEntity
  8
ANNOTATION_TEXT
100
AcDbDimension
  2
*D5
 10
73.2201582469204
 20
122.7937264406444
 30
-0.0000000000000025
 11
73.2201582469204
 21
131.9457003392301
 31
-0.0000000000000025
 70
   161
  3
ONSHAPE-STANDARD$0
100
AcDbAlignedDimension
 13
62.47891340531333
 23
162.7937264406445
 33
-0.0000000000000025
 14
62.47891340531333
 24
122.7937264406444
 34
0.0000000000000028
1001
ACAD
1000
DSTYLE
1002
{
1070
    40
1040
25.4
1070
     4
1000
[]
1070
   144
1040
0.4999999999999999
1070
     3
1000

1070
   288
1070
     1
1002
}
1001
ACAD_DIMASSOC_CALC_DIMLFAC
1040
-0.5
1001
ACAD_DIMASSOC_DIMLFAC
1040
-12.7
1001
ACAD_DIMASSOC_OVERRIDDEN_D
1040
0.0
  0
MTEXT
  5
1D8
102
{ACAD_XDICTIONARY
360
1D9
102
}
330
1F
100
AcDbEntity
  8
ANNOTATION_TEXT
 62
     7
 60
     1
100
AcDbMText
 10
197.0346477466903
 20
49.51899246199589
 30
0.0
 40
3.048
 41
0.0
 71
     2
 72
     1
  1

  7
ONSHAPE-STANDARD-VIEW-LABE
1001
ACAD
1000
ACAD_MTEXT_DEFINED_HEIGHT_BEGIN
1070
    46
1040
3.048
1000
ACAD_MTEXT_DEFINED_HEIGHT_END
  0
DIMENSION
  5
1E0
102
{ACAD_REACTORS
102
}
102
{ACAD_XDICTIONARY
360
1E1
102
}
330
1F
100
AcDbEntity
  8
ANNOTATION_TEXT
100
AcDbDimension
  2
*D6
 10
32.47891340531334
 20
187.6005163659576
 30
0.0
 11
47.47891340531334
 21
187.6005163659576
 31
0.0
 70
   160
  3
ONSHAPE-STANDARD$0
100
AcDbAlignedDimension
 13
62.47891340531333
 23
162.7937264406445
 33
-0.0000000000000025
 14
32.47891340531334
 24
172.7937264406444
 34
-0.0000000000000035
100
AcDbRotatedDimension
1001
ACAD
1000
DSTYLE
1002
{
1070
    40
1040
25.4
1070
     4
1000
[]
1070
   144
1040
0.4999999999999999
1070
     3
1000

1070
   288
1070
     1
1002
}
1001
ACAD_DIMASSOC_CALC_DIMLFAC
1040
-0.5
1001
ACAD_DIMASSOC_DIMLFAC
1040
-12.7
1001
ACAD_DIMASSOC_OVERRIDDEN_D
1040
0.0
  0
MTEXT
  5
1FD
102
{ACAD_XDICTIONARY
360
1FE
102
}
330
1F
100
AcDbEntity
  8
ANNOTATION_TEXT
 62
     7
 60
     1
100
AcDbMText
 10
47.47891340531334
 20
108.2697264406444
 30
0.0
 40
3.048
 41
0.0
 71
     2
 72
     1
  1

  7
ONSHAPE-STANDARD-VIEW-LABE
1001
ACAD
1000
ACAD_MTEXT_DEFINED_HEIGHT_BEGIN
1070
    46
1040
3.048
1000
ACAD_MTEXT_DEFINED_HEIGHT_END
  0
MTEXT
  5
204
102
{ACAD_XDICTIONARY
360
205
102
}
330
1F
100
AcDbEntity
  8
ANNOTATION_TEXT
 62
     7
 60
     1
100
AcDbMText
 10
139.9137297132645
 20
108.2697264406444
 30
0.0
 40
3.048
 41
0.0
 71
     2
 72
     1
  1

  7
ONSHAPE-STANDARD-VIEW-LABE
1001
ACAD
1000
ACAD_MTEXT_DEFINED_HEIGHT_BEGIN
1070
    46
1040
3.048
1000
ACAD_MTEXT_DEFINED_HEIGHT_END
  0
ENDSEC
  0
SECTION
  2
OBJECTS
  0
DICTIONARY
  5
C
330
0
100
AcDbDictionary
  3
ACAD_FIELDLIST
350
13F
  3
ACAD_GROUP
350
D
  3
ACAD_LAYOUT
350
1A
  3
ACAD_MATERIAL
350
43
  3
ACAD_MLEADERSTYLE
350
6B
  3
ACAD_MLINESTYLE
350
17
  3
ACAD_PLOTSETTINGS
350
19
  3
ACAD_SCALELIST
350
47
  3
ACAD_VISUALSTYLE
350
2A
  3
ACDB_RECOMPOSE_DATA
350
29A
  3
ACDBHEADERROUNDTRIPXREC
350
261
  3
ACDBVARIABLEDICTIONARY
350
6E
  3
DWGPROPS
350
288
  3
ONSHAPE_DATA
350
140
  0
DICTIONARY
  5
28F
330
8
100
AcDbDictionary
280
     1
  3
ACAD_XREC_ROUNDTRIP
360
290
  0
DICTIONARY
  5
289
330
BD
100
AcDbDictionary
280
     1
  3
ACAD_MTEXT_RT
360
28A
  0
DICTIONARY
  5
E0
330
DF
100
AcDbDictionary
280
     1
  0
DICTIONARY
  5
E7
330
E6
100
AcDbDictionary
280
     1
  0
DICTIONARY
  5
F1
330
F0
100
AcDbDictionary
280
     1
  0
DICTIONARY
  5
F7
330
F6
100
AcDbDictionary
280
     1
  0
DICTIONARY
  5
28B
330
103
100
AcDbDictionary
280
     1
  3
ACAD_MTEXT_RT
360
28C
  0
DICTIONARY
  5
111
330
110
100
AcDbDictionary
280
     1
  0
DICTIONARY
  5
117
330
116
100
AcDbDictionary
280
     1
  3
ACAD_MTEXT_RT
360
28D
  0
DICTIONARY
  5
119
330
118
100
AcDbDictionary
280
     1
  3
ACAD_MTEXT_RT
360
28E
  0
DICTIONARY
  5
11C
330
11B
100
AcDbDictionary
280
     1
  0
DICTIONARY
  5
123
330
122
100
AcDbDictionary
280
     1
  0
DICTIONARY
  5
12A
330
129
100
AcDbDictionary
280
     1
  0
DICTIONARY
  5
131
330
130
100
AcDbDictionary
280
     1
  0
DICTIONARY
  5
13A
330
139
100
AcDbDictionary
280
     1
  0
DICTIONARY
  5
14B
330
14A
100
AcDbDictionary
280
     1
  3
ACAD_BREAKDATA
360
14F
  3
OS_DIM_DISPLAY_FLAG_DATA
360
14C
  0
DICTIONARY
  5
168
330
167
100
AcDbDictionary
280
     1
  3
ACAD_BREAKDATA
360
16C
  3
OS_DIM_DISPLAY_FLAG_DATA
360
169
  0
DICTIONARY
  5
185
330
184
100
AcDbDictionary
280
     1
  3
ACAD_BREAKDATA
360
188
  3
OS_DIM_DISPLAY_FLAG_DATA
360
186
  3
OS_DIM_X_DATA
360
189
  0
DICTIONARY
  5
19E
330
19D
100
AcDbDictionary
280
     1
  3
ACAD_BREAKDATA
360
1A2
  3
OS_DIM_DISPLAY_FLAG_DATA
360
19F
  0
DICTIONARY
  5
1BC
330
1BB
100
AcDbDictionary
280
     1
  3
ACAD_BREAKDATA
360
1C0
  3
OS_DIM_DISPLAY_FLAG_DATA
360
1BD
  0
DICTIONARY
  5
1D9
330
1D8
100
AcDbDictionary
280
     1
  3
ONSHAPE_VIEW_ID
360
1DA
  0
DICTIONARY
  5
1E1
330
1E0
100
AcDbDictionary
280
     1
  3
ACAD_BREAKDATA
360
1E5
  3
OS_DIM_DISPLAY_FLAG_DATA
360
1E2
  0
DICTIONARY
  5
1FE
330
1FD
100
AcDbDictionary
280
     1
  3
ONSHAPE_VIEW_ID
360
1FF
  0
DICTIONARY
  5
205
330
204
100
AcDbDictionary
280
     1
  3
ONSHAPE_VIEW_ID
360
206
  0
ACAD_PROXY_OBJECT
  5
13F
102
{ACAD_REACTORS
330
C
102
}
330
C
100
AcDbProxyObject
 90
      499
 91
      509
 93
       11
310
4500
330
E3
330
E4
330
EA
330
EB
330
F4
330
F5
330
FA
330
FB
330
114
330
115
330
11F
330
120
330
126
330
127
330
12D
330
12E
330
134
330
135
330
13D
330
13E
 94
        0
  0
DICTIONARY
  5
D
102
{ACAD_REACTORS
330
C
102
}
330
C
100
AcDbDictionary
  0
DICTIONARY
  5
1A
102
{ACAD_REACTORS
330
C
102
}
330
C
100
AcDbDictionary
  0
DICTIONARY
  5
43
102
{ACAD_REACTORS
330
C
102
}
330
C
100
AcDbDictionary
  3
BYBLOCK
350
45
  3
BYLAYER
350
44
  3
GLOBAL
350
46
  0
DICTIONARY
  5
6B
102
{ACAD_REACTORS
330
C
102
}
330
C
100
AcDbDictionary
  3
STANDARD
350
6C
  0
DICTIONARY
  5
17
102
{ACAD_REACTORS
330
C
102
}
330
C
100
AcDbDictionary
  3
STANDARD
350
18
  0
DICTIONARY
  5
19
102
{ACAD_REACTORS
330
C
102
}
330
C
100
AcDbDictionary
  0
DICTIONARY
  5
47
102
{ACAD_REACTORS
330
C
102
}
330
C
100
AcDbDictionary
  3
A0
350
48
  3
A1
350
49
  3
A2
350
4A
  3
A3
350
4B
  3
A4
350
4C
  3
A5
350
4D
  3
A6
350
4E
  3
A7
350
4F
  3
A8
350
50
  3
A9
350
51
  3
B0
350
52
  3
B1
350
53
  3
B2
350
54
  3
B3
350
55
  3
B4
350
56
  3
B5
350
57
  3
B6
350
58
  3
B7
350
59
  3
B8
350
5A
  3
B9
350
5B
  3
C0
350
5C
  3
C1
350
5D
  3
C2
350
5E
  3
C3
350
5F
  3
C4
350
60
  3
C5
350
61
  3
C6
350
62
  3
C7
350
63
  3
C8
350
64
  3
C9
350
65
  3
D0
350
66
  3
D1
350
67
  3
D2
350
68
  0
DICTIONARY
  5
2A
102
{ACAD_REACTORS
330
C
102
}
330
C
100
AcDbDictionary
  3
2DWIREFRAME
350
2F
  3
BASIC
350
32
  3
BRIGHTEN
350
36
  3
COLORCHANGE
350
3A
  3
CONCEPTUAL
350
34
  3
DIM
350
35
  3
EDGECOLOROFF
350
3D
  3
FACEPATTERN
350
39
  3
FLAT
350
2B
  3
FLATWITHEDGES
350
2C
  3
GOURAUD
350
2D
  3
GOURAUDWITHEDGES
350
2E
  3
HIDDEN
350
31
  3
JITTEROFF
350
3B
  3
LINEPATTERN
350
38
  3
OVERHANGOFF
350
3C
  3
REALISTIC
350
33
  3
SHADED
350
42
  3
SHADED_WITH_EDGES
350
41
  3
SHADES_OF_GRAY
350
3E
  3
SKETCHY
350
3F
  3
THICKEN
350
37
  3
WIREFRAME
350
30
  3
X-RAY
350
40
  0
XRECORD
  5
29A
102
{ACAD_REACTORS
330
C
102
}
330
C
100
AcDbXrecord
 90
        1
330
BD
330
103
330
116
330
118
  0
DICTIONARY
  5
261
102
{ACAD_REACTORS
330
C
102
}
330
C
100
AcDbDictionary
  3
CEPSNID
350
26B
  3
CEPSNTYPE
350
26A
  3
DIMSTYLEDATA
350
281
  3
FINGERPRINTGUID
350
26C
  3
HYPERLINKBASE
350
264
  3
INSUNITS
350
269
  3
LAYOUTDICT
350
266
  3
LWETCUNION
350
268
  3
PLOTSETDICT
350
267
  3
PSVPSCALE
350
26E
  3
PUCSBASE
350
271
  3
PUCSORGBACK
350
277
  3
PUCSORGBOTTOM
350
273
  3
PUCSORGFRONT
350
276
  3
PUCSORGLEFT
350
274
  3
PUCSORGRIGHT
350
275
  3
PUCSORGTOP
350
272
  3
PUCSORTHOREF
350
26F
  3
PUCSORTHOVIEW
350
270
  3
STYLESHEET
350
265
  3
TSTACKALIGN
350
262
  3
TSTACKSIZE
350
263
  3
UCSBASE
350
27A
  3
UCSORGBACK
350
280
  3
UCSORGBOTTOM
350
27C
  3
UCSORGFRONT
350
27F
  3
UCSORGLEFT
350
27D
  3
UCSORGRIGHT
350
27E
  3
UCSORGTOP
350
27B
  3
UCSORTHOREF
350
278
  3
UCSORTHOVIEW
350
279
  3
VERSIONGUID
350
26D
  0
DICTIONARY
  5
6E
102
{ACAD_REACTORS
330
C
102
}
330
C
100
AcDbDictionary
  3
CANNOSCALE
350
291
  3
CMLEADERSTYLE
350
283
  3
CTABLESTYLE
350
282
  3
DIMASSOC
350
286
  3
HIDETEXT
350
287
  3
MSLTSCALE
350
292
  3
OLEFRAME
350
6F
  0
XRECORD
  5
288
102
{ACAD_REACTORS
330
C
102
}
330
C
100
AcDbXrecord
  1
DWGPROPS COOKIE
  2

  3

  4

  6

  7

  8
nobody
  9

300
=
301
=
302
=
303
=
304
=
305
=
306
=
307
=
308
=
309
=
 40
0.0
 41
2461200.968196887
 42
2461200.968197755
  1

 90
        0
  0
DICTIONARY
  5
140
102
{ACAD_REACTORS
330
C
102
}
330
C
100
AcDbDictionary
280
     1
  3
DIM_UNITS
360
143
  3
ONSHAPE_ALT_DIM_POSTION
360
145
  3
ONSHAPE_ALT_DIM_UNIT
360
144
  3
ONSHAPE_ALT_DIM_UNIT_ENABLE
360
146
  3
ONSHAPE_ANG_TOL_PRECISION
360
147
  3
ONSHAPE_BREAK_DIMENSION_DEFAULT
360
1DF
  3
ONSHAPE_DIMENSION_FIT_STANDARD
360
142
  3
ONSHAPE_DIMENSION_TEXT_HOR
360
141
  3
ONSHAPE_FITCLASS_TOL_PRECISION
360
148
  3
ONSHAPE_JOGDIMENSION_LOCK_
360
149
  3
ONSHAPE_SHOWDIMENSIONSLINE
360
20A
  3
ONSHAPE_UNDERLINEOVERRIDEN
360
209
  3
ONSHAPE_VSHARP_EXTENSION
360
208
  3
ONSHAPE_WELD_STANDARD
360
207
  0
XRECORD
  5
290
102
{ACAD_REACTORS
330
28F
102
}
330
28F
100
AcDbXrecord
102
VTR_0.000_0.000_1.000_1.000_VISUALSTYLE
340
2F
102
VTR_0.000_0.000_1.000_1.000_GRIDDISPLAY
 70
     3
102
VTR_0.000_0.000_1.000_1.000_GRIDMAJOR
 70
     5
102
VTR_0.000_0.000_1.000_1.000_DEFAULTLIGHTING
280
     1
102
VTR_0.000_0.000_1.000_1.000_DEFAULTLIGHTINGTYPE
 70
     1
102
VTR_0.000_0.000_1.000_1.000_BRIGHTNESS
141
0.0
102
VTR_0.000_0.000_1.000_1.000_CONTRAST
142
0.0
  0
XRECORD
  5
28A
102
{ACAD_REACTORS
330
289
102
}
330
289
100
AcDbXrecord
 40
77624.0
  1
{\pxqc;SCALE 1:1}
  0
XRECORD
  5
28C
102
{ACAD_REACTORS
330
28B
102
}
330
28B
100
AcDbXrecord
 40
11956.0
  1
{\pxqc; Acrilico negro}
  0
XRECORD
  5
28D
102
{ACAD_REACTORS
330
117
102
}
330
117
100
AcDbXrecord
 40
60893.0
  1
{\pxqc;Lengueta izquierda puerta superior}
  0
XRECORD
  5
28E
102
{ACAD_REACTORS
330
119
102
}
330
119
100
AcDbXrecord
 40
10545.0
  1
{\pxqc;Se hace 2 veces}
  0
BREAKDATA
  5
14F
102
{ACAD_REACTORS
330
14B
102
}
330
14B
100
AcDbBreakData
 70
     0
330
14A
 90
        0
  0
XRECORD
  5
14C
102
{ACAD_REACTORS
330
14B
102
}
330
14B
100
AcDbXrecord
 90
        1
 90
        0
  0
BREAKDATA
  5
16C
102
{ACAD_REACTORS
330
168
102
}
330
168
100
AcDbBreakData
 70
     0
330
167
 90
        0
  0
XRECORD
  5
169
102
{ACAD_REACTORS
330
168
102
}
330
168
100
AcDbXrecord
 90
        1
 90
        0
  0
BREAKDATA
  5
188
102
{ACAD_REACTORS
330
185
102
}
330
185
100
AcDbBreakData
 70
     0
330
184
 90
        2
100
AcDbBreakPointRef
 71
     0
 72
     0
 91
       -1
 10
0.0
 20
0.0
 30
0.0
 11
0.0
 21
0.0
 31
0.0
331
1BB
 73
     5
 92
        0
100
AcDbBreakPointRef
 71
     0
 72
     0
 91
       -1
 10
0.0
 20
0.0
 30
0.0
 11
0.0
 21
0.0
 31
0.0
331
167
 73
     5
 92
        0
  0
XRECORD
  5
186
102
{ACAD_REACTORS
330
185
102
}
330
185
100
AcDbXrecord
 90
        1
 90
        0
  0
ACAD_PROXY_OBJECT
  5
189
102
{ACAD_REACTORS
330
185
102
}
330
185
100
AcDbProxyObject
 90
      499
 91
      512
 93
      314
310
499680008000000B004000078B004000078B004000078B004100079E0C88148B0040000788804000
  0
BREAKDATA
  5
1A2
102
{ACAD_REACTORS
330
19E
102
}
330
19E
100
AcDbBreakData
 70
     0
330
19D
 90
        0
  0
XRECORD
  5
19F
102
{ACAD_REACTORS
330
19E
102
}
330
19E
100
AcDbXrecord
 90
        1
 90
        0
  0
BREAKDATA
  5
1C0
102
{ACAD_REACTORS
330
1BC
102
}
330
1BC
100
AcDbBreakData
 70
     0
330
1BB
 90
        0
  0
XRECORD
  5
1BD
102
{ACAD_REACTORS
330
1BC
102
}
330
1BC
100
AcDbXrecord
 90
        1
 90
        0
  0
XRECORD
  5
1DA
102
{ACAD_REACTORS
330
1D9
102
}
330
1D9
100
AcDbXrecord
330
0
  0
BREAKDATA
  5
1E5
102
{ACAD_REACTORS
330
1E1
102
}
330
1E1
100
AcDbBreakData
 70
     0
330
1E0
 90
        2
100
AcDbBreakPointRef
 71
     0
 72
     0
 91
       -1
 10
0.0
 20
0.0
 30
0.0
 11
0.0
 21
0.0
 31
0.0
331
9E
 73
     5
 92
        0
100
AcDbBreakPointRef
 71
     0
 72
     0
 91
       -1
 10
0.0
 20
0.0
 30
0.0
 11
0.0
 21
0.0
 31
0.0
331
0
 73
     2
 92
        0
  0
XRECORD
  5
1E2
102
{ACAD_REACTORS
330
1E1
102
}
330
1E1
100
AcDbXrecord
 90
        1
 90
        0
  0
XRECORD
  5
1FF
102
{ACAD_REACTORS
330
1FE
102
}
330
1FE
100
AcDbXrecord
330
0
  0
XRECORD
  5
206
102
{ACAD_REACTORS
330
205
102
}
330
205
100
AcDbXrecord
330
0
  0
MATERIAL
  5
45
102
{ACAD_REACTORS
330
43
102
}
102
{ACAD_XDICTIONARY
360
295
102
}
330
43
100
AcDbMaterial
  1
BYBLOCK
  0
MATERIAL
  5
44
102
{ACAD_REACTORS
330
43
102
}
102
{ACAD_XDICTIONARY
360
293
102
}
330
43
100
AcDbMaterial
  1
BYLAYER
  0
MATERIAL
  5
46
102
{ACAD_REACTORS
330
43
102
}
102
{ACAD_XDICTIONARY
360
297
102
}
330
43
100
AcDbMaterial
  1
GLOBAL
  0
ACAD_PROXY_OBJECT
  5
6C
102
{ACAD_REACTORS
330
6B
102
}
330
6B
100
AcDbProxyObject
 90
      499
 91
      505
 93
      610
310
40901902A4063FBFFFFFE056BD1B81E855B9FC0AD7A3703D0AD73F4214DD185B99185C9900AD7A3703D0AC73F90140501A02B5E8DC0F42B1CFC02B5E8DC0F42B1CFE5764000000000000300FC0
340
14
340
0
340
11
340
0
 94
        0
1001
ACAD_MLEADERVER
1070
     2
  0
MLINESTYLE
  5
18
102
{ACAD_REACTORS
330
17
102
}
330
17
100
AcDbMlineStyle
  2
Standard
 70
     0
  3

 62
   256
 51
90.0
 52
90.0
 71
     2
 49
0.5
 62
   256
  6
BYLAYER
 49
-0.5
 62
   256
  6
BYLAYER
  0
ACAD_PROXY_OBJECT
  5
48
102
{ACAD_REACTORS
330
47
102
}
330
47
100
AcDbProxyObject
 90
      499
 91
      503
 93
       41
310
903313A31580
  0
ACAD_PROXY_OBJECT
  5
49
102
{ACAD_REACTORS
330
47
102
}
330
47
100
AcDbProxyObject
 90
      499
 91
      503
 93
      105
310
903313A324000000000000004000
  0
ACAD_PROXY_OBJECT
  5
4A
102
{ACAD_REACTORS
330
47
102
}
330
47
100
AcDbProxyObject
 90
      499
 91
      503
 93
      105
310
903313A344000000000000104000
  0
ACAD_PROXY_OBJECT
  5
4B
102
{ACAD_REACTORS
330
47
102
}
330
47
100
AcDbProxyObject
 90
      499
 91
      503
 93
      105
310
903313A354000000000000144000
  0
ACAD_PROXY_OBJECT
  5
4C
102
{ACAD_REACTORS
330
47
102
}
330
47
100
AcDbProxyObject
 90
      499
 91
      503
 93
      105
310
903313A384000000000000204000
  0
ACAD_PROXY_OBJECT
  5
4D
102
{ACAD_REACTORS
330
47
102
}
330
47
100
AcDbProxyObject
 90
      499
 91
      503
 93
      113
310
904313A31304000000000000244000
  0
ACAD_PROXY_OBJECT
  5
4E
102
{ACAD_REACTORS
330
47
102
}
330
47
100
AcDbProxyObject
 90
      499
 91
      503
 93
      113
310
904313A31364000000000000304000
  0
ACAD_PROXY_OBJECT
  5
4F
102
{ACAD_REACTORS
330
47
102
}
330
47
100
AcDbProxyObject
 90
      499
 91
      503
 93
      113
310
904313A32304000000000000344000
  0
ACAD_PROXY_OBJECT
  5
50
102
{ACAD_REACTORS
330
47
102
}
330
47
100
AcDbProxyObject
 90
      499
 91
      503
 93
      113
310
904313A333040000000000003E4000
  0
ACAD_PROXY_OBJECT
  5
51
102
{ACAD_REACTORS
330
47
102
}
330
47
100
AcDbProxyObject
 90
      499
 91
      503
 93
      113
310
904313A34304000000000000444000
  0
ACAD_PROXY_OBJECT
  5
52
102
{ACAD_REACTORS
330
47
102
}
330
47
100
AcDbProxyObject
 90
      499
 91
      503
 93
      113
310
904313A35304000000000000494000
  0
ACAD_PROXY_OBJECT
  5
53
102
{ACAD_REACTORS
330
47
102
}
330
47
100
AcDbProxyObject
 90
      499
 91
      503
 93
      121
310
905313A3130304000000000000594000
  0
ACAD_PROXY_OBJECT
  5
54
102
{ACAD_REACTORS
330
47
102
}
330
47
100
AcDbProxyObject
 90
      499
 91
      503
 93
      105
310
903323A310000000000000010100
  0
ACAD_PROXY_OBJECT
  5
55
102
{ACAD_REACTORS
330
47
102
}
330
47
100
AcDbProxyObject
 90
      499
 91
      503
 93
      105
310
903343A310000000000000410100
  0
ACAD_PROXY_OBJECT
  5
56
102
{ACAD_REACTORS
330
47
102
}
330
47
100
AcDbProxyObject
 90
      499
 91
      503
 93
      105
310
903383A310000000000000810100
  0
ACAD_PROXY_OBJECT
  5
57
102
{ACAD_REACTORS
330
47
102
}
330
47
100
AcDbProxyObject
 90
      499
 91
      503
 93
      113
310
90431303A310000000000000910100
  0
ACAD_PROXY_OBJECT
  5
58
102
{ACAD_REACTORS
330
47
102
}
330
47
100
AcDbProxyObject
 90
      499
 91
      503
 93
      121
310
9053130303A310000000000001650100
  0
ACAD_PROXY_OBJECT
  5
59
102
{ACAD_REACTORS
330
47
102
}
330
47
100
AcDbProxyObject
 90
      499
 91
      503
 93
      257
310
90E312F31323822203D2031272D3022000000000000200FC000000000000284000
  0
ACAD_PROXY_OBJECT
  5
5A
102
{ACAD_REACTORS
330
47
102
}
330
47
100
AcDbProxyObject
 90
      499
 91
      503
 93
      249
310
90D312F363422203D2031272D3022000000000000240FC000000000000284000
  0
ACAD_PROXY_OBJECT
  5
5B
102
{ACAD_REACTORS
330
47
102
}
330
47
100
AcDbProxyObject
 90
      499
 91
      503
 93
      249
310
90D312F333222203D2031272D3022000000000000280FC000000000000284000
  0
ACAD_PROXY_OBJECT
  5
5C
102
{ACAD_REACTORS
330
47
102
}
330
47
100
AcDbProxyObject
 90
      499
 91
      503
 93
      249
310
90D312F313622203D2031272D30220000000000002C0FC000000000000284000
  0
ACAD_PROXY_OBJECT
  5
5D
102
{ACAD_REACTORS
330
47
102
}
330
47
100
AcDbProxyObject
 90
      499
 91
      503
 93
      249
310
90D332F333222203D2031272D30220000000000002E0FC000000000000284000
  0
ACAD_PROXY_OBJECT
  5
5E
102
{ACAD_REACTORS
330
47
102
}
330
47
100
AcDbProxyObject
 90
      499
 91
      503
 93
      241
310
90C312F3822203D2031272D3022000000000000300FC000000000000284000
  0
ACAD_PROXY_OBJECT
  5
5F
102
{ACAD_REACTORS
330
47
102
}
330
47
100
AcDbProxyObject
 90
      499
 91
      503
 93
      249
310
90D332F313622203D2031272D3022000000000000320FC000000000000284000
  0
ACAD_PROXY_OBJECT
  5
60
102
{ACAD_REACTORS
330
47
102
}
330
47
100
AcDbProxyObject
 90
      499
 91
      503
 93
      241
310
90C312F3422203D2031272D3022000000000000340FC000000000000284000
  0
ACAD_PROXY_OBJECT
  5
61
102
{ACAD_REACTORS
330
47
102
}
330
47
100
AcDbProxyObject
 90
      499
 91
      503
 93
      241
310
90C332F3822203D2031272D3022000000000000360FC000000000000284000
  0
ACAD_PROXY_OBJECT
  5
62
102
{ACAD_REACTORS
330
47
102
}
330
47
100
AcDbProxyObject
 90
      499
 91
      503
 93
      241
310
90C312F3222203D2031272D3022000000000000380FC000000000000284000
  0
ACAD_PROXY_OBJECT
  5
63
102
{ACAD_REACTORS
330
47
102
}
330
47
100
AcDbProxyObject
 90
      499
 91
      503
 93
      241
310
90C332F3422203D2031272D30220000000000003A0FC000000000000284000
  0
ACAD_PROXY_OBJECT
  5
64
102
{ACAD_REACTORS
330
47
102
}
330
47
100
AcDbProxyObject
 90
      499
 91
      503
 93
      161
310
90A3122203D2031272D30224000000000000284000
  0
ACAD_PROXY_OBJECT
  5
65
102
{ACAD_REACTORS
330
47
102
}
330
47
100
AcDbProxyObject
 90
      499
 91
      503
 93
      257
310
90E312D312F3222203D2031272D30220000000000003E0FC000000000000284000
  0
ACAD_PROXY_OBJECT
  5
66
102
{ACAD_REACTORS
330
47
102
}
330
47
100
AcDbProxyObject
 90
      499
 91
      503
 93
      225
310
90A3322203D2031272D302200000000000002100000000000000284000
  0
ACAD_PROXY_OBJECT
  5
67
102
{ACAD_REACTORS
330
47
102
}
330
47
100
AcDbProxyObject
 90
      499
 91
      503
 93
      225
310
90A3622203D2031272D302200000000000006100000000000000284000
  0
ACAD_PROXY_OBJECT
  5
68
102
{ACAD_REACTORS
330
47
102
}
330
47
100
AcDbProxyObject
 90
      499
 91
      503
 93
      249
310
90D31272D3022203D2031272D30220000000000000A100000000000000284000
  0
ACAD_PROXY_OBJECT
  5
2F
102
{ACAD_REACTORS
330
2A
102
}
330
2A
100
AcDbProxyObject
 90
      499
 91
      501
 93
      436
310
42CC9915DA5C99599C985B595049028333333333333E33F0000000000000F90107901411070040501600405405064090741402480A0340
1001
ACAD
1000
AcDbSavedByObjectVersion
1070
     0
  0
ACAD_PROXY_OBJECT
  5
32
102
{ACAD_REACTORS
330
2A
102
}
330
2A
100
AcDbProxyObject
 90
      499
 91
      501
 93
      388
310
4150985CDA58D07406404333333333333E33F0000000000000F90107A41107004050150841D405064090741402480A0350
1001
ACAD
1000
AcDbSavedByObjectVersion
1070
     0
  0
ACAD_PROXY_OBJECT
  5
36
102
{ACAD_REACTORS
330
2A
102
}
330
2A
100
AcDbProxyObject
 90
      499
 91
      501
 93
      428
310
42109C9A59DA1D195B90C409028333333333333E33F0000000000000F9010790141107004050150841D405064090741402480A029950
1001
ACAD
1000
AcDbSavedByObjectVersion
1070
     0
  0
ACAD_PROXY_OBJECT
  5
3A
102
{ACAD_REACTORS
330
2A
102
}
330
2A
100
AcDbProxyObject
 90
      499
 91
      501
 93
      452
310
42D0DBDB1BDC90DA185B99D95104090240C333333333333E33F0000000000000F90108901411070040501508421405064090741402480A0350
1001
ACAD
1000
AcDbSavedByObjectVersion
1070
     0
  0
ACAD_PROXY_OBJECT
  5
34
102
{ACAD_REACTORS
330
2A
102
}
330
2A
100
AcDbProxyObject
 90
      499
 91
      501
 93
      500
310
4290DBDB98D95C1D1D585B10940D028333333333333E33F0000000000000F90107902409070040501000000000018199010841D405064090740C02480A0340
1001
ACAD
1000
AcDbSavedByObjectVersion
1070
     0
  0
ACAD_PROXY_OBJECT
  5
35
102
{ACAD_REACTORS
330
2A
102
}
330
2A
100
AcDbProxyObject
 90
      499
 91
      501
 93
      412
310
40D11A5B50B409028333333333333E33F0000000000000F9010790141107004050150841D405064090741402480A02677FFFFFD0
1001
ACAD
1000
AcDbSavedByObjectVersion
1070
     0
  0
ACAD_PROXY_OBJECT
  5
3D
102
{ACAD_REACTORS
330
2A
102
}
330
2A
100
AcDbProxyObject
 90
      499
 91
      501
 93
      452
310
43115919D950DBDB1BDC93D999916409028333333333333E33F0000000000000F9010790141107004050150841D405064090741402480A0350
1001
ACAD
1000
AcDbSavedByObjectVersion
1070
     0
  0
ACAD_PROXY_OBJECT
  5
39
102
{ACAD_REACTORS
330
2A
102
}
330
2A
100
AcDbProxyObject
 90
      499
 91
      501
 93
      444
310
42D19858D95C185D1D195C9B90F409028333333333333E33F0000000000000F9010790141107004050150841D405064090741402480A0350
1001
ACAD
1000
AcDbSavedByObjectVersion
1070
     0
  0
ACAD_PROXY_OBJECT
  5
2B
102
{ACAD_REACTORS
330
2A
102
}
330
2A
100
AcDbProxyObject
 90
      499
 91
      501
 93
      380
310
41119B185D240901404333333333333E33F0000000000000F9010740A907004050150841D405064090741402480A1B50
1001
ACAD
1000
AcDbSavedByObjectVersion
1070
     0
  0
ACAD_PROXY_OBJECT
  5
2C
102
{ACAD_REACTORS
330
2A
102
}
330
2A
100
AcDbProxyObject
 90
      499
 91
      501
 93
      468
310
43519B185D15DA5D1A115919D95CD0140901404333333333333E33F0000000000000F90107409019070040501600405405064090741402480A1B50
1001
ACAD
1000
AcDbSavedByObjectVersion
1070
     0
  0
ACAD_PROXY_OBJECT
  5
2D
102
{ACAD_REACTORS
330
2A
102
}
330
2A
100
AcDbProxyObject
 90
      499
 91
      501
 93
      404
310
41D1DBDD5C985D5910240902404333333333333E33F0000000000000F9010740A9070040501641D405064090741402480A1B50
1001
ACAD
1000
AcDbSavedByObjectVersion
1070
     0
  0
ACAD_PROXY_OBJECT
  5
2E
102
{ACAD_REACTORS
330
2A
102
}
330
2A
100
AcDbProxyObject
 90
      499
 91
      501
 93
      492
310
4411DBDD5C985D5915DA5D1A115919D95CD0340902404333333333333E33F0000000000000F90107409019070040501600405405064090741402480A1B50
1001
ACAD
1000
AcDbSavedByObjectVersion
1070
     0
  0
ACAD_PROXY_OBJECT
  5
31
102
{ACAD_REACTORS
330
2A
102
}
330
2A
100
AcDbProxyObject
 90
      499
 91
      501
 93
      476
310
41921A5919195B90640502408333333333333E33F0000000000000F901079024090700405020000000000001110200405405064090740C02480A0340
1001
ACAD
1000
AcDbSavedByObjectVersion
1070
     0
  0
ACAD_PROXY_OBJECT
  5
3B
102
{ACAD_REACTORS
330
2A
102
}
330
2A
100
AcDbProxyObject
 90
      499
 91
      501
 93
      428
310
42529A5D1D195C93D999914409028333333333333E33F0000000000000F9010790141107004050150A41D405064090741402480A0350
1001
ACAD
1000
AcDbSavedByObjectVersion
1070
     0
  0
ACAD_PROXY_OBJECT
  5
38
102
{ACAD_REACTORS
330
2A
102
}
330
2A
100
AcDbProxyObject
 90
      499
 91
      501
 93
      444
310
42D31A5B995C185D1D195C9B90E409028333333333333E33F0000000000000F9010790141107004050750841D405064090741402483A0350
1001
ACAD
1000
AcDbSavedByObjectVersion
1070
     0
  0
ACAD_PROXY_OBJECT
  5
3C
102
{ACAD_REACTORS
330
2A
102
}
330
2A
100
AcDbProxyObject
 90
      499
 91
      501
 93
      444
310
42D3DD995C9A185B99D3D999915409028333333333333E33F0000000000000F9010790141107004050150941D405064090741402480A0350
1001
ACAD
1000
AcDbSavedByObjectVersion
1070
     0
  0
ACAD_PROXY_OBJECT
  5
33
102
{ACAD_REACTORS
330
2A
102
}
330
2A
100
AcDbProxyObject
 90
      499
 91
      501
 93
      428
310
425499585B1A5CDD1A58D08409038333333333333E33F0000000000000F9010740A907004050150800405405064090740C02480A1B40
1001
ACAD
1000
AcDbSavedByObjectVersion
1070
     0
  0
ACAD_PROXY_OBJECT
  5
42
102
{ACAD_REACTORS
330
2A
102
}
330
2A
100
AcDbProxyObject
 90
      499
 91
      501
 93
      420
310
4194DA1859195911B40902404333333333333E33F0000000000000F9010740A41107004050150800405405064090840C02480A0B40
1001
ACAD
1000
AcDbSavedByObjectVersion
1070
     0
  0
ACAD_PROXY_OBJECT
  5
41
102
{ACAD_REACTORS
330
2A
102
}
330
2A
100
AcDbProxyObject
 90
      499
 91
      501
 93
      516
310
4454DA18591959081DDA5D1A08195919D95CD1A40902404333333333333E33F0000000000000F901074090142907004050250800405405064090740C02480A0B40
1001
ACAD
1000
AcDbSavedByObjectVersion
1070
     0
  0
ACAD_PROXY_OBJECT
  5
3E
102
{ACAD_REACTORS
330
2A
102
}
330
2A
100
AcDbProxyObject
 90
      499
 91
      501
 93
      532
310
4394DA1859195CC81BD98811DC985E5174090240C333333333333E33F0000000000000F901079024090741D01000000000000111010841D405064090740C02480A0340
1001
ACAD
1000
AcDbSavedByObjectVersion
1070
     0
  0
ACAD_PROXY_OBJECT
  5
3F
102
{ACAD_REACTORS
330
2A
102
}
330
2A
100
AcDbProxyObject
 90
      499
 91
      501
 93
      476
310
41D4DAD95D18DA1E51840502408333333333333E33F0000000000000F901079024090741D01000000000000111010B41D405064090741802480A0340
1001
ACAD
1000
AcDbSavedByObjectVersion
1070
     0
  0
ACAD_PROXY_OBJECT
  5
37
102
{ACAD_REACTORS
330
2A
102
}
330
2A
100
AcDbProxyObject
 90
      499
 91
      501
 93
      412
310
41D51A1A58DAD95B90D409028333333333333E33F0000000000000F9010790141107004050150C41D405064090741402480A0350
1001
ACAD
1000
AcDbSavedByObjectVersion
1070
     0
  0
ACAD_PROXY_OBJECT
  5
30
102
{ACAD_REACTORS
330
2A
102
}
330
2A
100
AcDbProxyObject
 90
      499
 91
      501
 93
      420
310
4255DA5C99599C985B595059028333333333333E33F0000000000000F90107901411070040501600405405064090740C02480A0340
1001
ACAD
1000
AcDbSavedByObjectVersion
1070
     0
  0
ACAD_PROXY_OBJECT
  5
40
102
{ACAD_REACTORS
330
2A
102
}
330
2A
100
AcDbProxyObject
 90
      499
 91
      501
 93
      404
310
41560B54985E51940902404000000000000E03F0000000000000F9010740501907004050150841D405064090740C02480A1B40
1001
ACAD
1000
AcDbSavedByObjectVersion
1070
     0
  0
XRECORD
  5
26B
102
{ACAD_REACTORS
330
261
102
}
330
261
100
AcDbXrecord
340
0
  0
XRECORD
  5
26A
102
{ACAD_REACTORS
330
261
102
}
330
261
100
AcDbXrecord
 90
        0
  0
XRECORD
  5
281
102
{ACAD_REACTORS
330
261
102
}
330
261
100
AcDbXrecord
1000
DSTYLE
1002
{
1070
   179
 70
     1
1070
   170
 70
     1
1070
   171
 70
     3
1070
   143
 40
0.0393700787401575
1070
   274
 70
     3
1070
   285
 70
    11
1070
   176
 70
     7
1070
   177
 70
     7
1070
   178
 70
     7
1070
   271
 70
     2
1070
    44
 40
0.08
1070
   144
 40
0.4999999999999999
1070
   371
 70
    13
1070
   372
 70
    13
1070
    40
 40
25.4
1070
   272
 70
     2
1070
   340
340
73
1070
   140
 40
0.12
1070
   284
 70
    11
1070
   288
 70
     1
1070
    78
 70
    11
1070
    90
 70
     1
1002
}
  0
XRECORD
  5
26C
102
{ACAD_REACTORS
330
261
102
}
330
261
100
AcDbXrecord
  1
{39377665-3375-3565-b379-713032b97861}
  0
XRECORD
  5
264
102
{ACAD_REACTORS
330
261
102
}
330
261
100
AcDbXrecord
  1

  0
XRECORD
  5
269
102
{ACAD_REACTORS
330
261
102
}
330
261
100
AcDbXrecord
 90
        4
  0
XRECORD
  5
266
102
{ACAD_REACTORS
330
261
102
}
330
261
100
AcDbXrecord
340
1A
  0
XRECORD
  5
268
102
{ACAD_REACTORS
330
261
102
}
330
261
100
AcDbXrecord
 90
    10269
  0
XRECORD
  5
267
102
{ACAD_REACTORS
330
261
102
}
330
261
100
AcDbXrecord
340
19
  0
XRECORD
  5
26E
102
{ACAD_REACTORS
330
261
102
}
330
261
100
AcDbXrecord
 40
0.0
  0
XRECORD
  5
271
102
{ACAD_REACTORS
330
261
102
}
330
261
100
AcDbXrecord
340
0
  0
XRECORD
  5
277
102
{ACAD_REACTORS
330
261
102
}
330
261
100
AcDbXrecord
 10
0.0
 20
0.0
 30
0.0
  0
XRECORD
  5
273
102
{ACAD_REACTORS
330
261
102
}
330
261
100
AcDbXrecord
 10
0.0
 20
0.0
 30
0.0
  0
XRECORD
  5
276
102
{ACAD_REACTORS
330
261
102
}
330
261
100
AcDbXrecord
 10
0.0
 20
0.0
 30
0.0
  0
XRECORD
  5
274
102
{ACAD_REACTORS
330
261
102
}
330
261
100
AcDbXrecord
 10
0.0
 20
0.0
 30
0.0
  0
XRECORD
  5
275
102
{ACAD_REACTORS
330
261
102
}
330
261
100
AcDbXrecord
 10
0.0
 20
0.0
 30
0.0
  0
XRECORD
  5
272
102
{ACAD_REACTORS
330
261
102
}
330
261
100
AcDbXrecord
 10
0.0
 20
0.0
 30
0.0
  0
XRECORD
  5
26F
102
{ACAD_REACTORS
330
261
102
}
330
261
100
AcDbXrecord
340
0
  0
XRECORD
  5
270
102
{ACAD_REACTORS
330
261
102
}
330
261
100
AcDbXrecord
 70
     0
  0
XRECORD
  5
265
102
{ACAD_REACTORS
330
261
102
}
330
261
100
AcDbXrecord
  1

  0
XRECORD
  5
262
102
{ACAD_REACTORS
330
261
102
}
330
261
100
AcDbXrecord
 90
        1
  0
XRECORD
  5
263
102
{ACAD_REACTORS
330
261
102
}
330
261
100
AcDbXrecord
 90
       70
  0
XRECORD
  5
27A
102
{ACAD_REACTORS
330
261
102
}
330
261
100
AcDbXrecord
340
0
  0
XRECORD
  5
280
102
{ACAD_REACTORS
330
261
102
}
330
261
100
AcDbXrecord
 10
0.0
 20
0.0
 30
0.0
  0
XRECORD
  5
27C
102
{ACAD_REACTORS
330
261
102
}
330
261
100
AcDbXrecord
 10
0.0
 20
0.0
 30
0.0
  0
XRECORD
  5
27F
102
{ACAD_REACTORS
330
261
102
}
330
261
100
AcDbXrecord
 10
0.0
 20
0.0
 30
0.0
  0
XRECORD
  5
27D
102
{ACAD_REACTORS
330
261
102
}
330
261
100
AcDbXrecord
 10
0.0
 20
0.0
 30
0.0
  0
XRECORD
  5
27E
102
{ACAD_REACTORS
330
261
102
}
330
261
100
AcDbXrecord
 10
0.0
 20
0.0
 30
0.0
  0
XRECORD
  5
27B
102
{ACAD_REACTORS
330
261
102
}
330
261
100
AcDbXrecord
 10
0.0
 20
0.0
 30
0.0
  0
XRECORD
  5
278
102
{ACAD_REACTORS
330
261
102
}
330
261
100
AcDbXrecord
340
0
  0
XRECORD
  5
279
102
{ACAD_REACTORS
330
261
102
}
330
261
100
AcDbXrecord
 70
     0
  0
XRECORD
  5
26D
102
{ACAD_REACTORS
330
261
102
}
330
261
100
AcDbXrecord
  1
{FAEB1C32-E019-11D5-929B-00C0DF256EC4}
  0
DICTIONARYVAR
  5
291
102
{ACAD_REACTORS
330
6E
102
}
330
6E
100
DictionaryVariables
280
     0
  1
1:1
  0
DICTIONARYVAR
  5
283
102
{ACAD_REACTORS
330
6E
102
}
330
6E
100
DictionaryVariables
280
     0
  1
Standard
  0
DICTIONARYVAR
  5
282
102
{ACAD_REACTORS
330
6E
102
}
330
6E
100
DictionaryVariables
280
     0
  1
Onshape-Standard
  0
DICTIONARYVAR
  5
286
102
{ACAD_REACTORS
330
6E
102
}
330
6E
100
DictionaryVariables
280
     0
  1
2
  0
DICTIONARYVAR
  5
287
102
{ACAD_REACTORS
330
6E
102
}
330
6E
100
DictionaryVariables
280
     0
  1
1
  0
DICTIONARYVAR
  5
292
102
{ACAD_REACTORS
330
6E
102
}
330
6E
100
DictionaryVariables
280
     0
  1
1
  0
DICTIONARYVAR
  5
6F
102
{ACAD_REACTORS
330
6E
102
}
330
6E
100
DictionaryVariables
280
     0
  1
0
  0
XRECORD
  5
143
102
{ACAD_REACTORS
330
140
102
}
330
140
100
AcDbXrecord
 70
     4
  0
XRECORD
  5
145
102
{ACAD_REACTORS
330
140
102
}
330
140
100
AcDbXrecord
 90
        0
  0
XRECORD
  5
144
102
{ACAD_REACTORS
330
140
102
}
330
140
100
AcDbXrecord
 90
        0
  0
XRECORD
  5
146
102
{ACAD_REACTORS
330
140
102
}
330
140
100
AcDbXrecord
 90
        0
  0
XRECORD
  5
147
102
{ACAD_REACTORS
330
140
102
}
330
140
100
AcDbXrecord
 90
        0
  0
ACAD_PROXY_OBJECT
  5
1DF
102
{ACAD_REACTORS
330
140
102
}
330
140
100
AcDbProxyObject
 90
      499
 91
      512
 93
       34
310
40C8804040
  0
XRECORD
  5
142
102
{ACAD_REACTORS
330
140
102
}
330
140
100
AcDbXrecord
300
ANSI
  0
XRECORD
  5
141
102
{ACAD_REACTORS
330
140
102
}
330
140
100
AcDbXrecord
 90
        5
  0
XRECORD
  5
148
102
{ACAD_REACTORS
330
140
102
}
330
140
100
AcDbXrecord
 90
        4
  0
XRECORD
  5
149
102
{ACAD_REACTORS
330
140
102
}
330
140
100
AcDbXrecord
 90
        0
  0
ACAD_PROXY_OBJECT
  5
20A
102
{ACAD_REACTORS
330
140
102
}
330
140
100
AcDbProxyObject
 90
      499
 91
      512
 93
       34
310
40C8804000
  0
ACAD_PROXY_OBJECT
  5
209
102
{ACAD_REACTORS
330
140
102
}
330
140
100
AcDbProxyObject
 90
      499
 91
      512
 93
       34
310
40C8804040
  0
XRECORD
  5
208
102
{ACAD_REACTORS
330
140
102
}
330
140
100
AcDbXrecord
 90
        0
  0
XRECORD
  5
207
102
{ACAD_REACTORS
330
140
102
}
330
140
100
AcDbXrecord
 90
        0
  0
DICTIONARY
  5
295
330
45
100
AcDbDictionary
280
     1
  3
ACAD_XREC_ROUNDTRIP
360
296
  0
DICTIONARY
  5
293
330
44
100
AcDbDictionary
280
     1
  3
ACAD_XREC_ROUNDTRIP
360
294
  0
DICTIONARY
  5
297
330
46
100
AcDbDictionary
280
     1
  3
ACAD_XREC_ROUNDTRIP
360
298
  0
XRECORD
  5
296
102
{ACAD_REACTORS
330
295
102
}
330
295
100
AcDbXrecord
102
MATERIAL
148
0.0
149
0.0
149
0.0
 93
        0
 94
      127
282
     0
 72
     1
 77
     1
171
     1
175
     1
179
     1
273
     0
  0
XRECORD
  5
294
102
{ACAD_REACTORS
330
293
102
}
330
293
100
AcDbXrecord
102
MATERIAL
148
0.0
149
0.0
149
0.0
 93
        0
 94
      127
282
     0
 72
     1
 77
     1
171
     1
175
     1
179
     1
273
     0
  0
XRECORD
  5
298
102
{ACAD_REACTORS
330
297
102
}
330
297
100
AcDbXrecord
102
MATERIAL
148
0.0
149
0.0
149
0.0
 93
        0
 94
      127
282
     0
 72
     1
 77
     1
171
     1
175
     1
179
     1
273
     0
  0
ENDSEC
  0
EOF
