  0
SECTION
  2
HEADER
  9
$ACADVER
  1
AC1014
  9
$ACADMAINTVER
 70
     9
  9
$DWGCODEPAGE
  3
ANSI_1252
  9
$INSBASE
 10
0.0
 20
0.0
 30
0.0
  9
$EXTMIN
 10
0.9652000000000001
 20
0.4826
 30
-0.0000000000000001
  9
$EXTMAX
 10
279.4
 20
215.4174
 30
0.0000000000000001
  9
$LIMMIN
 10
0.0
 20
0.0
  9
$LIMMAX
 10
12.0
 20
9.0
  9
$ORTHOMODE
 70
     0
  9
$REGENMODE
 70
     1
  9
$FILLMODE
 70
     1
  9
$QTEXTMODE
 70
     0
  9
$MIRRTEXT
 70
     1
  9
$DRAGMODE
 70
     2
  9
$LTSCALE
 40
0.5
  9
$OSMODE
 70
    23
  9
$ATTMODE
 70
     1
  9
$TEXTSIZE
 40
0.12
  9
$TRACEWID
 40
0.05
  9
$TEXTSTYLE
  7
ONSHAPE-STANDARD
  9
$CLAYER
  8
0
  9
$CELTYPE
  6
BYLAYER
  9
$CECOLOR
 62
   256
  9
$CELTSCALE
 40
1.0
  9
$DELOBJ
 70
     1
  9
$DISPSILH
 70
     0
  9
$DIMSCALE
 40
25.4
  9
$DIMASZ
 40
0.18
  9
$DIMEXO
 40
0.0625
  9
$DIMDLI
 40
0.38
  9
$DIMRND
 40
0.0
  9
$DIMDLE
 40
0.0
  9
$DIMEXE
 40
0.08
  9
$DIMTP
 40
0.0
  9
$DIMTM
 40
0.0
  9
$DIMTXT
 40
0.12
  9
$DIMCEN
 40
0.09
  9
$DIMTSZ
 40
0.0
  9
$DIMTOL
 70
     0
  9
$DIMLIM
 70
     0
  9
$DIMTIH
 70
     1
  9
$DIMTOH
 70
     1
  9
$DIMSE1
 70
     0
  9
$DIMSE2
 70
     0
  9
$DIMTAD
 70
     0
  9
$DIMZIN
 70
    11
  9
$DIMBLK
  1

  9
$DIMASO
 70
     1
  9
$DIMSHO
 70
     1
  9
$DIMPOST
  1

  9
$DIMAPOST
  1

  9
$DIMALT
 70
     1
  9
$DIMALTD
 70
     3
  9
$DIMALTF
 40
0.0393700787401575
  9
$DIMLFAC
 40
3.0
  9
$DIMTOFL
 70
     0
  9
$DIMTVP
 40
0.0
  9
$DIMTIX
 70
     0
  9
$DIMSOXD
 70
     0
  9
$DIMSAH
 70
     0
  9
$DIMBLK1
  1

  9
$DIMBLK2
  1

  9
$DIMSTYLE
  2
ONSHAPE-STANDARD
  9
$DIMCLRD
 70
     7
  9
$DIMCLRE
 70
     7
  9
$DIMCLRT
 70
     7
  9
$DIMTFAC
 40
1.0
  9
$DIMGAP
 40
0.09
  9
$DIMJUST
 70
     0
  9
$DIMSD1
 70
     0
  9
$DIMSD2
 70
     0
  9
$DIMTOLJ
 70
     1
  9
$DIMTZIN
 70
    11
  9
$DIMALTZ
 70
    11
  9
$DIMALTTZ
 70
     0
  9
$DIMFIT
 70
     3
  9
$DIMUPT
 70
     1
  9
$DIMUNIT
 70
     2
  9
$DIMDEC
 70
     2
  9
$DIMTDEC
 70
     2
  9
$DIMALTU
 70
     2
  9
$DIMALTTD
 70
     3
  9
$DIMTXSTY
  7
ONSHAPE-STANDARD-DIMENSION
  9
$DIMAUNIT
 70
     0
  9
$LUNITS
 70
     2
  9
$LUPREC
 70
     4
  9
$SKETCHINC
 40
0.1
  9
$FILLETRAD
 40
0.5
  9
$AUNITS
 70
     0
  9
$AUPREC
 70
     0
  9
$MENU
  1
.
  9
$ELEVATION
 40
0.0
  9
$PELEVATION
 40
0.0
  9
$THICKNESS
 40
0.0
  9
$LIMCHECK
 70
     0
  9
$CHAMFERA
 40
0.0
  9
$CHAMFERB
 40
0.0
  9
$CHAMFERC
 40
0.0
  9
$CHAMFERD
 40
0.0
  9
$SKPOLY
 70
     0
  9
$TDCREATE
 40
2461200.967979803
  9
$TDUPDATE
 40
2461200.967980903
  9
$TDINDWG
 40
0.0
  9
$TDUSRTIMER
 40
0.0
  9
$USRTIMER
 70
     1
  9
$ANGBASE
 50
0.0
  9
$ANGDIR
 70
     0
  9
$PDMODE
 70
    33
  9
$PDSIZE
 40
0.9999999999999999
  9
$PLINEWID
 40
0.0
  9
$COORDS
 70
     1
  9
$SPLFRAME
 70
     0
  9
$SPLINETYPE
 70
     6
  9
$SPLINESEGS
 70
     8
  9
$ATTDIA
 70
     0
  9
$ATTREQ
 70
     1
  9
$HANDLING
 70
     1
  9
$HANDSEED
  5
343
  9
$SURFTAB1
 70
     6
  9
$SURFTAB2
 70
     6
  9
$SURFTYPE
 70
     6
  9
$SURFU
 70
     6
  9
$SURFV
 70
     6
  9
$UCSNAME
  2

  9
$UCSORG
 10
0.0
 20
0.0
 30
0.0
  9
$UCSXDIR
 10
1.0
 20
0.0
 30
0.0
  9
$UCSYDIR
 10
0.0
 20
1.0
 30
0.0
  9
$PUCSNAME
  2

  9
$PUCSORG
 10
0.0
 20
0.0
 30
0.0
  9
$PUCSXDIR
 10
1.0
 20
0.0
 30
0.0
  9
$PUCSYDIR
 10
0.0
 20
1.0
 30
0.0
  9
$USERI1
 70
     0
  9
$USERI2
 70
     0
  9
$USERI3
 70
     0
  9
$USERI4
 70
     0
  9
$USERI5
 70
     0
  9
$USERR1
 40
0.0
  9
$USERR2
 40
0.0
  9
$USERR3
 40
0.0
  9
$USERR4
 40
0.0
  9
$USERR5
 40
0.0
  9
$WORLDVIEW
 70
     1
  9
$SHADEDGE
 70
     3
  9
$SHADEDIF
 70
    70
  9
$TILEMODE
 70
     1
  9
$MAXACTVP
 70
    64
  9
$PINSBASE
 10
0.0
 20
0.0
 30
0.0
  9
$PLIMCHECK
 70
     0
  9
$PEXTMIN
 10
1.000000000000000E+20
 20
1.000000000000000E+20
 30
1.000000000000000E+20
  9
$PEXTMAX
 10
-1.000000000000000E+20
 20
-1.000000000000000E+20
 30
-1.000000000000000E+20
  9
$PLIMMIN
 10
0.0
 20
0.0
  9
$PLIMMAX
 10
12.0
 20
9.0
  9
$UNITMODE
 70
     0
  9
$VISRETAIN
 70
     1
  9
$PLINEGEN
 70
     0
  9
$PSLTSCALE
 70
     1
  9
$TREEDEPTH
 70
  3020
  9
$PICKSTYLE
 70
     1
  9
$CMLSTYLE
  2
STANDARD
  9
$CMLJUST
 70
     0
  9
$CMLSCALE
 40
1.0
  9
$PROXYGRAPHICS
 70
     1
  9
$MEASUREMENT
 70
     0
  0
ENDSEC
  0
SECTION
  2
CLASSES
  0
CLASS
  1
ACDBDICTIONARYWDFLT
  2
AcDbDictionaryWithDefault
  3
ObjectDBX Classes
 90
        0
280
     0
281
     0
  0
CLASS
  1
VISUALSTYLE
  2
AcDbVisualStyle
  3
ObjectDBX Classes
 90
     4095
280
     0
281
     0
  0
CLASS
  1
MATERIAL
  2
AcDbMaterial
  3
ObjectDBX Classes
 90
     1153
280
     0
281
     0
  0
CLASS
  1
SCALE
  2
AcDbScale
  3
ObjectDBX Classes
 90
     1153
280
     0
281
     0
  0
CLASS
  1
TABLESTYLE
  2
AcDbTableStyle
  3
ObjectDBX Classes
 90
     4095
280
     0
281
     0
  0
CLASS
  1
MLEADERSTYLE
  2
AcDbMLeaderStyle
  3
ACDB_MLEADERSTYLE_CLASS
 90
     4095
280
     0
281
     0
  0
CLASS
  1
SUN
  2
AcDbSun
  3
SCENEOE
 90
     1153
280
     0
281
     0
  0
CLASS
  1
DICTIONARYVAR
  2
AcDbDictionaryVar
  3
ObjectDBX Classes
 90
        0
280
     0
281
     0
  0
CLASS
  1
FIELD
  2
AcDbField
  3
ObjectDBX Classes
 90
     1152
280
     0
281
     0
  0
CLASS
  1
FIELDLIST
  2
AcDbFieldList
  3
ObjectDBX Classes
 90
     1152
280
     0
281
     0
  0
CLASS
  1
DIMASSOC
  2
AcDbDimAssoc
  3
"AcDbDimAssoc|Product Desc:     AcDim ARX App For Dimension|Company:          Autodesk, Inc.|WEB Address:      www.autodesk.com"
 90
        0
280
     0
281
     0
  0
CLASS
  1
BREAKDATA
  2
AcDbBreakData
  3
ObjectDBX Classes
 90
     1024
280
     0
281
     0
  0
CLASS
  1
XRECORD
  2
AcDbXrecord
  3
ObjectDBX Classes
 90
        0
280
     0
281
     0
  0
CLASS
  1
LWPOLYLINE
  2
AcDbPolyline
  3
ObjectDBX Classes
 90
        0
280
     0
281
     1
  0
CLASS
  1
HATCH
  2
AcDbHatch
  3
ObjectDBX Classes
 90
        0
280
     0
281
     1
  0
CLASS
  1
ACDBPLACEHOLDER
  2
AcDbPlaceHolder
  3
ObjectDBX Classes
 90
        0
280
     0
281
     0
  0
CLASS
  1
LAYOUT
  2
AcDbLayout
  3
ObjectDBX Classes
 90
        0
280
     0
281
     0
  0
ENDSEC
  0
SECTION
  2
TABLES
  0
TABLE
  2
VPORT
  5
8
102
{ACAD_XDICTIONARY
360
337
102
}
330
0
100
AcDbSymbolTable
 70
     1
  0
VPORT
  5
29
330
8
100
AcDbSymbolTableRecord
100
AcDbViewportTableRecord
  2
*ACTIVE
 70
     0
 10
0.0
 20
0.0
 11
1.0
 21
1.0
 12
140.1826
 22
111.5049791553133
 13
0.0
 23
0.0
 14
0.5
 24
0.5
 15
0.5
 25
0.5
 16
0.0
 26
0.0
 36
1.0
 17
0.0
 27
0.0
 37
0.0
 40
226.4856534768392
 41
1.253957995308708
 42
50.0
 43
0.0
 44
0.0
 50
0.0
 51
0.0
 71
     0
 72
   100
 73
     1
 74
     3
 75
     0
 76
     0
 77
     0
 78
     0
  0
ENDTAB
  0
TABLE
  2
LTYPE
  5
5
330
0
100
AcDbSymbolTable
 70
     3
  0
LTYPE
  5
14
330
5
100
AcDbSymbolTableRecord
100
AcDbLinetypeTableRecord
  2
BYBLOCK
 70
     0
  3

 72
    65
 73
     0
 40
0.0
  0
LTYPE
  5
15
330
5
100
AcDbSymbolTableRecord
100
AcDbLinetypeTableRecord
  2
BYLAYER
 70
     0
  3

 72
    65
 73
     0
 40
0.0
  0
LTYPE
  5
16
330
5
100
AcDbSymbolTableRecord
100
AcDbLinetypeTableRecord
  2
CONTINUOUS
 70
     0
  3
Solid line
 72
    65
 73
     0
 40
0.0
  0
LTYPE
  5
156
330
5
100
AcDbSymbolTableRecord
100
AcDbLinetypeTableRecord
  2
CENTER
 70
     0
  3
Center line ____ _ ____ _ ____ _
 72
    65
 73
     4
 40
0.7199999999999999
 49
0.45
 74
     0
 49
-0.09
 74
     0
 49
0.09
 74
     0
 49
-0.09
 74
     0
  0
LTYPE
  5
25E
330
5
100
AcDbSymbolTableRecord
100
AcDbLinetypeTableRecord
  2
ONS_PHANTOM
 70
     0
  3
Onshape Phantom line ______ __ __ ______
 72
    65
 73
     6
 40
0.4999999999999999
 49
0.25
 74
     0
 49
-0.05
 74
     0
 49
0.05
 74
     0
 49
-0.05
 74
     0
 49
0.05
 74
     0
 49
-0.05
 74
     0
  0
ENDTAB
  0
TABLE
  2
LAYER
  5
2
330
0
100
AcDbSymbolTable
 70
    11
  0
LAYER
  5
10
330
2
100
AcDbSymbolTableRecord
100
AcDbLayerTableRecord
  2
0
 70
     0
 62
     7
  6
CONTINUOUS
  0
LAYER
  5
70
330
2
100
AcDbSymbolTableRecord
100
AcDbLayerTableRecord
  2
DEFPOINTS
 70
     0
 62
     7
  6
CONTINUOUS
  0
LAYER
  5
74
330
2
100
AcDbSymbolTableRecord
100
AcDbLayerTableRecord
  2
VISIBLE
 70
     0
 62
     7
  6
CONTINUOUS
  0
LAYER
  5
88
330
2
100
AcDbSymbolTableRecord
100
AcDbLayerTableRecord
  2
DETAIL_VIEW_BORDER
 70
     0
 62
     7
  6
CONTINUOUS
  0
LAYER
  5
AC
330
2
100
AcDbSymbolTableRecord
100
AcDbLayerTableRecord
  2
BORDER_FRAME
 70
     0
 62
     7
  6
CONTINUOUS
  0
LAYER
  5
B2
330
2
100
AcDbSymbolTableRecord
100
AcDbLayerTableRecord
  2
BORDER_ZONES
 70
     0
 62
     7
  6
CONTINUOUS
  0
LAYER
  5
C0
330
2
100
AcDbSymbolTableRecord
100
AcDbLayerTableRecord
  2
TITLE_BLOCK
 70
     0
 62
     7
  6
CONTINUOUS
  0
LAYER
  5
154
330
2
100
AcDbSymbolTableRecord
100
AcDbLayerTableRecord
  2
CENTERMARKS
 70
     0
 62
     7
  6
CONTINUOUS
  0
LAYER
  5
17F
330
2
100
AcDbSymbolTableRecord
100
AcDbLayerTableRecord
  2
ANNOTATION_TEXT
 70
     0
 62
     7
  6
CONTINUOUS
  0
LAYER
  5
25C
330
2
100
AcDbSymbolTableRecord
100
AcDbLayerTableRecord
  2
DETAIL_VIEW_PARENT_BORDER
 70
     0
 62
     7
  6
ONS_PHANTOM
  0
LAYER
  5
25F
330
2
100
AcDbSymbolTableRecord
100
AcDbLayerTableRecord
  2
SKETCHED_GEOMETRY
 70
     0
 62
     7
  6
CONTINUOUS
  0
ENDTAB
  0
TABLE
  2
STYLE
  5
3
330
0
100
AcDbSymbolTable
 70
    36
  0
STYLE
  5
11
330
3
100
AcDbSymbolTableRecord
100
AcDbTextStyleTableRecord
  2
STANDARD
 70
     0
 40
0.0
 41
1.0
 50
0.0
 71
     0
 42
0.12
  3
txt
  4

  0
STYLE
  5
71
330
3
100
AcDbSymbolTableRecord
100
AcDbTextStyleTableRecord
  2
ONSHAPE-STANDARD
 70
     0
 40
0.0
 41
1.0
 50
0.0
 71
     0
 42
0.12
  3
NotoSans-Regular.ttf
  4

1001
ACAD
1000
Noto Sans
1071
        0
  0
STYLE
  5
73
330
3
100
AcDbSymbolTableRecord
100
AcDbTextStyleTableRecord
  2
ONSHAPE-STANDARD-DIMENSION
 70
     0
 40
0.0
 41
1.0
 50
0.0
 71
     0
 42
0.12
  3

  4

1001
ACAD
1000
Noto Sans
1071
        0
  0
STYLE
  5
F5
330
3
100
AcDbSymbolTableRecord
100
AcDbTextStyleTableRecord
  2
ONSHAPE-STANDARD-FIELDS
 70
     0
 40
0.0
 41
1.0
 50
0.0
 71
     0
 42
0.12
  3

  4

1001
ACAD
1000
Noto Sans
1071
        0
  0
STYLE
  5
182
330
3
100
AcDbSymbolTableRecord
100
AcDbTextStyleTableRecord
  2
ONSHAPE-STANDARD-VIEW-LABE
 70
     0
 40
0.12
 41
1.0
 50
0.0
 71
     0
 42
0.12
  3
NotoSans-Regular.ttf
  4

1001
ACAD
1000
Noto Sans
1071
        0
  0
STYLE
  5
2B5
330
3
100
AcDbSymbolTableRecord
100
AcDbTextStyleTableRecord
  2
ONSHAPE-STANDARD-TCFIELDS
 70
     0
 40
0.0
 41
1.0
 50
0.0
 71
     0
 42
0.12
  3
NotoSansTC-Regular.otf
  4

1001
ACAD
1000
Noto Sans TC
1071
        0
  0
STYLE
  5
2B6
330
3
100
AcDbSymbolTableRecord
100
AcDbTextStyleTableRecord
  2
ONSHAPE-STANDARD-SCFIELDS
 70
     0
 40
0.0
 41
1.0
 50
0.0
 71
     0
 42
0.12
  3
NotoSansSC-Regular.otf
  4

1001
ACAD
1000
Noto Sans SC
1071
        0
  0
STYLE
  5
2B7
330
3
100
AcDbSymbolTableRecord
100
AcDbTextStyleTableRecord
  2
ONSHAPE-STANDARD-KOREANFIE
 70
     0
 40
0.0
 41
1.0
 50
0.0
 71
     0
 42
0.12
  3
NotoSansKR-Regular.otf
  4

1001
ACAD
1000
Noto Sans KR
1071
        0
  0
STYLE
  5
2B8
330
3
100
AcDbSymbolTableRecord
100
AcDbTextStyleTableRecord
  2
ONSHAPE-STANDARD-JAPANESEF
 70
     0
 40
0.0
 41
1.0
 50
0.0
 71
     0
 42
0.12
  3
NotoSansJP-Regular.otf
  4

1001
ACAD
1000
Noto Sans JP
1071
        0
  0
STYLE
  5
2BA
330
3
100
AcDbSymbolTableRecord
100
AcDbTextStyleTableRecord
  2
ONSHAPE-STANDARD-BOLD
 70
     0
 40
0.0
 41
1.0
 50
0.0
 71
     0
 42
0.12
  3
NotoSans-Bold.ttf
  4

1001
ACAD
1000
Noto Sans
1071
 33554432
  0
STYLE
  5
2BD
330
3
100
AcDbSymbolTableRecord
100
AcDbTextStyleTableRecord
  2
TTFSTYLE
 70
     0
 40
0.0
 41
1.0
 50
0.0
 71
     0
 42
0.12
  3

  4

1001
ACAD
1000
Verdana
1071
       34
  0
STYLE
  5
2BE
330
3
100
AcDbSymbolTableRecord
100
AcDbTextStyleTableRecord
  2
ONSHAPE-STANDARD-GTOLERANC
 70
     0
 40
0.0
 41
1.0
 50
0.0
 71
     0
 42
0.12
  3

  4

1001
ACAD
1000
Noto Sans
1071
        0
  0
STYLE
  5
2BF
330
3
100
AcDbSymbolTableRecord
100
AcDbTextStyleTableRecord
  2
ONSHAPE-STANDARD-TABLE-DAT
 70
     0
 40
0.0
 41
1.0
 50
0.0
 71
     0
 42
0.12
  3
NotoSans-Regular.ttf
  4

1001
ACAD
1000
Noto Sans
1071
        0
  0
STYLE
  5
2C0
330
3
100
AcDbSymbolTableRecord
100
AcDbTextStyleTableRecord
  2
ONSHAPE-STANDARD-TABLE-TIT
 70
     0
 40
0.0
 41
1.0
 50
0.0
 71
     0
 42
0.12
  3
NotoSans-Bold.ttf
  4

1001
ACAD
1000
Noto Sans
1071
 33554432
  0
STYLE
  5
2C1
330
3
100
AcDbSymbolTableRecord
100
AcDbTextStyleTableRecord
  2
ONSHAPE-STANDARD-TABLE-HEA
 70
     0
 40
0.0
 41
1.0
 50
0.0
 71
     0
 42
0.12
  3
NotoSans-Bold.ttf
  4

1001
ACAD
1000
Noto Sans
1071
 33554432
  0
STYLE
  5
2C2
330
3
100
AcDbSymbolTableRecord
100
AcDbTextStyleTableRecord
  2
ONSHAPE-STANDARD-BOMTABLE-
 70
     0
 40
0.0
 41
1.0
 50
0.0
 71
     0
 42
0.12
  3
NotoSans-Regular.ttf
  4

1001
ACAD
1000
Noto Sans
1071
        0
  0
STYLE
  5
2C3
330
3
100
AcDbSymbolTableRecord
100
AcDbTextStyleTableRecord
  2
ONSHAPE-STANDARD-BOMTABLE0
 70
     0
 40
0.0
 41
1.0
 50
0.0
 71
     0
 42
0.12
  3
NotoSans-Bold.ttf
  4

1001
ACAD
1000
Noto Sans
1071
 33554432
  0
STYLE
  5
2C4
330
3
100
AcDbSymbolTableRecord
100
AcDbTextStyleTableRecord
  2
ONSHAPE-STANDARD-BOMTABLE1
 70
     0
 40
0.0
 41
1.0
 50
0.0
 71
     0
 42
0.12
  3
NotoSans-Bold.ttf
  4

1001
ACAD
1000
Noto Sans
1071
 33554432
  0
STYLE
  5
2C5
330
3
100
AcDbSymbolTableRecord
100
AcDbTextStyleTableRecord
  2
ONSHAPE-STANDARD-NOTESTYLE
 70
     0
 40
0.12
 41
1.0
 50
0.0
 71
     0
 42
0.12
  3
NotoSans-Regular.ttf
  4

1001
ACAD
1000
Noto Sans
1071
        0
  0
STYLE
  5
2C6
330
3
100
AcDbSymbolTableRecord
100
AcDbTextStyleTableRecord
  2
ONSHAPE-STANDARD-DATUM-DIM
 70
     0
 40
0.12
 41
1.0
 50
0.0
 71
     0
 42
0.12
  3
NotoSans-Regular.ttf
  4

1001
ACAD
1000
Noto Sans
1071
        0
  0
STYLE
  5
2C8
330
3
100
AcDbSymbolTableRecord
100
AcDbTextStyleTableRecord
  2
ONSHAPE-DETAIL-VIEW-LEADER
 70
     0
 40
0.12
 41
1.0
 50
0.0
 71
     0
 42
0.12
  3
NotoSans-Regular.ttf
  4

1001
ACAD
1000
Noto Sans
1071
        0
  0
STYLE
  5
2C9
330
3
100
AcDbSymbolTableRecord
100
AcDbTextStyleTableRecord
  2
ONSHAPE-STANDARD-HOLE-CALL
 70
     0
 40
0.12
 41
1.0
 50
0.0
 71
     0
 42
0.12
  3
NotoSans-Regular.ttf
  4

1001
ACAD
1000
Noto Sans
1071
        0
  0
STYLE
  5
2CA
330
3
100
AcDbSymbolTableRecord
100
AcDbTextStyleTableRecord
  2
ONSHAPE-STANDARD-HOLETABLE
 70
     0
 40
0.0
 41
1.0
 50
0.0
 71
     0
 42
0.12
  3
NotoSans-Regular.ttf
  4

1001
ACAD
1000
Noto Sans
1071
        0
  0
STYLE
  5
2CB
330
3
100
AcDbSymbolTableRecord
100
AcDbTextStyleTableRecord
  2
ONSHAPE-STANDARD-HOLETABL0
 70
     0
 40
0.0
 41
1.0
 50
0.0
 71
     0
 42
0.12
  3
NotoSans-Bold.ttf
  4

1001
ACAD
1000
Noto Sans
1071
 33554432
  0
STYLE
  5
2CC
330
3
100
AcDbSymbolTableRecord
100
AcDbTextStyleTableRecord
  2
ONSHAPE-STANDARD-HOLETABL1
 70
     0
 40
0.0
 41
1.0
 50
0.0
 71
     0
 42
0.12
  3
NotoSans-Bold.ttf
  4

1001
ACAD
1000
Noto Sans
1071
 33554432
  0
STYLE
  5
2CD
330
3
100
AcDbSymbolTableRecord
100
AcDbTextStyleTableRecord
  2
ONSHAPE-STANDARD-HOLE-TAG
 70
     0
 40
0.12
 41
1.0
 50
0.0
 71
     0
 42
0.12
  3
NotoSans-Regular.ttf
  4

1001
ACAD
1000
Noto Sans
1071
        0
  0
STYLE
  5
2CE
330
3
100
AcDbSymbolTableRecord
100
AcDbTextStyleTableRecord
  2
ONSHAPE-STANDARD-REVISIONT
 70
     0
 40
0.0
 41
1.0
 50
0.0
 71
     0
 42
0.12
  3
NotoSans-Regular.ttf
  4

1001
ACAD
1000
Noto Sans
1071
        0
  0
STYLE
  5
2CF
330
3
100
AcDbSymbolTableRecord
100
AcDbTextStyleTableRecord
  2
ONSHAPE-STANDARD-REVISION0
 70
     0
 40
0.0
 41
1.0
 50
0.0
 71
     0
 42
0.12
  3
NotoSans-Bold.ttf
  4

1001
ACAD
1000
Noto Sans
1071
 33554432
  0
STYLE
  5
2D0
330
3
100
AcDbSymbolTableRecord
100
AcDbTextStyleTableRecord
  2
ONSHAPE-STANDARD-REVISION1
 70
     0
 40
0.0
 41
1.0
 50
0.0
 71
     0
 42
0.12
  3
NotoSans-Bold.ttf
  4

1001
ACAD
1000
Noto Sans
1071
 33554432
  0
STYLE
  5
2D1
330
3
100
AcDbSymbolTableRecord
100
AcDbTextStyleTableRecord
  2
ONSHAPE-STANDARD-REVISION-
 70
     0
 40
0.12
 41
1.0
 50
0.0
 71
     0
 42
0.12
  3
NotoSans-Regular.ttf
  4

1001
ACAD
1000
Noto Sans
1071
        0
  0
STYLE
  5
2D2
330
3
100
AcDbSymbolTableRecord
100
AcDbTextStyleTableRecord
  2
ONSHAPE-STANDARD-CUTLISTTA
 70
     0
 40
0.0
 41
1.0
 50
0.0
 71
     0
 42
0.12
  3
NotoSans-Regular.ttf
  4

1001
ACAD
1000
Noto Sans
1071
        0
  0
STYLE
  5
2D3
330
3
100
AcDbSymbolTableRecord
100
AcDbTextStyleTableRecord
  2
ONSHAPE-STANDARD-CUTLISTT0
 70
     0
 40
0.0
 41
1.0
 50
0.0
 71
     0
 42
0.12
  3
NotoSans-Bold.ttf
  4

1001
ACAD
1000
Noto Sans
1071
 33554432
  0
STYLE
  5
2D4
330
3
100
AcDbSymbolTableRecord
100
AcDbTextStyleTableRecord
  2
ONSHAPE-STANDARD-CUTLISTT1
 70
     0
 40
0.0
 41
1.0
 50
0.0
 71
     0
 42
0.12
  3
NotoSans-Bold.ttf
  4

1001
ACAD
1000
Noto Sans
1071
 33554432
  0
STYLE
  5
2D5
330
3
100
AcDbSymbolTableRecord
100
AcDbTextStyleTableRecord
  2
ONSHAPE-STANDARD-CUSTOMTAB
 70
     0
 40
0.0
 41
1.0
 50
0.0
 71
     0
 42
0.12
  3
NotoSans-Regular.ttf
  4

1001
ACAD
1000
Noto Sans
1071
        0
  0
STYLE
  5
2D6
330
3
100
AcDbSymbolTableRecord
100
AcDbTextStyleTableRecord
  2
ONSHAPE-STANDARD-CUSTOMTA0
 70
     0
 40
0.0
 41
1.0
 50
0.0
 71
     0
 42
0.12
  3
NotoSans-Bold.ttf
  4

1001
ACAD
1000
Noto Sans
1071
 33554432
  0
STYLE
  5
2D7
330
3
100
AcDbSymbolTableRecord
100
AcDbTextStyleTableRecord
  2
ONSHAPE-STANDARD-CUSTOMTA1
 70
     0
 40
0.0
 41
1.0
 50
0.0
 71
     0
 42
0.12
  3
NotoSans-Bold.ttf
  4

1001
ACAD
1000
Noto Sans
1071
 33554432
  0
ENDTAB
  0
TABLE
  2
VIEW
  5
6
330
0
100
AcDbSymbolTable
 70
     0
  0
ENDTAB
  0
TABLE
  2
UCS
  5
7
330
0
100
AcDbSymbolTable
 70
     0
  0
ENDTAB
  0
TABLE
  2
APPID
  5
9
330
0
100
AcDbSymbolTable
 70
     9
  0
APPID
  5
12
330
9
100
AcDbSymbolTableRecord
100
AcDbRegAppTableRecord
  2
ACAD
 70
     0
  0
APPID
  5
CE
330
9
100
AcDbSymbolTableRecord
100
AcDbRegAppTableRecord
  2
ONSHAPE_NOTES_REORDERING_D
 70
     0
  0
APPID
  5
CF
330
9
100
AcDbSymbolTableRecord
100
AcDbRegAppTableRecord
  2
ONSHAPE_NOTES_ANNOTATION_D
 70
     0
  0
APPID
  5
1AB
330
9
100
AcDbSymbolTableRecord
100
AcDbRegAppTableRecord
  2
ACAD_DIMASSOC_CALC_DIMLFAC
 70
     0
  0
APPID
  5
1AC
330
9
100
AcDbSymbolTableRecord
100
AcDbRegAppTableRecord
  2
ACAD_DIMASSOC_DIMLFAC
 70
     0
  0
APPID
  5
1AD
330
9
100
AcDbSymbolTableRecord
100
AcDbRegAppTableRecord
  2
ACAD_DIMASSOC_OVERRIDDEN_D
 70
     0
  0
APPID
  5
19E
330
9
100
AcDbSymbolTableRecord
100
AcDbRegAppTableRecord
  2
INDEX
 70
     0
  0
APPID
  5
1E0
330
9
100
AcDbSymbolTableRecord
100
AcDbRegAppTableRecord
  2
ACAD_DSTYLE_DIMRADIAL_EXTE
 70
     0
  0
APPID
  5
341
330
9
100
AcDbSymbolTableRecord
100
AcDbRegAppTableRecord
  2
ACAD_MLEADERVER
 70
     0
  0
ENDTAB
  0
TABLE
  2
DIMSTYLE
  5
A
330
0
100
AcDbSymbolTable
 70
    21
  0
DIMSTYLE
105
27
330
A
100
AcDbSymbolTableRecord
100
AcDbDimStyleTableRecord
  2
STANDARD
 70
     0
  3

  4

  5

  6

  7

 40
25.4
 41
0.18
 42
0.0625
 43
0.38
 44
0.18
 45
0.0
 46
0.0
 47
0.0
 48
0.0
140
0.18
141
0.09
142
0.0
143
0.0393700787401575
144
1.0
145
0.0
146
1.0
147
0.09
 71
     0
 72
     0
 73
     1
 74
     1
 75
     0
 76
     0
 77
     0
 78
     0
170
     0
171
     2
172
     0
173
     0
174
     0
175
     0
176
     0
177
     0
178
     0
270
     2
271
     4
272
     4
273
     2
274
     2
340
11
275
     0
280
     0
281
     0
282
     0
283
     1
284
     0
285
     0
286
     0
287
     3
288
     0
  0
DIMSTYLE
105
72
330
A
100
AcDbSymbolTableRecord
100
AcDbDimStyleTableRecord
  2
ONSHAPE-STANDARD
 70
     0
  3

  4

  5

  6

  7

 40
25.4
 41
0.18
 42
0.0625
 43
0.38
 44
0.08
 45
0.0
 46
0.0
 47
0.0
 48
0.0
140
0.12
141
0.09
142
0.0
143
0.0393700787401575
144
25.4
145
0.0
146
1.0
147
0.09
 71
     0
 72
     0
 73
     1
 74
     1
 75
     0
 76
     0
 77
     0
 78
    11
170
     0
171
     3
172
     0
173
     0
174
     0
175
     0
176
     7
177
     7
178
     7
179
     1
270
     2
271
     2
272
     2
273
     2
274
     3
340
73
275
     0
280
     0
281
     0
282
     0
283
     1
284
    11
285
    11
286
     0
287
     3
288
     1
  0
DIMSTYLE
105
199
102
{ACAD_REACTORS
330
190
330
1AE
330
1E4
330
201
330
21E
330
23D
330
26F
330
28C
102
}
330
A
100
AcDbSymbolTableRecord
100
AcDbDimStyleTableRecord
  2
ONSHAPE-STANDARD$0
 70
     0
  3

  4

  5

  6

  7

 40
25.4
 41
0.18
 42
0.0625
 43
0.38
 44
0.08
 45
0.0
 46
0.0
 47
0.0
 48
0.0
140
0.12
141
0.09
142
0.0
143
0.0393700787401575
144
25.4
145
0.0
146
1.0
147
0.09
 71
     0
 72
     0
 73
     1
 74
     1
 75
     0
 76
     0
 77
     0
 78
    11
170
     0
171
     3
172
     0
173
     0
174
     0
175
     0
176
     7
177
     7
178
     7
179
     1
270
     2
271
     2
272
     2
273
     2
274
     3
340
73
275
     0
280
     0
281
     0
282
     0
283
     1
284
    11
285
    11
286
     0
287
     3
288
     1
  0
DIMSTYLE
105
1D4
102
{ACAD_REACTORS
330
1CB
102
}
330
A
100
AcDbSymbolTableRecord
100
AcDbDimStyleTableRecord
  2
ONSHAPE-STANDARD$3
 70
     0
  3

  4

  5

  6

  7

 40
25.4
 41
0.18
 42
0.0625
 43
0.38
 44
0.08
 45
0.0
 46
0.0
 47
0.0
 48
0.0
140
0.12
141
0.0
142
0.0
143
0.0393700787401575
144
25.4
145
0.0
146
1.0
147
0.09
 71
     0
 72
     0
 73
     1
 74
     1
 75
     0
 76
     0
 77
     0
 78
    11
170
     0
171
     3
172
     0
173
     0
174
     0
175
     0
176
     7
177
     7
178
     7
179
     1
270
     2
271
     2
272
     2
273
     2
274
     3
340
73
275
     0
280
     0
281
     0
282
     0
283
     1
284
    11
285
    11
286
     0
287
     3
288
     1
  0
DIMSTYLE
105
2DA
330
A
100
AcDbSymbolTableRecord
100
AcDbDimStyleTableRecord
  2
ANSI
 70
     0
  3

  4
mm
  5

  6

  7

 40
25.4
 41
0.12
 42
0.05
 43
0.5
 44
0.1
 45
0.0
 46
0.0
 47
0.1
 48
0.1
140
0.12
141
0.0
142
0.0
143
0.0393700787401575
144
25.4
145
0.0
146
0.71
147
0.06
 71
     0
 72
     0
 73
     1
 74
     1
 75
     0
 76
     0
 77
     0
 78
    11
170
     0
171
     3
172
     0
173
     0
174
     0
175
     0
176
     7
177
     7
178
     7
270
     2
271
     2
272
     3
273
     2
274
     3
340
11
275
     0
280
     0
281
     0
282
     0
283
     1
284
    11
285
    11
286
     0
287
     3
288
     1
  0
DIMSTYLE
105
2DB
330
A
100
AcDbSymbolTableRecord
100
AcDbDimStyleTableRecord
  2
ANSI$3
 70
     0
  3

  4
mm
  5

  6

  7

 40
25.4
 41
0.12
 42
0.05
 43
0.5
 44
0.1
 45
0.0
 46
0.0
 47
0.1
 48
0.1
140
0.12
141
0.0
142
0.0
143
0.0393700787401575
144
25.4
145
0.0
146
0.71
147
0.06
 71
     0
 72
     0
 73
     1
 74
     1
 75
     0
 76
     0
 77
     0
 78
    11
170
     0
171
     3
172
     0
173
     0
174
     0
175
     0
176
     7
177
     7
178
     7
270
     2
271
     2
272
     3
273
     2
274
     3
340
11
275
     0
280
     0
281
     0
282
     0
283
     1
284
    11
285
    11
286
     0
288
     1
  0
DIMSTYLE
105
2DC
330
A
100
AcDbSymbolTableRecord
100
AcDbDimStyleTableRecord
  2
ANSI$4
 70
     0
  3

  4
mm
  5

  6

  7

 40
25.4
 41
0.12
 42
0.05
 43
0.5
 44
0.1
 45
0.0
 46
0.0
 47
0.1
 48
0.1
140
0.12
141
0.0
142
0.0
143
0.0393700787401575
144
25.4
145
0.0
146
0.71
147
0.06
 71
     0
 72
     0
 73
     1
 74
     1
 75
     0
 76
     0
 77
     0
 78
    11
170
     0
171
     3
172
     0
173
     0
174
     0
175
     0
176
     7
177
     7
178
     7
270
     2
271
     2
272
     3
273
     2
274
     3
340
11
275
     0
280
     0
281
     0
282
     0
283
     1
284
    11
285
    11
286
     0
287
     3
288
     1
  0
DIMSTYLE
105
2DD
330
A
100
AcDbSymbolTableRecord
100
AcDbDimStyleTableRecord
  2
ANSI$7
 70
     0
  3

  4
mm
  5

  6

  7

 40
25.4
 41
0.12
 42
0.05
 43
0.5
 44
0.1
 45
0.0
 46
0.0
 47
0.1
 48
0.1
140
0.12
141
0.0
142
0.0
143
0.0393700787401575
144
25.4
145
0.0
146
0.71
147
0.06
 71
     0
 72
     0
 73
     1
 74
     1
 75
     0
 76
     0
 77
     0
 78
    11
170
     0
171
     3
172
     0
173
     0
174
     0
175
     0
176
     7
177
     7
178
     7
270
     2
271
     2
272
     3
273
     2
274
     3
340
11
275
     0
280
     0
281
     0
282
     0
283
     1
284
    11
285
    11
286
     0
287
     3
288
     1
  0
DIMSTYLE
105
2DE
330
A
100
AcDbSymbolTableRecord
100
AcDbDimStyleTableRecord
  2
ANSI$SF
 70
     0
  3

  4
mm
  5

  6

  7

 40
25.4
 41
0.12
 42
0.05
 43
0.5
 44
0.1
 45
0.0
 46
0.0
 47
0.1
 48
0.1
140
0.12
141
0.0
142
0.0
143
0.0393700787401575
144
25.4
145
0.0
146
0.71
147
0.06
 71
     0
 72
     0
 73
     1
 74
     1
 75
     1
 76
     1
 77
     0
 78
    11
170
     0
171
     3
172
     0
173
     0
174
     0
175
     0
176
     7
177
     7
178
     7
270
     2
271
     2
272
     3
273
     2
274
     3
340
11
275
     0
280
     0
281
     0
282
     0
283
     1
284
    11
285
    11
286
     0
287
     3
288
     1
  0
DIMSTYLE
105
2DF
330
A
100
AcDbSymbolTableRecord
100
AcDbDimStyleTableRecord
  2
ANSI$SH
 70
     0
  3

  4
mm
  5

  6

  7

 40
25.4
 41
0.12
 42
0.05
 43
0.5
 44
0.1
 45
0.0
 46
0.0
 47
0.1
 48
0.1
140
0.12
141
0.0
142
0.0
143
0.0393700787401575
144
25.4
145
0.0
146
0.71
147
0.06
 71
     0
 72
     0
 73
     1
 74
     1
 75
     1
 76
     1
 77
     0
 78
    11
170
     0
171
     3
172
     0
173
     1
174
     0
175
     0
176
     7
177
     7
178
     7
270
     2
271
     2
272
     3
273
     2
274
     3
340
11
275
     0
280
     0
281
     0
282
     0
283
     1
284
    11
285
    11
286
     0
287
     3
288
     1
  0
DIMSTYLE
105
2E3
330
A
100
AcDbSymbolTableRecord
100
AcDbDimStyleTableRecord
  2
ONSHAPE-STANDARD$2
 70
     0
  3

  4

  5

  6

  7

 40
25.4
 41
0.18
 42
0.0625
 43
0.38
 44
0.08
 45
0.0
 46
0.0
 47
0.0
 48
0.0
140
0.12
141
0.09
142
0.0
143
0.0393700787401575
144
25.4
145
0.0
146
1.0
147
0.09
 71
     0
 72
     0
 73
     1
 74
     1
 75
     0
 76
     0
 77
     0
 78
    11
170
     0
171
     3
172
     0
173
     0
174
     0
175
     0
176
     7
177
     7
178
     7
179
     1
270
     2
271
     2
272
     2
273
     2
274
     3
340
73
275
     0
280
     0
281
     0
282
     0
283
     1
284
    11
285
    11
286
     0
287
     3
288
     1
  0
DIMSTYLE
105
2E5
330
A
100
AcDbSymbolTableRecord
100
AcDbDimStyleTableRecord
  2
ONSHAPE-STANDARD$4
 70
     0
  3

  4

  5

  6

  7

 40
25.4
 41
0.18
 42
0.0625
 43
0.38
 44
0.08
 45
0.0
 46
0.0
 47
0.0
 48
0.0
140
0.12
141
0.0
142
0.0
143
0.0393700787401575
144
25.4
145
0.0
146
1.0
147
0.09
 71
     0
 72
     0
 73
     1
 74
     1
 75
     0
 76
     0
 77
     0
 78
    11
170
     0
171
     3
172
     0
173
     0
174
     0
175
     0
176
     7
177
     7
178
     7
179
     1
270
     2
271
     2
272
     2
273
     2
274
     3
340
73
275
     0
280
     0
281
     0
282
     0
283
     1
284
    11
285
    11
286
     0
287
     3
288
     1
  0
DIMSTYLE
105
2E6
330
A
100
AcDbSymbolTableRecord
100
AcDbDimStyleTableRecord
  2
ONSHAPE-STANDARD$6
 70
     0
  3

  4

  5

  6

  7

 40
25.4
 41
0.02
 42
0.0625
 43
0.38
 44
0.08
 45
0.0
 46
0.0
 47
0.0
 48
0.0
140
0.12
141
0.09
142
0.0
143
0.0393700787401575
144
25.4
145
0.0
146
1.0
147
0.09
 71
     0
 72
     0
 73
     1
 74
     1
 75
     0
 76
     0
 77
     0
 78
    11
170
     0
171
     3
172
     0
173
     0
174
     0
175
     0
176
     7
177
     7
178
     7
179
     1
270
     2
271
     2
272
     2
273
     2
274
     3
340
73
275
     0
280
     0
281
     0
282
     0
283
     1
284
    11
285
    11
286
     0
287
     3
288
     1
  0
DIMSTYLE
105
2E7
330
A
100
AcDbSymbolTableRecord
100
AcDbDimStyleTableRecord
  2
ONSHAPE-STANDARD$7
 70
     0
  3

  4

  5

  6

  7

 40
25.4
 41
0.18
 42
0.0625
 43
0.38
 44
0.08
 45
0.0
 46
0.0
 47
0.0
 48
0.0
140
0.12
141
0.09
142
0.0
143
0.0393700787401575
144
25.4
145
0.0
146
1.0
147
0.09
 71
     0
 72
     0
 73
     1
 74
     1
 75
     0
 76
     0
 77
     0
 78
    11
170
     0
171
     3
172
     0
173
     0
174
     0
175
     0
176
     7
177
     7
178
     7
179
     1
270
     2
271
     2
272
     2
273
     2
274
     3
340
73
275
     0
280
     0
281
     0
282
     0
283
     1
284
    11
285
    11
286
     0
287
     3
288
     1
  0
DIMSTYLE
105
2E8
330
A
100
AcDbSymbolTableRecord
100
AcDbDimStyleTableRecord
  2
ONSHAPE-STANDARD-GTOLERANC
 70
     0
  3

  4

  5

  6

  7

 40
1.0
 41
0.18
 42
0.0625
 43
0.38
 44
0.08
 45
0.0
 46
0.0
 47
0.0
 48
0.0
140
0.12
141
0.09
142
0.0
143
0.0393700787401575
144
25.4
145
0.0
146
1.0
147
0.09
 71
     0
 72
     0
 73
     1
 74
     1
 75
     0
 76
     0
 77
     0
 78
    11
170
     0
171
     3
172
     0
173
     0
174
     0
175
     0
176
     7
177
     7
178
     7
179
     1
270
     2
271
     2
272
     2
273
     2
274
     3
340
2BE
275
     0
280
     0
281
     0
282
     0
283
     1
284
    11
285
    11
286
     0
287
     3
288
     1
  0
DIMSTYLE
105
2EA
330
A
100
AcDbSymbolTableRecord
100
AcDbDimStyleTableRecord
  2
ONSHAPE-ORDINATESTYLE
 70
     0
  3

  4

  5

  6

  7

 40
25.4
 41
0.02
 42
0.0625
 43
0.38
 44
0.08
 45
0.0
 46
0.0
 47
0.0
 48
0.0
140
0.12
141
0.09
142
0.0
143
0.0393700787401575
144
25.4
145
0.0
146
1.0
147
0.09
 71
     0
 72
     0
 73
     1
 74
     1
 75
     0
 76
     0
 77
     0
 78
    11
170
     0
171
     3
172
     0
173
     0
174
     0
175
     0
176
     7
177
     7
178
     7
179
     1
270
     2
271
     2
272
     2
273
     2
274
     3
340
73
275
     0
280
     0
281
     0
282
     0
283
     1
284
    11
285
    11
286
     0
287
     3
288
     1
  0
DIMSTYLE
105
2EB
330
A
100
AcDbSymbolTableRecord
100
AcDbDimStyleTableRecord
  2
ONSHAPE-CHAMFERDIMSTYLE
 70
     0
  3

  4

  5

  6

  7

 40
25.4
 41
0.18
 42
0.0625
 43
0.38
 44
0.08
 45
0.0
 46
0.0
 47
0.0
 48
0.0
140
0.12
141
0.09
142
0.0
143
0.0393700787401575
144
25.4
145
0.0
146
1.0
147
0.09
 71
     0
 72
     0
 73
     1
 74
     1
 75
     0
 76
     0
 77
     0
 78
    11
170
     0
171
     3
172
     0
173
     0
174
     0
175
     0
176
     7
177
     7
178
     7
179
     1
270
     2
271
     2
272
     2
273
     2
274
     3
340
73
275
     0
280
     0
281
     0
282
     0
283
     1
284
    11
285
    11
286
     0
287
     3
288
     1
  0
DIMSTYLE
105
2EC
330
A
100
AcDbSymbolTableRecord
100
AcDbDimStyleTableRecord
  2
ONSHAPE-SKETCHDRIVENDIMSTY
 70
     0
  3

  4

  5

  6

  7

 40
25.4
 41
0.18
 42
0.0625
 43
0.38
 44
0.08
 45
0.0
 46
0.0
 47
0.0
 48
0.0
140
0.12
141
0.09
142
0.0
143
0.0393700787401575
144
25.4
145
0.0
146
1.0
147
0.09
 71
     0
 72
     0
 73
     1
 74
     1
 75
     0
 76
     0
 77
     0
 78
    11
170
     0
171
     3
172
     0
173
     0
174
     0
175
     0
176
   251
177
   251
178
   251
179
     1
270
     2
271
     2
272
     2
273
     2
274
     3
340
73
275
     0
280
     0
281
     0
282
     0
283
     1
284
    11
285
    11
286
     0
287
     3
288
     1
  0
DIMSTYLE
105
2ED
330
A
100
AcDbSymbolTableRecord
100
AcDbDimStyleTableRecord
  2
ONSHAPE-SKETCHDRIVENDIMST0
 70
     0
  3

  4

  5

  6

  7

 40
25.4
 41
0.18
 42
0.0625
 43
0.38
 44
0.08
 45
0.0
 46
0.0
 47
0.0
 48
0.0
140
0.12
141
0.09
142
0.0
143
0.0393700787401575
144
25.4
145
0.0
146
1.0
147
0.09
 71
     0
 72
     0
 73
     1
 74
     1
 75
     0
 76
     0
 77
     0
 78
    11
170
     0
171
     3
172
     0
173
     0
174
     0
175
     0
176
   251
177
   251
178
   251
179
     1
270
     2
271
     2
272
     2
273
     2
274
     3
340
73
275
     0
280
     0
281
     0
282
     0
283
     1
284
    11
285
    11
286
     0
287
     3
288
     1
  0
DIMSTYLE
105
2EE
330
A
100
AcDbSymbolTableRecord
100
AcDbDimStyleTableRecord
  2
ONSHAPE-SKETCHDRIVENDIMST1
 70
     0
  3

  4

  5

  6

  7

 40
25.4
 41
0.18
 42
0.0625
 43
0.38
 44
0.08
 45
0.0
 46
0.0
 47
0.0
 48
0.0
140
0.12
141
0.0
142
0.0
143
0.0393700787401575
144
25.4
145
0.0
146
1.0
147
0.09
 71
     0
 72
     0
 73
     1
 74
     1
 75
     0
 76
     0
 77
     0
 78
    11
170
     0
171
     3
172
     0
173
     0
174
     0
175
     0
176
   251
177
   251
178
   251
179
     1
270
     2
271
     2
272
     2
273
     2
274
     3
340
73
275
     0
280
     0
281
     0
282
     0
283
     1
284
    11
285
    11
286
     0
287
     3
288
     1
  0
DIMSTYLE
105
2EF
330
A
100
AcDbSymbolTableRecord
100
AcDbDimStyleTableRecord
  2
ONSHAPE-SKETCHDRIVENDIMST2
 70
     0
  3

  4

  5

  6

  7

 40
25.4
 41
0.18
 42
0.0625
 43
0.38
 44
0.08
 45
0.0
 46
0.0
 47
0.0
 48
0.0
140
0.12
141
0.0
142
0.0
143
0.0393700787401575
144
25.4
145
0.0
146
1.0
147
0.09
 71
     0
 72
     0
 73
     1
 74
     1
 75
     0
 76
     0
 77
     0
 78
    11
170
     0
171
     3
172
     0
173
     0
174
     0
175
     0
176
   251
177
   251
178
   251
179
     1
270
     2
271
     2
272
     2
273
     2
274
     3
340
73
275
     0
280
     0
281
     0
282
     0
283
     1
284
    11
285
    11
286
     0
287
     3
288
     1
  0
ENDTAB
  0
TABLE
  2
BLOCK_RECORD
  5
1
330
0
100
AcDbSymbolTable
 70
     9
  0
BLOCK_RECORD
  5
1F
330
1
100
AcDbSymbolTableRecord
100
AcDbBlockTableRecord
  2
*MODEL_SPACE
  0
BLOCK_RECORD
  5
1B
330
1
100
AcDbSymbolTableRecord
100
AcDbBlockTableRecord
  2
*PAPER_SPACE
  0
BLOCK_RECORD
  5
19B
330
1
100
AcDbSymbolTableRecord
100
AcDbBlockTableRecord
  2
*D1
  0
BLOCK_RECORD
  5
1B9
330
1
100
AcDbSymbolTableRecord
100
AcDbBlockTableRecord
  2
*D2
  0
BLOCK_RECORD
  5
1D6
330
1
100
AcDbSymbolTableRecord
100
AcDbBlockTableRecord
  2
*D3
  0
BLOCK_RECORD
  5
1EF
330
1
100
AcDbSymbolTableRecord
100
AcDbBlockTableRecord
  2
*D4
  0
BLOCK_RECORD
  5
20C
330
1
100
AcDbSymbolTableRecord
100
AcDbBlockTableRecord
  2
*D5
  0
BLOCK_RECORD
  5
229
330
1
100
AcDbSymbolTableRecord
100
AcDbBlockTableRecord
  2
*D6
  0
BLOCK_RECORD
  5
248
330
1
100
AcDbSymbolTableRecord
100
AcDbBlockTableRecord
  2
*D7
  0
BLOCK_RECORD
  5
27A
330
1
100
AcDbSymbolTableRecord
100
AcDbBlockTableRecord
  2
*D8
  0
BLOCK_RECORD
  5
297
330
1
100
AcDbSymbolTableRecord
100
AcDbBlockTableRecord
  2
*D9
  0
ENDTAB
  0
ENDSEC
  0
SECTION
  2
BLOCKS
  0
BLOCK
  5
20
330
1F
100
AcDbEntity
  8
0
100
AcDbBlockBegin
  2
*MODEL_SPACE
 70
     0
 10
0.0
 20
0.0
 30
0.0
  3
*MODEL_SPACE
  1

  0
ENDBLK
  5
21
330
1F
100
AcDbEntity
  8
0
100
AcDbBlockEnd
  0
BLOCK
  5
1C
330
1B
100
AcDbEntity
 67
     1
  8
0
100
AcDbBlockBegin
  2
*PAPER_SPACE
 70
     0
 10
0.0
 20
0.0
 30
0.0
  3
*PAPER_SPACE
  1

  0
ENDBLK
  5
1D
330
1B
100
AcDbEntity
 67
     1
  8
0
100
AcDbBlockEnd
  0
BLOCK
  5
19C
330
19B
100
AcDbEntity
  8
0
100
AcDbBlockBegin
  2
*D1
 70
     1
 10
0.0
 20
0.0
 30
0.0
  3
*D1
  1

  0
LINE
  5
19D
330
19B
100
AcDbEntity
  8
ANNOTATION_TEXT
 62
     7
100
AcDbLine
 10
31.06512518738744
 20
101.4799759708481
 30
0.0
 11
22.85870877454612
 21
101.4799759708481
 31
0.0
1001
INDEX
1070
     0
  0
LINE
  5
19F
330
19B
100
AcDbEntity
  8
ANNOTATION_TEXT
 62
     7
100
AcDbLine
 10
31.06512518738744
 20
100.4799759708481
 30
0.0
 11
22.85870877454612
 21
100.4799759708481
 31
0.0
1001
INDEX
1070
     1
  0
LINE
  5
1A0
330
19B
100
AcDbEntity
  8
ANNOTATION_TEXT
 62
     7
100
AcDbLine
 10
29.46270877454612
 20
110.6239759708481
 30
0.0
 11
24.89070877454612
 21
110.6239759708481
 31
0.0
  0
LINE
  5
1A1
330
19B
100
AcDbEntity
  8
ANNOTATION_TEXT
 62
     7
100
AcDbLine
 10
24.89070877454612
 20
110.6239759708481
 30
0.0
 11
24.89070877454612
 21
101.4799759708481
 31
0.0
  0
LINE
  5
1A2
330
19B
100
AcDbEntity
  8
ANNOTATION_TEXT
 62
     7
100
AcDbLine
 10
24.89070877454612
 20
95.9079759708481
 30
0.0
 11
24.89070877454612
 21
91.3359759708481
 31
0.0
1001
INDEX
1070
     3
  0
SOLID
  5
1A3
330
19B
100
AcDbEntity
  8
ANNOTATION_TEXT
 62
     7
100
AcDbTrace
 10
24.12870877454612
 20
106.0519759708481
 30
0.0
 11
25.65270877454612
 21
106.0519759708481
 31
0.0
 12
24.89070877454612
 22
101.4799759708481
 32
0.0
 13
24.89070877454612
 23
101.4799759708481
 33
0.0
  0
SOLID
  5
1A4
330
19B
100
AcDbEntity
  8
ANNOTATION_TEXT
 62
     7
100
AcDbTrace
 10
25.65270877454612
 20
95.9079759708481
 30
0.0
 11
24.12870877454612
 21
95.9079759708481
 31
0.0
 12
24.89070877454612
 22
100.4799759708481
 32
0.0
 13
24.89070877454612
 23
100.4799759708481
 33
0.0
  0
MTEXT
  5
1A5
330
19B
100
AcDbEntity
  8
ANNOTATION_TEXT
 62
     7
100
AcDbMText
 10
32.74844446936901
 20
110.6239759708481
 30
0.0
 40
3.048
 41
0.0
 71
     5
 72
     1
  1
\A1;3
  7
ONSHAPE-STANDARD-DIMENSION
  0
POINT
  5
1A6
330
19B
100
AcDbEntity
  8
DEFPOINTS
 62
     0
100
AcDbPoint
 10
32.65262518738744
 20
101.4799759708481
 30
0.0
  0
POINT
  5
1A7
330
19B
100
AcDbEntity
  8
DEFPOINTS
 62
     0
100
AcDbPoint
 10
32.65262518738744
 20
100.4799759708481
 30
0.0
  0
POINT
  5
1A8
330
19B
100
AcDbEntity
  8
DEFPOINTS
 62
     0
100
AcDbPoint
 10
24.89070877454612
 20
100.4799759708481
 30
0.0
  0
POINT
  5
1A9
330
19B
100
AcDbEntity
  8
DEFPOINTS
 62
     0
100
AcDbPoint
 10
24.89070877454612
 20
100.4799759708481
 30
0.0
  0
ENDBLK
  5
1AA
330
19B
100
AcDbEntity
  8
0
100
AcDbBlockEnd
  0
BLOCK
  5
1BA
330
1B9
100
AcDbEntity
  8
0
100
AcDbBlockBegin
  2
*D2
 70
     1
 10
0.0
 20
0.0
 30
0.0
  3
*D2
  1

  0
LINE
  5
1BB
330
1B9
100
AcDbEntity
  8
ANNOTATION_TEXT
 62
     7
100
AcDbLine
 10
32.65262518738746
 20
155.2553471696185
 30
0.0
 11
32.65262518738746
 21
125.9268243703903
 31
0.0
1001
INDEX
1070
     0
  0
LINE
  5
1BD
330
1B9
100
AcDbEntity
  8
ANNOTATION_TEXT
 62
     7
100
AcDbLine
 10
97.65262518738746
 20
155.2553471696185
 30
0.0
 11
97.65262518738746
 21
125.9268243703903
 31
0.0
1001
INDEX
1070
     1
  0
LINE
  5
1BE
330
1B9
100
AcDbEntity
  8
ANNOTATION_TEXT
 62
     7
100
AcDbLine
 10
37.22462518738746
 20
127.9588243703903
 30
0.0
 11
52.17351524062035
 21
127.9588243703903
 31
0.0
1001
INDEX
1070
     3
  0
LINE
  5
1BF
330
1B9
100
AcDbEntity
  8
ANNOTATION_TEXT
 62
     7
100
AcDbLine
 10
93.08062518738745
 20
127.9588243703903
 30
0.0
 11
63.42080134416258
 21
127.9588243703903
 31
0.0
1001
INDEX
1070
     3
  0
SOLID
  5
1C0
330
1B9
100
AcDbEntity
  8
ANNOTATION_TEXT
 62
     7
100
AcDbTrace
 10
37.22462518738746
 20
128.7208243703903
 30
0.0
 11
37.22462518738746
 21
127.1968243703903
 31
0.0
 12
32.65262518738746
 22
127.9588243703903
 32
0.0
 13
32.65262518738746
 23
127.9588243703903
 33
0.0
  0
SOLID
  5
1C1
330
1B9
100
AcDbEntity
  8
ANNOTATION_TEXT
 62
     7
100
AcDbTrace
 10
93.08062518738745
 20
127.1968243703903
 30
0.0
 11
93.08062518738745
 21
128.7208243703903
 31
0.0
 12
97.65262518738746
 22
127.9588243703903
 32
0.0
 13
97.65262518738746
 23
127.9588243703903
 33
0.0
  0
MTEXT
  5
1C2
330
1B9
100
AcDbEntity
  8
ANNOTATION_TEXT
 62
     7
100
AcDbMText
 10
57.79715829239147
 20
127.9588243703903
 30
0.0
 40
3.048
 41
0.0
 71
     5
 72
     1
  1
\A1;195
  7
ONSHAPE-STANDARD-DIMENSION
  0
POINT
  5
1C3
330
1B9
100
AcDbEntity
  8
DEFPOINTS
 62
     0
100
AcDbPoint
 10
32.65262518738746
 20
156.8428471696185
 30
0.0
  0
POINT
  5
1C4
330
1B9
100
AcDbEntity
  8
DEFPOINTS
 62
     0
100
AcDbPoint
 10
97.65262518738746
 20
156.8428471696185
 30
0.0
  0
POINT
  5
1C5
330
1B9
100
AcDbEntity
  8
DEFPOINTS
 62
     0
100
AcDbPoint
 10
97.65262518738746
 20
127.9588243703903
 30
0.0
  0
POINT
  5
1C6
330
1B9
100
AcDbEntity
  8
DEFPOINTS
 62
     0
100
AcDbPoint
 10
97.65262518738746
 20
127.9588243703903
 30
0.0
  0
ENDBLK
  5
1C7
330
1B9
100
AcDbEntity
  8
0
100
AcDbBlockEnd
  0
BLOCK
  5
1D7
330
1D6
100
AcDbEntity
  8
0
100
AcDbBlockBegin
  2
*D3
 70
     1
 10
0.0
 20
0.0
 30
0.0
  3
*D3
  1

  0
LINE
  5
1D8
330
1D6
100
AcDbEntity
  8
ANNOTATION_TEXT
 62
     7
100
AcDbLine
 10
67.78022585229292
 20
140.501541675913
 30
0.0
 11
73.55751468063114
 21
140.501541675913
 31
0.0
1001
INDEX
1070
     3
  0
LINE
  5
1DA
330
1D6
100
AcDbEntity
  8
ANNOTATION_TEXT
 62
     7
100
AcDbLine
 10
73.55751468063114
 20
140.501541675913
 30
0.0
 11
77.34019877364217
 21
163.9692368829131
 31
0.0
1001
INDEX
1070
     3
  0
MTEXT
  5
1DB
330
1D6
100
AcDbEntity
  8
ANNOTATION_TEXT
 62
     7
100
AcDbMText
 10
58.08912231005858
 20
140.501541675913
 30
0.0
 40
3.048
 41
0.0
 71
     5
 72
     1
  1
\A1;x4 Ø3.2
  7
ONSHAPE-STANDARD-DIMENSION
  0
SOLID
  5
1DC
330
1D6
100
AcDbEntity
  8
ANNOTATION_TEXT
 62
     7
100
AcDbTrace
 10
78.09248873939096
 20
163.847977625808
 30
0.0
 11
76.58790880789338
 21
164.0904961400182
 31
0.0
 12
78.06775431627278
 22
168.4829766774058
 32
0.0
 13
78.06775431627278
 23
168.4829766774058
 33
0.0
  0
POINT
  5
1DD
330
1D6
100
AcDbEntity
  8
DEFPOINTS
 62
     0
100
AcDbPoint
 10
78.06775431627278
 20
168.4829766774058
 30
0.0
  0
POINT
  5
1DE
330
1D6
100
AcDbEntity
  8
DEFPOINTS
 62
     0
100
AcDbPoint
 10
78.23749605850215
 20
169.5360509951644
 30
0.0
  0
ENDBLK
  5
1DF
330
1D6
100
AcDbEntity
  8
0
100
AcDbBlockEnd
  0
BLOCK
  5
1F0
330
1EF
100
AcDbEntity
  8
0
100
AcDbBlockBegin
  2
*D4
 70
     1
 10
0.0
 20
0.0
 30
0.0
  3
*D4
  1

  0
LINE
  5
1F1
330
1EF
100
AcDbEntity
  8
ANNOTATION_TEXT
 62
     7
100
AcDbLine
 10
53.98595852072079
 20
169.5886805029518
 30
0.0
 11
53.98595852072079
 21
144.2457930666143
 31
0.0
1001
INDEX
1070
     0
  0
LINE
  5
1F3
330
1EF
100
AcDbEntity
  8
ANNOTATION_TEXT
 62
     7
100
AcDbLine
 10
32.65262518738746
 20
155.2553471696185
 30
0.0
 11
32.65262518738746
 21
144.2457930666143
 31
0.0
1001
INDEX
1070
     1
  0
LINE
  5
1F4
330
1EF
100
AcDbEntity
  8
ANNOTATION_TEXT
 62
     7
100
AcDbLine
 10
49.4139585207208
 20
146.2777930666143
 30
0.0
 11
47.87675779410861
 21
146.2777930666143
 31
0.0
1001
INDEX
1070
     3
  0
LINE
  5
1F5
330
1EF
100
AcDbEntity
  8
ANNOTATION_TEXT
 62
     7
100
AcDbLine
 10
37.22462518738746
 20
146.2777930666143
 30
0.0
 11
38.76182591399962
 21
146.2777930666143
 31
0.0
1001
INDEX
1070
     3
  0
SOLID
  5
1F6
330
1EF
100
AcDbEntity
  8
ANNOTATION_TEXT
 62
     7
100
AcDbTrace
 10
49.4139585207208
 20
145.5157930666143
 30
0.0
 11
49.4139585207208
 21
147.0397930666143
 31
0.0
 12
53.98595852072079
 22
146.2777930666143
 32
0.0
 13
53.98595852072079
 23
146.2777930666143
 33
0.0
  0
SOLID
  5
1F7
330
1EF
100
AcDbEntity
  8
ANNOTATION_TEXT
 62
     7
100
AcDbTrace
 10
37.22462518738746
 20
147.0397930666143
 30
0.0
 11
37.22462518738746
 21
145.5157930666143
 31
0.0
 12
32.65262518738746
 22
146.2777930666143
 32
0.0
 13
32.65262518738746
 23
146.2777930666143
 33
0.0
  0
MTEXT
  5
1F8
330
1EF
100
AcDbEntity
  8
ANNOTATION_TEXT
 62
     7
100
AcDbMText
 10
43.31929185405411
 20
146.2777930666143
 30
0.0
 40
3.048
 41
0.0
 71
     5
 72
     1
  1
\A1;64
  7
ONSHAPE-STANDARD-DIMENSION
  0
POINT
  5
1F9
330
1EF
100
AcDbEntity
  8
DEFPOINTS
 62
     0
100
AcDbPoint
 10
53.98595852072079
 20
171.1761805029518
 30
0.0
  0
POINT
  5
1FA
330
1EF
100
AcDbEntity
  8
DEFPOINTS
 62
     0
100
AcDbPoint
 10
32.65262518738746
 20
156.8428471696185
 30
0.0
  0
POINT
  5
1FB
330
1EF
100
AcDbEntity
  8
DEFPOINTS
 62
     0
100
AcDbPoint
 10
32.65262518738746
 20
146.2777930666143
 30
0.0
  0
POINT
  5
1FC
330
1EF
100
AcDbEntity
  8
DEFPOINTS
 62
     0
100
AcDbPoint
 10
32.65262518738746
 20
146.2777930666143
 30
0.0
  0
ENDBLK
  5
1FD
330
1EF
100
AcDbEntity
  8
0
100
AcDbBlockEnd
  0
BLOCK
  5
20D
330
20C
100
AcDbEntity
  8
0
100
AcDbBlockBegin
  2
*D5
 70
     1
 10
0.0
 20
0.0
 30
0.0
  3
*D5
  1

  0
LINE
  5
20E
330
20C
100
AcDbEntity
  8
ANNOTATION_TEXT
 62
     7
100
AcDbLine
 10
53.98595852072079
 20
181.0970138362852
 30
0.0
 11
53.98595852072079
 21
204.2569136794064
 31
0.0
1001
INDEX
1070
     0
  0
LINE
  5
210
330
20C
100
AcDbEntity
  8
ANNOTATION_TEXT
 62
     7
100
AcDbLine
 10
32.65262518738746
 20
195.4303471696185
 30
0.0
 11
32.65262518738746
 21
204.2569136794064
 31
0.0
1001
INDEX
1070
     1
  0
LINE
  5
211
330
20C
100
AcDbEntity
  8
ANNOTATION_TEXT
 62
     7
100
AcDbLine
 10
49.4139585207208
 20
202.2249136794064
 30
0.0
 11
47.87675779410862
 21
202.2249136794064
 31
0.0
1001
INDEX
1070
     3
  0
LINE
  5
212
330
20C
100
AcDbEntity
  8
ANNOTATION_TEXT
 62
     7
100
AcDbLine
 10
37.22462518738746
 20
202.2249136794064
 30
0.0
 11
38.76182591399962
 21
202.2249136794064
 31
0.0
1001
INDEX
1070
     3
  0
SOLID
  5
213
330
20C
100
AcDbEntity
  8
ANNOTATION_TEXT
 62
     7
100
AcDbTrace
 10
49.4139585207208
 20
201.4629136794064
 30
0.0
 11
49.4139585207208
 21
202.9869136794064
 31
0.0
 12
53.98595852072079
 22
202.2249136794064
 32
0.0
 13
53.98595852072079
 23
202.2249136794064
 33
0.0
  0
SOLID
  5
214
330
20C
100
AcDbEntity
  8
ANNOTATION_TEXT
 62
     7
100
AcDbTrace
 10
37.22462518738746
 20
202.9869136794064
 30
0.0
 11
37.22462518738746
 21
201.4629136794064
 31
0.0
 12
32.65262518738746
 22
202.2249136794064
 32
0.0
 13
32.65262518738746
 23
202.2249136794064
 33
0.0
  0
MTEXT
  5
215
330
20C
100
AcDbEntity
  8
ANNOTATION_TEXT
 62
     7
100
AcDbMText
 10
43.31929185405412
 20
202.2249136794064
 30
0.0
 40
3.048
 41
0.0
 71
     5
 72
     1
  1
\A1;64
  7
ONSHAPE-STANDARD-DIMENSION
  0
POINT
  5
216
330
20C
100
AcDbEntity
  8
DEFPOINTS
 62
     0
100
AcDbPoint
 10
53.98595852072079
 20
179.5095138362852
 30
0.0
  0
POINT
  5
217
330
20C
100
AcDbEntity
  8
DEFPOINTS
 62
     0
100
AcDbPoint
 10
32.65262518738746
 20
193.8428471696185
 30
0.0
  0
POINT
  5
218
330
20C
100
AcDbEntity
  8
DEFPOINTS
 62
     0
100
AcDbPoint
 10
32.65262518738746
 20
202.2249136794064
 30
0.0
  0
POINT
  5
219
330
20C
100
AcDbEntity
  8
DEFPOINTS
 62
     0
100
AcDbPoint
 10
32.65262518738746
 20
202.2249136794064
 30
0.0
  0
ENDBLK
  5
21A
330
20C
100
AcDbEntity
  8
0
100
AcDbBlockEnd
  0
BLOCK
  5
22A
330
229
100
AcDbEntity
  8
0
100
AcDbBlockBegin
  2
*D6
 70
     1
 10
0.0
 20
0.0
 30
0.0
  3
*D6
  1

  0
LINE
  5
22B
330
229
100
AcDbEntity
  8
ANNOTATION_TEXT
 62
     7
100
AcDbLine
 10
77.90679185405413
 20
179.5095138362852
 30
0.0
 11
127.4334614061754
 21
179.5095138362852
 31
0.0
1001
INDEX
1070
     0
  0
LINE
  5
22D
330
229
100
AcDbEntity
  8
ANNOTATION_TEXT
 62
     7
100
AcDbLine
 10
99.24012518738746
 20
193.8428471696185
 30
0.0
 11
127.4334614061754
 21
193.8428471696185
 31
0.0
1001
INDEX
1070
     1
  0
LINE
  5
22E
330
229
100
AcDbEntity
  8
ANNOTATION_TEXT
 62
     7
100
AcDbLine
 10
129.9734614061754
 20
198.4148471696185
 30
0.0
 11
125.4014614061754
 21
198.4148471696185
 31
0.0
  0
LINE
  5
22F
330
229
100
AcDbEntity
  8
ANNOTATION_TEXT
 62
     7
100
AcDbLine
 10
125.4014614061754
 20
198.4148471696185
 30
0.0
 11
125.4014614061754
 21
193.8428471696185
 31
0.0
  0
LINE
  5
230
330
229
100
AcDbEntity
  8
ANNOTATION_TEXT
 62
     7
100
AcDbLine
 10
125.4014614061754
 20
184.0815138362852
 30
0.0
 11
125.4014614061754
 21
189.2708471696185
 31
0.0
1001
INDEX
1070
     3
  0
LINE
  5
231
330
229
100
AcDbEntity
  8
ANNOTATION_TEXT
 62
     7
100
AcDbLine
 10
125.4014614061754
 20
189.2708471696185
 30
0.0
 11
125.4014614061754
 21
184.0815138362852
 31
0.0
1001
INDEX
1070
     3
  0
SOLID
  5
232
330
229
100
AcDbEntity
  8
ANNOTATION_TEXT
 62
     7
100
AcDbTrace
 10
124.6394614061754
 20
184.0815138362852
 30
0.0
 11
126.1634614061754
 21
184.0815138362852
 31
0.0
 12
125.4014614061754
 22
179.5095138362852
 32
0.0
 13
125.4014614061754
 23
179.5095138362852
 33
0.0
  0
SOLID
  5
233
330
229
100
AcDbEntity
  8
ANNOTATION_TEXT
 62
     7
100
AcDbTrace
 10
126.1634614061754
 20
189.2708471696185
 30
0.0
 11
124.6394614061754
 21
189.2708471696185
 31
0.0
 12
125.4014614061754
 22
193.8428471696185
 32
0.0
 13
125.4014614061754
 23
193.8428471696185
 33
0.0
  0
MTEXT
  5
234
330
229
100
AcDbEntity
  8
ANNOTATION_TEXT
 62
     7
100
AcDbMText
 10
134.5257366105351
 20
198.4148471696185
 30
0.0
 40
3.048
 41
0.0
 71
     5
 72
     1
  1
\A1;43
  7
ONSHAPE-STANDARD-DIMENSION
  0
POINT
  5
235
330
229
100
AcDbEntity
  8
DEFPOINTS
 62
     0
100
AcDbPoint
 10
76.31929185405413
 20
179.5095138362852
 30
0.0
  0
POINT
  5
236
330
229
100
AcDbEntity
  8
DEFPOINTS
 62
     0
100
AcDbPoint
 10
97.65262518738746
 20
193.8428471696185
 30
0.0
  0
POINT
  5
237
330
229
100
AcDbEntity
  8
DEFPOINTS
 62
     0
100
AcDbPoint
 10
125.4014614061754
 20
193.8428471696185
 30
0.0
  0
POINT
  5
238
330
229
100
AcDbEntity
  8
DEFPOINTS
 62
     0
100
AcDbPoint
 10
125.4014614061754
 20
193.8428471696185
 30
0.0
  0
ENDBLK
  5
239
330
229
100
AcDbEntity
  8
0
100
AcDbBlockEnd
  0
BLOCK
  5
249
330
248
100
AcDbEntity
  8
0
100
AcDbBlockBegin
  2
*D7
 70
     1
 10
0.0
 20
0.0
 30
0.0
  3
*D7
  1

  0
LINE
  5
24A
330
248
100
AcDbEntity
  8
ANNOTATION_TEXT
 62
     7
100
AcDbLine
 10
77.90679185405413
 20
171.1761805029518
 30
0.0
 11
127.8581503807309
 21
171.1761805029518
 31
0.0
1001
INDEX
1070
     0
  0
LINE
  5
24C
330
248
100
AcDbEntity
  8
ANNOTATION_TEXT
 62
     7
100
AcDbLine
 10
99.24012518738746
 20
156.8428471696185
 30
0.0
 11
127.8581503807309
 21
156.8428471696185
 31
0.0
1001
INDEX
1070
     1
  0
LINE
  5
24D
330
248
100
AcDbEntity
  8
ANNOTATION_TEXT
 62
     7
100
AcDbLine
 10
121.2541503807309
 20
133.4050042530515
 30
0.0
 11
125.8261503807309
 21
133.4050042530515
 31
0.0
  0
LINE
  5
24E
330
248
100
AcDbEntity
  8
ANNOTATION_TEXT
 62
     7
100
AcDbLine
 10
125.8261503807309
 20
133.4050042530515
 30
0.0
 11
125.8261503807309
 21
156.8428471696185
 31
0.0
  0
LINE
  5
24F
330
248
100
AcDbEntity
  8
ANNOTATION_TEXT
 62
     7
100
AcDbLine
 10
125.8261503807309
 20
166.6041805029518
 30
0.0
 11
125.8261503807309
 21
161.4148471696185
 31
0.0
1001
INDEX
1070
     3
  0
LINE
  5
250
330
248
100
AcDbEntity
  8
ANNOTATION_TEXT
 62
     7
100
AcDbLine
 10
125.8261503807309
 20
161.4148471696185
 30
0.0
 11
125.8261503807309
 21
166.6041805029518
 31
0.0
1001
INDEX
1070
     3
  0
SOLID
  5
251
330
248
100
AcDbEntity
  8
ANNOTATION_TEXT
 62
     7
100
AcDbTrace
 10
126.5881503807309
 20
166.6041805029518
 30
0.0
 11
125.0641503807309
 21
166.6041805029518
 31
0.0
 12
125.8261503807309
 22
171.1761805029518
 32
0.0
 13
125.8261503807309
 23
171.1761805029518
 33
0.0
  0
SOLID
  5
252
330
248
100
AcDbEntity
  8
ANNOTATION_TEXT
 62
     7
100
AcDbTrace
 10
125.0641503807309
 20
161.4148471696185
 30
0.0
 11
126.5881503807309
 21
161.4148471696185
 31
0.0
 12
125.8261503807309
 22
156.8428471696185
 32
0.0
 13
125.8261503807309
 23
156.8428471696185
 33
0.0
  0
MTEXT
  5
253
330
248
100
AcDbEntity
  8
ANNOTATION_TEXT
 62
     7
100
AcDbMText
 10
116.7018751763713
 20
133.4050042530515
 30
0.0
 40
3.048
 41
0.0
 71
     5
 72
     1
  1
\A1;43
  7
ONSHAPE-STANDARD-DIMENSION
  0
POINT
  5
254
330
248
100
AcDbEntity
  8
DEFPOINTS
 62
     0
100
AcDbPoint
 10
76.31929185405413
 20
171.1761805029518
 30
0.0
  0
POINT
  5
255
330
248
100
AcDbEntity
  8
DEFPOINTS
 62
     0
100
AcDbPoint
 10
97.65262518738746
 20
156.8428471696185
 30
0.0
  0
POINT
  5
256
330
248
100
AcDbEntity
  8
DEFPOINTS
 62
     0
100
AcDbPoint
 10
125.8261503807309
 20
156.8428471696185
 30
0.0
  0
POINT
  5
257
330
248
100
AcDbEntity
  8
DEFPOINTS
 62
     0
100
AcDbPoint
 10
125.8261503807309
 20
156.8428471696185
 30
0.0
  0
ENDBLK
  5
258
330
248
100
AcDbEntity
  8
0
100
AcDbBlockEnd
  0
BLOCK
  5
27B
330
27A
100
AcDbEntity
  8
0
100
AcDbBlockBegin
  2
*D8
 70
     1
 10
0.0
 20
0.0
 30
0.0
  3
*D8
  1

  0
LINE
  5
27C
330
27A
100
AcDbEntity
  8
ANNOTATION_TEXT
 62
     7
100
AcDbLine
 10
201.8373192111668
 20
182.2923350597686
 30
0.0
 11
223.2704618389992
 21
182.2923350597686
 31
0.0
1001
INDEX
1070
     0
  0
LINE
  5
27E
330
27A
100
AcDbEntity
  8
ANNOTATION_TEXT
 62
     7
100
AcDbLine
 10
201.8373192111668
 20
165.6256683931019
 30
0.0
 11
223.2704618389992
 21
165.6256683931019
 31
0.0
1001
INDEX
1070
     1
  0
LINE
  5
27F
330
27A
100
AcDbEntity
  8
ANNOTATION_TEXT
 62
     7
100
AcDbLine
 10
221.2384618389991
 20
186.8643350597686
 30
0.0
 11
221.2384618389991
 21
191.4363350597686
 31
0.0
1001
INDEX
1070
     3
  0
LINE
  5
280
330
27A
100
AcDbEntity
  8
ANNOTATION_TEXT
 62
     7
100
AcDbLine
 10
221.2384618389991
 20
161.0536683931019
 30
0.0
 11
221.2384618389991
 21
156.4816683931019
 31
0.0
1001
INDEX
1070
     3
  0
SOLID
  5
281
330
27A
100
AcDbEntity
  8
ANNOTATION_TEXT
 62
     7
100
AcDbTrace
 10
220.4764618389991
 20
186.8643350597686
 30
0.0
 11
222.0004618389991
 21
186.8643350597686
 31
0.0
 12
221.2384618389991
 22
182.2923350597686
 32
0.0
 13
221.2384618389991
 23
182.2923350597686
 33
0.0
  0
SOLID
  5
282
330
27A
100
AcDbEntity
  8
ANNOTATION_TEXT
 62
     7
100
AcDbTrace
 10
222.0004618389991
 20
161.0536683931019
 30
0.0
 11
220.4764618389991
 21
161.0536683931019
 31
0.0
 12
221.2384618389991
 22
165.6256683931019
 32
0.0
 13
221.2384618389991
 23
165.6256683931019
 33
0.0
  0
MTEXT
  5
283
330
27A
100
AcDbEntity
  8
ANNOTATION_TEXT
 62
     7
100
AcDbMText
 10
221.2384618389991
 20
173.9590017264352
 30
0.0
 40
3.048
 41
0.0
 71
     5
 72
     1
  1
\A1;25
  7
ONSHAPE-STANDARD-DIMENSION
  0
POINT
  5
284
330
27A
100
AcDbEntity
  8
DEFPOINTS
 62
     0
100
AcDbPoint
 10
200.2498192111668
 20
182.2923350597686
 30
0.0
  0
POINT
  5
285
330
27A
100
AcDbEntity
  8
DEFPOINTS
 62
     0
100
AcDbPoint
 10
200.2498192111668
 20
165.6256683931019
 30
0.0
  0
POINT
  5
286
330
27A
100
AcDbEntity
  8
DEFPOINTS
 62
     0
100
AcDbPoint
 10
221.2384618389991
 20
165.6256683931019
 30
0.0
  0
POINT
  5
287
330
27A
100
AcDbEntity
  8
DEFPOINTS
 62
     0
100
AcDbPoint
 10
221.2384618389991
 20
165.6256683931019
 30
0.0
  0
ENDBLK
  5
288
330
27A
100
AcDbEntity
  8
0
100
AcDbBlockEnd
  0
BLOCK
  5
298
330
297
100
AcDbEntity
  8
0
100
AcDbBlockBegin
  2
*D9
 70
     1
 10
0.0
 20
0.0
 30
0.0
  3
*D9
  1

  0
LINE
  5
299
330
297
100
AcDbEntity
  8
ANNOTATION_TEXT
 62
     7
100
AcDbLine
 10
155.5831525445002
 20
183.8798350597686
 30
0.0
 11
155.5831525445002
 21
197.1350935843264
 31
0.0
1001
INDEX
1070
     0
  0
LINE
  5
29B
330
297
100
AcDbEntity
  8
ANNOTATION_TEXT
 62
     7
100
AcDbLine
 10
200.2498192111668
 20
183.8798350597686
 30
0.0
 11
200.2498192111668
 21
197.1350935843264
 31
0.0
1001
INDEX
1070
     1
  0
LINE
  5
29C
330
297
100
AcDbEntity
  8
ANNOTATION_TEXT
 62
     7
100
AcDbLine
 10
160.1551525445002
 20
195.1030935843264
 30
0.0
 11
172.6407360276344
 21
195.1030935843264
 31
0.0
1001
INDEX
1070
     3
  0
LINE
  5
29D
330
297
100
AcDbEntity
  8
ANNOTATION_TEXT
 62
     7
100
AcDbLine
 10
195.6778192111668
 20
195.1030935843264
 30
0.0
 11
181.6331665453455
 21
195.1030935843264
 31
0.0
1001
INDEX
1070
     3
  0
SOLID
  5
29E
330
297
100
AcDbEntity
  8
ANNOTATION_TEXT
 62
     7
100
AcDbTrace
 10
160.1551525445002
 20
195.8650935843264
 30
0.0
 11
160.1551525445002
 21
194.3410935843264
 31
0.0
 12
155.5831525445002
 22
195.1030935843264
 32
0.0
 13
155.5831525445002
 23
195.1030935843264
 33
0.0
  0
SOLID
  5
29F
330
297
100
AcDbEntity
  8
ANNOTATION_TEXT
 62
     7
100
AcDbTrace
 10
195.6778192111668
 20
194.3410935843264
 30
0.0
 11
195.6778192111668
 21
195.8650935843264
 31
0.0
 12
200.2498192111668
 22
195.1030935843264
 32
0.0
 13
200.2498192111668
 23
195.1030935843264
 33
0.0
  0
MTEXT
  5
2A0
330
297
100
AcDbEntity
  8
ANNOTATION_TEXT
 62
     7
100
AcDbMText
 10
177.13695128649
 20
195.1030935843264
 30
0.0
 40
3.048
 41
0.0
 71
     5
 72
     1
  1
\A1;67
  7
ONSHAPE-STANDARD-DIMENSION
  0
POINT
  5
2A1
330
297
100
AcDbEntity
  8
DEFPOINTS
 62
     0
100
AcDbPoint
 10
155.5831525445002
 20
182.2923350597686
 30
0.0
  0
POINT
  5
2A2
330
297
100
AcDbEntity
  8
DEFPOINTS
 62
     0
100
AcDbPoint
 10
200.2498192111668
 20
182.2923350597686
 30
0.0
  0
POINT
  5
2A3
330
297
100
AcDbEntity
  8
DEFPOINTS
 62
     0
100
AcDbPoint
 10
200.2498192111668
 20
195.1030935843264
 30
0.0
  0
POINT
  5
2A4
330
297
100
AcDbEntity
  8
DEFPOINTS
 62
     0
100
AcDbPoint
 10
200.2498192111668
 20
195.1030935843264
 30
0.0
  0
ENDBLK
  5
2A5
330
297
100
AcDbEntity
  8
0
100
AcDbBlockEnd
  0
ENDSEC
  0
SECTION
  2
ENTITIES
  0
LINE
  5
76
330
1F
100
AcDbEntity
  8
VISIBLE
100
AcDbLine
 10
97.65262518738746
 20
193.8428471696185
 30
0.0
 11
97.65262518738746
 21
156.8428471696185
 31
0.0
  0
CIRCLE
  5
77
330
1F
100
AcDbEntity
  8
VISIBLE
100
AcDbCircle
 10
52.15262518738746
 20
169.0095138362851
 30
0.0
 40
0.5333333333333324
  0
CIRCLE
  5
78
330
1F
100
AcDbEntity
  8
VISIBLE
100
AcDbCircle
 10
78.15262518738747
 20
169.0095138362851
 30
0.0
 40
0.5333333333333324
  0
CIRCLE
  5
79
330
1F
100
AcDbEntity
  8
VISIBLE
100
AcDbCircle
 10
78.15262518738747
 20
181.6761805029518
 30
0.0
 40
0.5333333333333324
  0
CIRCLE
  5
7A
330
1F
100
AcDbEntity
  8
VISIBLE
100
AcDbCircle
 10
52.15262518738746
 20
181.6761805029518
 30
0.0
 40
0.5333333333333324
  0
LINE
  5
7B
330
1F
100
AcDbEntity
  8
VISIBLE
100
AcDbLine
 10
53.98595852072079
 20
171.1761805029518
 30
0.0
 11
76.31929185405413
 21
171.1761805029518
 31
0.0
  0
LINE
  5
7C
330
1F
100
AcDbEntity
  8
VISIBLE
100
AcDbLine
 10
76.31929185405413
 20
179.5095138362852
 30
0.0
 11
76.31929185405413
 21
171.1761805029518
 31
0.0
  0
LINE
  5
7D
330
1F
100
AcDbEntity
  8
VISIBLE
100
AcDbLine
 10
53.98595852072079
 20
179.5095138362852
 30
0.0
 11
76.31929185405413
 21
179.5095138362852
 31
0.0
  0
LINE
  5
7E
330
1F
100
AcDbEntity
  8
VISIBLE
100
AcDbLine
 10
53.98595852072079
 20
179.5095138362852
 30
0.0
 11
53.98595852072079
 21
171.1761805029518
 31
0.0
  0
LINE
  5
7F
330
1F
100
AcDbEntity
  8
VISIBLE
100
AcDbLine
 10
32.65262518738746
 20
156.8428471696185
 30
0.0
 11
97.65262518738746
 21
156.8428471696185
 31
0.0
  0
LINE
  5
80
330
1F
100
AcDbEntity
  8
VISIBLE
100
AcDbLine
 10
32.65262518738746
 20
193.8428471696185
 30
0.0
 11
32.65262518738746
 21
156.8428471696185
 31
0.0
  0
LINE
  5
81
330
1F
100
AcDbEntity
  8
VISIBLE
100
AcDbLine
 10
32.65262518738746
 20
193.8428471696185
 30
0.0
 11
97.65262518738746
 21
193.8428471696185
 31
0.0
  0
LINE
  5
84
330
1F
100
AcDbEntity
  8
VISIBLE
100
AcDbLine
 10
97.65262518738746
 20
101.4799759708481
 30
0.0
 11
97.65262518738746
 21
100.4799759708481
 31
0.0
  0
LINE
  5
85
330
1F
100
AcDbEntity
  8
VISIBLE
100
AcDbLine
 10
32.65262518738744
 20
101.4799759708481
 30
0.0
 11
32.65262518738744
 21
100.4799759708481
 31
0.0
  0
LINE
  5
86
330
1F
100
AcDbEntity
  8
VISIBLE
100
AcDbLine
 10
32.65262518738744
 20
100.4799759708481
 30
0.0
 11
97.65262518738746
 21
100.4799759708481
 31
0.0
  0
LINE
  5
87
330
1F
100
AcDbEntity
  8
VISIBLE
100
AcDbLine
 10
32.65262518738744
 20
101.4799759708481
 30
0.0
 11
97.65262518738746
 21
101.4799759708481
 31
0.0
  0
POLYLINE
  5
8B
330
1F
100
AcDbEntity
  8
DETAIL_VIEW_BORDER
100
AcDb2dPolyline
 66
     1
 10
0.0
 20
0.0
 30
0.0
 70
   129
  0
VERTEX
  5
8C
330
8B
100
AcDbEntity
  8
DETAIL_VIEW_BORDER
100
AcDbVertex
100
AcDb2dVertex
 10
152.6302165293862
 20
184.6488029467819
 30
0.0
  0
VERTEX
  5
8D
330
8B
100
AcDbEntity
  8
DETAIL_VIEW_BORDER
100
AcDbVertex
100
AcDb2dVertex
 10
152.6302165293862
 20
163.3591906781973
 30
0.0
  0
VERTEX
  5
8E
330
8B
100
AcDbEntity
  8
DETAIL_VIEW_BORDER
100
AcDbVertex
100
AcDb2dVertex
 10
203.6262645215773
 20
163.3591906781973
 30
0.0
  0
VERTEX
  5
8F
330
8B
100
AcDbEntity
  8
DETAIL_VIEW_BORDER
100
AcDbVertex
100
AcDb2dVertex
 10
203.6262645215773
 20
184.6488029467819
 30
0.0
  0
SEQEND
  5
90
330
8B
100
AcDbEntity
  8
DETAIL_VIEW_BORDER
  0
LINE
  5
91
330
1F
100
AcDbEntity
  8
VISIBLE
100
AcDbLine
 10
155.5831525445002
 20
165.6256683931019
 30
0.0
 11
200.2498192111668
 21
165.6256683931019
 31
0.0
  0
LINE
  5
92
330
1F
100
AcDbEntity
  8
VISIBLE
100
AcDbLine
 10
200.2498192111668
 20
182.2923350597686
 30
0.0
 11
200.2498192111668
 21
165.6256683931019
 31
0.0
  0
LINE
  5
93
330
1F
100
AcDbEntity
  8
VISIBLE
100
AcDbLine
 10
155.5831525445002
 20
182.2923350597686
 30
0.0
 11
200.2498192111668
 21
182.2923350597686
 31
0.0
  0
LINE
  5
94
330
1F
100
AcDbEntity
  8
VISIBLE
100
AcDbLine
 10
155.5831525445002
 20
182.2923350597686
 30
0.0
 11
155.5831525445002
 21
165.6256683931019
 31
0.0
  0
LINE
  5
97
330
1F
100
AcDbEntity
  8
VISIBLE
100
AcDbLine
 10
180.2515313044632
 20
89.65419621912403
 30
0.0
 11
196.0435827509627
 21
80.5366510654311
 31
0.0
  0
LINE
  5
98
330
1F
100
AcDbEntity
  8
VISIBLE
100
AcDbLine
 10
186.1440878143511
 20
92.23976872539518
 30
0.0
 11
180.9586380856497
 21
89.24594792866017
 31
0.0
  0
LINE
  5
99
330
1F
100
AcDbEntity
  8
VISIBLE
100
AcDbLine
 10
181.1943403460452
 20
107.617120999534
 30
0.0
 11
227.1562811231708
 21
81.08098211938291
 31
0.0
  0
LINE
  5
9A
330
1F
100
AcDbEntity
  8
VISIBLE
100
AcDbLine
 10
181.1943403460452
 20
107.617120999534
 30
0.0
 11
155.0313894421429
 21
92.51193425237108
 31
0.0
  0
LINE
  5
9B
330
1F
100
AcDbEntity
  8
VISIBLE
100
AcDbLine
 10
227.1562811231708
 20
81.08098211938291
 30
0.0
 11
200.9933302192686
 21
65.97579537221999
 31
0.0
  0
LINE
  5
9C
330
1F
100
AcDbEntity
  8
VISIBLE
100
AcDbLine
 10
186.1440878143511
 20
93.0562653063229
 30
0.0
 11
186.1440878143511
 21
92.23976872539518
 31
0.0
  0
LINE
  5
9D
330
1F
100
AcDbEntity
  8
VISIBLE
100
AcDbLine
 10
155.0313894421429
 20
91.69543767144336
 30
0.0
 11
200.9933302192686
 21
65.15929879129226
 31
0.0
  0
LINE
  5
9E
330
1F
100
AcDbEntity
  8
VISIBLE
100
AcDbLine
 10
200.9933302192686
 20
65.97579537221999
 30
0.0
 11
200.9933302192686
 21
65.15929879129226
 31
0.0
  0
LINE
  5
9F
330
1F
100
AcDbEntity
  8
VISIBLE
100
AcDbLine
 10
186.1440878143511
 20
92.23976872539518
 30
0.0
 11
201.2290324796641
 21
83.5304718621661
 31
0.0
  0
LINE
  5
A0
330
1F
100
AcDbEntity
  8
VISIBLE
100
AcDbLine
 10
186.1440878143511
 20
93.0562653063229
 30
0.0
 11
201.9361392608506
 21
83.93872015262997
 31
0.0
  0
LINE
  5
A1
330
1F
100
AcDbEntity
  8
VISIBLE
100
AcDbLine
 10
227.1562811231708
 20
81.08098211938291
 30
0.0
 11
227.1562811231708
 21
80.26448553845519
 31
0.0
  0
LINE
  5
A2
330
1F
100
AcDbEntity
  8
VISIBLE
100
AcDbLine
 10
227.1562811231708
 20
80.26448553845519
 30
0.0
 11
200.9933302192686
 21
65.15929879129226
 31
0.0
  0
LINE
  5
A3
330
1F
100
AcDbEntity
  8
VISIBLE
100
AcDbLine
 10
201.9361392608506
 20
83.93872015262997
 30
0.0
 11
196.0435827509627
 21
80.5366510654311
 31
0.0
  0
LINE
  5
A4
330
1F
100
AcDbEntity
  8
VISIBLE
100
AcDbLine
 10
155.0313894421429
 20
92.51193425237108
 30
0.0
 11
200.9933302192686
 21
65.97579537221999
 31
0.0
  0
LINE
  5
A5
330
1F
100
AcDbEntity
  8
VISIBLE
100
AcDbLine
 10
186.1440878143511
 20
93.0562653063229
 30
0.0
 11
180.2515313044632
 21
89.65419621912403
 31
0.0
  0
LINE
  5
A6
330
1F
100
AcDbEntity
  8
VISIBLE
100
AcDbLine
 10
155.0313894421429
 20
92.51193425237108
 30
0.0
 11
155.0313894421429
 21
91.69543767144336
 31
0.0
  0
ELLIPSE
  5
A7
330
1F
100
AcDbEntity
  8
VISIBLE
100
AcDbEllipse
 10
177.423104179717
 20
89.51811345563608
 30
0.0
 11
-0.5333333333333323
 21
3.625973214694709E-17
 31
0.0
210
0.0
220
0.0
230
1.0
 40
0.577350269189626
 41
0.0
 42
6.283185307179586
  0
ELLIPSE
  5
A8
330
1F
100
AcDbEntity
  8
VISIBLE
100
AcDbEllipse
 10
195.8078804905672
 20
78.90365790357565
 30
0.0
 11
-0.5333333333333323
 21
3.625973214694709E-17
 31
0.0
210
0.0
220
0.0
230
1.0
 40
0.577350269189626
 41
0.0
 42
6.283185307179586
  0
ELLIPSE
  5
A9
330
1F
100
AcDbEntity
  8
VISIBLE
100
AcDbEllipse
 10
186.3797900747466
 20
94.68925846817835
 30
0.0
 11
-0.5333333333333323
 21
3.625973214694709E-17
 31
0.0
210
0.0
220
0.0
230
1.0
 40
0.577350269189626
 41
0.0
 42
6.283185307179586
  0
ELLIPSE
  5
AA
330
1F
100
AcDbEntity
  8
VISIBLE
100
AcDbEllipse
 10
204.7645663855968
 20
84.07480291611792
 30
0.0
 11
-0.5333333333333323
 21
3.625973214694709E-17
 31
0.0
210
0.0
220
0.0
230
1.0
 40
0.577350269189626
 41
0.0
 42
6.283185307179586
  0
LINE
  5
AB
330
1F
100
AcDbEntity
  8
BORDER_FRAME
100
AcDbLine
 10
10.1346
 20
9.652
 30
0.0
 11
10.1346
 21
206.248
 31
0.0
  0
LINE
  5
AE
330
1F
100
AcDbEntity
  8
BORDER_FRAME
100
AcDbLine
 10
10.1346
 20
206.248
 30
0.0
 11
270.2306
 21
206.248
 31
0.0
  0
LINE
  5
AF
330
1F
100
AcDbEntity
  8
BORDER_FRAME
100
AcDbLine
 10
270.2306
 20
206.248
 30
0.0
 11
270.2306
 21
9.652
 31
0.0
  0
LINE
  5
B0
330
1F
100
AcDbEntity
  8
BORDER_FRAME
100
AcDbLine
 10
270.2306
 20
9.652
 30
0.0
 11
10.1346
 21
9.652
 31
0.0
  0
LINE
  5
B1
330
1F
100
AcDbEntity
  8
BORDER_ZONES
100
AcDbLine
 10
140.1826
 20
9.652
 30
0.0
 11
140.1826
 21
0.4826
 31
0.0
  0
LINE
  5
B3
330
1F
100
AcDbEntity
  8
BORDER_ZONES
100
AcDbLine
 10
140.1826
 20
206.248
 30
0.0
 11
140.1826
 21
215.4174
 31
0.0
  0
MTEXT
  5
B4
330
1F
100
AcDbEntity
  8
BORDER_ZONES
100
AcDbMText
 10
70.3326
 20
4.826
 30
0.0
 40
4.571999999999999
 41
0.0
 71
     5
 72
     1
  1
2
  7
ONSHAPE-STANDARD
  0
MTEXT
  5
B6
330
1F
100
AcDbEntity
  8
BORDER_ZONES
100
AcDbMText
 10
70.3326
 20
211.074
 30
0.0
 40
4.571999999999999
 41
0.0
 71
     5
 72
     1
  1
2
  7
ONSHAPE-STANDARD
  0
MTEXT
  5
B7
330
1F
100
AcDbEntity
  8
BORDER_ZONES
100
AcDbMText
 10
210.0326
 20
4.826
 30
0.0
 40
4.571999999999999
 41
0.0
 71
     5
 72
     1
  1
1
  7
ONSHAPE-STANDARD
  0
MTEXT
  5
B8
330
1F
100
AcDbEntity
  8
BORDER_ZONES
100
AcDbMText
 10
210.0326
 20
211.074
 30
0.0
 40
4.571999999999999
 41
0.0
 71
     5
 72
     1
  1
1
  7
ONSHAPE-STANDARD
  0
LINE
  5
B9
330
1F
100
AcDbEntity
  8
BORDER_ZONES
100
AcDbLine
 10
10.1346
 20
107.95
 30
0.0
 11
0.9652000000000001
 21
107.95
 31
0.0
  0
LINE
  5
BA
330
1F
100
AcDbEntity
  8
BORDER_ZONES
100
AcDbLine
 10
270.2306
 20
107.95
 30
0.0
 11
279.4
 21
107.95
 31
0.0
  0
MTEXT
  5
BB
330
1F
100
AcDbEntity
  8
BORDER_ZONES
100
AcDbMText
 10
5.308599999999999
 20
53.97499999999999
 30
0.0
 40
4.571999999999999
 41
0.0
 71
     5
 72
     1
  1
A
  7
ONSHAPE-STANDARD
  0
MTEXT
  5
BC
330
1F
100
AcDbEntity
  8
BORDER_ZONES
100
AcDbMText
 10
275.0565999999999
 20
53.97499999999999
 30
0.0
 40
4.571999999999999
 41
0.0
 71
     5
 72
     1
  1
A
  7
ONSHAPE-STANDARD
  0
MTEXT
  5
BD
330
1F
100
AcDbEntity
  8
BORDER_ZONES
100
AcDbMText
 10
5.308599999999999
 20
161.925
 30
0.0
 40
4.571999999999999
 41
0.0
 71
     5
 72
     1
  1
B
  7
ONSHAPE-STANDARD
  0
MTEXT
  5
BE
330
1F
100
AcDbEntity
  8
BORDER_ZONES
100
AcDbMText
 10
275.0565999999999
 20
161.925
 30
0.0
 40
4.571999999999999
 41
0.0
 71
     5
 72
     1
  1
B
  7
ONSHAPE-STANDARD
  0
LINE
  5
BF
330
1F
100
AcDbEntity
  8
TITLE_BLOCK
100
AcDbLine
 10
115.9256
 20
9.652
 30
0.0
 11
115.9256
 21
47.752
 31
0.0
  0
LINE
  5
C1
330
1F
100
AcDbEntity
  8
TITLE_BLOCK
100
AcDbLine
 10
115.9256
 20
9.652
 30
0.0
 11
146.4056
 21
9.652
 31
0.0
  0
LINE
  5
C2
330
1F
100
AcDbEntity
  8
TITLE_BLOCK
100
AcDbLine
 10
115.9256
 20
17.272
 30
0.0
 11
146.4056
 21
17.272
 31
0.0
  0
LINE
  5
C3
330
1F
100
AcDbEntity
  8
TITLE_BLOCK
100
AcDbLine
 10
115.9256
 20
20.32
 30
0.0
 11
146.4056
 21
20.32
 31
0.0
  0
LINE
  5
C4
330
1F
100
AcDbEntity
  8
TITLE_BLOCK
100
AcDbLine
 10
115.9256
 20
25.5016
 30
0.0
 11
146.4056
 21
25.5016
 31
0.0
  0
LINE
  5
C5
330
1F
100
AcDbEntity
  8
TITLE_BLOCK
100
AcDbLine
 10
115.9256
 20
29.9212
 30
0.0
 11
146.4056
 21
29.9212
 31
0.0
  0
LINE
  5
C6
330
1F
100
AcDbEntity
  8
TITLE_BLOCK
100
AcDbLine
 10
115.9256
 20
47.752
 30
0.0
 11
146.4056
 21
47.752
 31
0.0
  0
MTEXT
  5
C7
330
1F
100
AcDbEntity
  8
TITLE_BLOCK
100
AcDbMText
 10
116.59616
 20
46.65472
 30
0.0
 40
1.2192
 41
29.8704
 71
     1
 72
     1
  1
UNLESS OTHERWISE SPECIFIED, DIMENSIONS ARE IN MILLIMETERS
  7
ONSHAPE-STANDARD
  0
MTEXT
  5
C8
330
1F
100
AcDbEntity
  8
TITLE_BLOCK
100
AcDbMText
 10
131.769104
 20
42.192448
 30
0.0
 40
1.09728
 41
14.93519999999999
 71
     1
 72
     1
  1
^JANGULAR = ± °^J
  7
ONSHAPE-STANDARD
  0
MTEXT
  5
C9
330
1F
100
AcDbEntity
  8
TITLE_BLOCK
100
AcDbMText
 10
116.59616
 20
34.76752
 30
0.0
 40
1.2192
 41
14.93520000000001
 71
     1
 72
     1
  1
SURFACE FINISH
  7
ONSHAPE-STANDARD
  0
LINE
  5
CA
330
1F
100
AcDbEntity
  8
TITLE_BLOCK
100
AcDbLine
 10
129.6416
 20
32.9692
 30
0.0
 11
130.4036
 21
31.64937728463251
 31
0.0
  0
LINE
  5
CB
330
1F
100
AcDbEntity
  8
TITLE_BLOCK
100
AcDbLine
 10
130.4036
 20
31.64937728463251
 30
0.0
 11
132.0038
 21
34.42100498690424
 31
0.0
  0
LINE
  5
CC
330
1F
100
AcDbEntity
  8
TITLE_BLOCK
100
AcDbLine
 10
132.0038
 20
34.42100498690424
 30
0.0
 11
133.6802
 21
34.42100498690424
 31
0.0
  0
MTEXT
  5
CD
102
{ACAD_XDICTIONARY
360
332
102
}
330
1F
100
AcDbEntity
  8
TITLE_BLOCK
100
AcDbMText
 10
116.2304
 20
28.494736
 30
0.0
 40
1.58496
 41
29.8704
 71
     1
 72
     1
  1
{\fNoto Sans|b0|i0|c0|p0;\W8.60722;  }SCALE 1:3
  7
ONSHAPE-STANDARD
1001
ONSHAPE_NOTES_REORDERING_D
1071
        0
1070
     0
1001
ACAD
1000
ACAD_MTEXT_DEFINED_HEIGHT_BEGIN
1070
    46
1040
1.606553460490463
1000
ACAD_MTEXT_DEFINED_HEIGHT_END
  0
MTEXT
  5
D0
330
1F
100
AcDbEntity
  8
TITLE_BLOCK
100
AcDbMText
 10
131.1656
 20
24.40432
 30
0.0
 40
1.2192
 41
29.8704
 71
     2
 72
     1
  1
BREAK ALL SHARP EDGES AND REMOVE BURRS
  7
ONSHAPE-STANDARD
  0
CIRCLE
  5
D1
330
1F
100
AcDbEntity
  8
TITLE_BLOCK
100
AcDbCircle
 10
127.7366
 20
13.43152
 30
0.0
 40
1.3716
  0
CIRCLE
  5
D2
330
1F
100
AcDbEntity
  8
TITLE_BLOCK
100
AcDbCircle
 10
127.7366
 20
13.43152
 30
0.0
 40
2.7432
  0
LINE
  5
D3
330
1F
100
AcDbEntity
  8
TITLE_BLOCK
100
AcDbLine
 10
128.4224
 20
13.43152
 30
0.0
 11
127.0508
 21
13.43152
 31
0.0
  0
LINE
  5
D4
330
1F
100
AcDbEntity
  8
TITLE_BLOCK
100
AcDbLine
 10
127.7366
 20
14.11732
 30
0.0
 11
127.7366
 21
12.74572
 31
0.0
  0
LINE
  5
D5
330
1F
100
AcDbEntity
  8
TITLE_BLOCK
100
AcDbLine
 10
129.1082
 20
13.43152
 30
0.0
 11
131.1656
 21
13.43152
 31
0.0
  0
LINE
  5
D6
330
1F
100
AcDbEntity
  8
TITLE_BLOCK
100
AcDbLine
 10
127.7366
 20
14.80312
 30
0.0
 11
127.7366
 21
16.86052
 31
0.0
  0
LINE
  5
D7
330
1F
100
AcDbEntity
  8
TITLE_BLOCK
100
AcDbLine
 10
126.365
 20
13.43152
 30
0.0
 11
124.3076
 21
13.43152
 31
0.0
  0
LINE
  5
D8
330
1F
100
AcDbEntity
  8
TITLE_BLOCK
100
AcDbLine
 10
127.7366
 20
12.05992
 30
0.0
 11
127.7366
 21
10.00252
 31
0.0
  0
LINE
  5
D9
330
1F
100
AcDbEntity
  8
TITLE_BLOCK
100
AcDbLine
 10
137.3378
 20
10.68832
 30
0.0
 11
137.3378
 21
16.17472
 31
0.0
  0
LINE
  5
DA
330
1F
100
AcDbEntity
  8
TITLE_BLOCK
100
AcDbLine
 10
137.3378
 20
16.17472
 30
0.0
 11
131.8514
 21
14.80312
 31
0.0
  0
LINE
  5
DB
330
1F
100
AcDbEntity
  8
TITLE_BLOCK
100
AcDbLine
 10
131.8514
 20
14.80312
 30
0.0
 11
131.8514
 21
12.05992
 31
0.0
  0
LINE
  5
DC
330
1F
100
AcDbEntity
  8
TITLE_BLOCK
100
AcDbLine
 10
131.8514
 20
12.05992
 30
0.0
 11
137.3378
 21
10.68832
 31
0.0
  0
LINE
  5
DD
330
1F
100
AcDbEntity
  8
TITLE_BLOCK
100
AcDbLine
 10
135.2804
 20
13.43152
 30
0.0
 11
137.6807
 21
13.43152
 31
0.0
  0
LINE
  5
DE
330
1F
100
AcDbEntity
  8
TITLE_BLOCK
100
AcDbLine
 10
134.8689199999999
 20
13.43152
 30
0.0
 11
134.32028
 21
13.43152
 31
0.0
  0
LINE
  5
DF
330
1F
100
AcDbEntity
  8
TITLE_BLOCK
100
AcDbLine
 10
133.9088
 20
13.43152
 30
0.0
 11
131.5085
 21
13.43152
 31
0.0
  0
MTEXT
  5
E0
330
1F
100
AcDbEntity
  8
TITLE_BLOCK
100
AcDbMText
 10
131.1656
 20
19.22272
 30
0.0
 40
1.2192
 41
29.8704
 71
     2
 72
     1
  1
THIRD ANGLE PROJECTION
  7
ONSHAPE-STANDARD
  0
LINE
  5
E1
330
1F
100
AcDbEntity
  8
TITLE_BLOCK
100
AcDbLine
 10
146.4056
 20
9.652
 30
0.0
 11
146.4056
 21
47.752
 31
0.0
  0
LINE
  5
E2
330
1F
100
AcDbEntity
  8
TITLE_BLOCK
100
AcDbLine
 10
161.6456
 20
20.32
 30
0.0
 11
161.6456
 21
47.752
 31
0.0
  0
LINE
  5
E3
330
1F
100
AcDbEntity
  8
TITLE_BLOCK
100
AcDbLine
 10
180.6956
 20
20.32
 30
0.0
 11
180.6956
 21
47.752
 31
0.0
  0
LINE
  5
E4
330
1F
100
AcDbEntity
  8
TITLE_BLOCK
100
AcDbLine
 10
169.2656
 20
9.652
 30
0.0
 11
169.2656
 21
20.32
 31
0.0
  0
LINE
  5
E5
330
1F
100
AcDbEntity
  8
TITLE_BLOCK
100
AcDbLine
 10
146.4056
 20
47.752
 30
0.0
 11
192.1256
 21
47.752
 31
0.0
  0
LINE
  5
E6
330
1F
100
AcDbEntity
  8
TITLE_BLOCK
100
AcDbLine
 10
146.4056
 20
43.18
 30
0.0
 11
192.1256
 21
43.18
 31
0.0
  0
LINE
  5
E7
330
1F
100
AcDbEntity
  8
TITLE_BLOCK
100
AcDbLine
 10
146.4056
 20
38.608
 30
0.0
 11
192.1256
 21
38.608
 31
0.0
  0
LINE
  5
E8
330
1F
100
AcDbEntity
  8
TITLE_BLOCK
100
AcDbLine
 10
146.4056
 20
34.03599999999999
 30
0.0
 11
192.1256
 21
34.03599999999999
 31
0.0
  0
LINE
  5
E9
330
1F
100
AcDbEntity
  8
TITLE_BLOCK
100
AcDbLine
 10
146.4056
 20
29.464
 30
0.0
 11
192.1256
 21
29.464
 31
0.0
  0
LINE
  5
EA
330
1F
100
AcDbEntity
  8
TITLE_BLOCK
100
AcDbLine
 10
146.4056
 20
24.892
 30
0.0
 11
192.1256
 21
24.892
 31
0.0
  0
LINE
  5
EB
330
1F
100
AcDbEntity
  8
TITLE_BLOCK
100
AcDbLine
 10
146.4056
 20
20.32
 30
0.0
 11
192.1256
 21
20.32
 31
0.0
  0
MTEXT
  5
EC
330
1F
100
AcDbEntity
  8
TITLE_BLOCK
100
AcDbMText
 10
162.31616
 20
46.65472
 30
0.0
 40
1.2192
 41
18.66899999999998
 71
     1
 72
     1
  1
NAME
  7
ONSHAPE-STANDARD
  0
MTEXT
  5
ED
330
1F
100
AcDbEntity
  8
TITLE_BLOCK
100
AcDbMText
 10
186.4106
 20
46.65472
 30
0.0
 40
1.2192
 41
11.20140000000003
 71
     2
 72
     1
  1
DATE
  7
ONSHAPE-STANDARD
  0
MTEXT
  5
EE
330
1F
100
AcDbEntity
  8
TITLE_BLOCK
100
AcDbMText
 10
147.07616
 20
42.08272
 30
0.0
 40
1.2192
 41
14.93520000000001
 71
     1
 72
     1
  1
DRAWN
  7
ONSHAPE-STANDARD
  0
MTEXT
  5
EF
102
{ACAD_XDICTIONARY
360
F0
102
}
330
1F
100
AcDbEntity
  8
TITLE_BLOCK
100
AcDbMText
 10
171.1706
 20
40.894
 30
0.0
 40
1.024128
 41
19.04999999999998
 71
     5
 72
     1
  1
MARCELO ALARCÓN
  7
ONSHAPE-STANDARD-FIELDS
1001
ACAD
1000
ACAD_MTEXT_DEFINED_HEIGHT_BEGIN
1070
    46
1040
4.572000000000004
1000
ACAD_MTEXT_DEFINED_HEIGHT_END
  0
MTEXT
  5
F6
102
{ACAD_XDICTIONARY
360
F7
102
}
330
1F
100
AcDbEntity
  8
TITLE_BLOCK
100
AcDbMText
 10
186.4106
 20
40.894
 30
0.0
 40
1.024128
 41
11.43000000000003
 71
     5
 72
     1
  1
06/08/2026
  7
ONSHAPE-STANDARD-FIELDS
1001
ACAD
1000
ACAD_MTEXT_DEFINED_HEIGHT_BEGIN
1070
    46
1040
4.572000000000004
1000
ACAD_MTEXT_DEFINED_HEIGHT_END
  0
MTEXT
  5
FC
330
1F
100
AcDbEntity
  8
TITLE_BLOCK
100
AcDbMText
 10
147.07616
 20
37.51072
 30
0.0
 40
1.2192
 41
14.93520000000001
 71
     1
 72
     1
  1
CHECKED
  7
ONSHAPE-STANDARD
  0
MTEXT
  5
FD
330
1F
100
AcDbEntity
  8
TITLE_BLOCK
100
AcDbMText
 10
171.1706
 20
36.322
 30
0.0
 40
1.024128
 41
19.04999999999998
 71
     5
 72
     1
  1
 
  7
ONSHAPE-STANDARD-FIELDS
1001
ACAD
1000
ACAD_MTEXT_DEFINED_HEIGHT_BEGIN
1070
    46
1040
4.572000000000004
1000
ACAD_MTEXT_DEFINED_HEIGHT_END
  0
MTEXT
  5
FE
330
1F
100
AcDbEntity
  8
TITLE_BLOCK
100
AcDbMText
 10
186.4106
 20
36.322
 30
0.0
 40
1.024128
 41
11.43000000000003
 71
     5
 72
     1
  1
 
  7
ONSHAPE-STANDARD-FIELDS
1001
ACAD
1000
ACAD_MTEXT_DEFINED_HEIGHT_BEGIN
1070
    46
1040
4.572000000000004
1000
ACAD_MTEXT_DEFINED_HEIGHT_END
  0
MTEXT
  5
FF
330
1F
100
AcDbEntity
  8
TITLE_BLOCK
100
AcDbMText
 10
147.07616
 20
32.93872
 30
0.0
 40
1.2192
 41
14.93520000000001
 71
     1
 72
     1
  1
APPROVED
  7
ONSHAPE-STANDARD
  0
MTEXT
  5
100
102
{ACAD_XDICTIONARY
360
101
102
}
330
1F
100
AcDbEntity
  8
TITLE_BLOCK
100
AcDbMText
 10
171.1706
 20
31.75
 30
0.0
 40
1.024128
 41
19.04999999999998
 71
     5
 72
     1
  1
----
  7
ONSHAPE-STANDARD-FIELDS
1001
ACAD
1000
ACAD_MTEXT_DEFINED_HEIGHT_BEGIN
1070
    46
1040
4.571999999999993
1000
ACAD_MTEXT_DEFINED_HEIGHT_END
  0
MTEXT
  5
106
102
{ACAD_XDICTIONARY
360
107
102
}
330
1F
100
AcDbEntity
  8
TITLE_BLOCK
100
AcDbMText
 10
186.4106
 20
31.75
 30
0.0
 40
1.024128
 41
11.43000000000003
 71
     5
 72
     1
  1
----
  7
ONSHAPE-STANDARD-FIELDS
1001
ACAD
1000
ACAD_MTEXT_DEFINED_HEIGHT_BEGIN
1070
    46
1040
4.571999999999993
1000
ACAD_MTEXT_DEFINED_HEIGHT_END
  0
MTEXT
  5
10C
330
1F
100
AcDbEntity
  8
TITLE_BLOCK
100
AcDbMText
 10
154.0256
 20
27.178
 30
0.0
 40
1.8288
 41
15.24000000000001
 71
     5
 72
     1
  1
 
  7
ONSHAPE-STANDARD-FIELDS
1001
ACAD
1000
ACAD_MTEXT_DEFINED_HEIGHT_BEGIN
1070
    46
1040
4.572000000000004
1000
ACAD_MTEXT_DEFINED_HEIGHT_END
  0
MTEXT
  5
10D
330
1F
100
AcDbEntity
  8
TITLE_BLOCK
100
AcDbMText
 10
171.1706
 20
27.178
 30
0.0
 40
1.024128
 41
19.04999999999998
 71
     5
 72
     1
  1
 
  7
ONSHAPE-STANDARD-FIELDS
1001
ACAD
1000
ACAD_MTEXT_DEFINED_HEIGHT_BEGIN
1070
    46
1040
4.572000000000004
1000
ACAD_MTEXT_DEFINED_HEIGHT_END
  0
MTEXT
  5
10E
330
1F
100
AcDbEntity
  8
TITLE_BLOCK
100
AcDbMText
 10
186.4106
 20
27.178
 30
0.0
 40
1.024128
 41
11.43000000000003
 71
     5
 72
     1
  1
 
  7
ONSHAPE-STANDARD-FIELDS
1001
ACAD
1000
ACAD_MTEXT_DEFINED_HEIGHT_BEGIN
1070
    46
1040
4.572000000000004
1000
ACAD_MTEXT_DEFINED_HEIGHT_END
  0
MTEXT
  5
10F
330
1F
100
AcDbEntity
  8
TITLE_BLOCK
100
AcDbMText
 10
154.0256
 20
22.606
 30
0.0
 40
1.8288
 41
15.24000000000001
 71
     5
 72
     1
  1
 
  7
ONSHAPE-STANDARD-FIELDS
1001
ACAD
1000
ACAD_MTEXT_DEFINED_HEIGHT_BEGIN
1070
    46
1040
4.571999999999998
1000
ACAD_MTEXT_DEFINED_HEIGHT_END
  0
MTEXT
  5
110
330
1F
100
AcDbEntity
  8
TITLE_BLOCK
100
AcDbMText
 10
171.1706
 20
22.606
 30
0.0
 40
1.024128
 41
19.04999999999998
 71
     5
 72
     1
  1
 
  7
ONSHAPE-STANDARD-FIELDS
1001
ACAD
1000
ACAD_MTEXT_DEFINED_HEIGHT_BEGIN
1070
    46
1040
4.571999999999998
1000
ACAD_MTEXT_DEFINED_HEIGHT_END
  0
MTEXT
  5
111
330
1F
100
AcDbEntity
  8
TITLE_BLOCK
100
AcDbMText
 10
186.4106
 20
22.606
 30
0.0
 40
1.024128
 41
11.43000000000003
 71
     5
 72
     1
  1
 
  7
ONSHAPE-STANDARD-FIELDS
1001
ACAD
1000
ACAD_MTEXT_DEFINED_HEIGHT_BEGIN
1070
    46
1040
4.571999999999998
1000
ACAD_MTEXT_DEFINED_HEIGHT_END
  0
MTEXT
  5
112
330
1F
100
AcDbEntity
  8
TITLE_BLOCK
100
AcDbMText
 10
147.07616
 20
19.22272
 30
0.0
 40
1.2192
 41
22.40280000000001
 71
     1
 72
     1
  1
MATERIAL
  7
ONSHAPE-STANDARD
  0
MTEXT
  5
113
102
{ACAD_XDICTIONARY
360
334
102
}
330
1F
100
AcDbEntity
  8
TITLE_BLOCK
100
AcDbMText
 10
157.8356
 20
14.986
 30
0.0
 40
1.8288
 41
22.86000000000001
 71
     5
 72
     1
  1
Acrilico negro 
  7
ONSHAPE-STANDARD-FIELDS
1001
ONSHAPE_NOTES_REORDERING_D
1071
        0
1070
     0
1001
ACAD
1000
ACAD_MTEXT_DEFINED_HEIGHT_BEGIN
1070
    46
1040
1.85371553133515
1000
ACAD_MTEXT_DEFINED_HEIGHT_END
  0
MTEXT
  5
114
330
1F
100
AcDbEntity
  8
TITLE_BLOCK
100
AcDbMText
 10
169.93616
 20
19.22272
 30
0.0
 40
1.2192
 41
22.40280000000001
 71
     1
 72
     1
  1
FINISH
  7
ONSHAPE-STANDARD
  0
MTEXT
  5
115
330
1F
100
AcDbEntity
  8
TITLE_BLOCK
100
AcDbMText
 10
180.6956
 20
14.986
 30
0.0
 40
1.8288
 41
22.86000000000001
 71
     5
 72
     1
  1
 
  7
ONSHAPE-STANDARD-FIELDS
1001
ACAD
1000
ACAD_MTEXT_DEFINED_HEIGHT_BEGIN
1070
    46
1040
10.668
1000
ACAD_MTEXT_DEFINED_HEIGHT_END
  0
LINE
  5
116
330
1F
100
AcDbEntity
  8
TITLE_BLOCK
100
AcDbLine
 10
192.1256
 20
9.652
 30
0.0
 11
192.1256
 21
47.752
 31
0.0
  0
LINE
  5
117
330
1F
100
AcDbEntity
  8
TITLE_BLOCK
100
AcDbLine
 10
201.6506
 20
14.605
 30
0.0
 11
201.6506
 21
22.225
 31
0.0
  0
LINE
  5
118
330
1F
100
AcDbEntity
  8
TITLE_BLOCK
100
AcDbLine
 10
208.8895999999999
 20
9.652
 30
0.0
 11
208.8895999999999
 21
14.605
 31
0.0
  0
LINE
  5
119
330
1F
100
AcDbEntity
  8
TITLE_BLOCK
100
AcDbLine
 10
243.5605999999999
 20
9.652
 30
0.0
 11
243.5605999999999
 21
14.605
 31
0.0
  0
LINE
  5
11A
330
1F
100
AcDbEntity
  8
TITLE_BLOCK
100
AcDbLine
 10
262.6105999999999
 20
14.605
 30
0.0
 11
262.6105999999999
 21
22.225
 31
0.0
  0
LINE
  5
11B
330
1F
100
AcDbEntity
  8
TITLE_BLOCK
100
AcDbLine
 10
192.1256
 20
14.605
 30
0.0
 11
270.2306
 21
14.605
 31
0.0
  0
LINE
  5
11C
330
1F
100
AcDbEntity
  8
TITLE_BLOCK
100
AcDbLine
 10
192.1256
 20
22.225
 30
0.0
 11
270.2306
 21
22.225
 31
0.0
  0
LINE
  5
11D
330
1F
100
AcDbEntity
  8
TITLE_BLOCK
100
AcDbLine
 10
192.1256
 20
38.227
 30
0.0
 11
270.2306
 21
38.227
 31
0.0
  0
LINE
  5
11E
330
1F
100
AcDbEntity
  8
TITLE_BLOCK
100
AcDbLine
 10
192.1256
 20
47.752
 30
0.0
 11
270.2306
 21
47.752
 31
0.0
  0
MTEXT
  5
11F
330
1F
100
AcDbEntity
  8
TITLE_BLOCK
100
AcDbMText
 10
192.79616
 20
37.12972
 30
0.0
 40
1.2192
 41
9.334499999999998
 71
     1
 72
     1
  1
TITLE
  7
ONSHAPE-STANDARD
  0
MTEXT
  5
120
102
{ACAD_XDICTIONARY
360
121
102
}
330
1F
100
AcDbEntity
  8
TITLE_BLOCK
100
AcDbMText
 10
231.1781
 20
35.179
 30
0.0
 40
2.92608
 41
70.48499999999999
 71
     5
 72
     1
  1
----
  7
ONSHAPE-STANDARD-FIELDS
1001
ACAD
1000
ACAD_MTEXT_DEFINED_HEIGHT_BEGIN
1070
    46
1040
4.800599999999999
1000
ACAD_MTEXT_DEFINED_HEIGHT_END
  0
MTEXT
  5
126
102
{ACAD_XDICTIONARY
360
127
102
}
330
1F
100
AcDbEntity
  8
TITLE_BLOCK
100
AcDbMText
 10
231.1781
 20
30.3784
 30
0.0
 40
2.92608
 41
70.48499999999996
 71
     5
 72
     1
  1
Puerta sup principal
  7
ONSHAPE-STANDARD-FIELDS
1001
ONSHAPE_NOTES_REORDERING_D
1071
        0
1070
     0
1001
ACAD
1000
ACAD_MTEXT_DEFINED_HEIGHT_BEGIN
1070
    46
1040
2.96594485013624
1000
ACAD_MTEXT_DEFINED_HEIGHT_END
  0
MTEXT
  5
128
102
{ACAD_XDICTIONARY
360
129
102
}
330
1F
100
AcDbEntity
  8
TITLE_BLOCK
100
AcDbMText
 10
231.1781
 20
25.5778
 30
0.0
 40
2.92608
 41
70.48499999999999
 71
     5
 72
     1
  1
----
  7
ONSHAPE-STANDARD-FIELDS
1001
ACAD
1000
ACAD_MTEXT_DEFINED_HEIGHT_BEGIN
1070
    46
1040
4.800599999999999
1000
ACAD_MTEXT_DEFINED_HEIGHT_END
  0
MTEXT
  5
12E
330
1F
100
AcDbEntity
  8
TITLE_BLOCK
100
AcDbMText
 10
192.662048
 20
21.347176
 30
0.0
 40
0.97536
 41
9.334499999999998
 71
     1
 72
     1
  1
SIZE
  7
ONSHAPE-STANDARD
  0
MTEXT
  5
12F
102
{ACAD_XDICTIONARY
360
130
102
}
330
1F
100
AcDbEntity
  8
TITLE_BLOCK
100
AcDbMText
 10
196.8881
 20
18.415
 30
0.0
 40
3.6576
 41
9.524999999999999
 71
     5
 72
     1
  1
A
  7
ONSHAPE-STANDARD-FIELDS
1001
ACAD
1000
ACAD_MTEXT_DEFINED_HEIGHT_BEGIN
1070
    46
1040
7.620000000000001
1000
ACAD_MTEXT_DEFINED_HEIGHT_END
  0
MTEXT
  5
135
330
1F
100
AcDbEntity
  8
TITLE_BLOCK
100
AcDbMText
 10
202.187048
 20
21.347176
 30
0.0
 40
0.97536
 41
59.74079999999996
 71
     1
 72
     1
  1
DWG NO.
  7
ONSHAPE-STANDARD
  0
MTEXT
  5
136
102
{ACAD_XDICTIONARY
360
137
102
}
330
1F
100
AcDbEntity
  8
TITLE_BLOCK
100
AcDbMText
 10
232.1306
 20
18.415
 30
0.0
 40
3.6576
 41
60.95999999999996
 71
     5
 72
     1
  1
----
  7
ONSHAPE-STANDARD-FIELDS
1001
ACAD
1000
ACAD_MTEXT_DEFINED_HEIGHT_BEGIN
1070
    46
1040
7.620000000000001
1000
ACAD_MTEXT_DEFINED_HEIGHT_END
  0
MTEXT
  5
13C
330
1F
100
AcDbEntity
  8
TITLE_BLOCK
100
AcDbMText
 10
263.1470479999999
 20
21.347176
 30
0.0
 40
0.97536
 41
7.467600000000018
 71
     1
 72
     1
  1
REV.
  7
ONSHAPE-STANDARD
  0
MTEXT
  5
13D
102
{ACAD_XDICTIONARY
360
13E
102
}
330
1F
100
AcDbEntity
  8
TITLE_BLOCK
100
AcDbMText
 10
266.8016
 20
18.415
 30
0.0
 40
3.6576
 41
6.858000000000034
 71
     5
 72
     1
  1
-
  7
ONSHAPE-STANDARD-FIELDS
1001
ACAD
1000
ACAD_MTEXT_DEFINED_HEIGHT_BEGIN
1070
    46
1040
7.620000000000001
1000
ACAD_MTEXT_DEFINED_HEIGHT_END
  0
MTEXT
  5
143
330
1F
100
AcDbEntity
  8
TITLE_BLOCK
100
AcDbMText
 10
192.662048
 20
13.727176
 30
0.0
 40
0.97536
 41
16.42871999999996
 71
     1
 72
     1
  1
SCALE
  7
ONSHAPE-STANDARD
  0
MTEXT
  5
144
102
{ACAD_XDICTIONARY
360
145
102
}
330
1F
100
AcDbEntity
  8
TITLE_BLOCK
100
AcDbMText
 10
201.2696
 20
12.1285
 30
0.0
 40
2.19456
 41
15.23999999999997
 71
     5
 72
     1
  1
1:3
  7
ONSHAPE-STANDARD-FIELDS
1001
ACAD
1000
ACAD_MTEXT_DEFINED_HEIGHT_BEGIN
1070
    46
1040
4.952999999999999
1000
ACAD_MTEXT_DEFINED_HEIGHT_END
  0
MTEXT
  5
14A
330
1F
100
AcDbEntity
  8
TITLE_BLOCK
100
AcDbMText
 10
209.4260479999999
 20
13.727176
 30
0.0
 40
0.97536
 41
33.97758
 71
     1
 72
     1
  1
WEIGHT
  7
ONSHAPE-STANDARD
  0
MTEXT
  5
14B
330
1F
100
AcDbEntity
  8
TITLE_BLOCK
100
AcDbMText
 10
226.2251
 20
12.1285
 30
0.0
 40
2.19456
 41
34.67100000000001
 71
     5
 72
     1
  1
 
  7
ONSHAPE-STANDARD-FIELDS
1001
ACAD
1000
ACAD_MTEXT_DEFINED_HEIGHT_BEGIN
1070
    46
1040
4.952999999999999
1000
ACAD_MTEXT_DEFINED_HEIGHT_END
  0
MTEXT
  5
14C
330
1F
100
AcDbEntity
  8
TITLE_BLOCK
100
AcDbMText
 10
244.0970479999999
 20
13.727176
 30
0.0
 40
0.97536
 41
26.13660000000001
 71
     1
 72
     1
  1
SHEET
  7
ONSHAPE-STANDARD
  0
MTEXT
  5
14D
102
{ACAD_XDICTIONARY
360
14E
102
}
330
1F
100
AcDbEntity
  8
TITLE_BLOCK
100
AcDbMText
 10
257.6576
 20
12.1285
 30
0.0
 40
2.19456
 41
25.146
 71
     5
 72
     1
  1
1 of 1
  7
ONSHAPE-STANDARD-FIELDS
1001
ACAD
1000
ACAD_MTEXT_DEFINED_HEIGHT_BEGIN
1070
    46
1040
4.952999999999999
1000
ACAD_MTEXT_DEFINED_HEIGHT_END
  0
LINE
  5
158
330
1F
100
AcDbEntity
  8
CENTERMARKS
  6
CONTINUOUS
100
AcDbLine
 10
51.96595852072079
 20
169.0095138362851
 30
-0.0000000000000001
 11
52.33929185405413
 21
169.0095138362851
 31
0.0000000000000001
  0
LINE
  5
159
330
1F
100
AcDbEntity
  8
CENTERMARKS
  6
CONTINUOUS
100
AcDbLine
 10
52.15262518738746
 20
168.8228471696185
 30
-0.0000000000000001
 11
52.15262518738746
 21
169.1961805029518
 31
0.0000000000000001
  0
LINE
  5
15A
330
1F
100
AcDbEntity
  8
CENTERMARKS
  6
CENTER
100
AcDbLine
 10
51.77929185405412
 20
169.0095138362851
 30
0.0000000000000001
 11
51.24595852072078
 21
169.0095138362851
 31
-0.0000000000000001
  0
LINE
  5
15B
330
1F
100
AcDbEntity
  8
CENTERMARKS
  6
CENTER
100
AcDbLine
 10
52.52595852072081
 20
169.0095138362851
 30
-0.0000000000000001
 11
53.05929185405414
 21
169.0095138362851
 31
0.0000000000000001
  0
LINE
  5
15C
330
1F
100
AcDbEntity
  8
CENTERMARKS
  6
CENTER
100
AcDbLine
 10
52.15262518738746
 20
169.3828471696185
 30
-0.0000000000000001
 11
52.15262518738746
 21
169.9161805029518
 31
0.0000000000000001
  0
LINE
  5
15D
330
1F
100
AcDbEntity
  8
CENTERMARKS
  6
CENTER
100
AcDbLine
 10
52.15262518738746
 20
168.6361805029518
 30
0.0000000000000001
 11
52.15262518738746
 21
168.1028471696185
 31
-0.0000000000000001
  0
LINE
  5
162
330
1F
100
AcDbEntity
  8
CENTERMARKS
  6
CONTINUOUS
100
AcDbLine
 10
77.96595852072079
 20
169.0095138362851
 30
0.0
 11
78.33929185405414
 21
169.0095138362851
 31
0.0
  0
LINE
  5
163
330
1F
100
AcDbEntity
  8
CENTERMARKS
  6
CONTINUOUS
100
AcDbLine
 10
78.15262518738747
 20
168.8228471696185
 30
0.0
 11
78.15262518738747
 21
169.1961805029518
 31
0.0
  0
LINE
  5
164
330
1F
100
AcDbEntity
  8
CENTERMARKS
  6
CENTER
100
AcDbLine
 10
77.77929185405412
 20
169.0095138362851
 30
0.0
 11
77.24595852072079
 21
169.0095138362851
 31
0.0
  0
LINE
  5
165
330
1F
100
AcDbEntity
  8
CENTERMARKS
  6
CENTER
100
AcDbLine
 10
78.5259585207208
 20
169.0095138362851
 30
0.0
 11
79.05929185405414
 21
169.0095138362851
 31
0.0
  0
LINE
  5
166
330
1F
100
AcDbEntity
  8
CENTERMARKS
  6
CENTER
100
AcDbLine
 10
78.15262518738747
 20
169.3828471696185
 30
0.0
 11
78.15262518738747
 21
169.9161805029518
 31
0.0
  0
LINE
  5
167
330
1F
100
AcDbEntity
  8
CENTERMARKS
  6
CENTER
100
AcDbLine
 10
78.15262518738747
 20
168.6361805029518
 30
0.0
 11
78.15262518738747
 21
168.1028471696185
 31
0.0
  0
LINE
  5
16C
330
1F
100
AcDbEntity
  8
CENTERMARKS
  6
CONTINUOUS
100
AcDbLine
 10
77.96595852072079
 20
181.6761805029518
 30
-0.0000000000000001
 11
78.33929185405414
 21
181.6761805029518
 31
0.0000000000000001
  0
LINE
  5
16D
330
1F
100
AcDbEntity
  8
CENTERMARKS
  6
CONTINUOUS
100
AcDbLine
 10
78.15262518738747
 20
181.4895138362851
 30
-0.0000000000000001
 11
78.15262518738747
 21
181.8628471696185
 31
0.0000000000000001
  0
LINE
  5
16E
330
1F
100
AcDbEntity
  8
CENTERMARKS
  6
CENTER
100
AcDbLine
 10
77.77929185405412
 20
181.6761805029518
 30
0.0000000000000001
 11
77.24595852072079
 21
181.6761805029518
 31
-0.0000000000000001
  0
LINE
  5
16F
330
1F
100
AcDbEntity
  8
CENTERMARKS
  6
CENTER
100
AcDbLine
 10
78.5259585207208
 20
181.6761805029518
 30
-0.0000000000000001
 11
79.05929185405414
 21
181.6761805029518
 31
0.0000000000000001
  0
LINE
  5
170
330
1F
100
AcDbEntity
  8
CENTERMARKS
  6
CENTER
100
AcDbLine
 10
78.15262518738747
 20
182.0495138362851
 30
-0.0000000000000001
 11
78.15262518738747
 21
182.5828471696184
 31
0.0000000000000001
  0
LINE
  5
171
330
1F
100
AcDbEntity
  8
CENTERMARKS
  6
CENTER
100
AcDbLine
 10
78.15262518738747
 20
181.3028471696185
 30
0.0000000000000001
 11
78.15262518738747
 21
180.7695138362852
 31
-0.0000000000000001
  0
LINE
  5
176
330
1F
100
AcDbEntity
  8
CENTERMARKS
  6
CONTINUOUS
100
AcDbLine
 10
51.96595852072079
 20
181.6761805029518
 30
-0.0000000000000001
 11
52.33929185405413
 21
181.6761805029518
 31
0.0000000000000001
  0
LINE
  5
177
330
1F
100
AcDbEntity
  8
CENTERMARKS
  6
CONTINUOUS
100
AcDbLine
 10
52.15262518738746
 20
181.4895138362851
 30
-0.0000000000000001
 11
52.15262518738746
 21
181.8628471696185
 31
0.0000000000000001
  0
LINE
  5
178
330
1F
100
AcDbEntity
  8
CENTERMARKS
  6
CENTER
100
AcDbLine
 10
51.77929185405412
 20
181.6761805029518
 30
0.0000000000000001
 11
51.24595852072078
 21
181.6761805029518
 31
-0.0000000000000001
  0
LINE
  5
179
330
1F
100
AcDbEntity
  8
CENTERMARKS
  6
CENTER
100
AcDbLine
 10
52.52595852072081
 20
181.6761805029518
 30
-0.0000000000000001
 11
53.05929185405414
 21
181.6761805029518
 31
0.0000000000000001
  0
LINE
  5
17A
330
1F
100
AcDbEntity
  8
CENTERMARKS
  6
CENTER
100
AcDbLine
 10
52.15262518738746
 20
182.0495138362851
 30
-0.0000000000000001
 11
52.15262518738746
 21
182.5828471696184
 31
0.0000000000000001
  0
LINE
  5
17B
330
1F
100
AcDbEntity
  8
CENTERMARKS
  6
CENTER
100
AcDbLine
 10
52.15262518738746
 20
181.3028471696185
 30
0.0000000000000001
 11
52.15262518738746
 21
180.7695138362852
 31
-0.0000000000000001
  0
MTEXT
  5
17C
102
{ACAD_XDICTIONARY
360
17D
102
}
330
1F
100
AcDbEntity
  8
ANNOTATION_TEXT
 62
     7
 60
     1
100
AcDbMText
 10
65.15262518738747
 20
152.0688471696185
 30
0.0
 40
3.048
 41
0.0
 71
     2
 72
     1
  1

  7
ONSHAPE-STANDARD-VIEW-LABE
1001
ACAD
1000
ACAD_MTEXT_DEFINED_HEIGHT_BEGIN
1070
    46
1040
3.048
1000
ACAD_MTEXT_DEFINED_HEIGHT_END
  0
MTEXT
  5
183
102
{ACAD_XDICTIONARY
360
184
102
}
330
1F
100
AcDbEntity
  8
ANNOTATION_TEXT
 62
     7
 60
     1
100
AcDbMText
 10
65.15262518738746
 20
90.8199759708481
 30
0.0
 40
3.048
 41
0.0
 71
     2
 72
     1
  1

  7
ONSHAPE-STANDARD-VIEW-LABE
1001
ACAD
1000
ACAD_MTEXT_DEFINED_HEIGHT_BEGIN
1070
    46
1040
3.048
1000
ACAD_MTEXT_DEFINED_HEIGHT_END
  0
DIMENSION
  5
190
102
{ACAD_REACTORS
102
}
102
{ACAD_XDICTIONARY
360
191
102
}
330
1F
100
AcDbEntity
  8
ANNOTATION_TEXT
100
AcDbDimension
  2
*D1
 10
24.89070877454612
 20
100.4799759708481
 30
0.0
 11
32.74844446936901
 21
110.6239759708481
 31
0.0
 70
   161
  3
ONSHAPE-STANDARD$0
100
AcDbAlignedDimension
 13
32.65262518738744
 23
101.4799759708481
 33
18.49999999999999
 14
32.65262518738744
 24
100.4799759708481
 34
18.49999999999999
1001
ACAD
1000
DSTYLE
1002
{
1070
    40
1040
25.4
1070
     4
1000
[]
1070
   144
1040
2.999999999999999
1070
     3
1000

1070
   288
1070
     1
1002
}
1001
ACAD_DIMASSOC_CALC_DIMLFAC
1040
-3.0
1001
ACAD_DIMASSOC_DIMLFAC
1040
-76.19999999999999
1001
ACAD_DIMASSOC_OVERRIDDEN_D
1040
0.0
  0
DIMENSION
  5
1AE
102
{ACAD_REACTORS
330
1CF
330
1E9
102
}
102
{ACAD_XDICTIONARY
360
1AF
102
}
330
1F
100
AcDbEntity
  8
ANNOTATION_TEXT
100
AcDbDimension
  2
*D2
 10
97.65262518738746
 20
127.9588243703903
 30
0.0
 11
57.79715829239147
 21
127.9588243703903
 31
0.0
 70
   161
  3
ONSHAPE-STANDARD$0
100
AcDbAlignedDimension
 13
32.65262518738746
 23
156.8428471696185
 33
0.0
 14
97.65262518738746
 24
156.8428471696185
 34
0.0
1001
ACAD
1000
DSTYLE
1002
{
1070
    40
1040
25.4
1070
     4
1000
[]
1070
   144
1040
2.999999999999999
1070
     3
1000

1070
   288
1070
     1
1002
}
1001
ACAD_DIMASSOC_CALC_DIMLFAC
1040
-3.0
1001
ACAD_DIMASSOC_DIMLFAC
1040
-76.19999999999999
1001
ACAD_DIMASSOC_OVERRIDDEN_D
1040
0.0
  0
DIMENSION
  5
1CB
102
{ACAD_REACTORS
102
}
102
{ACAD_XDICTIONARY
360
1CC
102
}
330
1F
100
AcDbEntity
  8
ANNOTATION_TEXT
100
AcDbDimension
  2
*D3
 10
78.23749605850215
 20
169.5360509951644
 30
0.0
 11
58.08912231005858
 21
140.501541675913
 31
0.0
 70
   163
  3
ONSHAPE-STANDARD$3
100
AcDbDiametricDimension
 15
78.06775431627278
 25
168.4829766774058
 35
0.0
 40
0.0
1001
ACAD
1000
DSTYLE
1002
{
1070
   287
1070
     3
1070
    40
1040
25.4
1070
     4
1000
[]
1070
   144
1040
2.999999999999999
1070
   289
1070
     3
1070
   279
1070
     0
1070
   172
1070
     0
1070
     3
1000
x4 Ø<>
1002
}
1001
ACAD_DSTYLE_DIMRADIAL_EXTE
1070
   387
1070
     1
1070
   388
1040
0.0
1070
   390
1040
6.283185307179586
1001
ACAD_DIMASSOC_CALC_DIMLFAC
1040
-3.0
1001
ACAD_DIMASSOC_DIMLFAC
1040
-76.19999999999999
1001
ACAD_DIMASSOC_OVERRIDDEN_D
1040
0.0
  0
DIMENSION
  5
1E4
102
{ACAD_REACTORS
102
}
102
{ACAD_XDICTIONARY
360
1E5
102
}
330
1F
100
AcDbEntity
  8
ANNOTATION_TEXT
100
AcDbDimension
  2
*D4
 10
32.65262518738746
 20
146.2777930666143
 30
0.0
 11
43.31929185405411
 21
146.2777930666143
 31
0.0
 70
   160
  3
ONSHAPE-STANDARD$0
100
AcDbAlignedDimension
 13
53.98595852072079
 23
171.1761805029518
 33
0.0
 14
32.65262518738746
 24
156.8428471696185
 34
0.0
100
AcDbRotatedDimension
1001
ACAD
1000
DSTYLE
1002
{
1070
    40
1040
25.4
1070
     4
1000
[]
1070
   144
1040
2.999999999999999
1070
     3
1000

1070
   288
1070
     1
1002
}
1001
ACAD_DIMASSOC_CALC_DIMLFAC
1040
-3.0
1001
ACAD_DIMASSOC_DIMLFAC
1040
-76.19999999999999
1001
ACAD_DIMASSOC_OVERRIDDEN_D
1040
0.0
  0
DIMENSION
  5
201
102
{ACAD_REACTORS
102
}
102
{ACAD_XDICTIONARY
360
202
102
}
330
1F
100
AcDbEntity
  8
ANNOTATION_TEXT
100
AcDbDimension
  2
*D5
 10
32.65262518738746
 20
202.2249136794064
 30
0.0
 11
43.31929185405412
 21
202.2249136794064
 31
0.0
 70
   160
  3
ONSHAPE-STANDARD$0
100
AcDbAlignedDimension
 13
53.98595852072079
 23
179.5095138362852
 33
0.0
 14
32.65262518738746
 24
193.8428471696185
 34
0.0
100
AcDbRotatedDimension
1001
ACAD
1000
DSTYLE
1002
{
1070
    40
1040
25.4
1070
     4
1000
[]
1070
   144
1040
2.999999999999999
1070
     3
1000

1070
   288
1070
     1
1002
}
1001
ACAD_DIMASSOC_CALC_DIMLFAC
1040
-3.0
1001
ACAD_DIMASSOC_DIMLFAC
1040
-76.19999999999999
1001
ACAD_DIMASSOC_OVERRIDDEN_D
1040
0.0
  0
DIMENSION
  5
21E
102
{ACAD_REACTORS
330
242
102
}
102
{ACAD_XDICTIONARY
360
21F
102
}
330
1F
100
AcDbEntity
  8
ANNOTATION_TEXT
100
AcDbDimension
  2
*D6
 10
125.4014614061754
 20
193.8428471696185
 30
0.0
 11
134.5257366105351
 21
198.4148471696185
 31
0.0
 70
   160
 52
-270.0
  3
ONSHAPE-STANDARD$0
100
AcDbAlignedDimension
 13
76.31929185405413
 23
179.5095138362852
 33
0.0
 14
97.65262518738746
 24
193.8428471696185
 34
0.0
 50
90.00000000000001
100
AcDbRotatedDimension
1001
ACAD
1000
DSTYLE
1002
{
1070
    40
1040
25.4
1070
     4
1000
[]
1070
   144
1040
2.999999999999999
1070
     3
1000

1070
   288
1070
     1
1002
}
1001
ACAD_DIMASSOC_CALC_DIMLFAC
1040
-3.0
1001
ACAD_DIMASSOC_DIMLFAC
1040
-76.19999999999999
1001
ACAD_DIMASSOC_OVERRIDDEN_D
1040
0.0
  0
DIMENSION
  5
23D
102
{ACAD_REACTORS
102
}
102
{ACAD_XDICTIONARY
360
23E
102
}
330
1F
100
AcDbEntity
  8
ANNOTATION_TEXT
100
AcDbDimension
  2
*D7
 10
125.8261503807309
 20
156.8428471696185
 30
0.0
 11
116.7018751763713
 21
133.4050042530515
 31
0.0
 70
   160
  3
ONSHAPE-STANDARD$0
100
AcDbAlignedDimension
 13
76.31929185405413
 23
171.1761805029518
 33
0.0
 14
97.65262518738746
 24
156.8428471696185
 34
0.0
 50
90.0
100
AcDbRotatedDimension
1001
ACAD
1000
DSTYLE
1002
{
1070
    40
1040
25.4
1070
     4
1000
[]
1070
   144
1040
2.999999999999999
1070
     3
1000

1070
   288
1070
     1
1002
}
1001
ACAD_DIMASSOC_CALC_DIMLFAC
1040
-3.0
1001
ACAD_DIMASSOC_DIMLFAC
1040
-76.19999999999999
1001
ACAD_DIMASSOC_OVERRIDDEN_D
1040
0.0
  0
MTEXT
  5
263
330
1F
100
AcDbEntity
  8
SKETCHED_GEOMETRY
 62
     7
100
AcDbMText
 10
51.15263220253711
 20
182.2117477797918
 30
0.0
 40
3.048
 41
2.717869209809264
 71
     1
 72
     1
  1
\fNoto Sans|b0|i0|c0|p0;\W1.0000000000;\T1.0000000000;\o\lA
  7
ONSHAPE-STANDARD
  0
LWPOLYLINE
  5
264
330
1F
100
AcDbEntity
  8
DETAIL_VIEW_PARENT_BORDER
  6
ONS_PHANTOM
 62
     7
100
AcDbPolyline
 90
        5
 70
     0
 43
0.0
 10
52.5094905131638
 20
173.8297477797919
 10
52.5094905131638
 20
170.0429416454995
 10
78.00751450925937
 20
170.0429416454995
 10
78.00751450925937
 20
180.6877477797918
 10
59.11677797910388
 20
180.6877477797918
  0
SOLID
  5
265
330
1F
100
AcDbEntity
  8
DETAIL_VIEW_PARENT_BORDER
 62
     7
100
AcDbTrace
 10
52.5094905131638
 20
178.4017477797918
 30
0.0
 11
51.74749051316381
 21
173.8297477797919
 31
0.0
 12
53.2714905131638
 22
173.8297477797919
 32
0.0
 13
53.2714905131638
 23
173.8297477797919
 33
0.0
  0
SOLID
  5
266
330
1F
100
AcDbEntity
  8
DETAIL_VIEW_PARENT_BORDER
 62
     7
100
AcDbTrace
 10
54.54477797910388
 20
180.6877477797918
 30
0.0
 11
59.11677797910388
 21
179.9257477797918
 31
0.0
 12
59.11677797910388
 22
181.4497477797918
 32
0.0
 13
59.11677797910388
 23
181.4497477797918
 33
0.0
  0
MTEXT
  5
267
102
{ACAD_XDICTIONARY
360
268
102
}
330
1F
100
AcDbEntity
  8
ANNOTATION_TEXT
 62
     7
100
AcDbMText
 10
178.1282405254817
 20
159.2853882785878
 30
0.0
 40
3.048
 41
0.0
 71
     2
 72
     1
  1
DETAIL A ^JSCALE 2:3
  7
ONSHAPE-STANDARD-VIEW-LABE
1001
ACAD
1000
ACAD_MTEXT_DEFINED_HEIGHT_BEGIN
1070
    46
1040
3.048
1000
ACAD_MTEXT_DEFINED_HEIGHT_END
  0
DIMENSION
  5
26F
102
{ACAD_REACTORS
102
}
102
{ACAD_XDICTIONARY
360
270
102
}
330
1F
100
AcDbEntity
  8
ANNOTATION_TEXT
100
AcDbDimension
  2
*D8
 10
221.2384618389991
 20
165.6256683931019
 30
0.0
 11
221.2384618389991
 21
173.9590017264352
 31
0.0
 70
   161
  3
ONSHAPE-STANDARD$0
100
AcDbAlignedDimension
 13
200.2498192111668
 23
182.2923350597686
 33
0.0
 14
200.2498192111668
 24
165.6256683931019
 34
0.0
1001
ACAD
1000
DSTYLE
1002
{
1070
    40
1040
25.4
1070
     4
1000
[]
1070
   144
1040
1.5
1070
     3
1000

1070
   288
1070
     1
1002
}
1001
ACAD_DIMASSOC_CALC_DIMLFAC
1040
-1.5
1001
ACAD_DIMASSOC_DIMLFAC
1040
-38.09999999999999
1001
ACAD_DIMASSOC_OVERRIDDEN_D
1040
0.0
  0
DIMENSION
  5
28C
102
{ACAD_REACTORS
102
}
102
{ACAD_XDICTIONARY
360
28D
102
}
330
1F
100
AcDbEntity
  8
ANNOTATION_TEXT
100
AcDbDimension
  2
*D9
 10
200.2498192111668
 20
195.1030935843264
 30
0.0
 11
177.13695128649
 21
195.1030935843264
 31
0.0
 70
   161
  3
ONSHAPE-STANDARD$0
100
AcDbAlignedDimension
 13
155.5831525445002
 23
182.2923350597686
 33
0.0
 14
200.2498192111668
 24
182.2923350597686
 34
0.0
1001
ACAD
1000
DSTYLE
1002
{
1070
    40
1040
25.4
1070
     4
1000
[]
1070
   144
1040
1.5
1070
     3
1000

1070
   288
1070
     1
1002
}
1001
ACAD_DIMASSOC_CALC_DIMLFAC
1040
-1.5
1001
ACAD_DIMASSOC_DIMLFAC
1040
-38.09999999999999
1001
ACAD_DIMASSOC_OVERRIDDEN_D
1040
0.0
  0
MTEXT
  5
2A9
102
{ACAD_XDICTIONARY
360
2AA
102
}
330
1F
100
AcDbEntity
  8
ANNOTATION_TEXT
 62
     7
 60
     1
100
AcDbMText
 10
191.0938352826569
 20
60.02905420724087
 30
0.0
 40
3.048
 41
0.0
 71
     2
 72
     1
  1

  7
ONSHAPE-STANDARD-VIEW-LABE
1001
ACAD
1000
ACAD_MTEXT_DEFINED_HEIGHT_BEGIN
1070
    46
1040
3.048
1000
ACAD_MTEXT_DEFINED_HEIGHT_END
  0
ENDSEC
  0
SECTION
  2
OBJECTS
  0
DICTIONARY
  5
C
330
0
100
AcDbDictionary
  3
ACAD_FIELDLIST
350
153
  3
ACAD_GROUP
350
D
  3
ACAD_LAYOUT
350
1A
  3
ACAD_MATERIAL
350
43
  3
ACAD_MLEADERSTYLE
350
6B
  3
ACAD_MLINESTYLE
350
17
  3
ACAD_PLOTSETTINGS
350
19
  3
ACAD_SCALELIST
350
47
  3
ACAD_VISUALSTYLE
350
2A
  3
ACDB_RECOMPOSE_DATA
350
342
  3
ACDBHEADERROUNDTRIPXREC
350
30A
  3
ACDBVARIABLEDICTIONARY
350
6E
  3
DWGPROPS
350
331
  3
ONSHAPE_DATA
350
186
  0
DICTIONARY
  5
337
330
8
100
AcDbDictionary
280
     1
  3
ACAD_XREC_ROUNDTRIP
360
338
  0
DICTIONARY
  5
332
330
CD
100
AcDbDictionary
280
     1
  3
ACAD_MTEXT_RT
360
333
  0
DICTIONARY
  5
F0
330
EF
100
AcDbDictionary
280
     1
  0
DICTIONARY
  5
F7
330
F6
100
AcDbDictionary
280
     1
  0
DICTIONARY
  5
101
330
100
100
AcDbDictionary
280
     1
  0
DICTIONARY
  5
107
330
106
100
AcDbDictionary
280
     1
  0
DICTIONARY
  5
334
330
113
100
AcDbDictionary
280
     1
  3
ACAD_MTEXT_RT
360
335
  0
DICTIONARY
  5
121
330
120
100
AcDbDictionary
280
     1
  0
DICTIONARY
  5
127
330
126
100
AcDbDictionary
280
     1
  3
ACAD_MTEXT_RT
360
336
  0
DICTIONARY
  5
129
330
128
100
AcDbDictionary
280
     1
  0
DICTIONARY
  5
130
330
12F
100
AcDbDictionary
280
     1
  0
DICTIONARY
  5
137
330
136
100
AcDbDictionary
280
     1
  0
DICTIONARY
  5
13E
330
13D
100
AcDbDictionary
280
     1
  0
DICTIONARY
  5
145
330
144
100
AcDbDictionary
280
     1
  0
DICTIONARY
  5
14E
330
14D
100
AcDbDictionary
280
     1
  0
DICTIONARY
  5
17D
330
17C
100
AcDbDictionary
280
     1
  3
ONSHAPE_VIEW_ID
360
17E
  0
DICTIONARY
  5
184
330
183
100
AcDbDictionary
280
     1
  3
ONSHAPE_VIEW_ID
360
185
  0
DICTIONARY
  5
191
330
190
100
AcDbDictionary
280
     1
  3
ACAD_BREAKDATA
360
195
  3
OS_DIM_DISPLAY_FLAG_DATA
360
192
  0
DICTIONARY
  5
1AF
330
1AE
100
AcDbDictionary
280
     1
  3
ACAD_BREAKDATA
360
1B3
  3
OS_DIM_DISPLAY_FLAG_DATA
360
1B0
  0
DICTIONARY
  5
1CC
330
1CB
100
AcDbDictionary
280
     1
  3
ACAD_BREAKDATA
360
1CF
  3
OS_DIM_DISPLAY_FLAG_DATA
360
1CD
  3
OS_DIM_X_DATA
360
1D0
  0
DICTIONARY
  5
1E5
330
1E4
100
AcDbDictionary
280
     1
  3
ACAD_BREAKDATA
360
1E9
  3
OS_DIM_DISPLAY_FLAG_DATA
360
1E6
  0
DICTIONARY
  5
202
330
201
100
AcDbDictionary
280
     1
  3
ACAD_BREAKDATA
360
206
  3
OS_DIM_DISPLAY_FLAG_DATA
360
203
  0
DICTIONARY
  5
21F
330
21E
100
AcDbDictionary
280
     1
  3
ACAD_BREAKDATA
360
223
  3
OS_DIM_DISPLAY_FLAG_DATA
360
220
  0
DICTIONARY
  5
23E
330
23D
100
AcDbDictionary
280
     1
  3
ACAD_BREAKDATA
360
242
  3
OS_DIM_DISPLAY_FLAG_DATA
360
23F
  0
DICTIONARY
  5
268
330
267
100
AcDbDictionary
280
     1
  3
ONSHAPE_VIEW_ID
360
269
  0
DICTIONARY
  5
270
330
26F
100
AcDbDictionary
280
     1
  3
ACAD_BREAKDATA
360
274
  3
OS_DIM_DISPLAY_FLAG_DATA
360
271
  0
DICTIONARY
  5
28D
330
28C
100
AcDbDictionary
280
     1
  3
ACAD_BREAKDATA
360
291
  3
OS_DIM_DISPLAY_FLAG_DATA
360
28E
  0
DICTIONARY
  5
2AA
330
2A9
100
AcDbDictionary
280
     1
  3
ONSHAPE_VIEW_ID
360
2AB
  0
ACAD_PROXY_OBJECT
  5
153
102
{ACAD_REACTORS
330
C
102
}
330
C
100
AcDbProxyObject
 90
      499
 91
      509
 93
       11
310
4580
330
F3
330
F4
330
FA
330
FB
330
104
330
105
330
10A
330
10B
330
124
330
125
330
12C
330
12D
330
133
330
134
330
13A
330
13B
330
141
330
142
330
148
330
149
330
151
330
152
 94
        0
  0
DICTIONARY
  5
D
102
{ACAD_REACTORS
330
C
102
}
330
C
100
AcDbDictionary
  0
DICTIONARY
  5
1A
102
{ACAD_REACTORS
330
C
102
}
330
C
100
AcDbDictionary
  0
DICTIONARY
  5
43
102
{ACAD_REACTORS
330
C
102
}
330
C
100
AcDbDictionary
  3
BYBLOCK
350
45
  3
BYLAYER
350
44
  3
GLOBAL
350
46
  0
DICTIONARY
  5
6B
102
{ACAD_REACTORS
330
C
102
}
330
C
100
AcDbDictionary
  3
STANDARD
350
6C
  0
DICTIONARY
  5
17
102
{ACAD_REACTORS
330
C
102
}
330
C
100
AcDbDictionary
  3
STANDARD
350
18
  0
DICTIONARY
  5
19
102
{ACAD_REACTORS
330
C
102
}
330
C
100
AcDbDictionary
  0
DICTIONARY
  5
47
102
{ACAD_REACTORS
330
C
102
}
330
C
100
AcDbDictionary
  3
A0
350
48
  3
A1
350
49
  3
A2
350
4A
  3
A3
350
4B
  3
A4
350
4C
  3
A5
350
4D
  3
A6
350
4E
  3
A7
350
4F
  3
A8
350
50
  3
A9
350
51
  3
B0
350
52
  3
B1
350
53
  3
B2
350
54
  3
B3
350
55
  3
B4
350
56
  3
B5
350
57
  3
B6
350
58
  3
B7
350
59
  3
B8
350
5A
  3
B9
350
5B
  3
C0
350
5C
  3
C1
350
5D
  3
C2
350
5E
  3
C3
350
5F
  3
C4
350
60
  3
C5
350
61
  3
C6
350
62
  3
C7
350
63
  3
C8
350
64
  3
C9
350
65
  3
D0
350
66
  3
D1
350
67
  3
D2
350
68
  0
DICTIONARY
  5
2A
102
{ACAD_REACTORS
330
C
102
}
330
C
100
AcDbDictionary
  3
2DWIREFRAME
350
2F
  3
BASIC
350
32
  3
BRIGHTEN
350
36
  3
COLORCHANGE
350
3A
  3
CONCEPTUAL
350
34
  3
DIM
350
35
  3
EDGECOLOROFF
350
3D
  3
FACEPATTERN
350
39
  3
FLAT
350
2B
  3
FLATWITHEDGES
350
2C
  3
GOURAUD
350
2D
  3
GOURAUDWITHEDGES
350
2E
  3
HIDDEN
350
31
  3
JITTEROFF
350
3B
  3
LINEPATTERN
350
38
  3
OVERHANGOFF
350
3C
  3
REALISTIC
350
33
  3
SHADED
350
42
  3
SHADED_WITH_EDGES
350
41
  3
SHADES_OF_GRAY
350
3E
  3
SKETCHY
350
3F
  3
THICKEN
350
37
  3
WIREFRAME
350
30
  3
X-RAY
350
40
  0
XRECORD
  5
342
102
{ACAD_REACTORS
330
C
102
}
330
C
100
AcDbXrecord
 90
        1
330
CD
330
113
330
126
  0
DICTIONARY
  5
30A
102
{ACAD_REACTORS
330
C
102
}
330
C
100
AcDbDictionary
  3
CEPSNID
350
314
  3
CEPSNTYPE
350
313
  3
DIMSTYLEDATA
350
32A
  3
FINGERPRINTGUID
350
315
  3
HYPERLINKBASE
350
30D
  3
INSUNITS
350
312
  3
LAYOUTDICT
350
30F
  3
LWETCUNION
350
311
  3
PLOTSETDICT
350
310
  3
PSVPSCALE
350
317
  3
PUCSBASE
350
31A
  3
PUCSORGBACK
350
320
  3
PUCSORGBOTTOM
350
31C
  3
PUCSORGFRONT
350
31F
  3
PUCSORGLEFT
350
31D
  3
PUCSORGRIGHT
350
31E
  3
PUCSORGTOP
350
31B
  3
PUCSORTHOREF
350
318
  3
PUCSORTHOVIEW
350
319
  3
STYLESHEET
350
30E
  3
TSTACKALIGN
350
30B
  3
TSTACKSIZE
350
30C
  3
UCSBASE
350
323
  3
UCSORGBACK
350
329
  3
UCSORGBOTTOM
350
325
  3
UCSORGFRONT
350
328
  3
UCSORGLEFT
350
326
  3
UCSORGRIGHT
350
327
  3
UCSORGTOP
350
324
  3
UCSORTHOREF
350
321
  3
UCSORTHOVIEW
350
322
  3
VERSIONGUID
350
316
  0
DICTIONARY
  5
6E
102
{ACAD_REACTORS
330
C
102
}
330
C
100
AcDbDictionary
  3
CANNOSCALE
350
339
  3
CMLEADERSTYLE
350
32C
  3
CTABLESTYLE
350
32B
  3
DIMASSOC
350
32F
  3
HIDETEXT
350
330
  3
MSLTSCALE
350
33A
  3
OLEFRAME
350
6F
  0
XRECORD
  5
331
102
{ACAD_REACTORS
330
C
102
}
330
C
100
AcDbXrecord
  1
DWGPROPS COOKIE
  2

  3

  4

  6

  7

  8
nobody
  9

300
=
301
=
302
=
303
=
304
=
305
=
306
=
307
=
308
=
309
=
 40
0.0
 41
2461200.967979803
 42
2461200.967980903
  1

 90
        0
  0
DICTIONARY
  5
186
102
{ACAD_REACTORS
330
C
102
}
330
C
100
AcDbDictionary
280
     1
  3
DIM_UNITS
360
189
  3
ONSHAPE_ALT_DIM_POSTION
360
18B
  3
ONSHAPE_ALT_DIM_UNIT
360
18A
  3
ONSHAPE_ALT_DIM_UNIT_ENABLE
360
18C
  3
ONSHAPE_ANG_TOL_PRECISION
360
18D
  3
ONSHAPE_BREAK_DIMENSION_DEFAULT
360
26E
  3
ONSHAPE_DIMENSION_FIT_STANDARD
360
188
  3
ONSHAPE_DIMENSION_TEXT_HOR
360
187
  3
ONSHAPE_FITCLASS_TOL_PRECISION
360
18E
  3
ONSHAPE_JOGDIMENSION_LOCK_
360
18F
  3
ONSHAPE_SHOWDIMENSIONSLINE
360
2B3
  3
ONSHAPE_UNDERLINEOVERRIDEN
360
2B2
  3
ONSHAPE_VSHARP_EXTENSION
360
2B1
  3
ONSHAPE_WELD_STANDARD
360
2B0
  0
XRECORD
  5
338
102
{ACAD_REACTORS
330
337
102
}
330
337
100
AcDbXrecord
102
VTR_0.000_0.000_1.000_1.000_VISUALSTYLE
340
2F
102
VTR_0.000_0.000_1.000_1.000_GRIDDISPLAY
 70
     3
102
VTR_0.000_0.000_1.000_1.000_GRIDMAJOR
 70
     5
102
VTR_0.000_0.000_1.000_1.000_DEFAULTLIGHTING
280
     1
102
VTR_0.000_0.000_1.000_1.000_DEFAULTLIGHTINGTYPE
 70
     1
102
VTR_0.000_0.000_1.000_1.000_BRIGHTNESS
141
0.0
102
VTR_0.000_0.000_1.000_1.000_CONTRAST
142
0.0
  0
XRECORD
  5
333
102
{ACAD_REACTORS
330
332
102
}
330
332
100
AcDbXrecord
 40
77559.0
  1
{\pxqc;SCALE 1:3}
  0
XRECORD
  5
335
102
{ACAD_REACTORS
330
334
102
}
330
334
100
AcDbXrecord
 40
11027.0
  1
{\pxqc;Acrilico negro }
  0
XRECORD
  5
336
102
{ACAD_REACTORS
330
127
102
}
330
127
100
AcDbXrecord
 40
21238.0
  1
{\pxqc;Puerta sup principal}
  0
XRECORD
  5
17E
102
{ACAD_REACTORS
330
17D
102
}
330
17D
100
AcDbXrecord
330
0
  0
XRECORD
  5
185
102
{ACAD_REACTORS
330
184
102
}
330
184
100
AcDbXrecord
330
0
  0
BREAKDATA
  5
195
102
{ACAD_REACTORS
330
191
102
}
330
191
100
AcDbBreakData
 70
     0
330
190
 90
        0
  0
XRECORD
  5
192
102
{ACAD_REACTORS
330
191
102
}
330
191
100
AcDbXrecord
 90
        1
 90
        0
  0
BREAKDATA
  5
1B3
102
{ACAD_REACTORS
330
1AF
102
}
330
1AF
100
AcDbBreakData
 70
     0
330
1AE
 90
        0
  0
XRECORD
  5
1B0
102
{ACAD_REACTORS
330
1AF
102
}
330
1AF
100
AcDbXrecord
 90
        1
 90
        0
  0
BREAKDATA
  5
1CF
102
{ACAD_REACTORS
330
1CC
102
}
330
1CC
100
AcDbBreakData
 70
     0
330
1CB
 90
        1
100
AcDbBreakPointRef
 71
     0
 72
     0
 91
       -1
 10
0.0
 20
0.0
 30
0.0
 11
0.0
 21
0.0
 31
0.0
331
1AE
 73
     5
 92
        0
  0
XRECORD
  5
1CD
102
{ACAD_REACTORS
330
1CC
102
}
330
1CC
100
AcDbXrecord
 90
        1
 90
        0
  0
ACAD_PROXY_OBJECT
  5
1D0
102
{ACAD_REACTORS
330
1CC
102
}
330
1CC
100
AcDbProxyObject
 90
      499
 91
      512
 93
      314
310
499680008000000B004000078B004000078B004000078B004100079E0D08360B0040000788804000
  0
BREAKDATA
  5
1E9
102
{ACAD_REACTORS
330
1E5
102
}
330
1E5
100
AcDbBreakData
 70
     0
330
1E4
 90
        1
100
AcDbBreakPointRef
 71
     0
 72
     0
 91
       -1
 10
0.0
 20
0.0
 30
0.0
 11
0.0
 21
0.0
 31
0.0
331
1AE
 73
     5
 92
        0
  0
XRECORD
  5
1E6
102
{ACAD_REACTORS
330
1E5
102
}
330
1E5
100
AcDbXrecord
 90
        1
 90
        0
  0
BREAKDATA
  5
206
102
{ACAD_REACTORS
330
202
102
}
330
202
100
AcDbBreakData
 70
     0
330
201
 90
        0
  0
XRECORD
  5
203
102
{ACAD_REACTORS
330
202
102
}
330
202
100
AcDbXrecord
 90
        1
 90
        0
  0
BREAKDATA
  5
223
102
{ACAD_REACTORS
330
21F
102
}
330
21F
100
AcDbBreakData
 70
     0
330
21E
 90
        0
  0
XRECORD
  5
220
102
{ACAD_REACTORS
330
21F
102
}
330
21F
100
AcDbXrecord
 90
        1
 90
        0
  0
BREAKDATA
  5
242
102
{ACAD_REACTORS
330
23E
102
}
330
23E
100
AcDbBreakData
 70
     0
330
23D
 90
        2
100
AcDbBreakPointRef
 71
     0
 72
     0
 91
       -1
 10
0.0
 20
0.0
 30
0.0
 11
0.0
 21
0.0
 31
0.0
331
21E
 73
     5
 92
        0
100
AcDbBreakPointRef
 71
     0
 72
     0
 91
       -1
 10
0.0
 20
0.0
 30
0.0
 11
0.0
 21
0.0
 31
0.0
331
0
 73
     2
 92
        0
  0
XRECORD
  5
23F
102
{ACAD_REACTORS
330
23E
102
}
330
23E
100
AcDbXrecord
 90
        1
 90
        0
  0
XRECORD
  5
269
102
{ACAD_REACTORS
330
268
102
}
330
268
100
AcDbXrecord
330
0
  0
BREAKDATA
  5
274
102
{ACAD_REACTORS
330
270
102
}
330
270
100
AcDbBreakData
 70
     0
330
26F
 90
        0
  0
XRECORD
  5
271
102
{ACAD_REACTORS
330
270
102
}
330
270
100
AcDbXrecord
 90
        1
 90
        0
  0
BREAKDATA
  5
291
102
{ACAD_REACTORS
330
28D
102
}
330
28D
100
AcDbBreakData
 70
     0
330
28C
 90
        0
  0
XRECORD
  5
28E
102
{ACAD_REACTORS
330
28D
102
}
330
28D
100
AcDbXrecord
 90
        1
 90
        0
  0
XRECORD
  5
2AB
102
{ACAD_REACTORS
330
2AA
102
}
330
2AA
100
AcDbXrecord
330
0
  0
MATERIAL
  5
45
102
{ACAD_REACTORS
330
43
102
}
102
{ACAD_XDICTIONARY
360
33D
102
}
330
43
100
AcDbMaterial
  1
BYBLOCK
  0
MATERIAL
  5
44
102
{ACAD_REACTORS
330
43
102
}
102
{ACAD_XDICTIONARY
360
33B
102
}
330
43
100
AcDbMaterial
  1
BYLAYER
  0
MATERIAL
  5
46
102
{ACAD_REACTORS
330
43
102
}
102
{ACAD_XDICTIONARY
360
33F
102
}
330
43
100
AcDbMaterial
  1
GLOBAL
  0
ACAD_PROXY_OBJECT
  5
6C
102
{ACAD_REACTORS
330
6B
102
}
330
6B
100
AcDbProxyObject
 90
      499
 91
      505
 93
      610
310
40901902A4063FBFFFFFE056BD1B81E855B9FC0AD7A3703D0AD73F4214DD185B99185C9900AD7A3703D0AC73F90140501A02B5E8DC0F42B1CFC02B5E8DC0F42B1CFE5764000000000000300FC0
340
14
340
0
340
11
340
0
 94
        0
1001
ACAD_MLEADERVER
1070
     2
  0
MLINESTYLE
  5
18
102
{ACAD_REACTORS
330
17
102
}
330
17
100
AcDbMlineStyle
  2
Standard
 70
     0
  3

 62
   256
 51
90.0
 52
90.0
 71
     2
 49
0.5
 62
   256
  6
BYLAYER
 49
-0.5
 62
   256
  6
BYLAYER
  0
ACAD_PROXY_OBJECT
  5
48
102
{ACAD_REACTORS
330
47
102
}
330
47
100
AcDbProxyObject
 90
      499
 91
      503
 93
       41
310
903313A31580
  0
ACAD_PROXY_OBJECT
  5
49
102
{ACAD_REACTORS
330
47
102
}
330
47
100
AcDbProxyObject
 90
      499
 91
      503
 93
      105
310
903313A324000000000000004000
  0
ACAD_PROXY_OBJECT
  5
4A
102
{ACAD_REACTORS
330
47
102
}
330
47
100
AcDbProxyObject
 90
      499
 91
      503
 93
      105
310
903313A344000000000000104000
  0
ACAD_PROXY_OBJECT
  5
4B
102
{ACAD_REACTORS
330
47
102
}
330
47
100
AcDbProxyObject
 90
      499
 91
      503
 93
      105
310
903313A354000000000000144000
  0
ACAD_PROXY_OBJECT
  5
4C
102
{ACAD_REACTORS
330
47
102
}
330
47
100
AcDbProxyObject
 90
      499
 91
      503
 93
      105
310
903313A384000000000000204000
  0
ACAD_PROXY_OBJECT
  5
4D
102
{ACAD_REACTORS
330
47
102
}
330
47
100
AcDbProxyObject
 90
      499
 91
      503
 93
      113
310
904313A31304000000000000244000
  0
ACAD_PROXY_OBJECT
  5
4E
102
{ACAD_REACTORS
330
47
102
}
330
47
100
AcDbProxyObject
 90
      499
 91
      503
 93
      113
310
904313A31364000000000000304000
  0
ACAD_PROXY_OBJECT
  5
4F
102
{ACAD_REACTORS
330
47
102
}
330
47
100
AcDbProxyObject
 90
      499
 91
      503
 93
      113
310
904313A32304000000000000344000
  0
ACAD_PROXY_OBJECT
  5
50
102
{ACAD_REACTORS
330
47
102
}
330
47
100
AcDbProxyObject
 90
      499
 91
      503
 93
      113
310
904313A333040000000000003E4000
  0
ACAD_PROXY_OBJECT
  5
51
102
{ACAD_REACTORS
330
47
102
}
330
47
100
AcDbProxyObject
 90
      499
 91
      503
 93
      113
310
904313A34304000000000000444000
  0
ACAD_PROXY_OBJECT
  5
52
102
{ACAD_REACTORS
330
47
102
}
330
47
100
AcDbProxyObject
 90
      499
 91
      503
 93
      113
310
904313A35304000000000000494000
  0
ACAD_PROXY_OBJECT
  5
53
102
{ACAD_REACTORS
330
47
102
}
330
47
100
AcDbProxyObject
 90
      499
 91
      503
 93
      121
310
905313A3130304000000000000594000
  0
ACAD_PROXY_OBJECT
  5
54
102
{ACAD_REACTORS
330
47
102
}
330
47
100
AcDbProxyObject
 90
      499
 91
      503
 93
      105
310
903323A310000000000000010100
  0
ACAD_PROXY_OBJECT
  5
55
102
{ACAD_REACTORS
330
47
102
}
330
47
100
AcDbProxyObject
 90
      499
 91
      503
 93
      105
310
903343A310000000000000410100
  0
ACAD_PROXY_OBJECT
  5
56
102
{ACAD_REACTORS
330
47
102
}
330
47
100
AcDbProxyObject
 90
      499
 91
      503
 93
      105
310
903383A310000000000000810100
  0
ACAD_PROXY_OBJECT
  5
57
102
{ACAD_REACTORS
330
47
102
}
330
47
100
AcDbProxyObject
 90
      499
 91
      503
 93
      113
310
90431303A310000000000000910100
  0
ACAD_PROXY_OBJECT
  5
58
102
{ACAD_REACTORS
330
47
102
}
330
47
100
AcDbProxyObject
 90
      499
 91
      503
 93
      121
310
9053130303A310000000000001650100
  0
ACAD_PROXY_OBJECT
  5
59
102
{ACAD_REACTORS
330
47
102
}
330
47
100
AcDbProxyObject
 90
      499
 91
      503
 93
      257
310
90E312F31323822203D2031272D3022000000000000200FC000000000000284000
  0
ACAD_PROXY_OBJECT
  5
5A
102
{ACAD_REACTORS
330
47
102
}
330
47
100
AcDbProxyObject
 90
      499
 91
      503
 93
      249
310
90D312F363422203D2031272D3022000000000000240FC000000000000284000
  0
ACAD_PROXY_OBJECT
  5
5B
102
{ACAD_REACTORS
330
47
102
}
330
47
100
AcDbProxyObject
 90
      499
 91
      503
 93
      249
310
90D312F333222203D2031272D3022000000000000280FC000000000000284000
  0
ACAD_PROXY_OBJECT
  5
5C
102
{ACAD_REACTORS
330
47
102
}
330
47
100
AcDbProxyObject
 90
      499
 91
      503
 93
      249
310
90D312F313622203D2031272D30220000000000002C0FC000000000000284000
  0
ACAD_PROXY_OBJECT
  5
5D
102
{ACAD_REACTORS
330
47
102
}
330
47
100
AcDbProxyObject
 90
      499
 91
      503
 93
      249
310
90D332F333222203D2031272D30220000000000002E0FC000000000000284000
  0
ACAD_PROXY_OBJECT
  5
5E
102
{ACAD_REACTORS
330
47
102
}
330
47
100
AcDbProxyObject
 90
      499
 91
      503
 93
      241
310
90C312F3822203D2031272D3022000000000000300FC000000000000284000
  0
ACAD_PROXY_OBJECT
  5
5F
102
{ACAD_REACTORS
330
47
102
}
330
47
100
AcDbProxyObject
 90
      499
 91
      503
 93
      249
310
90D332F313622203D2031272D3022000000000000320FC000000000000284000
  0
ACAD_PROXY_OBJECT
  5
60
102
{ACAD_REACTORS
330
47
102
}
330
47
100
AcDbProxyObject
 90
      499
 91
      503
 93
      241
310
90C312F3422203D2031272D3022000000000000340FC000000000000284000
  0
ACAD_PROXY_OBJECT
  5
61
102
{ACAD_REACTORS
330
47
102
}
330
47
100
AcDbProxyObject
 90
      499
 91
      503
 93
      241
310
90C332F3822203D2031272D3022000000000000360FC000000000000284000
  0
ACAD_PROXY_OBJECT
  5
62
102
{ACAD_REACTORS
330
47
102
}
330
47
100
AcDbProxyObject
 90
      499
 91
      503
 93
      241
310
90C312F3222203D2031272D3022000000000000380FC000000000000284000
  0
ACAD_PROXY_OBJECT
  5
63
102
{ACAD_REACTORS
330
47
102
}
330
47
100
AcDbProxyObject
 90
      499
 91
      503
 93
      241
310
90C332F3422203D2031272D30220000000000003A0FC000000000000284000
  0
ACAD_PROXY_OBJECT
  5
64
102
{ACAD_REACTORS
330
47
102
}
330
47
100
AcDbProxyObject
 90
      499
 91
      503
 93
      161
310
90A3122203D2031272D30224000000000000284000
  0
ACAD_PROXY_OBJECT
  5
65
102
{ACAD_REACTORS
330
47
102
}
330
47
100
AcDbProxyObject
 90
      499
 91
      503
 93
      257
310
90E312D312F3222203D2031272D30220000000000003E0FC000000000000284000
  0
ACAD_PROXY_OBJECT
  5
66
102
{ACAD_REACTORS
330
47
102
}
330
47
100
AcDbProxyObject
 90
      499
 91
      503
 93
      225
310
90A3322203D2031272D302200000000000002100000000000000284000
  0
ACAD_PROXY_OBJECT
  5
67
102
{ACAD_REACTORS
330
47
102
}
330
47
100
AcDbProxyObject
 90
      499
 91
      503
 93
      225
310
90A3622203D2031272D302200000000000006100000000000000284000
  0
ACAD_PROXY_OBJECT
  5
68
102
{ACAD_REACTORS
330
47
102
}
330
47
100
AcDbProxyObject
 90
      499
 91
      503
 93
      249
310
90D31272D3022203D2031272D30220000000000000A100000000000000284000
  0
ACAD_PROXY_OBJECT
  5
2F
102
{ACAD_REACTORS
330
2A
102
}
330
2A
100
AcDbProxyObject
 90
      499
 91
      501
 93
      436
310
42CC9915DA5C99599C985B595049028333333333333E33F0000000000000F90107901411070040501600405405064090741402480A0340
1001
ACAD
1000
AcDbSavedByObjectVersion
1070
     0
  0
ACAD_PROXY_OBJECT
  5
32
102
{ACAD_REACTORS
330
2A
102
}
330
2A
100
AcDbProxyObject
 90
      499
 91
      501
 93
      388
310
4150985CDA58D07406404333333333333E33F0000000000000F90107A41107004050150841D405064090741402480A0350
1001
ACAD
1000
AcDbSavedByObjectVersion
1070
     0
  0
ACAD_PROXY_OBJECT
  5
36
102
{ACAD_REACTORS
330
2A
102
}
330
2A
100
AcDbProxyObject
 90
      499
 91
      501
 93
      428
310
42109C9A59DA1D195B90C409028333333333333E33F0000000000000F9010790141107004050150841D405064090741402480A029950
1001
ACAD
1000
AcDbSavedByObjectVersion
1070
     0
  0
ACAD_PROXY_OBJECT
  5
3A
102
{ACAD_REACTORS
330
2A
102
}
330
2A
100
AcDbProxyObject
 90
      499
 91
      501
 93
      452
310
42D0DBDB1BDC90DA185B99D95104090240C333333333333E33F0000000000000F90108901411070040501508421405064090741402480A0350
1001
ACAD
1000
AcDbSavedByObjectVersion
1070
     0
  0
ACAD_PROXY_OBJECT
  5
34
102
{ACAD_REACTORS
330
2A
102
}
330
2A
100
AcDbProxyObject
 90
      499
 91
      501
 93
      500
310
4290DBDB98D95C1D1D585B10940D028333333333333E33F0000000000000F90107902409070040501000000000018199010841D405064090740C02480A0340
1001
ACAD
1000
AcDbSavedByObjectVersion
1070
     0
  0
ACAD_PROXY_OBJECT
  5
35
102
{ACAD_REACTORS
330
2A
102
}
330
2A
100
AcDbProxyObject
 90
      499
 91
      501
 93
      412
310
40D11A5B50B409028333333333333E33F0000000000000F9010790141107004050150841D405064090741402480A02677FFFFFD0
1001
ACAD
1000
AcDbSavedByObjectVersion
1070
     0
  0
ACAD_PROXY_OBJECT
  5
3D
102
{ACAD_REACTORS
330
2A
102
}
330
2A
100
AcDbProxyObject
 90
      499
 91
      501
 93
      452
310
43115919D950DBDB1BDC93D999916409028333333333333E33F0000000000000F9010790141107004050150841D405064090741402480A0350
1001
ACAD
1000
AcDbSavedByObjectVersion
1070
     0
  0
ACAD_PROXY_OBJECT
  5
39
102
{ACAD_REACTORS
330
2A
102
}
330
2A
100
AcDbProxyObject
 90
      499
 91
      501
 93
      444
310
42D19858D95C185D1D195C9B90F409028333333333333E33F0000000000000F9010790141107004050150841D405064090741402480A0350
1001
ACAD
1000
AcDbSavedByObjectVersion
1070
     0
  0
ACAD_PROXY_OBJECT
  5
2B
102
{ACAD_REACTORS
330
2A
102
}
330
2A
100
AcDbProxyObject
 90
      499
 91
      501
 93
      380
310
41119B185D240901404333333333333E33F0000000000000F9010740A907004050150841D405064090741402480A1B50
1001
ACAD
1000
AcDbSavedByObjectVersion
1070
     0
  0
ACAD_PROXY_OBJECT
  5
2C
102
{ACAD_REACTORS
330
2A
102
}
330
2A
100
AcDbProxyObject
 90
      499
 91
      501
 93
      468
310
43519B185D15DA5D1A115919D95CD0140901404333333333333E33F0000000000000F90107409019070040501600405405064090741402480A1B50
1001
ACAD
1000
AcDbSavedByObjectVersion
1070
     0
  0
ACAD_PROXY_OBJECT
  5
2D
102
{ACAD_REACTORS
330
2A
102
}
330
2A
100
AcDbProxyObject
 90
      499
 91
      501
 93
      404
310
41D1DBDD5C985D5910240902404333333333333E33F0000000000000F9010740A9070040501641D405064090741402480A1B50
1001
ACAD
1000
AcDbSavedByObjectVersion
1070
     0
  0
ACAD_PROXY_OBJECT
  5
2E
102
{ACAD_REACTORS
330
2A
102
}
330
2A
100
AcDbProxyObject
 90
      499
 91
      501
 93
      492
310
4411DBDD5C985D5915DA5D1A115919D95CD0340902404333333333333E33F0000000000000F90107409019070040501600405405064090741402480A1B50
1001
ACAD
1000
AcDbSavedByObjectVersion
1070
     0
  0
ACAD_PROXY_OBJECT
  5
31
102
{ACAD_REACTORS
330
2A
102
}
330
2A
100
AcDbProxyObject
 90
      499
 91
      501
 93
      476
310
41921A5919195B90640502408333333333333E33F0000000000000F901079024090700405020000000000001110200405405064090740C02480A0340
1001
ACAD
1000
AcDbSavedByObjectVersion
1070
     0
  0
ACAD_PROXY_OBJECT
  5
3B
102
{ACAD_REACTORS
330
2A
102
}
330
2A
100
AcDbProxyObject
 90
      499
 91
      501
 93
      428
310
42529A5D1D195C93D999914409028333333333333E33F0000000000000F9010790141107004050150A41D405064090741402480A0350
1001
ACAD
1000
AcDbSavedByObjectVersion
1070
     0
  0
ACAD_PROXY_OBJECT
  5
38
102
{ACAD_REACTORS
330
2A
102
}
330
2A
100
AcDbProxyObject
 90
      499
 91
      501
 93
      444
310
42D31A5B995C185D1D195C9B90E409028333333333333E33F0000000000000F9010790141107004050750841D405064090741402483A0350
1001
ACAD
1000
AcDbSavedByObjectVersion
1070
     0
  0
ACAD_PROXY_OBJECT
  5
3C
102
{ACAD_REACTORS
330
2A
102
}
330
2A
100
AcDbProxyObject
 90
      499
 91
      501
 93
      444
310
42D3DD995C9A185B99D3D999915409028333333333333E33F0000000000000F9010790141107004050150941D405064090741402480A0350
1001
ACAD
1000
AcDbSavedByObjectVersion
1070
     0
  0
ACAD_PROXY_OBJECT
  5
33
102
{ACAD_REACTORS
330
2A
102
}
330
2A
100
AcDbProxyObject
 90
      499
 91
      501
 93
      428
310
425499585B1A5CDD1A58D08409038333333333333E33F0000000000000F9010740A907004050150800405405064090740C02480A1B40
1001
ACAD
1000
AcDbSavedByObjectVersion
1070
     0
  0
ACAD_PROXY_OBJECT
  5
42
102
{ACAD_REACTORS
330
2A
102
}
330
2A
100
AcDbProxyObject
 90
      499
 91
      501
 93
      420
310
4194DA1859195911B40902404333333333333E33F0000000000000F9010740A41107004050150800405405064090840C02480A0B40
1001
ACAD
1000
AcDbSavedByObjectVersion
1070
     0
  0
ACAD_PROXY_OBJECT
  5
41
102
{ACAD_REACTORS
330
2A
102
}
330
2A
100
AcDbProxyObject
 90
      499
 91
      501
 93
      516
310
4454DA18591959081DDA5D1A08195919D95CD1A40902404333333333333E33F0000000000000F901074090142907004050250800405405064090740C02480A0B40
1001
ACAD
1000
AcDbSavedByObjectVersion
1070
     0
  0
ACAD_PROXY_OBJECT
  5
3E
102
{ACAD_REACTORS
330
2A
102
}
330
2A
100
AcDbProxyObject
 90
      499
 91
      501
 93
      532
310
4394DA1859195CC81BD98811DC985E5174090240C333333333333E33F0000000000000F901079024090741D01000000000000111010841D405064090740C02480A0340
1001
ACAD
1000
AcDbSavedByObjectVersion
1070
     0
  0
ACAD_PROXY_OBJECT
  5
3F
102
{ACAD_REACTORS
330
2A
102
}
330
2A
100
AcDbProxyObject
 90
      499
 91
      501
 93
      476
310
41D4DAD95D18DA1E51840502408333333333333E33F0000000000000F901079024090741D01000000000000111010B41D405064090741802480A0340
1001
ACAD
1000
AcDbSavedByObjectVersion
1070
     0
  0
ACAD_PROXY_OBJECT
  5
37
102
{ACAD_REACTORS
330
2A
102
}
330
2A
100
AcDbProxyObject
 90
      499
 91
      501
 93
      412
310
41D51A1A58DAD95B90D409028333333333333E33F0000000000000F9010790141107004050150C41D405064090741402480A0350
1001
ACAD
1000
AcDbSavedByObjectVersion
1070
     0
  0
ACAD_PROXY_OBJECT
  5
30
102
{ACAD_REACTORS
330
2A
102
}
330
2A
100
AcDbProxyObject
 90
      499
 91
      501
 93
      420
310
4255DA5C99599C985B595059028333333333333E33F0000000000000F90107901411070040501600405405064090740C02480A0340
1001
ACAD
1000
AcDbSavedByObjectVersion
1070
     0
  0
ACAD_PROXY_OBJECT
  5
40
102
{ACAD_REACTORS
330
2A
102
}
330
2A
100
AcDbProxyObject
 90
      499
 91
      501
 93
      404
310
41560B54985E51940902404000000000000E03F0000000000000F9010740501907004050150841D405064090740C02480A1B40
1001
ACAD
1000
AcDbSavedByObjectVersion
1070
     0
  0
XRECORD
  5
314
102
{ACAD_REACTORS
330
30A
102
}
330
30A
100
AcDbXrecord
340
0
  0
XRECORD
  5
313
102
{ACAD_REACTORS
330
30A
102
}
330
30A
100
AcDbXrecord
 90
        0
  0
XRECORD
  5
32A
102
{ACAD_REACTORS
330
30A
102
}
330
30A
100
AcDbXrecord
1000
DSTYLE
1002
{
1070
   179
 70
     1
1070
   170
 70
     1
1070
   171
 70
     3
1070
   143
 40
0.0393700787401575
1070
   274
 70
     3
1070
   285
 70
    11
1070
   176
 70
     7
1070
   177
 70
     7
1070
   178
 70
     7
1070
   271
 70
     2
1070
    44
 40
0.08
1070
   144
 40
3.0
1070
   371
 70
    13
1070
   372
 70
    13
1070
    40
 40
25.4
1070
   272
 70
     2
1070
   340
340
73
1070
   140
 40
0.12
1070
   284
 70
    11
1070
   288
 70
     1
1070
    78
 70
    11
1070
    90
 70
     1
1002
}
  0
XRECORD
  5
315
102
{ACAD_REACTORS
330
30A
102
}
330
30A
100
AcDbXrecord
  1
{79717574-6172-7577-3977-3575b7747272}
  0
XRECORD
  5
30D
102
{ACAD_REACTORS
330
30A
102
}
330
30A
100
AcDbXrecord
  1

  0
XRECORD
  5
312
102
{ACAD_REACTORS
330
30A
102
}
330
30A
100
AcDbXrecord
 90
        4
  0
XRECORD
  5
30F
102
{ACAD_REACTORS
330
30A
102
}
330
30A
100
AcDbXrecord
340
1A
  0
XRECORD
  5
311
102
{ACAD_REACTORS
330
30A
102
}
330
30A
100
AcDbXrecord
 90
    10269
  0
XRECORD
  5
310
102
{ACAD_REACTORS
330
30A
102
}
330
30A
100
AcDbXrecord
340
19
  0
XRECORD
  5
317
102
{ACAD_REACTORS
330
30A
102
}
330
30A
100
AcDbXrecord
 40
0.0
  0
XRECORD
  5
31A
102
{ACAD_REACTORS
330
30A
102
}
330
30A
100
AcDbXrecord
340
0
  0
XRECORD
  5
320
102
{ACAD_REACTORS
330
30A
102
}
330
30A
100
AcDbXrecord
 10
0.0
 20
0.0
 30
0.0
  0
XRECORD
  5
31C
102
{ACAD_REACTORS
330
30A
102
}
330
30A
100
AcDbXrecord
 10
0.0
 20
0.0
 30
0.0
  0
XRECORD
  5
31F
102
{ACAD_REACTORS
330
30A
102
}
330
30A
100
AcDbXrecord
 10
0.0
 20
0.0
 30
0.0
  0
XRECORD
  5
31D
102
{ACAD_REACTORS
330
30A
102
}
330
30A
100
AcDbXrecord
 10
0.0
 20
0.0
 30
0.0
  0
XRECORD
  5
31E
102
{ACAD_REACTORS
330
30A
102
}
330
30A
100
AcDbXrecord
 10
0.0
 20
0.0
 30
0.0
  0
XRECORD
  5
31B
102
{ACAD_REACTORS
330
30A
102
}
330
30A
100
AcDbXrecord
 10
0.0
 20
0.0
 30
0.0
  0
XRECORD
  5
318
102
{ACAD_REACTORS
330
30A
102
}
330
30A
100
AcDbXrecord
340
0
  0
XRECORD
  5
319
102
{ACAD_REACTORS
330
30A
102
}
330
30A
100
AcDbXrecord
 70
     0
  0
XRECORD
  5
30E
102
{ACAD_REACTORS
330
30A
102
}
330
30A
100
AcDbXrecord
  1

  0
XRECORD
  5
30B
102
{ACAD_REACTORS
330
30A
102
}
330
30A
100
AcDbXrecord
 90
        1
  0
XRECORD
  5
30C
102
{ACAD_REACTORS
330
30A
102
}
330
30A
100
AcDbXrecord
 90
       70
  0
XRECORD
  5
323
102
{ACAD_REACTORS
330
30A
102
}
330
30A
100
AcDbXrecord
340
0
  0
XRECORD
  5
329
102
{ACAD_REACTORS
330
30A
102
}
330
30A
100
AcDbXrecord
 10
0.0
 20
0.0
 30
0.0
  0
XRECORD
  5
325
102
{ACAD_REACTORS
330
30A
102
}
330
30A
100
AcDbXrecord
 10
0.0
 20
0.0
 30
0.0
  0
XRECORD
  5
328
102
{ACAD_REACTORS
330
30A
102
}
330
30A
100
AcDbXrecord
 10
0.0
 20
0.0
 30
0.0
  0
XRECORD
  5
326
102
{ACAD_REACTORS
330
30A
102
}
330
30A
100
AcDbXrecord
 10
0.0
 20
0.0
 30
0.0
  0
XRECORD
  5
327
102
{ACAD_REACTORS
330
30A
102
}
330
30A
100
AcDbXrecord
 10
0.0
 20
0.0
 30
0.0
  0
XRECORD
  5
324
102
{ACAD_REACTORS
330
30A
102
}
330
30A
100
AcDbXrecord
 10
0.0
 20
0.0
 30
0.0
  0
XRECORD
  5
321
102
{ACAD_REACTORS
330
30A
102
}
330
30A
100
AcDbXrecord
340
0
  0
XRECORD
  5
322
102
{ACAD_REACTORS
330
30A
102
}
330
30A
100
AcDbXrecord
 70
     0
  0
XRECORD
  5
316
102
{ACAD_REACTORS
330
30A
102
}
330
30A
100
AcDbXrecord
  1
{FAEB1C32-E019-11D5-929B-00C0DF256EC4}
  0
DICTIONARYVAR
  5
339
102
{ACAD_REACTORS
330
6E
102
}
330
6E
100
DictionaryVariables
280
     0
  1
1:1
  0
DICTIONARYVAR
  5
32C
102
{ACAD_REACTORS
330
6E
102
}
330
6E
100
DictionaryVariables
280
     0
  1
Standard
  0
DICTIONARYVAR
  5
32B
102
{ACAD_REACTORS
330
6E
102
}
330
6E
100
DictionaryVariables
280
     0
  1
Onshape-Standard
  0
DICTIONARYVAR
  5
32F
102
{ACAD_REACTORS
330
6E
102
}
330
6E
100
DictionaryVariables
280
     0
  1
2
  0
DICTIONARYVAR
  5
330
102
{ACAD_REACTORS
330
6E
102
}
330
6E
100
DictionaryVariables
280
     0
  1
1
  0
DICTIONARYVAR
  5
33A
102
{ACAD_REACTORS
330
6E
102
}
330
6E
100
DictionaryVariables
280
     0
  1
1
  0
DICTIONARYVAR
  5
6F
102
{ACAD_REACTORS
330
6E
102
}
330
6E
100
DictionaryVariables
280
     0
  1
0
  0
XRECORD
  5
189
102
{ACAD_REACTORS
330
186
102
}
330
186
100
AcDbXrecord
 70
     4
  0
XRECORD
  5
18B
102
{ACAD_REACTORS
330
186
102
}
330
186
100
AcDbXrecord
 90
        0
  0
XRECORD
  5
18A
102
{ACAD_REACTORS
330
186
102
}
330
186
100
AcDbXrecord
 90
        0
  0
XRECORD
  5
18C
102
{ACAD_REACTORS
330
186
102
}
330
186
100
AcDbXrecord
 90
        0
  0
XRECORD
  5
18D
102
{ACAD_REACTORS
330
186
102
}
330
186
100
AcDbXrecord
 90
        0
  0
ACAD_PROXY_OBJECT
  5
26E
102
{ACAD_REACTORS
330
186
102
}
330
186
100
AcDbProxyObject
 90
      499
 91
      512
 93
       34
310
40C8804040
  0
XRECORD
  5
188
102
{ACAD_REACTORS
330
186
102
}
330
186
100
AcDbXrecord
300
ANSI
  0
XRECORD
  5
187
102
{ACAD_REACTORS
330
186
102
}
330
186
100
AcDbXrecord
 90
        5
  0
XRECORD
  5
18E
102
{ACAD_REACTORS
330
186
102
}
330
186
100
AcDbXrecord
 90
        4
  0
XRECORD
  5
18F
102
{ACAD_REACTORS
330
186
102
}
330
186
100
AcDbXrecord
 90
        0
  0
ACAD_PROXY_OBJECT
  5
2B3
102
{ACAD_REACTORS
330
186
102
}
330
186
100
AcDbProxyObject
 90
      499
 91
      512
 93
       34
310
40C8804000
  0
ACAD_PROXY_OBJECT
  5
2B2
102
{ACAD_REACTORS
330
186
102
}
330
186
100
AcDbProxyObject
 90
      499
 91
      512
 93
       34
310
40C8804040
  0
XRECORD
  5
2B1
102
{ACAD_REACTORS
330
186
102
}
330
186
100
AcDbXrecord
 90
        0
  0
XRECORD
  5
2B0
102
{ACAD_REACTORS
330
186
102
}
330
186
100
AcDbXrecord
 90
        0
  0
DICTIONARY
  5
33D
330
45
100
AcDbDictionary
280
     1
  3
ACAD_XREC_ROUNDTRIP
360
33E
  0
DICTIONARY
  5
33B
330
44
100
AcDbDictionary
280
     1
  3
ACAD_XREC_ROUNDTRIP
360
33C
  0
DICTIONARY
  5
33F
330
46
100
AcDbDictionary
280
     1
  3
ACAD_XREC_ROUNDTRIP
360
340
  0
XRECORD
  5
33E
102
{ACAD_REACTORS
330
33D
102
}
330
33D
100
AcDbXrecord
102
MATERIAL
148
0.0
149
0.0
149
0.0
 93
        0
 94
      127
282
     0
 72
     1
 77
     1
171
     1
175
     1
179
     1
273
     0
  0
XRECORD
  5
33C
102
{ACAD_REACTORS
330
33B
102
}
330
33B
100
AcDbXrecord
102
MATERIAL
148
0.0
149
0.0
149
0.0
 93
        0
 94
      127
282
     0
 72
     1
 77
     1
171
     1
175
     1
179
     1
273
     0
  0
XRECORD
  5
340
102
{ACAD_REACTORS
330
33F
102
}
330
33F
100
AcDbXrecord
102
MATERIAL
148
0.0
149
0.0
149
0.0
 93
        0
 94
      127
282
     0
 72
     1
 77
     1
171
     1
175
     1
179
     1
273
     0
  0
ENDSEC
  0
EOF
