  0
SECTION
  2
HEADER
  9
$ACADVER
  1
AC1014
  9
$ACADMAINTVER
 70
     9
  9
$DWGCODEPAGE
  3
ANSI_1252
  9
$INSBASE
 10
0.0
 20
0.0
 30
0.0
  9
$EXTMIN
 10
20.0
 20
10.0
 30
0.0
  9
$EXTMAX
 10
297.384048
 20
200.0
 30
0.0
  9
$LIMMIN
 10
0.0
 20
0.0
  9
$LIMMAX
 10
12.0
 20
9.0
  9
$ORTHOMODE
 70
     0
  9
$REGENMODE
 70
     1
  9
$FILLMODE
 70
     1
  9
$QTEXTMODE
 70
     0
  9
$MIRRTEXT
 70
     1
  9
$DRAGMODE
 70
     2
  9
$LTSCALE
 40
12.7
  9
$OSMODE
 70
    23
  9
$ATTMODE
 70
     1
  9
$TEXTSIZE
 40
3.5
  9
$TRACEWID
 40
0.05
  9
$TEXTSTYLE
  7
ONSHAPE-STANDARD
  9
$CLAYER
  8
0
  9
$CELTYPE
  6
BYLAYER
  9
$CECOLOR
 62
   256
  9
$CELTSCALE
 40
1.0
  9
$DELOBJ
 70
     1
  9
$DISPSILH
 70
     0
  9
$DIMSCALE
 40
1.0
  9
$DIMASZ
 40
2.5
  9
$DIMEXO
 40
0.625
  9
$DIMDLI
 40
3.75
  9
$DIMRND
 40
0.0
  9
$DIMDLE
 40
0.0
  9
$DIMEXE
 40
1.25
  9
$DIMTP
 40
0.0
  9
$DIMTM
 40
0.0
  9
$DIMTXT
 40
3.5
  9
$DIMCEN
 40
2.5
  9
$DIMTSZ
 40
0.0
  9
$DIMTOL
 70
     0
  9
$DIMLIM
 70
     0
  9
$DIMTIH
 70
     0
  9
$DIMTOH
 70
     0
  9
$DIMSE1
 70
     0
  9
$DIMSE2
 70
     0
  9
$DIMTAD
 70
     1
  9
$DIMZIN
 70
     8
  9
$DIMBLK
  1
OPEN
  9
$DIMASO
 70
     1
  9
$DIMSHO
 70
     1
  9
$DIMPOST
  1

  9
$DIMAPOST
  1

  9
$DIMALT
 70
     1
  9
$DIMALTD
 70
     3
  9
$DIMALTF
 40
0.0393700787401575
  9
$DIMLFAC
 40
2.0
  9
$DIMTOFL
 70
     1
  9
$DIMTVP
 40
0.0
  9
$DIMTIX
 70
     0
  9
$DIMSOXD
 70
     0
  9
$DIMSAH
 70
     0
  9
$DIMBLK1
  1
OPEN
  9
$DIMBLK2
  1
OPEN
  9
$DIMSTYLE
  2
ONSHAPE-ISO-25
  9
$DIMCLRD
 70
     7
  9
$DIMCLRE
 70
     7
  9
$DIMCLRT
 70
     7
  9
$DIMTFAC
 40
1.0
  9
$DIMGAP
 40
0.625
  9
$DIMJUST
 70
     0
  9
$DIMSD1
 70
     0
  9
$DIMSD2
 70
     0
  9
$DIMTOLJ
 70
     0
  9
$DIMTZIN
 70
     8
  9
$DIMALTZ
 70
     8
  9
$DIMALTTZ
 70
     0
  9
$DIMFIT
 70
     3
  9
$DIMUPT
 70
     1
  9
$DIMUNIT
 70
     2
  9
$DIMDEC
 70
     2
  9
$DIMTDEC
 70
     2
  9
$DIMALTU
 70
     2
  9
$DIMALTTD
 70
     3
  9
$DIMTXSTY
  7
ONSHAPE-STANDARD-DIMENSION
  9
$DIMAUNIT
 70
     0
  9
$LUNITS
 70
     2
  9
$LUPREC
 70
     4
  9
$SKETCHINC
 40
0.1
  9
$FILLETRAD
 40
0.5
  9
$AUNITS
 70
     0
  9
$AUPREC
 70
     0
  9
$MENU
  1
.
  9
$ELEVATION
 40
0.0
  9
$PELEVATION
 40
0.0
  9
$THICKNESS
 40
0.0
  9
$LIMCHECK
 70
     0
  9
$CHAMFERA
 40
0.0
  9
$CHAMFERB
 40
0.0
  9
$CHAMFERC
 40
0.0
  9
$CHAMFERD
 40
0.0
  9
$SKPOLY
 70
     0
  9
$TDCREATE
 40
2461200.967383449
  9
$TDUPDATE
 40
2461200.967384526
  9
$TDINDWG
 40
0.0
  9
$TDUSRTIMER
 40
0.0
  9
$USRTIMER
 70
     1
  9
$ANGBASE
 50
0.0
  9
$ANGDIR
 70
     0
  9
$PDMODE
 70
    33
  9
$PDSIZE
 40
1.0
  9
$PLINEWID
 40
0.0
  9
$COORDS
 70
     1
  9
$SPLFRAME
 70
     0
  9
$SPLINETYPE
 70
     6
  9
$SPLINESEGS
 70
     8
  9
$ATTDIA
 70
     0
  9
$ATTREQ
 70
     1
  9
$HANDLING
 70
     1
  9
$HANDSEED
  5
392
  9
$SURFTAB1
 70
     6
  9
$SURFTAB2
 70
     6
  9
$SURFTYPE
 70
     6
  9
$SURFU
 70
     6
  9
$SURFV
 70
     6
  9
$UCSNAME
  2

  9
$UCSORG
 10
0.0
 20
0.0
 30
0.0
  9
$UCSXDIR
 10
1.0
 20
0.0
 30
0.0
  9
$UCSYDIR
 10
0.0
 20
1.0
 30
0.0
  9
$PUCSNAME
  2

  9
$PUCSORG
 10
0.0
 20
0.0
 30
0.0
  9
$PUCSXDIR
 10
1.0
 20
0.0
 30
0.0
  9
$PUCSYDIR
 10
0.0
 20
1.0
 30
0.0
  9
$USERI1
 70
     0
  9
$USERI2
 70
     0
  9
$USERI3
 70
     0
  9
$USERI4
 70
     0
  9
$USERI5
 70
     0
  9
$USERR1
 40
0.0
  9
$USERR2
 40
0.0
  9
$USERR3
 40
0.0
  9
$USERR4
 40
0.0
  9
$USERR5
 40
0.0
  9
$WORLDVIEW
 70
     1
  9
$SHADEDGE
 70
     3
  9
$SHADEDIF
 70
    70
  9
$TILEMODE
 70
     1
  9
$MAXACTVP
 70
    64
  9
$PINSBASE
 10
0.0
 20
0.0
 30
0.0
  9
$PLIMCHECK
 70
     0
  9
$PEXTMIN
 10
1.000000000000000E+20
 20
1.000000000000000E+20
 30
1.000000000000000E+20
  9
$PEXTMAX
 10
-1.000000000000000E+20
 20
-1.000000000000000E+20
 30
-1.000000000000000E+20
  9
$PLIMMIN
 10
0.0
 20
0.0
  9
$PLIMMAX
 10
12.0
 20
9.0
  9
$UNITMODE
 70
     0
  9
$VISRETAIN
 70
     1
  9
$PLINEGEN
 70
     0
  9
$PSLTSCALE
 70
     1
  9
$TREEDEPTH
 70
  3020
  9
$PICKSTYLE
 70
     1
  9
$CMLSTYLE
  2
STANDARD
  9
$CMLJUST
 70
     0
  9
$CMLSCALE
 40
1.0
  9
$PROXYGRAPHICS
 70
     1
  9
$MEASUREMENT
 70
     0
  0
ENDSEC
  0
SECTION
  2
CLASSES
  0
CLASS
  1
ACDBDICTIONARYWDFLT
  2
AcDbDictionaryWithDefault
  3
ObjectDBX Classes
 90
        0
280
     0
281
     0
  0
CLASS
  1
VISUALSTYLE
  2
AcDbVisualStyle
  3
ObjectDBX Classes
 90
     4095
280
     0
281
     0
  0
CLASS
  1
MATERIAL
  2
AcDbMaterial
  3
ObjectDBX Classes
 90
     1153
280
     0
281
     0
  0
CLASS
  1
SCALE
  2
AcDbScale
  3
ObjectDBX Classes
 90
     1153
280
     0
281
     0
  0
CLASS
  1
TABLESTYLE
  2
AcDbTableStyle
  3
ObjectDBX Classes
 90
     4095
280
     0
281
     0
  0
CLASS
  1
MLEADERSTYLE
  2
AcDbMLeaderStyle
  3
ACDB_MLEADERSTYLE_CLASS
 90
     4095
280
     0
281
     0
  0
CLASS
  1
SUN
  2
AcDbSun
  3
SCENEOE
 90
     1153
280
     0
281
     0
  0
CLASS
  1
DICTIONARYVAR
  2
AcDbDictionaryVar
  3
ObjectDBX Classes
 90
        0
280
     0
281
     0
  0
CLASS
  1
FIELD
  2
AcDbField
  3
ObjectDBX Classes
 90
     1152
280
     0
281
     0
  0
CLASS
  1
FIELDLIST
  2
AcDbFieldList
  3
ObjectDBX Classes
 90
     1152
280
     0
281
     0
  0
CLASS
  1
DIMASSOC
  2
AcDbDimAssoc
  3
"AcDbDimAssoc|Product Desc:     AcDim ARX App For Dimension|Company:          Autodesk, Inc.|WEB Address:      www.autodesk.com"
 90
        0
280
     0
281
     0
  0
CLASS
  1
BREAKDATA
  2
AcDbBreakData
  3
ObjectDBX Classes
 90
     1024
280
     0
281
     0
  0
CLASS
  1
XRECORD
  2
AcDbXrecord
  3
ObjectDBX Classes
 90
        0
280
     0
281
     0
  0
CLASS
  1
LWPOLYLINE
  2
AcDbPolyline
  3
ObjectDBX Classes
 90
        0
280
     0
281
     1
  0
CLASS
  1
HATCH
  2
AcDbHatch
  3
ObjectDBX Classes
 90
        0
280
     0
281
     1
  0
CLASS
  1
ACDBPLACEHOLDER
  2
AcDbPlaceHolder
  3
ObjectDBX Classes
 90
        0
280
     0
281
     0
  0
CLASS
  1
LAYOUT
  2
AcDbLayout
  3
ObjectDBX Classes
 90
        0
280
     0
281
     0
  0
ENDSEC
  0
SECTION
  2
TABLES
  0
TABLE
  2
VPORT
  5
8
102
{ACAD_XDICTIONARY
360
386
102
}
330
0
100
AcDbSymbolTable
 70
     1
  0
VPORT
  5
29
330
8
100
AcDbSymbolTableRecord
100
AcDbViewportTableRecord
  2
*ACTIVE
 70
     0
 10
0.0
 20
0.0
 11
1.0
 21
1.0
 12
159.194944
 22
105.015228696434
 13
0.0
 23
0.0
 14
0.5
 24
0.5
 15
0.5
 25
0.5
 16
0.0
 26
0.0
 36
1.0
 17
0.0
 27
0.0
 37
0.0
 40
193.8310665407253
 41
1.46497509830468
 42
50.0
 43
0.0
 44
0.0
 50
0.0
 51
0.0
 71
     0
 72
   100
 73
     1
 74
     3
 75
     0
 76
     0
 77
     0
 78
     0
  0
ENDTAB
  0
TABLE
  2
LTYPE
  5
5
330
0
100
AcDbSymbolTable
 70
     2
  0
LTYPE
  5
14
330
5
100
AcDbSymbolTableRecord
100
AcDbLinetypeTableRecord
  2
BYBLOCK
 70
     0
  3

 72
    65
 73
     0
 40
0.0
  0
LTYPE
  5
15
330
5
100
AcDbSymbolTableRecord
100
AcDbLinetypeTableRecord
  2
BYLAYER
 70
     0
  3

 72
    65
 73
     0
 40
0.0
  0
LTYPE
  5
16
330
5
100
AcDbSymbolTableRecord
100
AcDbLinetypeTableRecord
  2
CONTINUOUS
 70
     0
  3
Solid line
 72
    65
 73
     0
 40
0.0
  0
LTYPE
  5
294
330
5
100
AcDbSymbolTableRecord
100
AcDbLinetypeTableRecord
  2
ONS_PHANTOM
 70
     0
  3
Onshape Phantom line ______ __ __ ______
 72
    65
 73
     6
 40
0.4999999999999999
 49
0.25
 74
     0
 49
-0.05
 74
     0
 49
0.05
 74
     0
 49
-0.05
 74
     0
 49
0.05
 74
     0
 49
-0.05
 74
     0
  0
ENDTAB
  0
TABLE
  2
LAYER
  5
2
330
0
100
AcDbSymbolTable
 70
     9
  0
LAYER
  5
10
330
2
100
AcDbSymbolTableRecord
100
AcDbLayerTableRecord
  2
0
 70
     0
 62
     7
  6
CONTINUOUS
  0
LAYER
  5
70
330
2
100
AcDbSymbolTableRecord
100
AcDbLayerTableRecord
  2
DEFPOINTS
 70
     0
 62
     7
  6
CONTINUOUS
  0
LAYER
  5
7A
330
2
100
AcDbSymbolTableRecord
100
AcDbLayerTableRecord
  2
VISIBLE
 70
     0
 62
     7
  6
CONTINUOUS
  0
LAYER
  5
9C
330
2
100
AcDbSymbolTableRecord
100
AcDbLayerTableRecord
  2
DETAIL_VIEW_BORDER
 70
     0
 62
     7
  6
CONTINUOUS
  0
LAYER
  5
10A
330
2
100
AcDbSymbolTableRecord
100
AcDbLayerTableRecord
  2
BORDER_FRAME
 70
     0
 62
     7
  6
CONTINUOUS
  0
LAYER
  5
110
330
2
100
AcDbSymbolTableRecord
100
AcDbLayerTableRecord
  2
TITLE_BLOCK
 70
     0
 62
     7
  6
CONTINUOUS
  0
LAYER
  5
1A9
330
2
100
AcDbSymbolTableRecord
100
AcDbLayerTableRecord
  2
ANNOTATION_TEXT
 70
     0
 62
     7
  6
CONTINUOUS
  0
LAYER
  5
292
330
2
100
AcDbSymbolTableRecord
100
AcDbLayerTableRecord
  2
DETAIL_VIEW_PARENT_BORDER
 70
     0
 62
     7
  6
ONS_PHANTOM
  0
LAYER
  5
295
330
2
100
AcDbSymbolTableRecord
100
AcDbLayerTableRecord
  2
SKETCHED_GEOMETRY
 70
     0
 62
     7
  6
CONTINUOUS
  0
ENDTAB
  0
TABLE
  2
STYLE
  5
3
330
0
100
AcDbSymbolTable
 70
    36
  0
STYLE
  5
11
330
3
100
AcDbSymbolTableRecord
100
AcDbTextStyleTableRecord
  2
STANDARD
 70
     0
 40
0.0
 41
1.0
 50
0.0
 71
     0
 42
3.5
  3
txt
  4

  0
STYLE
  5
71
330
3
100
AcDbSymbolTableRecord
100
AcDbTextStyleTableRecord
  2
ONSHAPE-STANDARD
 70
     0
 40
0.0
 41
1.0
 50
0.0
 71
     0
 42
3.5
  3
NotoSans-Regular.ttf
  4

1001
ACAD
1000
Noto Sans
1071
        0
  0
STYLE
  5
73
330
3
100
AcDbSymbolTableRecord
100
AcDbTextStyleTableRecord
  2
ONSHAPE-STANDARD-DIMENSION
 70
     0
 40
0.0
 41
1.0
 50
0.0
 71
     0
 42
3.5
  3

  4

1001
ACAD
1000
Noto Sans
1071
        0
  0
STYLE
  5
148
330
3
100
AcDbSymbolTableRecord
100
AcDbTextStyleTableRecord
  2
ONSHAPE-STANDARD-FIELDS
 70
     0
 40
0.0
 41
1.0
 50
0.0
 71
     0
 42
3.5
  3

  4

1001
ACAD
1000
Noto Sans
1071
        0
  0
STYLE
  5
1AB
330
3
100
AcDbSymbolTableRecord
100
AcDbTextStyleTableRecord
  2
ONSHAPE-STANDARD-VIEW-LABE
 70
     0
 40
3.5
 41
1.0
 50
0.0
 71
     0
 42
3.5
  3
NotoSans-Regular.ttf
  4

1001
ACAD
1000
Noto Sans
1071
        0
  0
STYLE
  5
2FD
330
3
100
AcDbSymbolTableRecord
100
AcDbTextStyleTableRecord
  2
ONSHAPE-STANDARD-TCFIELDS
 70
     0
 40
0.0
 41
1.0
 50
0.0
 71
     0
 42
3.5
  3
NotoSansTC-Regular.otf
  4

1001
ACAD
1000
Noto Sans TC
1071
        0
  0
STYLE
  5
2FE
330
3
100
AcDbSymbolTableRecord
100
AcDbTextStyleTableRecord
  2
ONSHAPE-STANDARD-SCFIELDS
 70
     0
 40
0.0
 41
1.0
 50
0.0
 71
     0
 42
3.5
  3
NotoSansSC-Regular.otf
  4

1001
ACAD
1000
Noto Sans SC
1071
        0
  0
STYLE
  5
2FF
330
3
100
AcDbSymbolTableRecord
100
AcDbTextStyleTableRecord
  2
ONSHAPE-STANDARD-KOREANFIE
 70
     0
 40
0.0
 41
1.0
 50
0.0
 71
     0
 42
3.5
  3
NotoSansKR-Regular.otf
  4

1001
ACAD
1000
Noto Sans KR
1071
        0
  0
STYLE
  5
300
330
3
100
AcDbSymbolTableRecord
100
AcDbTextStyleTableRecord
  2
ONSHAPE-STANDARD-JAPANESEF
 70
     0
 40
0.0
 41
1.0
 50
0.0
 71
     0
 42
3.5
  3
NotoSansJP-Regular.otf
  4

1001
ACAD
1000
Noto Sans JP
1071
        0
  0
STYLE
  5
302
330
3
100
AcDbSymbolTableRecord
100
AcDbTextStyleTableRecord
  2
ONSHAPE-STANDARD-BOLD
 70
     0
 40
0.0
 41
1.0
 50
0.0
 71
     0
 42
3.5
  3
NotoSans-Bold.ttf
  4

1001
ACAD
1000
Noto Sans
1071
 33554432
  0
STYLE
  5
305
330
3
100
AcDbSymbolTableRecord
100
AcDbTextStyleTableRecord
  2
TTFSTYLE
 70
     0
 40
0.0
 41
1.0
 50
0.0
 71
     0
 42
3.5
  3

  4

1001
ACAD
1000
Verdana
1071
       34
  0
STYLE
  5
306
330
3
100
AcDbSymbolTableRecord
100
AcDbTextStyleTableRecord
  2
ONSHAPE-STANDARD-GTOLERANC
 70
     0
 40
0.0
 41
1.0
 50
0.0
 71
     0
 42
3.5
  3

  4

1001
ACAD
1000
Noto Sans
1071
        0
  0
STYLE
  5
307
330
3
100
AcDbSymbolTableRecord
100
AcDbTextStyleTableRecord
  2
ONSHAPE-STANDARD-TABLE-DAT
 70
     0
 40
0.0
 41
1.0
 50
0.0
 71
     0
 42
3.5
  3
NotoSans-Regular.ttf
  4

1001
ACAD
1000
Noto Sans
1071
        0
  0
STYLE
  5
308
330
3
100
AcDbSymbolTableRecord
100
AcDbTextStyleTableRecord
  2
ONSHAPE-STANDARD-TABLE-TIT
 70
     0
 40
0.0
 41
1.0
 50
0.0
 71
     0
 42
3.5
  3
NotoSans-Bold.ttf
  4

1001
ACAD
1000
Noto Sans
1071
 33554432
  0
STYLE
  5
309
330
3
100
AcDbSymbolTableRecord
100
AcDbTextStyleTableRecord
  2
ONSHAPE-STANDARD-TABLE-HEA
 70
     0
 40
0.0
 41
1.0
 50
0.0
 71
     0
 42
3.5
  3
NotoSans-Bold.ttf
  4

1001
ACAD
1000
Noto Sans
1071
 33554432
  0
STYLE
  5
30A
330
3
100
AcDbSymbolTableRecord
100
AcDbTextStyleTableRecord
  2
ONSHAPE-STANDARD-BOMTABLE-
 70
     0
 40
0.0
 41
1.0
 50
0.0
 71
     0
 42
3.5
  3
NotoSans-Regular.ttf
  4

1001
ACAD
1000
Noto Sans
1071
        0
  0
STYLE
  5
30B
330
3
100
AcDbSymbolTableRecord
100
AcDbTextStyleTableRecord
  2
ONSHAPE-STANDARD-BOMTABLE0
 70
     0
 40
0.0
 41
1.0
 50
0.0
 71
     0
 42
3.5
  3
NotoSans-Bold.ttf
  4

1001
ACAD
1000
Noto Sans
1071
 33554432
  0
STYLE
  5
30C
330
3
100
AcDbSymbolTableRecord
100
AcDbTextStyleTableRecord
  2
ONSHAPE-STANDARD-BOMTABLE1
 70
     0
 40
0.0
 41
1.0
 50
0.0
 71
     0
 42
3.5
  3
NotoSans-Bold.ttf
  4

1001
ACAD
1000
Noto Sans
1071
 33554432
  0
STYLE
  5
30D
330
3
100
AcDbSymbolTableRecord
100
AcDbTextStyleTableRecord
  2
ONSHAPE-STANDARD-NOTESTYLE
 70
     0
 40
3.5
 41
1.0
 50
0.0
 71
     0
 42
3.5
  3
NotoSans-Regular.ttf
  4

1001
ACAD
1000
Noto Sans
1071
        0
  0
STYLE
  5
30E
330
3
100
AcDbSymbolTableRecord
100
AcDbTextStyleTableRecord
  2
ONSHAPE-STANDARD-DATUM-DIM
 70
     0
 40
3.5
 41
1.0
 50
0.0
 71
     0
 42
3.5
  3
NotoSans-Regular.ttf
  4

1001
ACAD
1000
Noto Sans
1071
        0
  0
STYLE
  5
310
330
3
100
AcDbSymbolTableRecord
100
AcDbTextStyleTableRecord
  2
ONSHAPE-DETAIL-VIEW-LEADER
 70
     0
 40
3.5
 41
1.0
 50
0.0
 71
     0
 42
3.5
  3
NotoSans-Regular.ttf
  4

1001
ACAD
1000
Noto Sans
1071
        0
  0
STYLE
  5
311
330
3
100
AcDbSymbolTableRecord
100
AcDbTextStyleTableRecord
  2
ONSHAPE-STANDARD-HOLE-CALL
 70
     0
 40
3.5
 41
1.0
 50
0.0
 71
     0
 42
3.5
  3
NotoSans-Regular.ttf
  4

1001
ACAD
1000
Noto Sans
1071
        0
  0
STYLE
  5
312
330
3
100
AcDbSymbolTableRecord
100
AcDbTextStyleTableRecord
  2
ONSHAPE-STANDARD-HOLETABLE
 70
     0
 40
0.0
 41
1.0
 50
0.0
 71
     0
 42
3.5
  3
NotoSans-Regular.ttf
  4

1001
ACAD
1000
Noto Sans
1071
        0
  0
STYLE
  5
313
330
3
100
AcDbSymbolTableRecord
100
AcDbTextStyleTableRecord
  2
ONSHAPE-STANDARD-HOLETABL0
 70
     0
 40
0.0
 41
1.0
 50
0.0
 71
     0
 42
3.5
  3
NotoSans-Bold.ttf
  4

1001
ACAD
1000
Noto Sans
1071
 33554432
  0
STYLE
  5
314
330
3
100
AcDbSymbolTableRecord
100
AcDbTextStyleTableRecord
  2
ONSHAPE-STANDARD-HOLETABL1
 70
     0
 40
0.0
 41
1.0
 50
0.0
 71
     0
 42
3.5
  3
NotoSans-Bold.ttf
  4

1001
ACAD
1000
Noto Sans
1071
 33554432
  0
STYLE
  5
315
330
3
100
AcDbSymbolTableRecord
100
AcDbTextStyleTableRecord
  2
ONSHAPE-STANDARD-HOLE-TAG
 70
     0
 40
3.5
 41
1.0
 50
0.0
 71
     0
 42
3.5
  3
NotoSans-Regular.ttf
  4

1001
ACAD
1000
Noto Sans
1071
        0
  0
STYLE
  5
316
330
3
100
AcDbSymbolTableRecord
100
AcDbTextStyleTableRecord
  2
ONSHAPE-STANDARD-REVISIONT
 70
     0
 40
0.0
 41
1.0
 50
0.0
 71
     0
 42
3.5
  3
NotoSans-Regular.ttf
  4

1001
ACAD
1000
Noto Sans
1071
        0
  0
STYLE
  5
317
330
3
100
AcDbSymbolTableRecord
100
AcDbTextStyleTableRecord
  2
ONSHAPE-STANDARD-REVISION0
 70
     0
 40
0.0
 41
1.0
 50
0.0
 71
     0
 42
3.5
  3
NotoSans-Bold.ttf
  4

1001
ACAD
1000
Noto Sans
1071
 33554432
  0
STYLE
  5
318
330
3
100
AcDbSymbolTableRecord
100
AcDbTextStyleTableRecord
  2
ONSHAPE-STANDARD-REVISION1
 70
     0
 40
0.0
 41
1.0
 50
0.0
 71
     0
 42
3.5
  3
NotoSans-Bold.ttf
  4

1001
ACAD
1000
Noto Sans
1071
 33554432
  0
STYLE
  5
319
330
3
100
AcDbSymbolTableRecord
100
AcDbTextStyleTableRecord
  2
ONSHAPE-STANDARD-REVISION-
 70
     0
 40
3.5
 41
1.0
 50
0.0
 71
     0
 42
3.5
  3
NotoSans-Regular.ttf
  4

1001
ACAD
1000
Noto Sans
1071
        0
  0
STYLE
  5
31A
330
3
100
AcDbSymbolTableRecord
100
AcDbTextStyleTableRecord
  2
ONSHAPE-STANDARD-CUTLISTTA
 70
     0
 40
0.0
 41
1.0
 50
0.0
 71
     0
 42
3.5
  3
NotoSans-Regular.ttf
  4

1001
ACAD
1000
Noto Sans
1071
        0
  0
STYLE
  5
31B
330
3
100
AcDbSymbolTableRecord
100
AcDbTextStyleTableRecord
  2
ONSHAPE-STANDARD-CUTLISTT0
 70
     0
 40
0.0
 41
1.0
 50
0.0
 71
     0
 42
3.5
  3
NotoSans-Bold.ttf
  4

1001
ACAD
1000
Noto Sans
1071
 33554432
  0
STYLE
  5
31C
330
3
100
AcDbSymbolTableRecord
100
AcDbTextStyleTableRecord
  2
ONSHAPE-STANDARD-CUTLISTT1
 70
     0
 40
0.0
 41
1.0
 50
0.0
 71
     0
 42
3.5
  3
NotoSans-Bold.ttf
  4

1001
ACAD
1000
Noto Sans
1071
 33554432
  0
STYLE
  5
31D
330
3
100
AcDbSymbolTableRecord
100
AcDbTextStyleTableRecord
  2
ONSHAPE-STANDARD-CUSTOMTAB
 70
     0
 40
0.0
 41
1.0
 50
0.0
 71
     0
 42
3.5
  3
NotoSans-Regular.ttf
  4

1001
ACAD
1000
Noto Sans
1071
        0
  0
STYLE
  5
31E
330
3
100
AcDbSymbolTableRecord
100
AcDbTextStyleTableRecord
  2
ONSHAPE-STANDARD-CUSTOMTA0
 70
     0
 40
0.0
 41
1.0
 50
0.0
 71
     0
 42
3.5
  3
NotoSans-Bold.ttf
  4

1001
ACAD
1000
Noto Sans
1071
 33554432
  0
STYLE
  5
31F
330
3
100
AcDbSymbolTableRecord
100
AcDbTextStyleTableRecord
  2
ONSHAPE-STANDARD-CUSTOMTA1
 70
     0
 40
0.0
 41
1.0
 50
0.0
 71
     0
 42
3.5
  3
NotoSans-Bold.ttf
  4

1001
ACAD
1000
Noto Sans
1071
 33554432
  0
ENDTAB
  0
TABLE
  2
VIEW
  5
6
330
0
100
AcDbSymbolTable
 70
     0
  0
ENDTAB
  0
TABLE
  2
UCS
  5
7
330
0
100
AcDbSymbolTable
 70
     0
  0
ENDTAB
  0
TABLE
  2
APPID
  5
9
330
0
100
AcDbSymbolTable
 70
     8
  0
APPID
  5
12
330
9
100
AcDbSymbolTableRecord
100
AcDbRegAppTableRecord
  2
ACAD
 70
     0
  0
APPID
  5
11F
330
9
100
AcDbSymbolTableRecord
100
AcDbRegAppTableRecord
  2
ONSHAPE_NOTES_REORDERING_D
 70
     0
  0
APPID
  5
120
330
9
100
AcDbSymbolTableRecord
100
AcDbRegAppTableRecord
  2
ONSHAPE_NOTES_ANNOTATION_D
 70
     0
  0
APPID
  5
1D6
330
9
100
AcDbSymbolTableRecord
100
AcDbRegAppTableRecord
  2
ACAD_DIMASSOC_CALC_DIMLFAC
 70
     0
  0
APPID
  5
1D7
330
9
100
AcDbSymbolTableRecord
100
AcDbRegAppTableRecord
  2
ACAD_DIMASSOC_DIMLFAC
 70
     0
  0
APPID
  5
1D8
330
9
100
AcDbSymbolTableRecord
100
AcDbRegAppTableRecord
  2
ACAD_DIMASSOC_OVERRIDDEN_D
 70
     0
  0
APPID
  5
1CB
330
9
100
AcDbSymbolTableRecord
100
AcDbRegAppTableRecord
  2
INDEX
 70
     0
  0
APPID
  5
390
330
9
100
AcDbSymbolTableRecord
100
AcDbRegAppTableRecord
  2
ACAD_MLEADERVER
 70
     0
  0
ENDTAB
  0
TABLE
  2
DIMSTYLE
  5
A
330
0
100
AcDbSymbolTable
 70
    23
  0
DIMSTYLE
105
27
330
A
100
AcDbSymbolTableRecord
100
AcDbDimStyleTableRecord
  2
STANDARD
 70
     0
  3

  4

  5

  6

  7

 40
1.0
 41
0.18
 42
0.0625
 43
0.38
 44
0.18
 45
0.0
 46
0.0
 47
0.0
 48
0.0
140
0.18
141
0.09
142
0.0
143
0.0393700787401575
144
1.0
145
0.0
146
1.0
147
0.09
 71
     0
 72
     0
 73
     1
 74
     1
 75
     0
 76
     0
 77
     0
 78
     0
170
     0
171
     2
172
     0
173
     0
174
     0
175
     0
176
     0
177
     0
178
     0
270
     2
271
     4
272
     4
273
     2
274
     2
340
11
275
     0
280
     0
281
     0
282
     0
283
     1
284
     0
285
     0
286
     0
287
     3
288
     0
  0
DIMSTYLE
105
72
330
A
100
AcDbSymbolTableRecord
100
AcDbDimStyleTableRecord
  2
ONSHAPE-ISO-25
 70
     0
  3

  4

  5
OPEN
  6
OPEN
  7
OPEN
 40
1.0
 41
2.5
 42
0.625
 43
3.75
 44
1.25
 45
0.0
 46
0.0
 47
0.0
 48
0.0
140
3.5
141
2.5
142
0.0
143
0.0393700787401575
144
1.0
145
0.0
146
1.0
147
0.625
 71
     0
 72
     0
 73
     0
 74
     0
 75
     0
 76
     0
 77
     1
 78
     8
170
     0
171
     3
172
     1
173
     0
174
     0
175
     0
176
     7
177
     7
178
     7
179
     1
270
     2
271
     2
272
     2
273
     2
274
     3
340
73
275
     0
280
     0
281
     0
282
     0
283
     0
284
     8
285
     8
286
     0
287
     3
288
     1
  0
DIMSTYLE
105
1C0
102
{ACAD_REACTORS
330
1B7
330
1D9
330
206
330
22B
330
24D
330
270
330
2B2
330
2D5
102
}
330
A
100
AcDbSymbolTableRecord
100
AcDbDimStyleTableRecord
  2
ONSHAPE-ISO-25$0
 70
     0
  3

  4

  5
OPEN
  6
OPEN
  7
OPEN
 40
1.0
 41
2.5
 42
0.625
 43
3.75
 44
1.25
 45
0.0
 46
0.0
 47
0.0
 48
0.0
140
3.5
141
2.5
142
0.0
143
0.0393700787401575
144
1.0
145
0.0
146
1.0
147
0.625
 71
     0
 72
     0
 73
     0
 74
     0
 75
     0
 76
     0
 77
     1
 78
     8
170
     0
171
     3
172
     1
173
     0
174
     0
175
     0
176
     7
177
     7
178
     7
179
     1
270
     2
271
     2
272
     2
273
     2
274
     3
340
73
275
     0
280
     0
281
     0
282
     0
283
     0
284
     8
285
     8
286
     0
287
     3
288
     1
  0
DIMSTYLE
105
320
330
A
100
AcDbSymbolTableRecord
100
AcDbDimStyleTableRecord
  2
ISO-25
 70
     0
  3

  4

  5

  6

  7

 40
1.0
 41
2.5
 42
0.625
 43
3.75
 44
1.25
 45
0.0
 46
0.0
 47
0.0
 48
0.0
140
2.5
141
2.5
142
0.0
143
0.0393700787401575
144
1.0
145
0.0
146
1.0
147
0.625
 71
     0
 72
     0
 73
     0
 74
     0
 75
     0
 76
     0
 77
     1
 78
     8
170
     0
171
     3
172
     1
173
     0
174
     0
175
     0
176
     7
177
     7
178
     7
270
     2
271
     2
272
     2
273
     2
274
     3
340
11
275
     0
280
     0
281
     0
282
     0
283
     0
284
     8
285
     0
286
     0
287
     3
288
     1
  0
DIMSTYLE
105
322
330
A
100
AcDbSymbolTableRecord
100
AcDbDimStyleTableRecord
  2
ISO
 70
     0
  3

  4
"
  5

  6

  7

 40
1.0
 41
3.5
 42
1.0
 43
10.0
 44
1.0
 45
0.0
 46
0.0
 47
0.1
 48
0.1
140
3.5
141
0.0
142
0.0
143
0.0393700787401575
144
1.0
145
0.0
146
0.71
147
1.5
 71
     0
 72
     0
 73
     0
 74
     0
 75
     0
 76
     0
 77
     1
 78
     8
170
     0
171
     3
172
     1
173
     0
174
     0
175
     0
176
     7
177
     7
178
     7
270
     2
271
     2
272
     3
273
     2
274
     3
340
11
275
     0
280
     0
281
     0
282
     0
283
     0
284
     8
285
     8
286
     0
287
     3
288
     1
  0
DIMSTYLE
105
323
330
A
100
AcDbSymbolTableRecord
100
AcDbDimStyleTableRecord
  2
ISO$3
 70
     0
  3

  4
"
  5

  6

  7

 40
1.0
 41
3.5
 42
1.0
 43
10.0
 44
1.0
 45
0.0
 46
0.0
 47
0.1
 48
0.1
140
3.5
141
0.0
142
0.0
143
0.0393700787401575
144
1.0
145
0.0
146
0.71
147
1.5
 71
     0
 72
     0
 73
     0
 74
     1
 75
     0
 76
     0
 77
     1
 78
     8
170
     0
171
     3
172
     0
173
     0
174
     0
175
     0
176
     7
177
     7
178
     7
270
     2
271
     2
272
     3
273
     2
274
     3
340
11
275
     0
280
     0
281
     0
282
     0
283
     0
284
     8
285
     8
286
     0
288
     1
  0
DIMSTYLE
105
324
330
A
100
AcDbSymbolTableRecord
100
AcDbDimStyleTableRecord
  2
ISO$4
 70
     0
  3

  4
"
  5

  6

  7

 40
1.0
 41
3.5
 42
1.0
 43
10.0
 44
1.0
 45
0.0
 46
0.0
 47
0.1
 48
0.1
140
3.5
141
0.0
142
0.0
143
0.0393700787401575
144
1.0
145
0.0
146
0.71
147
1.5
 71
     0
 72
     0
 73
     0
 74
     0
 75
     0
 76
     0
 77
     1
 78
     8
170
     0
171
     3
172
     1
173
     0
174
     0
175
     0
176
     7
177
     7
178
     7
270
     2
271
     2
272
     3
273
     2
274
     3
340
11
275
     0
280
     0
281
     0
282
     0
283
     0
284
     8
285
     8
286
     0
287
     3
288
     1
  0
DIMSTYLE
105
325
330
A
100
AcDbSymbolTableRecord
100
AcDbDimStyleTableRecord
  2
ISO$6
 70
     0
  3

  4
"
  5

  6

  7

 40
1.0
 41
0.5
 42
1.0
 43
10.0
 44
1.0
 45
0.0
 46
0.0
 47
0.1
 48
0.1
140
3.5
141
0.0
142
0.0
143
0.0393700787401575
144
1.0
145
0.0
146
0.71
147
1.5
 71
     0
 72
     0
 73
     0
 74
     0
 75
     0
 76
     0
 77
     0
 78
     8
170
     0
171
     3
172
     1
173
     0
174
     0
175
     0
176
     7
177
     7
178
     7
270
     2
271
     2
272
     3
273
     2
274
     3
340
11
275
     0
280
     0
281
     0
282
     0
283
     0
284
     8
285
     8
286
     0
287
     3
288
     1
  0
DIMSTYLE
105
326
330
A
100
AcDbSymbolTableRecord
100
AcDbDimStyleTableRecord
  2
ISO$7
 70
     0
  3

  4
"
  5

  6

  7

 40
1.0
 41
3.5
 42
1.0
 43
10.0
 44
1.0
 45
0.0
 46
0.0
 47
0.1
 48
0.1
140
3.5
141
0.0
142
0.0
143
0.0393700787401575
144
1.0
145
0.0
146
0.71
147
1.5
 71
     0
 72
     0
 73
     0
 74
     0
 75
     0
 76
     0
 77
     1
 78
     8
170
     0
171
     3
172
     1
173
     0
174
     0
175
     0
176
     7
177
     7
178
     7
270
     2
271
     2
272
     3
273
     2
274
     3
340
11
275
     0
280
     0
281
     0
282
     0
283
     0
284
     8
285
     8
286
     0
287
     3
288
     1
  0
DIMSTYLE
105
327
330
A
100
AcDbSymbolTableRecord
100
AcDbDimStyleTableRecord
  2
ISO$SF
 70
     0
  3

  4
"
  5

  6

  7

 40
1.0
 41
3.5
 42
1.0
 43
10.0
 44
1.0
 45
0.0
 46
0.0
 47
0.1
 48
0.1
140
3.5
141
0.0
142
0.0
143
0.0393700787401575
144
1.0
145
0.0
146
0.71
147
1.5
 71
     0
 72
     0
 73
     0
 74
     0
 75
     1
 76
     1
 77
     1
 78
     8
170
     0
171
     3
172
     1
173
     0
174
     0
175
     0
176
     7
177
     7
178
     7
270
     2
271
     2
272
     3
273
     2
274
     3
340
11
275
     0
280
     0
281
     0
282
     0
283
     0
284
     8
285
     8
286
     0
287
     3
288
     1
  0
DIMSTYLE
105
328
330
A
100
AcDbSymbolTableRecord
100
AcDbDimStyleTableRecord
  2
ISO$SH
 70
     0
  3

  4
"
  5

  6

  7

 40
1.0
 41
3.5
 42
1.0
 43
10.0
 44
1.0
 45
0.0
 46
0.0
 47
0.1
 48
0.1
140
3.5
141
0.0
142
0.0
143
0.0393700787401575
144
2.0
145
0.0
146
0.71
147
1.5
 71
     0
 72
     0
 73
     0
 74
     0
 75
     1
 76
     1
 77
     1
 78
     8
170
     0
171
     3
172
     1
173
     1
174
     0
175
     0
176
     7
177
     7
178
     7
270
     2
271
     2
272
     3
273
     2
274
     3
340
11
275
     0
280
     0
281
     0
282
     0
283
     0
284
     8
285
     8
286
     0
287
     3
288
     1
  0
DIMSTYLE
105
332
330
A
100
AcDbSymbolTableRecord
100
AcDbDimStyleTableRecord
  2
ONSHAPE-ISO-25$2
 70
     0
  3

  4

  5
OPEN
  6
OPEN
  7
OPEN
 40
1.0
 41
2.5
 42
0.625
 43
3.75
 44
1.25
 45
0.0
 46
0.0
 47
0.0
 48
0.0
140
3.5
141
2.5
142
0.0
143
0.0393700787401575
144
1.0
145
0.0
146
1.0
147
0.625
 71
     0
 72
     0
 73
     0
 74
     0
 75
     0
 76
     0
 77
     1
 78
     8
170
     0
171
     3
172
     1
173
     0
174
     0
175
     0
176
     7
177
     7
178
     7
179
     1
270
     2
271
     2
272
     2
273
     2
274
     3
340
73
275
     0
280
     0
281
     0
282
     0
283
     0
284
     8
285
     8
286
     0
287
     3
288
     1
  0
DIMSTYLE
105
333
330
A
100
AcDbSymbolTableRecord
100
AcDbDimStyleTableRecord
  2
ONSHAPE-ISO-25$3
 70
     0
  3

  4

  5
OPEN
  6
OPEN
  7
OPEN
 40
1.0
 41
2.5
 42
0.625
 43
3.75
 44
1.25
 45
0.0
 46
0.0
 47
0.0
 48
0.0
140
3.5
141
0.0
142
0.0
143
0.0393700787401575
144
1.0
145
0.0
146
1.0
147
0.625
 71
     0
 72
     0
 73
     0
 74
     0
 75
     0
 76
     0
 77
     1
 78
     8
170
     0
171
     3
172
     1
173
     0
174
     0
175
     0
176
     7
177
     7
178
     7
179
     1
270
     2
271
     2
272
     2
273
     2
274
     3
340
73
275
     0
280
     0
281
     0
282
     0
283
     0
284
     8
285
     8
286
     0
287
     3
288
     1
  0
DIMSTYLE
105
334
330
A
100
AcDbSymbolTableRecord
100
AcDbDimStyleTableRecord
  2
ONSHAPE-ISO-25$4
 70
     0
  3

  4

  5
OPEN
  6
OPEN
  7
OPEN
 40
1.0
 41
2.5
 42
0.625
 43
3.75
 44
1.25
 45
0.0
 46
0.0
 47
0.0
 48
0.0
140
3.5
141
0.0
142
0.0
143
0.0393700787401575
144
1.0
145
0.0
146
1.0
147
0.625
 71
     0
 72
     0
 73
     0
 74
     0
 75
     0
 76
     0
 77
     1
 78
     8
170
     0
171
     3
172
     1
173
     0
174
     0
175
     0
176
     7
177
     7
178
     7
179
     1
270
     2
271
     2
272
     2
273
     2
274
     3
340
73
275
     0
280
     0
281
     0
282
     0
283
     0
284
     8
285
     8
286
     0
287
     3
288
     1
  0
DIMSTYLE
105
335
330
A
100
AcDbSymbolTableRecord
100
AcDbDimStyleTableRecord
  2
ONSHAPE-ISO-25$6
 70
     0
  3

  4

  5
OPEN
  6
OPEN
  7
OPEN
 40
1.0
 41
0.5
 42
0.625
 43
3.75
 44
1.25
 45
0.0
 46
0.0
 47
0.0
 48
0.0
140
3.5
141
2.5
142
0.0
143
0.0393700787401575
144
1.0
145
0.0
146
1.0
147
0.625
 71
     0
 72
     0
 73
     0
 74
     0
 75
     0
 76
     0
 77
     1
 78
     8
170
     0
171
     3
172
     1
173
     0
174
     0
175
     0
176
     7
177
     7
178
     7
179
     1
270
     2
271
     2
272
     2
273
     2
274
     3
340
73
275
     0
280
     0
281
     0
282
     0
283
     0
284
     8
285
     8
286
     0
287
     3
288
     1
  0
DIMSTYLE
105
336
330
A
100
AcDbSymbolTableRecord
100
AcDbDimStyleTableRecord
  2
ONSHAPE-ISO-25$7
 70
     0
  3

  4

  5
OPEN
  6
OPEN
  7
OPEN
 40
1.0
 41
2.5
 42
0.625
 43
3.75
 44
1.25
 45
0.0
 46
0.0
 47
0.0
 48
0.0
140
3.5
141
2.5
142
0.0
143
0.0393700787401575
144
1.0
145
0.0
146
1.0
147
0.625
 71
     0
 72
     0
 73
     0
 74
     0
 75
     0
 76
     0
 77
     1
 78
     8
170
     0
171
     3
172
     1
173
     0
174
     0
175
     0
176
     7
177
     7
178
     7
179
     1
270
     2
271
     2
272
     2
273
     2
274
     3
340
73
275
     0
280
     0
281
     0
282
     0
283
     0
284
     8
285
     8
286
     0
287
     3
288
     1
  0
DIMSTYLE
105
337
330
A
100
AcDbSymbolTableRecord
100
AcDbDimStyleTableRecord
  2
ONSHAPE-STANDARD-GTOLERANC
 70
     0
  3

  4

  5
OPEN
  6
OPEN
  7
OPEN
 40
1.0
 41
2.5
 42
0.625
 43
3.75
 44
1.25
 45
0.0
 46
0.0
 47
0.0
 48
0.0
140
3.5
141
2.5
142
0.0
143
0.03937
144
1.0
145
0.0
146
1.0
147
0.625
 71
     0
 72
     0
 73
     0
 74
     0
 75
     0
 76
     0
 77
     1
 78
     8
170
     0
171
     3
172
     1
173
     0
174
     0
175
     0
176
     7
177
     7
178
     7
179
     1
270
     2
271
     2
272
     2
273
     2
274
     3
340
306
275
     0
280
     0
281
     0
282
     0
283
     0
284
     8
285
     8
286
     0
287
     3
288
     1
  0
DIMSTYLE
105
339
330
A
100
AcDbSymbolTableRecord
100
AcDbDimStyleTableRecord
  2
ONSHAPE-ORDINATESTYLE
 70
     0
  3

  4

  5
OPEN
  6
OPEN
  7
OPEN
 40
1.0
 41
2.5
 42
0.625
 43
3.75
 44
1.25
 45
0.0
 46
0.0
 47
0.0
 48
0.0
140
3.5
141
2.5
142
0.0
143
0.0393700787401575
144
1.0
145
0.0
146
1.0
147
0.625
 71
     0
 72
     0
 73
     0
 74
     0
 75
     0
 76
     0
 77
     1
 78
     8
170
     0
171
     3
172
     1
173
     0
174
     0
175
     0
176
     7
177
     7
178
     7
179
     1
270
     2
271
     2
272
     2
273
     2
274
     3
340
73
275
     0
280
     0
281
     0
282
     0
283
     0
284
     8
285
     8
286
     0
287
     3
288
     1
  0
DIMSTYLE
105
33A
330
A
100
AcDbSymbolTableRecord
100
AcDbDimStyleTableRecord
  2
ONSHAPE-CHAMFERDIMSTYLE
 70
     0
  3

  4

  5
OPEN
  6
OPEN
  7
OPEN
 40
1.0
 41
2.5
 42
0.625
 43
3.75
 44
1.25
 45
0.0
 46
0.0
 47
0.0
 48
0.0
140
3.5
141
2.5
142
0.0
143
0.0393700787401575
144
1.0
145
0.0
146
1.0
147
0.625
 71
     0
 72
     0
 73
     0
 74
     0
 75
     0
 76
     0
 77
     1
 78
     8
170
     0
171
     3
172
     1
173
     0
174
     0
175
     0
176
     7
177
     7
178
     7
179
     1
270
     2
271
     2
272
     2
273
     2
274
     3
340
73
275
     0
280
     0
281
     0
282
     0
283
     0
284
     8
285
     8
286
     0
287
     3
288
     1
  0
DIMSTYLE
105
33B
330
A
100
AcDbSymbolTableRecord
100
AcDbDimStyleTableRecord
  2
ONSHAPE-SKETCHDRIVENDIMSTY
 70
     0
  3

  4

  5
OPEN
  6
OPEN
  7
OPEN
 40
1.0
 41
2.5
 42
0.625
 43
3.75
 44
1.25
 45
0.0
 46
0.0
 47
0.0
 48
0.0
140
3.5
141
2.5
142
0.0
143
0.0393700787401575
144
1.0
145
0.0
146
1.0
147
0.625
 71
     0
 72
     0
 73
     0
 74
     0
 75
     0
 76
     0
 77
     1
 78
     8
170
     0
171
     3
172
     1
173
     0
174
     0
175
     0
176
   251
177
   251
178
   251
179
     1
270
     2
271
     2
272
     2
273
     2
274
     3
340
73
275
     0
280
     0
281
     0
282
     0
283
     0
284
     8
285
     8
286
     0
287
     3
288
     1
  0
DIMSTYLE
105
33C
330
A
100
AcDbSymbolTableRecord
100
AcDbDimStyleTableRecord
  2
ONSHAPE-SKETCHDRIVENDIMST0
 70
     0
  3

  4

  5
OPEN
  6
OPEN
  7
OPEN
 40
1.0
 41
2.5
 42
0.625
 43
3.75
 44
1.25
 45
0.0
 46
0.0
 47
0.0
 48
0.0
140
3.5
141
2.5
142
0.0
143
0.0393700787401575
144
1.0
145
0.0
146
1.0
147
0.625
 71
     0
 72
     0
 73
     0
 74
     0
 75
     0
 76
     0
 77
     1
 78
     8
170
     0
171
     3
172
     1
173
     0
174
     0
175
     0
176
   251
177
   251
178
   251
179
     1
270
     2
271
     2
272
     2
273
     2
274
     3
340
73
275
     0
280
     0
281
     0
282
     0
283
     0
284
     8
285
     8
286
     0
287
     3
288
     1
  0
DIMSTYLE
105
33D
330
A
100
AcDbSymbolTableRecord
100
AcDbDimStyleTableRecord
  2
ONSHAPE-SKETCHDRIVENDIMST1
 70
     0
  3

  4

  5
OPEN
  6
OPEN
  7
OPEN
 40
1.0
 41
2.5
 42
0.625
 43
3.75
 44
1.25
 45
0.0
 46
0.0
 47
0.0
 48
0.0
140
3.5
141
0.0
142
0.0
143
0.0393700787401575
144
1.0
145
0.0
146
1.0
147
0.625
 71
     0
 72
     0
 73
     0
 74
     0
 75
     0
 76
     0
 77
     1
 78
     8
170
     0
171
     3
172
     1
173
     0
174
     0
175
     0
176
   251
177
   251
178
   251
179
     1
270
     2
271
     2
272
     2
273
     2
274
     3
340
73
275
     0
280
     0
281
     0
282
     0
283
     0
284
     8
285
     8
286
     0
287
     3
288
     1
  0
DIMSTYLE
105
33E
330
A
100
AcDbSymbolTableRecord
100
AcDbDimStyleTableRecord
  2
ONSHAPE-SKETCHDRIVENDIMST2
 70
     0
  3

  4

  5
OPEN
  6
OPEN
  7
OPEN
 40
1.0
 41
2.5
 42
0.625
 43
3.75
 44
1.25
 45
0.0
 46
0.0
 47
0.0
 48
0.0
140
3.5
141
0.0
142
0.0
143
0.0393700787401575
144
1.0
145
0.0
146
1.0
147
0.625
 71
     0
 72
     0
 73
     0
 74
     0
 75
     0
 76
     0
 77
     1
 78
     8
170
     0
171
     3
172
     1
173
     0
174
     0
175
     0
176
   251
177
   251
178
   251
179
     1
270
     2
271
     2
272
     2
273
     2
274
     3
340
73
275
     0
280
     0
281
     0
282
     0
283
     0
284
     8
285
     8
286
     0
287
     3
288
     1
  0
ENDTAB
  0
TABLE
  2
BLOCK_RECORD
  5
1
330
0
100
AcDbSymbolTable
 70
     9
  0
BLOCK_RECORD
  5
1F
330
1
100
AcDbSymbolTableRecord
100
AcDbBlockTableRecord
  2
*MODEL_SPACE
  0
BLOCK_RECORD
  5
1B
330
1
100
AcDbSymbolTableRecord
100
AcDbBlockTableRecord
  2
*PAPER_SPACE
  0
BLOCK_RECORD
  5
74
330
1
100
AcDbSymbolTableRecord
100
AcDbBlockTableRecord
  2
_OPEN
  0
BLOCK_RECORD
  5
1C8
330
1
100
AcDbSymbolTableRecord
100
AcDbBlockTableRecord
  2
*D2
  0
BLOCK_RECORD
  5
1EA
330
1
100
AcDbSymbolTableRecord
100
AcDbBlockTableRecord
  2
*D3
  0
BLOCK_RECORD
  5
217
330
1
100
AcDbSymbolTableRecord
100
AcDbBlockTableRecord
  2
*D4
  0
BLOCK_RECORD
  5
23C
330
1
100
AcDbSymbolTableRecord
100
AcDbBlockTableRecord
  2
*D5
  0
BLOCK_RECORD
  5
25E
330
1
100
AcDbSymbolTableRecord
100
AcDbBlockTableRecord
  2
*D6
  0
BLOCK_RECORD
  5
281
330
1
100
AcDbSymbolTableRecord
100
AcDbBlockTableRecord
  2
*D7
  0
BLOCK_RECORD
  5
2C3
330
1
100
AcDbSymbolTableRecord
100
AcDbBlockTableRecord
  2
*D8
  0
BLOCK_RECORD
  5
2E6
330
1
100
AcDbSymbolTableRecord
100
AcDbBlockTableRecord
  2
*D9
  0
ENDTAB
  0
ENDSEC
  0
SECTION
  2
BLOCKS
  0
BLOCK
  5
20
330
1F
100
AcDbEntity
  8
0
100
AcDbBlockBegin
  2
*MODEL_SPACE
 70
     0
 10
0.0
 20
0.0
 30
0.0
  3
*MODEL_SPACE
  1

  0
ENDBLK
  5
21
330
1F
100
AcDbEntity
  8
0
100
AcDbBlockEnd
  0
BLOCK
  5
1C
330
1B
100
AcDbEntity
 67
     1
  8
0
100
AcDbBlockBegin
  2
*PAPER_SPACE
 70
     0
 10
0.0
 20
0.0
 30
0.0
  3
*PAPER_SPACE
  1

  0
ENDBLK
  5
1D
330
1B
100
AcDbEntity
 67
     1
  8
0
100
AcDbBlockEnd
  0
BLOCK
  5
75
330
74
100
AcDbEntity
  8
0
100
AcDbBlockBegin
  2
_OPEN
 70
     0
 10
0.0
 20
0.0
 30
0.0
  3
_OPEN
  1

  0
LINE
  5
76
330
74
100
AcDbEntity
  8
0
  6
BYBLOCK
 62
     0
100
AcDbLine
 10
-1.0
 20
0.166667
 30
0.0
 11
0.0
 21
0.0
 31
0.0
  0
LINE
  5
77
330
74
100
AcDbEntity
  8
0
  6
BYBLOCK
 62
     0
100
AcDbLine
 10
-1.0
 20
-0.166667
 30
0.0
 11
0.0
 21
0.0
 31
0.0
  0
LINE
  5
78
330
74
100
AcDbEntity
  8
0
  6
BYBLOCK
 62
     0
100
AcDbLine
 10
0.0
 20
0.0
 30
0.0
 11
-1.0
 21
0.0
 31
0.0
  0
ENDBLK
  5
79
330
74
100
AcDbEntity
  8
0
100
AcDbBlockEnd
  0
BLOCK
  5
1C9
330
1C8
100
AcDbEntity
  8
0
100
AcDbBlockBegin
  2
*D2
 70
     1
 10
0.0
 20
0.0
 30
0.0
  3
*D2
  1

  0
LINE
  5
1CA
330
1C8
100
AcDbEntity
  8
ANNOTATION_TEXT
 62
     7
100
AcDbLine
 10
40.46827398802
 20
115.929123364299
 30
0.0
 11
40.46827398802
 21
93.36052055849908
 31
0.0
1001
INDEX
1070
     0
  0
LINE
  5
1CC
330
1C8
100
AcDbEntity
  8
ANNOTATION_TEXT
 62
     7
100
AcDbLine
 10
125.1349406546867
 20
115.929123364299
 30
0.0
 11
125.1349406546867
 21
93.36052055849908
 31
0.0
1001
INDEX
1070
     1
  0
LINE
  5
1CD
330
1C8
100
AcDbEntity
  8
ANNOTATION_TEXT
 62
     7
100
AcDbLine
 10
42.96827398802
 20
94.61052055849908
 30
0.0
 11
122.6349406546867
 21
94.61052055849908
 31
0.0
1001
INDEX
1070
     3
  0
INSERT
  5
1CE
330
1C8
100
AcDbEntity
  8
ANNOTATION_TEXT
 62
     7
100
AcDbBlockReference
  2
_OPEN
 10
40.46827398802
 20
94.61052055849908
 30
0.0
 41
2.5
 42
2.5
 43
2.5
 50
180.0
  0
INSERT
  5
1CF
330
1C8
100
AcDbEntity
  8
ANNOTATION_TEXT
 62
     7
100
AcDbBlockReference
  2
_OPEN
 10
125.1349406546867
 20
94.61052055849908
 30
0.0
 41
2.5
 42
2.5
 43
2.5
  0
MTEXT
  5
1D0
330
1C8
100
AcDbEntity
  8
ANNOTATION_TEXT
 62
     7
100
AcDbMText
 10
92.84202862244874
 20
97.02724399174159
 30
0.0
 40
3.5
 41
0.0
 71
     5
 72
     1
  1
254
  7
ONSHAPE-STANDARD-DIMENSION
  0
POINT
  5
1D1
330
1C8
100
AcDbEntity
  8
DEFPOINTS
 62
     0
100
AcDbPoint
 10
40.46827398802
 20
116.554123364299
 30
0.0
  0
POINT
  5
1D2
330
1C8
100
AcDbEntity
  8
DEFPOINTS
 62
     0
100
AcDbPoint
 10
125.1349406546867
 20
116.554123364299
 30
0.0
  0
POINT
  5
1D3
330
1C8
100
AcDbEntity
  8
DEFPOINTS
 62
     0
100
AcDbPoint
 10
125.1349406546867
 20
94.61052055849908
 30
0.0
  0
POINT
  5
1D4
330
1C8
100
AcDbEntity
  8
DEFPOINTS
 62
     0
100
AcDbPoint
 10
125.1349406546867
 20
94.61052055849908
 30
0.0
  0
ENDBLK
  5
1D5
330
1C8
100
AcDbEntity
  8
0
100
AcDbBlockEnd
  0
BLOCK
  5
1EB
330
1EA
100
AcDbEntity
  8
0
100
AcDbBlockBegin
  2
*D3
 70
     1
 10
0.0
 20
0.0
 30
0.0
  3
*D3
  1

  0
LINE
  5
1EC
330
1EA
100
AcDbEntity
  8
ANNOTATION_TEXT
 62
     7
100
AcDbLine
 10
125.7599406546867
 20
179.554123364299
 30
0.0
 11
137.0445583979363
 21
179.554123364299
 31
0.0
1001
INDEX
1070
     0
  0
LINE
  5
1EE
330
1EA
100
AcDbEntity
  8
ANNOTATION_TEXT
 62
     7
100
AcDbLine
 10
125.7599406546867
 20
116.554123364299
 30
0.0
 11
137.0445583979363
 21
116.554123364299
 31
0.0
1001
INDEX
1070
     1
  0
LINE
  5
1EF
330
1EA
100
AcDbEntity
  8
ANNOTATION_TEXT
 62
     7
100
AcDbLine
 10
135.7945583979363
 20
177.054123364299
 30
0.0
 11
135.7945583979363
 21
119.054123364299
 31
0.0
1001
INDEX
1070
     3
  0
INSERT
  5
1F0
330
1EA
100
AcDbEntity
  8
ANNOTATION_TEXT
 62
     7
100
AcDbBlockReference
  2
_OPEN
 10
135.7945583979363
 20
179.554123364299
 30
0.0
 41
2.5
 42
2.5
 43
2.5
 50
89.99999999999999
  0
INSERT
  5
1F1
330
1EA
100
AcDbEntity
  8
ANNOTATION_TEXT
 62
     7
100
AcDbBlockReference
  2
_OPEN
 10
135.7945583979363
 20
116.554123364299
 30
0.0
 41
2.5
 42
2.5
 43
2.5
 50
270.0
  0
MTEXT
  5
1F2
330
1EA
100
AcDbEntity
  8
ANNOTATION_TEXT
 62
     7
100
AcDbMText
 10
133.3778349646938
 20
139.6682982614465
 30
0.0
 40
3.5
 41
0.0
 71
     5
 72
     1
  1
189
  7
ONSHAPE-STANDARD-DIMENSION
 11
2.255691224635239E-16
 21
1.0
 31
0.0
  0
POINT
  5
1F3
330
1EA
100
AcDbEntity
  8
DEFPOINTS
 62
     0
100
AcDbPoint
 10
125.1349406546867
 20
179.554123364299
 30
0.0
  0
POINT
  5
1F4
330
1EA
100
AcDbEntity
  8
DEFPOINTS
 62
     0
100
AcDbPoint
 10
125.1349406546867
 20
116.554123364299
 30
0.0
  0
POINT
  5
1F5
330
1EA
100
AcDbEntity
  8
DEFPOINTS
 62
     0
100
AcDbPoint
 10
135.7945583979363
 20
116.554123364299
 30
0.0
  0
POINT
  5
1F6
330
1EA
100
AcDbEntity
  8
DEFPOINTS
 62
     0
100
AcDbPoint
 10
135.7945583979363
 20
116.554123364299
 30
0.0
  0
ENDBLK
  5
1F7
330
1EA
100
AcDbEntity
  8
0
100
AcDbBlockEnd
  0
BLOCK
  5
218
330
217
100
AcDbEntity
  8
0
100
AcDbBlockBegin
  2
*D4
 70
     1
 10
0.0
 20
0.0
 30
0.0
  3
*D4
  1

  0
LINE
  5
219
330
217
100
AcDbEntity
  8
ANNOTATION_TEXT
 62
     7
100
AcDbLine
 10
177.0511071017478
 20
178.8066536011778
 30
0.0
 11
160.6681290117096
 21
178.8066536011778
 31
0.0
1001
INDEX
1070
     0
  0
LINE
  5
21B
330
217
100
AcDbEntity
  8
ANNOTATION_TEXT
 62
     7
100
AcDbLine
 10
177.0511071017478
 20
177.1399869345112
 30
0.0
 11
160.6681290117096
 21
177.1399869345112
 31
0.0
1001
INDEX
1070
     1
  0
LINE
  5
21C
330
217
100
AcDbEntity
  8
ANNOTATION_TEXT
 62
     7
100
AcDbLine
 10
161.9181290117096
 20
178.8066536011778
 30
0.0
 11
161.9181290117096
 21
187.2644192687527
 31
0.0
  0
LINE
  5
21D
330
217
100
AcDbEntity
  8
ANNOTATION_TEXT
 62
     7
100
AcDbLine
 10
161.9181290117096
 20
178.8066536011778
 30
0.0
 11
161.9181290117096
 21
177.1399869345112
 31
0.0
1001
INDEX
1070
     3
  0
LINE
  5
21E
330
217
100
AcDbEntity
  8
ANNOTATION_TEXT
 62
     7
100
AcDbLine
 10
161.9181290117096
 20
181.3066536011778
 30
0.0
 11
161.9181290117096
 21
183.8066536011778
 31
0.0
1001
INDEX
1070
     3
  0
LINE
  5
21F
330
217
100
AcDbEntity
  8
ANNOTATION_TEXT
 62
     7
100
AcDbLine
 10
161.9181290117096
 20
174.6399869345112
 30
0.0
 11
161.9181290117096
 21
172.1399869345112
 31
0.0
1001
INDEX
1070
     3
  0
INSERT
  5
220
330
217
100
AcDbEntity
  8
ANNOTATION_TEXT
 62
     7
100
AcDbBlockReference
  2
_OPEN
 10
161.9181290117096
 20
178.8066536011778
 30
0.0
 41
2.5
 42
2.5
 43
2.5
 50
270.0
  0
INSERT
  5
221
330
217
100
AcDbEntity
  8
ANNOTATION_TEXT
 62
     7
100
AcDbBlockReference
  2
_OPEN
 10
161.9181290117096
 20
177.1399869345112
 30
0.0
 41
2.5
 42
2.5
 43
2.5
 50
90.0
  0
MTEXT
  5
222
330
217
100
AcDbEntity
  8
ANNOTATION_TEXT
 62
     7
100
AcDbMText
 10
159.5192870498568
 20
185.5355364349653
 30
0.0
 40
3.5
 41
0.0
 71
     5
 72
     1
  1
5
  7
ONSHAPE-STANDARD-DIMENSION
 11
0.0
 21
1.0
 31
0.0
  0
POINT
  5
223
330
217
100
AcDbEntity
  8
DEFPOINTS
 62
     0
100
AcDbPoint
 10
177.6761071017478
 20
178.8066536011778
 30
0.0
  0
POINT
  5
224
330
217
100
AcDbEntity
  8
DEFPOINTS
 62
     0
100
AcDbPoint
 10
177.6761071017478
 20
177.1399869345112
 30
0.0
  0
POINT
  5
225
330
217
100
AcDbEntity
  8
DEFPOINTS
 62
     0
100
AcDbPoint
 10
161.9181290117096
 20
177.1399869345112
 30
0.0
  0
POINT
  5
226
330
217
100
AcDbEntity
  8
DEFPOINTS
 62
     0
100
AcDbPoint
 10
161.9181290117096
 20
177.1399869345112
 30
0.0
  0
ENDBLK
  5
227
330
217
100
AcDbEntity
  8
0
100
AcDbBlockEnd
  0
BLOCK
  5
23D
330
23C
100
AcDbEntity
  8
0
100
AcDbBlockBegin
  2
*D5
 70
     1
 10
0.0
 20
0.0
 30
0.0
  3
*D5
  1

  0
LINE
  5
23E
330
23C
100
AcDbEntity
  8
ANNOTATION_TEXT
 62
     7
100
AcDbLine
 10
66.13494065468667
 20
164.0624566976323
 30
0.0
 11
66.13494065468667
 21
102.8422716627635
 31
0.0
1001
INDEX
1070
     0
  0
LINE
  5
240
330
23C
100
AcDbEntity
  8
ANNOTATION_TEXT
 62
     7
100
AcDbLine
 10
40.46827398802
 20
115.929123364299
 30
0.0
 11
40.46827398802
 21
102.8422716627635
 31
0.0
1001
INDEX
1070
     1
  0
LINE
  5
241
330
23C
100
AcDbEntity
  8
ANNOTATION_TEXT
 62
     7
100
AcDbLine
 10
63.63494065468667
 20
104.0922716627635
 30
0.0
 11
42.96827398802
 21
104.0922716627635
 31
0.0
1001
INDEX
1070
     3
  0
INSERT
  5
242
330
23C
100
AcDbEntity
  8
ANNOTATION_TEXT
 62
     7
100
AcDbBlockReference
  2
_OPEN
 10
66.13494065468667
 20
104.0922716627635
 30
0.0
 41
2.5
 42
2.5
 43
2.5
  0
INSERT
  5
243
330
23C
100
AcDbEntity
  8
ANNOTATION_TEXT
 62
     7
100
AcDbBlockReference
  2
_OPEN
 10
40.46827398802
 20
104.0922716627635
 30
0.0
 41
2.5
 42
2.5
 43
2.5
 50
180.0
  0
MTEXT
  5
244
330
23C
100
AcDbEntity
  8
ANNOTATION_TEXT
 62
     7
100
AcDbMText
 10
54.12538896487119
 20
106.4672716627635
 30
0.0
 40
3.5
 41
0.0
 71
     5
 72
     1
  1
77
  7
ONSHAPE-STANDARD-DIMENSION
  0
POINT
  5
245
330
23C
100
AcDbEntity
  8
DEFPOINTS
 62
     0
100
AcDbPoint
 10
66.13494065468667
 20
164.6874566976323
 30
0.0
  0
POINT
  5
246
330
23C
100
AcDbEntity
  8
DEFPOINTS
 62
     0
100
AcDbPoint
 10
40.46827398802
 20
116.554123364299
 30
0.0
  0
POINT
  5
247
330
23C
100
AcDbEntity
  8
DEFPOINTS
 62
     0
100
AcDbPoint
 10
40.46827398802
 20
104.0922716627635
 30
0.0
  0
POINT
  5
248
330
23C
100
AcDbEntity
  8
DEFPOINTS
 62
     0
100
AcDbPoint
 10
40.46827398802
 20
104.0922716627635
 30
0.0
  0
ENDBLK
  5
249
330
23C
100
AcDbEntity
  8
0
100
AcDbBlockEnd
  0
BLOCK
  5
25F
330
25E
100
AcDbEntity
  8
0
100
AcDbBlockBegin
  2
*D6
 70
     1
 10
0.0
 20
0.0
 30
0.0
  3
*D6
  1

  0
LINE
  5
260
330
25E
100
AcDbEntity
  8
ANNOTATION_TEXT
 62
     7
100
AcDbLine
 10
65.50994065468667
 20
168.054123364299
 30
0.0
 11
26.6681575161697
 21
168.054123364299
 31
0.0
1001
INDEX
1070
     0
  0
LINE
  5
262
330
25E
100
AcDbEntity
  8
ANNOTATION_TEXT
 62
     7
100
AcDbLine
 10
39.84327398802002
 20
179.554123364299
 30
0.0
 11
26.6681575161697
 21
179.554123364299
 31
0.0
1001
INDEX
1070
     1
  0
LINE
  5
263
330
25E
100
AcDbEntity
  8
ANNOTATION_TEXT
 62
     7
100
AcDbLine
 10
27.9181575161697
 20
179.554123364299
 30
0.0
 11
27.9181575161697
 21
196.6827107719688
 31
0.0
  0
LINE
  5
264
330
25E
100
AcDbEntity
  8
ANNOTATION_TEXT
 62
     7
100
AcDbLine
 10
27.9181575161697
 20
170.554123364299
 30
0.0
 11
27.9181575161697
 21
177.054123364299
 31
0.0
1001
INDEX
1070
     3
  0
INSERT
  5
265
330
25E
100
AcDbEntity
  8
ANNOTATION_TEXT
 62
     7
100
AcDbBlockReference
  2
_OPEN
 10
27.9181575161697
 20
168.054123364299
 30
0.0
 41
2.5
 42
2.5
 43
2.5
 50
270.0
  0
INSERT
  5
266
330
25E
100
AcDbEntity
  8
ANNOTATION_TEXT
 62
     7
100
AcDbBlockReference
  2
_OPEN
 10
27.9181575161697
 20
179.554123364299
 30
0.0
 41
2.5
 42
2.5
 43
2.5
 50
90.0
  0
MTEXT
  5
267
330
25E
100
AcDbEntity
  8
ANNOTATION_TEXT
 62
     7
100
AcDbMText
 10
25.2105621483223
 20
191.4633647229225
 30
0.0
 40
3.5
 41
0.0
 71
     5
 72
     1
  1
34,5
  7
ONSHAPE-STANDARD-DIMENSION
 11
0.0
 21
1.0
 31
0.0
  0
POINT
  5
268
330
25E
100
AcDbEntity
  8
DEFPOINTS
 62
     0
100
AcDbPoint
 10
66.13494065468667
 20
168.054123364299
 30
0.0
  0
POINT
  5
269
330
25E
100
AcDbEntity
  8
DEFPOINTS
 62
     0
100
AcDbPoint
 10
40.46827398802002
 20
179.554123364299
 30
0.0
  0
POINT
  5
26A
330
25E
100
AcDbEntity
  8
DEFPOINTS
 62
     0
100
AcDbPoint
 10
27.9181575161697
 20
179.554123364299
 30
0.0
  0
POINT
  5
26B
330
25E
100
AcDbEntity
  8
DEFPOINTS
 62
     0
100
AcDbPoint
 10
27.9181575161697
 20
179.554123364299
 30
0.0
  0
ENDBLK
  5
26C
330
25E
100
AcDbEntity
  8
0
100
AcDbBlockEnd
  0
BLOCK
  5
282
330
281
100
AcDbEntity
  8
0
100
AcDbBlockBegin
  2
*D7
 70
     1
 10
0.0
 20
0.0
 30
0.0
  3
*D7
  1

  0
LINE
  5
283
330
281
100
AcDbEntity
  8
ANNOTATION_TEXT
 62
     7
100
AcDbLine
 10
177.6761071017478
 20
179.4316536011778
 30
0.0
 11
177.6761071017478
 21
195.3887680195709
 31
0.0
1001
INDEX
1070
     0
  0
LINE
  5
285
330
281
100
AcDbEntity
  8
ANNOTATION_TEXT
 62
     7
100
AcDbLine
 10
262.3427737684144
 20
179.4316536011778
 30
0.0
 11
262.3427737684144
 21
195.3887680195709
 31
0.0
1001
INDEX
1070
     1
  0
LINE
  5
286
330
281
100
AcDbEntity
  8
ANNOTATION_TEXT
 62
     7
100
AcDbLine
 10
180.1761071017478
 20
194.1387680195709
 30
0.0
 11
259.8427737684144
 21
194.1387680195709
 31
0.0
1001
INDEX
1070
     3
  0
INSERT
  5
287
330
281
100
AcDbEntity
  8
ANNOTATION_TEXT
 62
     7
100
AcDbBlockReference
  2
_OPEN
 10
177.6761071017478
 20
194.1387680195709
 30
0.0
 41
2.5
 42
2.5
 43
2.5
 50
180.0
  0
INSERT
  5
288
330
281
100
AcDbEntity
  8
ANNOTATION_TEXT
 62
     7
100
AcDbBlockReference
  2
_OPEN
 10
262.3427737684144
 20
194.1387680195709
 30
0.0
 41
2.5
 42
2.5
 43
2.5
  0
MTEXT
  5
289
330
281
100
AcDbEntity
  8
ANNOTATION_TEXT
 62
     7
100
AcDbMText
 10
209.1136374867779
 20
196.5554914528134
 30
0.0
 40
3.5
 41
0.0
 71
     5
 72
     1
  1
254
  7
ONSHAPE-STANDARD-DIMENSION
  0
POINT
  5
28A
330
281
100
AcDbEntity
  8
DEFPOINTS
 62
     0
100
AcDbPoint
 10
177.6761071017478
 20
178.8066536011778
 30
0.0
  0
POINT
  5
28B
330
281
100
AcDbEntity
  8
DEFPOINTS
 62
     0
100
AcDbPoint
 10
262.3427737684144
 20
178.8066536011778
 30
0.0
  0
POINT
  5
28C
330
281
100
AcDbEntity
  8
DEFPOINTS
 62
     0
100
AcDbPoint
 10
262.3427737684144
 20
194.1387680195709
 30
0.0
  0
POINT
  5
28D
330
281
100
AcDbEntity
  8
DEFPOINTS
 62
     0
100
AcDbPoint
 10
262.3427737684144
 20
194.1387680195709
 30
0.0
  0
ENDBLK
  5
28E
330
281
100
AcDbEntity
  8
0
100
AcDbBlockEnd
  0
BLOCK
  5
2C4
330
2C3
100
AcDbEntity
  8
0
100
AcDbBlockBegin
  2
*D8
 70
     1
 10
0.0
 20
0.0
 30
0.0
  3
*D8
  1

  0
LINE
  5
2C5
330
2C3
100
AcDbEntity
  8
ANNOTATION_TEXT
 62
     7
100
AcDbLine
 10
187.0779324090322
 20
140.4721437232789
 30
0.0
 11
187.0779324090322
 21
164.5715456674473
 31
0.0
1001
INDEX
1070
     0
  0
LINE
  5
2C7
330
2C3
100
AcDbEntity
  8
ANNOTATION_TEXT
 62
     7
100
AcDbLine
 10
177.0112657423655
 20
140.4721437232789
 30
0.0
 11
177.0112657423655
 21
164.5715456674473
 31
0.0
1001
INDEX
1070
     1
  0
LINE
  5
2C8
330
2C3
100
AcDbEntity
  8
ANNOTATION_TEXT
 62
     7
100
AcDbLine
 10
187.0779324090322
 20
163.3215456674473
 30
0.0
 11
201.1328548730194
 21
163.3215456674473
 31
0.0
  0
LINE
  5
2C9
330
2C3
100
AcDbEntity
  8
ANNOTATION_TEXT
 62
     7
100
AcDbLine
 10
184.5779324090322
 20
163.3215456674473
 30
0.0
 11
179.5112657423655
 21
163.3215456674473
 31
0.0
1001
INDEX
1070
     3
  0
INSERT
  5
2CA
330
2C3
100
AcDbEntity
  8
ANNOTATION_TEXT
 62
     7
100
AcDbBlockReference
  2
_OPEN
 10
187.0779324090322
 20
163.3215456674473
 30
0.0
 41
2.5
 42
2.5
 43
2.5
  0
INSERT
  5
2CB
330
2C3
100
AcDbEntity
  8
ANNOTATION_TEXT
 62
     7
100
AcDbBlockReference
  2
_OPEN
 10
177.0112657423655
 20
163.3215456674473
 30
0.0
 41
2.5
 42
2.5
 43
2.5
 50
180.0
  0
MTEXT
  5
2CC
330
2C3
100
AcDbEntity
  8
ANNOTATION_TEXT
 62
     7
100
AcDbMText
 10
196.4118058266979
 20
166.011259563905
 30
0.0
 40
3.5
 41
0.0
 71
     5
 72
     1
  1
15,1
  7
ONSHAPE-STANDARD-DIMENSION
  0
POINT
  5
2CD
330
2C3
100
AcDbEntity
  8
DEFPOINTS
 62
     0
100
AcDbPoint
 10
187.0779324090322
 20
139.8471437232789
 30
0.0
  0
POINT
  5
2CE
330
2C3
100
AcDbEntity
  8
DEFPOINTS
 62
     0
100
AcDbPoint
 10
177.0112657423655
 20
139.8471437232789
 30
0.0
  0
POINT
  5
2CF
330
2C3
100
AcDbEntity
  8
DEFPOINTS
 62
     0
100
AcDbPoint
 10
177.0112657423655
 20
163.3215456674473
 30
0.0
  0
POINT
  5
2D0
330
2C3
100
AcDbEntity
  8
DEFPOINTS
 62
     0
100
AcDbPoint
 10
177.0112657423655
 20
163.3215456674473
 30
0.0
  0
ENDBLK
  5
2D1
330
2C3
100
AcDbEntity
  8
0
100
AcDbBlockEnd
  0
BLOCK
  5
2E7
330
2E6
100
AcDbEntity
  8
0
100
AcDbBlockBegin
  2
*D9
 70
     1
 10
0.0
 20
0.0
 30
0.0
  3
*D9
  1

  0
LINE
  5
2E8
330
2E6
100
AcDbEntity
  8
ANNOTATION_TEXT
 62
     7
100
AcDbLine
 10
186.4529324090322
 20
139.8471437232789
 30
0.0
 11
160.6681290117096
 21
139.8471437232789
 31
0.0
1001
INDEX
1070
     0
  0
LINE
  5
2EA
330
2E6
100
AcDbEntity
  8
ANNOTATION_TEXT
 62
     7
100
AcDbLine
 10
186.4529324090322
 20
133.1138103899456
 30
0.0
 11
160.6681290117096
 21
133.1138103899456
 31
0.0
1001
INDEX
1070
     1
  0
LINE
  5
2EB
330
2E6
100
AcDbEntity
  8
ANNOTATION_TEXT
 62
     7
100
AcDbLine
 10
161.9181290117096
 20
133.1138103899456
 30
0.0
 11
161.9181290117096
 21
121.1717122973026
 31
0.0
  0
LINE
  5
2EC
330
2E6
100
AcDbEntity
  8
ANNOTATION_TEXT
 62
     7
100
AcDbLine
 10
161.9181290117096
 20
137.3471437232789
 30
0.0
 11
161.9181290117096
 21
135.6138103899456
 31
0.0
1001
INDEX
1070
     3
  0
INSERT
  5
2ED
330
2E6
100
AcDbEntity
  8
ANNOTATION_TEXT
 62
     7
100
AcDbBlockReference
  2
_OPEN
 10
161.9181290117096
 20
139.8471437232789
 30
0.0
 41
2.5
 42
2.5
 43
2.5
 50
90.0
  0
INSERT
  5
2EE
330
2E6
100
AcDbEntity
  8
ANNOTATION_TEXT
 62
     7
100
AcDbBlockReference
  2
_OPEN
 10
161.9181290117096
 20
133.1138103899456
 30
0.0
 41
2.5
 42
2.5
 43
2.5
 50
270.0
  0
MTEXT
  5
2EF
330
2E6
100
AcDbEntity
  8
ANNOTATION_TEXT
 62
     7
100
AcDbMText
 10
159.2081494476769
 20
125.8927613436241
 30
0.0
 40
3.5
 41
0.0
 71
     5
 72
     1
  1
10,1
  7
ONSHAPE-STANDARD-DIMENSION
 11
0.0
 21
1.0
 31
0.0
  0
POINT
  5
2F0
330
2E6
100
AcDbEntity
  8
DEFPOINTS
 62
     0
100
AcDbPoint
 10
187.0779324090322
 20
139.8471437232789
 30
0.0
  0
POINT
  5
2F1
330
2E6
100
AcDbEntity
  8
DEFPOINTS
 62
     0
100
AcDbPoint
 10
187.0779324090322
 20
133.1138103899456
 30
0.0
  0
POINT
  5
2F2
330
2E6
100
AcDbEntity
  8
DEFPOINTS
 62
     0
100
AcDbPoint
 10
161.9181290117096
 20
133.1138103899456
 30
0.0
  0
POINT
  5
2F3
330
2E6
100
AcDbEntity
  8
DEFPOINTS
 62
     0
100
AcDbPoint
 10
161.9181290117096
 20
133.1138103899456
 30
0.0
  0
ENDBLK
  5
2F4
330
2E6
100
AcDbEntity
  8
0
100
AcDbBlockEnd
  0
ENDSEC
  0
SECTION
  2
ENTITIES
  0
LINE
  5
7C
330
1F
100
AcDbEntity
  8
VISIBLE
100
AcDbLine
 10
71.16827398802
 20
164.6874566976323
 30
0.0
 11
66.13494065468667
 21
164.6874566976323
 31
0.0
  0
LINE
  5
7D
330
1F
100
AcDbEntity
  8
VISIBLE
100
AcDbLine
 10
71.16827398802
 20
168.054123364299
 30
0.0
 11
71.16827398802
 21
164.6874566976323
 31
0.0
  0
LINE
  5
7E
330
1F
100
AcDbEntity
  8
VISIBLE
100
AcDbLine
 10
71.16827398802
 20
168.054123364299
 30
0.0
 11
66.13494065468667
 21
168.054123364299
 31
0.0
  0
LINE
  5
7F
330
1F
100
AcDbEntity
  8
VISIBLE
100
AcDbLine
 10
66.13494065468667
 20
168.054123364299
 30
0.0
 11
66.13494065468667
 21
164.6874566976323
 31
0.0
  0
LINE
  5
80
330
1F
100
AcDbEntity
  8
VISIBLE
100
AcDbLine
 10
125.1349406546867
 20
179.554123364299
 30
0.0
 11
125.1349406546867
 21
116.554123364299
 31
0.0
  0
LINE
  5
81
330
1F
100
AcDbEntity
  8
VISIBLE
100
AcDbLine
 10
40.46827398802
 20
116.554123364299
 30
0.0
 11
125.1349406546867
 21
116.554123364299
 31
0.0
  0
LINE
  5
82
330
1F
100
AcDbEntity
  8
VISIBLE
100
AcDbLine
 10
40.46827398802002
 20
179.554123364299
 30
0.0
 11
40.46827398802
 21
116.554123364299
 31
0.0
  0
LINE
  5
83
330
1F
100
AcDbEntity
  8
VISIBLE
100
AcDbLine
 10
40.46827398802002
 20
179.554123364299
 30
0.0
 11
125.1349406546867
 21
179.554123364299
 31
0.0
  0
LINE
  5
86
330
1F
100
AcDbEntity
  8
VISIBLE
100
AcDbLine
 10
207.158404169864
 20
86.37907903722518
 30
0.0
 11
252.0596847752098
 21
60.45531259276987
 31
0.0
  0
LINE
  5
87
330
1F
100
AcDbEntity
  8
VISIBLE
100
AcDbLine
 10
285.4704801862742
 20
79.74504431718739
 30
0.0
 11
252.0596847752098
 21
60.45531259276987
 31
0.0
  0
LINE
  5
88
330
1F
100
AcDbEntity
  8
VISIBLE
100
AcDbLine
 10
252.0596847752098
 20
61.47593331892953
 30
0.0
 11
252.0596847752098
 21
60.45531259276987
 31
0.0
  0
LINE
  5
89
330
1F
100
AcDbEntity
  8
VISIBLE
100
AcDbLine
 10
248.0822091310355
 20
95.30951039112217
 30
0.0
 11
246.2967645085395
 21
94.27868345770092
 31
0.0
  0
LINE
  5
8A
330
1F
100
AcDbEntity
  8
VISIBLE
100
AcDbLine
 10
247.1806479850227
 20
93.7683730946211
 30
0.0
 11
248.0822091310355
 21
94.28888966496253
 31
0.0
  0
LINE
  5
8B
330
1F
100
AcDbEntity
  8
VISIBLE
100
AcDbLine
 10
285.4704801862742
 20
80.76566504334706
 30
0.0
 11
285.4704801862742
 21
79.74504431718739
 31
0.0
  0
LINE
  5
8C
330
1F
100
AcDbEntity
  8
VISIBLE
100
AcDbLine
 10
250.7515372300147
 20
93.7683730946211
 30
0.0
 11
248.0822091310355
 21
95.30951039112217
 31
0.0
  0
LINE
  5
8D
330
1F
100
AcDbEntity
  8
VISIBLE
100
AcDbLine
 10
207.158404169864
 20
87.39969976338483
 30
0.0
 11
207.158404169864
 21
86.37907903722518
 31
0.0
  0
LINE
  5
8E
330
1F
100
AcDbEntity
  8
VISIBLE
100
AcDbLine
 10
207.158404169864
 20
87.39969976338483
 30
0.0
 11
252.0596847752098
 21
61.47593331892953
 31
0.0
  0
LINE
  5
8F
330
1F
100
AcDbEntity
  8
VISIBLE
100
AcDbLine
 10
240.5691995809284
 20
106.6894314878024
 30
0.0
 11
207.158404169864
 21
87.39969976338483
 31
0.0
  0
LINE
  5
90
330
1F
100
AcDbEntity
  8
VISIBLE
100
AcDbLine
 10
248.0822091310355
 20
94.28888966496253
 30
0.0
 11
249.8676537535315
 21
93.25806273154127
 31
0.0
  0
LINE
  5
91
330
1F
100
AcDbEntity
  8
VISIBLE
100
AcDbLine
 10
248.0822091310355
 20
95.30951039112217
 30
0.0
 11
248.0822091310355
 21
94.28888966496253
 31
0.0
  0
LINE
  5
92
330
1F
100
AcDbEntity
  8
VISIBLE
100
AcDbLine
 10
240.5691995809284
 20
106.6894314878024
 30
0.0
 11
285.4704801862742
 21
80.76566504334706
 31
0.0
  0
LINE
  5
93
330
1F
100
AcDbEntity
  8
VISIBLE
100
AcDbLine
 10
248.9660926075187
 20
92.73754616119984
 30
0.0
 11
246.2967645085395
 21
94.27868345770092
 31
0.0
  0
LINE
  5
94
330
1F
100
AcDbEntity
  8
VISIBLE
100
AcDbLine
 10
285.4704801862742
 20
80.76566504334706
 30
0.0
 11
252.0596847752098
 21
61.47593331892953
 31
0.0
  0
LINE
  5
95
330
1F
100
AcDbEntity
  8
VISIBLE
100
AcDbLine
 10
250.7515372300147
 20
93.7683730946211
 30
0.0
 11
248.9660926075187
 21
92.73754616119984
 31
0.0
  0
LINE
  5
98
330
1F
100
AcDbEntity
  8
VISIBLE
100
AcDbLine
 10
177.6761071017478
 20
177.1399869345112
 30
0.0
 11
262.3427737684144
 21
177.1399869345112
 31
0.0
  0
LINE
  5
99
330
1F
100
AcDbEntity
  8
VISIBLE
100
AcDbLine
 10
177.6761071017478
 20
178.8066536011778
 30
0.0
 11
177.6761071017478
 21
177.1399869345112
 31
0.0
  0
LINE
  5
9A
330
1F
100
AcDbEntity
  8
VISIBLE
100
AcDbLine
 10
177.6761071017478
 20
178.8066536011778
 30
0.0
 11
262.3427737684144
 21
178.8066536011778
 31
0.0
  0
LINE
  5
9B
330
1F
100
AcDbEntity
  8
VISIBLE
100
AcDbLine
 10
262.3427737684144
 20
178.8066536011778
 30
0.0
 11
262.3427737684144
 21
177.1399869345112
 31
0.0
  0
POLYLINE
  5
9F
330
1F
100
AcDbEntity
  8
DETAIL_VIEW_BORDER
100
AcDb2dPolyline
 66
     1
 10
0.0
 20
0.0
 30
0.0
 70
   129
  0
VERTEX
  5
A0
330
9F
100
AcDbEntity
  8
DETAIL_VIEW_BORDER
100
AcDbVertex
100
AcDb2dVertex
 10
197.7160443372433
 20
136.94989669002
 30
0.0
  0
VERTEX
  5
A1
330
9F
100
AcDbEntity
  8
DETAIL_VIEW_BORDER
100
AcDbVertex
100
AcDb2dVertex
 10
197.6845510658248
 20
137.952028835631
 30
0.0
  0
VERTEX
  5
A2
330
9F
100
AcDbEntity
  8
DETAIL_VIEW_BORDER
100
AcDbVertex
100
AcDb2dVertex
 10
197.5901955411234
 20
138.9502060234939
 30
0.0
  0
VERTEX
  5
A3
330
9F
100
AcDbEntity
  8
DETAIL_VIEW_BORDER
100
AcDbVertex
100
AcDb2dVertex
 10
197.4333501412884
 20
139.940488904272
 30
0.0
  0
VERTEX
  5
A4
330
9F
100
AcDbEntity
  8
DETAIL_VIEW_BORDER
100
AcDbVertex
100
AcDb2dVertex
 10
197.214633863457
 20
140.9189692838521
 30
0.0
  0
VERTEX
  5
A5
330
9F
100
AcDbEntity
  8
DETAIL_VIEW_BORDER
100
AcDbVertex
100
AcDb2dVertex
 10
196.9349098808559
 20
141.881785547201
 30
0.0
  0
VERTEX
  5
A6
330
9F
100
AcDbEntity
  8
DETAIL_VIEW_BORDER
100
AcDbVertex
100
AcDb2dVertex
 10
196.5952821362506
 20
142.8251378983965
 30
0.0
  0
VERTEX
  5
A7
330
9F
100
AcDbEntity
  8
DETAIL_VIEW_BORDER
100
AcDbVertex
100
AcDb2dVertex
 10
196.1970909851879
 20
143.7453033566848
 30
0.0
  0
VERTEX
  5
A8
330
9F
100
AcDbEntity
  8
DETAIL_VIEW_BORDER
100
AcDbVertex
100
AcDb2dVertex
 10
195.7419079062249
 20
144.6386504493858
 30
0.0
  0
VERTEX
  5
A9
330
9F
100
AcDbEntity
  8
DETAIL_VIEW_BORDER
100
AcDbVertex
100
AcDb2dVertex
 10
195.2315292990208
 20
145.501653543656
 30
0.0
  0
VERTEX
  5
AA
330
9F
100
AcDbEntity
  8
DETAIL_VIEW_BORDER
100
AcDbVertex
100
AcDb2dVertex
 10
194.6679693947686
 20
146.330906760551
 30
0.0
  0
VERTEX
  5
AB
330
9F
100
AcDbEntity
  8
DETAIL_VIEW_BORDER
100
AcDbVertex
100
AcDb2dVertex
 10
194.0534523069441
 20
147.1231374164734
 30
0.0
  0
VERTEX
  5
AC
330
9F
100
AcDbEntity
  8
DETAIL_VIEW_BORDER
100
AcDbVertex
100
AcDb2dVertex
 10
193.390403253747
 20
147.8752189389602
 30
0.0
  0
VERTEX
  5
AD
330
9F
100
AcDbEntity
  8
DETAIL_VIEW_BORDER
100
AcDbVertex
100
AcDb2dVertex
 10
192.6814389868719
 20
148.5841832058353
 30
0.0
  0
VERTEX
  5
AE
330
9F
100
AcDbEntity
  8
DETAIL_VIEW_BORDER
100
AcDbVertex
100
AcDb2dVertex
 10
191.9293574643852
 20
149.2472322590324
 30
0.0
  0
VERTEX
  5
AF
330
9F
100
AcDbEntity
  8
DETAIL_VIEW_BORDER
100
AcDbVertex
100
AcDb2dVertex
 10
191.1371268084627
 20
149.8617493468569
 30
0.0
  0
VERTEX
  5
B0
330
9F
100
AcDbEntity
  8
DETAIL_VIEW_BORDER
100
AcDbVertex
100
AcDb2dVertex
 10
190.3078735915677
 20
150.4253092511091
 30
0.0
  0
VERTEX
  5
B1
330
9F
100
AcDbEntity
  8
DETAIL_VIEW_BORDER
100
AcDbVertex
100
AcDb2dVertex
 10
189.4448704972974
 20
150.9356878583132
 30
0.0
  0
VERTEX
  5
B2
330
9F
100
AcDbEntity
  8
DETAIL_VIEW_BORDER
100
AcDbVertex
100
AcDb2dVertex
 10
188.5515234045965
 20
151.3908709372762
 30
0.0
  0
VERTEX
  5
B3
330
9F
100
AcDbEntity
  8
DETAIL_VIEW_BORDER
100
AcDbVertex
100
AcDb2dVertex
 10
187.6313579463082
 20
151.7890620883389
 30
0.0
  0
VERTEX
  5
B4
330
9F
100
AcDbEntity
  8
DETAIL_VIEW_BORDER
100
AcDbVertex
100
AcDb2dVertex
 10
186.6880055951128
 20
152.1286898329442
 30
0.0
  0
VERTEX
  5
B5
330
9F
100
AcDbEntity
  8
DETAIL_VIEW_BORDER
100
AcDbVertex
100
AcDb2dVertex
 10
185.7251893317638
 20
152.4084138155453
 30
0.0
  0
VERTEX
  5
B6
330
9F
100
AcDbEntity
  8
DETAIL_VIEW_BORDER
100
AcDbVertex
100
AcDb2dVertex
 10
184.7467089521837
 20
152.6271300933767
 30
0.0
  0
VERTEX
  5
B7
330
9F
100
AcDbEntity
  8
DETAIL_VIEW_BORDER
100
AcDbVertex
100
AcDb2dVertex
 10
183.7564260714056
 20
152.7839754932117
 30
0.0
  0
VERTEX
  5
B8
330
9F
100
AcDbEntity
  8
DETAIL_VIEW_BORDER
100
AcDbVertex
100
AcDb2dVertex
 10
182.7582488835427
 20
152.8783310179131
 30
0.0
  0
VERTEX
  5
B9
330
9F
100
AcDbEntity
  8
DETAIL_VIEW_BORDER
100
AcDbVertex
100
AcDb2dVertex
 10
181.7561167379317
 20
152.9098242893316
 30
0.0
  0
VERTEX
  5
BA
330
9F
100
AcDbEntity
  8
DETAIL_VIEW_BORDER
100
AcDbVertex
100
AcDb2dVertex
 10
180.7539845923207
 20
152.8783310179131
 30
0.0
  0
VERTEX
  5
BB
330
9F
100
AcDbEntity
  8
DETAIL_VIEW_BORDER
100
AcDbVertex
100
AcDb2dVertex
 10
179.7558074044578
 20
152.7839754932117
 30
0.0
  0
VERTEX
  5
BC
330
9F
100
AcDbEntity
  8
DETAIL_VIEW_BORDER
100
AcDbVertex
100
AcDb2dVertex
 10
178.7655245236797
 20
152.6271300933767
 30
0.0
  0
VERTEX
  5
BD
330
9F
100
AcDbEntity
  8
DETAIL_VIEW_BORDER
100
AcDbVertex
100
AcDb2dVertex
 10
177.7870441440997
 20
152.4084138155453
 30
0.0
  0
VERTEX
  5
BE
330
9F
100
AcDbEntity
  8
DETAIL_VIEW_BORDER
100
AcDbVertex
100
AcDb2dVertex
 10
176.8242278807507
 20
152.1286898329442
 30
0.0
  0
VERTEX
  5
BF
330
9F
100
AcDbEntity
  8
DETAIL_VIEW_BORDER
100
AcDbVertex
100
AcDb2dVertex
 10
175.8808755295553
 20
151.7890620883389
 30
0.0
  0
VERTEX
  5
C0
330
9F
100
AcDbEntity
  8
DETAIL_VIEW_BORDER
100
AcDbVertex
100
AcDb2dVertex
 10
174.960710071267
 20
151.3908709372762
 30
0.0
  0
VERTEX
  5
C1
330
9F
100
AcDbEntity
  8
DETAIL_VIEW_BORDER
100
AcDbVertex
100
AcDb2dVertex
 10
174.067362978566
 20
150.9356878583132
 30
0.0
  0
VERTEX
  5
C2
330
9F
100
AcDbEntity
  8
DETAIL_VIEW_BORDER
100
AcDbVertex
100
AcDb2dVertex
 10
173.2043598842957
 20
150.4253092511091
 30
0.0
  0
VERTEX
  5
C3
330
9F
100
AcDbEntity
  8
DETAIL_VIEW_BORDER
100
AcDbVertex
100
AcDb2dVertex
 10
172.3751066674008
 20
149.8617493468569
 30
0.0
  0
VERTEX
  5
C4
330
9F
100
AcDbEntity
  8
DETAIL_VIEW_BORDER
100
AcDbVertex
100
AcDb2dVertex
 10
171.5828760114783
 20
149.2472322590324
 30
0.0
  0
VERTEX
  5
C5
330
9F
100
AcDbEntity
  8
DETAIL_VIEW_BORDER
100
AcDbVertex
100
AcDb2dVertex
 10
170.8307944889916
 20
148.5841832058353
 30
0.0
  0
VERTEX
  5
C6
330
9F
100
AcDbEntity
  8
DETAIL_VIEW_BORDER
100
AcDbVertex
100
AcDb2dVertex
 10
170.1218302221164
 20
147.8752189389602
 30
0.0
  0
VERTEX
  5
C7
330
9F
100
AcDbEntity
  8
DETAIL_VIEW_BORDER
100
AcDbVertex
100
AcDb2dVertex
 10
169.4587811689193
 20
147.1231374164734
 30
0.0
  0
VERTEX
  5
C8
330
9F
100
AcDbEntity
  8
DETAIL_VIEW_BORDER
100
AcDbVertex
100
AcDb2dVertex
 10
168.8442640810949
 20
146.330906760551
 30
0.0
  0
VERTEX
  5
C9
330
9F
100
AcDbEntity
  8
DETAIL_VIEW_BORDER
100
AcDbVertex
100
AcDb2dVertex
 10
168.2807041768426
 20
145.501653543656
 30
0.0
  0
VERTEX
  5
CA
330
9F
100
AcDbEntity
  8
DETAIL_VIEW_BORDER
100
AcDbVertex
100
AcDb2dVertex
 10
167.7703255696385
 20
144.6386504493858
 30
0.0
  0
VERTEX
  5
CB
330
9F
100
AcDbEntity
  8
DETAIL_VIEW_BORDER
100
AcDbVertex
100
AcDb2dVertex
 10
167.3151424906755
 20
143.7453033566848
 30
0.0
  0
VERTEX
  5
CC
330
9F
100
AcDbEntity
  8
DETAIL_VIEW_BORDER
100
AcDbVertex
100
AcDb2dVertex
 10
166.9169513396129
 20
142.8251378983964
 30
0.0
  0
VERTEX
  5
CD
330
9F
100
AcDbEntity
  8
DETAIL_VIEW_BORDER
100
AcDbVertex
100
AcDb2dVertex
 10
166.5773235950076
 20
141.881785547201
 30
0.0
  0
VERTEX
  5
CE
330
9F
100
AcDbEntity
  8
DETAIL_VIEW_BORDER
100
AcDbVertex
100
AcDb2dVertex
 10
166.2975996124064
 20
140.9189692838521
 30
0.0
  0
VERTEX
  5
CF
330
9F
100
AcDbEntity
  8
DETAIL_VIEW_BORDER
100
AcDbVertex
100
AcDb2dVertex
 10
166.078883334575
 20
139.940488904272
 30
0.0
  0
VERTEX
  5
D0
330
9F
100
AcDbEntity
  8
DETAIL_VIEW_BORDER
100
AcDbVertex
100
AcDb2dVertex
 10
165.92203793474
 20
138.9502060234939
 30
0.0
  0
VERTEX
  5
D1
330
9F
100
AcDbEntity
  8
DETAIL_VIEW_BORDER
100
AcDbVertex
100
AcDb2dVertex
 10
165.8276824100387
 20
137.952028835631
 30
0.0
  0
VERTEX
  5
D2
330
9F
100
AcDbEntity
  8
DETAIL_VIEW_BORDER
100
AcDbVertex
100
AcDb2dVertex
 10
165.7961891386201
 20
136.94989669002
 30
0.0
  0
VERTEX
  5
D3
330
9F
100
AcDbEntity
  8
DETAIL_VIEW_BORDER
100
AcDbVertex
100
AcDb2dVertex
 10
165.8276824100387
 20
135.947764544409
 30
0.0
  0
VERTEX
  5
D4
330
9F
100
AcDbEntity
  8
DETAIL_VIEW_BORDER
100
AcDbVertex
100
AcDb2dVertex
 10
165.92203793474
 20
134.9495873565461
 30
0.0
  0
VERTEX
  5
D5
330
9F
100
AcDbEntity
  8
DETAIL_VIEW_BORDER
100
AcDbVertex
100
AcDb2dVertex
 10
166.078883334575
 20
133.959304475768
 30
0.0
  0
VERTEX
  5
D6
330
9F
100
AcDbEntity
  8
DETAIL_VIEW_BORDER
100
AcDbVertex
100
AcDb2dVertex
 10
166.2975996124064
 20
132.980824096188
 30
0.0
  0
VERTEX
  5
D7
330
9F
100
AcDbEntity
  8
DETAIL_VIEW_BORDER
100
AcDbVertex
100
AcDb2dVertex
 10
166.5773235950076
 20
132.018007832839
 30
0.0
  0
VERTEX
  5
D8
330
9F
100
AcDbEntity
  8
DETAIL_VIEW_BORDER
100
AcDbVertex
100
AcDb2dVertex
 10
166.9169513396129
 20
131.0746554816436
 30
0.0
  0
VERTEX
  5
D9
330
9F
100
AcDbEntity
  8
DETAIL_VIEW_BORDER
100
AcDbVertex
100
AcDb2dVertex
 10
167.3151424906755
 20
130.1544900233553
 30
0.0
  0
VERTEX
  5
DA
330
9F
100
AcDbEntity
  8
DETAIL_VIEW_BORDER
100
AcDbVertex
100
AcDb2dVertex
 10
167.7703255696385
 20
129.2611429306543
 30
0.0
  0
VERTEX
  5
DB
330
9F
100
AcDbEntity
  8
DETAIL_VIEW_BORDER
100
AcDbVertex
100
AcDb2dVertex
 10
168.2807041768426
 20
128.398139836384
 30
0.0
  0
VERTEX
  5
DC
330
9F
100
AcDbEntity
  8
DETAIL_VIEW_BORDER
100
AcDbVertex
100
AcDb2dVertex
 10
168.8442640810949
 20
127.568886619489
 30
0.0
  0
VERTEX
  5
DD
330
9F
100
AcDbEntity
  8
DETAIL_VIEW_BORDER
100
AcDbVertex
100
AcDb2dVertex
 10
169.4587811689193
 20
126.7766559635666
 30
0.0
  0
VERTEX
  5
DE
330
9F
100
AcDbEntity
  8
DETAIL_VIEW_BORDER
100
AcDbVertex
100
AcDb2dVertex
 10
170.1218302221164
 20
126.0245744410799
 30
0.0
  0
VERTEX
  5
DF
330
9F
100
AcDbEntity
  8
DETAIL_VIEW_BORDER
100
AcDbVertex
100
AcDb2dVertex
 10
170.8307944889916
 20
125.3156101742047
 30
0.0
  0
VERTEX
  5
E0
330
9F
100
AcDbEntity
  8
DETAIL_VIEW_BORDER
100
AcDbVertex
100
AcDb2dVertex
 10
171.5828760114783
 20
124.6525611210076
 30
0.0
  0
VERTEX
  5
E1
330
9F
100
AcDbEntity
  8
DETAIL_VIEW_BORDER
100
AcDbVertex
100
AcDb2dVertex
 10
172.3751066674008
 20
124.0380440331832
 30
0.0
  0
VERTEX
  5
E2
330
9F
100
AcDbEntity
  8
DETAIL_VIEW_BORDER
100
AcDbVertex
100
AcDb2dVertex
 10
173.2043598842958
 20
123.4744841289309
 30
0.0
  0
VERTEX
  5
E3
330
9F
100
AcDbEntity
  8
DETAIL_VIEW_BORDER
100
AcDbVertex
100
AcDb2dVertex
 10
174.067362978566
 20
122.9641055217268
 30
0.0
  0
VERTEX
  5
E4
330
9F
100
AcDbEntity
  8
DETAIL_VIEW_BORDER
100
AcDbVertex
100
AcDb2dVertex
 10
174.960710071267
 20
122.5089224427638
 30
0.0
  0
VERTEX
  5
E5
330
9F
100
AcDbEntity
  8
DETAIL_VIEW_BORDER
100
AcDbVertex
100
AcDb2dVertex
 10
175.8808755295553
 20
122.1107312917012
 30
0.0
  0
VERTEX
  5
E6
330
9F
100
AcDbEntity
  8
DETAIL_VIEW_BORDER
100
AcDbVertex
100
AcDb2dVertex
 10
176.8242278807507
 20
121.7711035470959
 30
0.0
  0
VERTEX
  5
E7
330
9F
100
AcDbEntity
  8
DETAIL_VIEW_BORDER
100
AcDbVertex
100
AcDb2dVertex
 10
177.7870441440997
 20
121.4913795644947
 30
0.0
  0
VERTEX
  5
E8
330
9F
100
AcDbEntity
  8
DETAIL_VIEW_BORDER
100
AcDbVertex
100
AcDb2dVertex
 10
178.7655245236797
 20
121.2726632866633
 30
0.0
  0
VERTEX
  5
E9
330
9F
100
AcDbEntity
  8
DETAIL_VIEW_BORDER
100
AcDbVertex
100
AcDb2dVertex
 10
179.7558074044578
 20
121.1158178868283
 30
0.0
  0
VERTEX
  5
EA
330
9F
100
AcDbEntity
  8
DETAIL_VIEW_BORDER
100
AcDbVertex
100
AcDb2dVertex
 10
180.7539845923207
 20
121.021462362127
 30
0.0
  0
VERTEX
  5
EB
330
9F
100
AcDbEntity
  8
DETAIL_VIEW_BORDER
100
AcDbVertex
100
AcDb2dVertex
 10
181.7561167379317
 20
120.9899690907084
 30
0.0
  0
VERTEX
  5
EC
330
9F
100
AcDbEntity
  8
DETAIL_VIEW_BORDER
100
AcDbVertex
100
AcDb2dVertex
 10
182.7582488835427
 20
121.021462362127
 30
0.0
  0
VERTEX
  5
ED
330
9F
100
AcDbEntity
  8
DETAIL_VIEW_BORDER
100
AcDbVertex
100
AcDb2dVertex
 10
183.7564260714056
 20
121.1158178868283
 30
0.0
  0
VERTEX
  5
EE
330
9F
100
AcDbEntity
  8
DETAIL_VIEW_BORDER
100
AcDbVertex
100
AcDb2dVertex
 10
184.7467089521837
 20
121.2726632866633
 30
0.0
  0
VERTEX
  5
EF
330
9F
100
AcDbEntity
  8
DETAIL_VIEW_BORDER
100
AcDbVertex
100
AcDb2dVertex
 10
185.7251893317638
 20
121.4913795644947
 30
0.0
  0
VERTEX
  5
F0
330
9F
100
AcDbEntity
  8
DETAIL_VIEW_BORDER
100
AcDbVertex
100
AcDb2dVertex
 10
186.6880055951128
 20
121.7711035470958
 30
0.0
  0
VERTEX
  5
F1
330
9F
100
AcDbEntity
  8
DETAIL_VIEW_BORDER
100
AcDbVertex
100
AcDb2dVertex
 10
187.6313579463082
 20
122.1107312917012
 30
0.0
  0
VERTEX
  5
F2
330
9F
100
AcDbEntity
  8
DETAIL_VIEW_BORDER
100
AcDbVertex
100
AcDb2dVertex
 10
188.5515234045965
 20
122.5089224427638
 30
0.0
  0
VERTEX
  5
F3
330
9F
100
AcDbEntity
  8
DETAIL_VIEW_BORDER
100
AcDbVertex
100
AcDb2dVertex
 10
189.4448704972975
 20
122.9641055217269
 30
0.0
  0
VERTEX
  5
F4
330
9F
100
AcDbEntity
  8
DETAIL_VIEW_BORDER
100
AcDbVertex
100
AcDb2dVertex
 10
190.3078735915677
 20
123.4744841289309
 30
0.0
  0
VERTEX
  5
F5
330
9F
100
AcDbEntity
  8
DETAIL_VIEW_BORDER
100
AcDbVertex
100
AcDb2dVertex
 10
191.1371268084627
 20
124.0380440331832
 30
0.0
  0
VERTEX
  5
F6
330
9F
100
AcDbEntity
  8
DETAIL_VIEW_BORDER
100
AcDbVertex
100
AcDb2dVertex
 10
191.9293574643852
 20
124.6525611210076
 30
0.0
  0
VERTEX
  5
F7
330
9F
100
AcDbEntity
  8
DETAIL_VIEW_BORDER
100
AcDbVertex
100
AcDb2dVertex
 10
192.6814389868719
 20
125.3156101742047
 30
0.0
  0
VERTEX
  5
F8
330
9F
100
AcDbEntity
  8
DETAIL_VIEW_BORDER
100
AcDbVertex
100
AcDb2dVertex
 10
193.390403253747
 20
126.0245744410799
 30
0.0
  0
VERTEX
  5
F9
330
9F
100
AcDbEntity
  8
DETAIL_VIEW_BORDER
100
AcDbVertex
100
AcDb2dVertex
 10
194.0534523069441
 20
126.7766559635666
 30
0.0
  0
VERTEX
  5
FA
330
9F
100
AcDbEntity
  8
DETAIL_VIEW_BORDER
100
AcDbVertex
100
AcDb2dVertex
 10
194.6679693947686
 20
127.568886619489
 30
0.0
  0
VERTEX
  5
FB
330
9F
100
AcDbEntity
  8
DETAIL_VIEW_BORDER
100
AcDbVertex
100
AcDb2dVertex
 10
195.2315292990208
 20
128.398139836384
 30
0.0
  0
VERTEX
  5
FC
330
9F
100
AcDbEntity
  8
DETAIL_VIEW_BORDER
100
AcDbVertex
100
AcDb2dVertex
 10
195.7419079062249
 20
129.2611429306543
 30
0.0
  0
VERTEX
  5
FD
330
9F
100
AcDbEntity
  8
DETAIL_VIEW_BORDER
100
AcDbVertex
100
AcDb2dVertex
 10
196.1970909851879
 20
130.1544900233553
 30
0.0
  0
VERTEX
  5
FE
330
9F
100
AcDbEntity
  8
DETAIL_VIEW_BORDER
100
AcDbVertex
100
AcDb2dVertex
 10
196.5952821362506
 20
131.0746554816436
 30
0.0
  0
VERTEX
  5
FF
330
9F
100
AcDbEntity
  8
DETAIL_VIEW_BORDER
100
AcDbVertex
100
AcDb2dVertex
 10
196.9349098808559
 20
132.018007832839
 30
0.0
  0
VERTEX
  5
100
330
9F
100
AcDbEntity
  8
DETAIL_VIEW_BORDER
100
AcDbVertex
100
AcDb2dVertex
 10
197.214633863457
 20
132.980824096188
 30
0.0
  0
VERTEX
  5
101
330
9F
100
AcDbEntity
  8
DETAIL_VIEW_BORDER
100
AcDbVertex
100
AcDb2dVertex
 10
197.4333501412884
 20
133.959304475768
 30
0.0
  0
VERTEX
  5
102
330
9F
100
AcDbEntity
  8
DETAIL_VIEW_BORDER
100
AcDbVertex
100
AcDb2dVertex
 10
197.5901955411234
 20
134.9495873565461
 30
0.0
  0
VERTEX
  5
103
330
9F
100
AcDbEntity
  8
DETAIL_VIEW_BORDER
100
AcDbVertex
100
AcDb2dVertex
 10
197.6845510658248
 20
135.947764544409
 30
0.0
  0
SEQEND
  5
104
330
9F
100
AcDbEntity
  8
DETAIL_VIEW_BORDER
  0
LINE
  5
105
330
1F
100
AcDbEntity
  8
VISIBLE
100
AcDbLine
 10
187.0779324090322
 20
133.1138103899456
 30
0.0
 11
177.0112657423655
 21
133.1138103899456
 31
0.0
  0
LINE
  5
106
330
1F
100
AcDbEntity
  8
VISIBLE
100
AcDbLine
 10
187.0779324090322
 20
139.8471437232789
 30
0.0
 11
187.0779324090322
 21
133.1138103899456
 31
0.0
  0
LINE
  5
107
330
1F
100
AcDbEntity
  8
VISIBLE
100
AcDbLine
 10
187.0779324090322
 20
139.8471437232789
 30
0.0
 11
177.0112657423655
 21
139.8471437232789
 31
0.0
  0
LINE
  5
108
330
1F
100
AcDbEntity
  8
VISIBLE
100
AcDbLine
 10
177.0112657423655
 20
139.8471437232789
 30
0.0
 11
177.0112657423655
 21
133.1138103899456
 31
0.0
  0
LINE
  5
109
102
{ACAD_REACTORS
102
}
330
1F
100
AcDbEntity
  8
BORDER_FRAME
100
AcDbLine
 10
20.0
 20
10.0
 30
0.0
 11
20.0
 21
200.0
 31
0.0
  0
LINE
  5
10C
102
{ACAD_REACTORS
102
}
330
1F
100
AcDbEntity
  8
BORDER_FRAME
100
AcDbLine
 10
20.0
 20
200.0
 30
0.0
 11
297.0
 21
200.0
 31
0.0
  0
LINE
  5
10D
330
1F
100
AcDbEntity
  8
BORDER_FRAME
100
AcDbLine
 10
297.0
 20
200.0
 30
0.0
 11
297.0
 21
10.0
 31
0.0
  0
LINE
  5
10E
330
1F
100
AcDbEntity
  8
BORDER_FRAME
100
AcDbLine
 10
297.0
 20
10.0
 30
0.0
 11
20.0
 21
10.0
 31
0.0
  0
LINE
  5
10F
330
1F
100
AcDbEntity
  8
TITLE_BLOCK
100
AcDbLine
 10
135.075
 20
10.0
 30
0.0
 11
135.075
 21
48.09999999999999
 31
0.0
  0
LINE
  5
111
330
1F
100
AcDbEntity
  8
TITLE_BLOCK
100
AcDbLine
 10
135.075
 20
10.0
 30
0.0
 11
165.555
 21
10.0
 31
0.0
  0
LINE
  5
112
330
1F
100
AcDbEntity
  8
TITLE_BLOCK
100
AcDbLine
 10
135.075
 20
17.62
 30
0.0
 11
165.555
 21
17.62
 31
0.0
  0
LINE
  5
113
330
1F
100
AcDbEntity
  8
TITLE_BLOCK
100
AcDbLine
 10
135.075
 20
20.668
 30
0.0
 11
165.555
 21
20.668
 31
0.0
  0
LINE
  5
114
330
1F
100
AcDbEntity
  8
TITLE_BLOCK
100
AcDbLine
 10
135.075
 20
25.8496
 30
0.0
 11
165.555
 21
25.8496
 31
0.0
  0
LINE
  5
115
330
1F
100
AcDbEntity
  8
TITLE_BLOCK
100
AcDbLine
 10
135.075
 20
30.2692
 30
0.0
 11
165.555
 21
30.2692
 31
0.0
  0
LINE
  5
116
330
1F
100
AcDbEntity
  8
TITLE_BLOCK
100
AcDbLine
 10
135.075
 20
48.09999999999999
 30
0.0
 11
165.555
 21
48.09999999999999
 31
0.0
  0
MTEXT
  5
117
330
1F
100
AcDbEntity
  8
TITLE_BLOCK
100
AcDbMText
 10
135.74556
 20
47.00272
 30
0.0
 40
1.2192
 41
29.87039999999999
 71
     1
 72
     1
  1
UNLESS OTHERWISE SPECIFIED, DIMENSIONS ARE IN MILLIMETERS
  7
ONSHAPE-STANDARD
  0
MTEXT
  5
119
330
1F
100
AcDbEntity
  8
TITLE_BLOCK
100
AcDbMText
 10
150.918504
 20
42.540448
 30
0.0
 40
1.09728
 41
14.93519999999998
 71
     1
 72
     1
  1
^JANGULAR = ± °^J
  7
ONSHAPE-STANDARD
  0
MTEXT
  5
11A
330
1F
100
AcDbEntity
  8
TITLE_BLOCK
100
AcDbMText
 10
135.74556
 20
35.11552
 30
0.0
 40
1.2192
 41
14.93520000000001
 71
     1
 72
     1
  1
SURFACE FINISH
  7
ONSHAPE-STANDARD
  0
LINE
  5
11B
330
1F
100
AcDbEntity
  8
TITLE_BLOCK
100
AcDbLine
 10
148.791
 20
33.3172
 30
0.0
 11
149.553
 21
31.99737728463252
 31
0.0
  0
LINE
  5
11C
330
1F
100
AcDbEntity
  8
TITLE_BLOCK
100
AcDbLine
 10
149.553
 20
31.99737728463252
 30
0.0
 11
151.1532
 21
34.76900498690424
 31
0.0
  0
LINE
  5
11D
330
1F
100
AcDbEntity
  8
TITLE_BLOCK
100
AcDbLine
 10
151.1532
 20
34.76900498690424
 30
0.0
 11
152.8296
 21
34.76900498690424
 31
0.0
  0
MTEXT
  5
11E
102
{ACAD_XDICTIONARY
360
381
102
}
330
1F
100
AcDbEntity
  8
TITLE_BLOCK
100
AcDbMText
 10
135.3798
 20
28.842736
 30
0.0
 40
1.58496
 41
29.8704
 71
     1
 72
     1
  1
{\fNoto Sans|b0|i0|c0|p0;\W8.60252;  }SCALE 1:2
  7
ONSHAPE-STANDARD
1001
ONSHAPE_NOTES_REORDERING_D
1071
        0
1070
     0
1001
ACAD
1000
ACAD_MTEXT_DEFINED_HEIGHT_BEGIN
1070
    46
1040
1.616270517711172
1000
ACAD_MTEXT_DEFINED_HEIGHT_END
  0
MTEXT
  5
121
330
1F
100
AcDbEntity
  8
TITLE_BLOCK
100
AcDbMText
 10
150.315
 20
24.75232
 30
0.0
 40
1.2192
 41
29.87039999999999
 71
     2
 72
     1
  1
BREAK ALL SHARP EDGES AND REMOVE BURRS
  7
ONSHAPE-STANDARD
  0
CIRCLE
  5
122
330
1F
100
AcDbEntity
  8
TITLE_BLOCK
100
AcDbCircle
 10
146.886
 20
13.77952
 30
0.0
 40
1.3716
  0
CIRCLE
  5
123
330
1F
100
AcDbEntity
  8
TITLE_BLOCK
100
AcDbCircle
 10
146.886
 20
13.77952
 30
0.0
 40
2.743199999999999
  0
LINE
  5
124
330
1F
100
AcDbEntity
  8
TITLE_BLOCK
100
AcDbLine
 10
147.5718
 20
13.77952
 30
0.0
 11
146.2002
 21
13.77952
 31
0.0
  0
LINE
  5
125
330
1F
100
AcDbEntity
  8
TITLE_BLOCK
100
AcDbLine
 10
146.886
 20
14.46532
 30
0.0
 11
146.886
 21
13.09372
 31
0.0
  0
LINE
  5
126
330
1F
100
AcDbEntity
  8
TITLE_BLOCK
100
AcDbLine
 10
148.2576
 20
13.77952
 30
0.0
 11
150.315
 21
13.77952
 31
0.0
  0
LINE
  5
127
330
1F
100
AcDbEntity
  8
TITLE_BLOCK
100
AcDbLine
 10
146.886
 20
15.15112
 30
0.0
 11
146.886
 21
17.20852
 31
0.0
  0
LINE
  5
128
330
1F
100
AcDbEntity
  8
TITLE_BLOCK
100
AcDbLine
 10
145.5144
 20
13.77952
 30
0.0
 11
143.457
 21
13.77952
 31
0.0
  0
LINE
  5
129
330
1F
100
AcDbEntity
  8
TITLE_BLOCK
100
AcDbLine
 10
146.886
 20
12.40792
 30
0.0
 11
146.886
 21
10.35052
 31
0.0
  0
LINE
  5
12A
330
1F
100
AcDbEntity
  8
TITLE_BLOCK
100
AcDbLine
 10
156.4872
 20
11.03632
 30
0.0
 11
156.4872
 21
16.52272
 31
0.0
  0
LINE
  5
12B
330
1F
100
AcDbEntity
  8
TITLE_BLOCK
100
AcDbLine
 10
156.4872
 20
16.52272
 30
0.0
 11
151.0008
 21
15.15112
 31
0.0
  0
LINE
  5
12C
330
1F
100
AcDbEntity
  8
TITLE_BLOCK
100
AcDbLine
 10
151.0008
 20
15.15112
 30
0.0
 11
151.0008
 21
12.40792
 31
0.0
  0
LINE
  5
12D
330
1F
100
AcDbEntity
  8
TITLE_BLOCK
100
AcDbLine
 10
151.0008
 20
12.40792
 30
0.0
 11
156.4872
 21
11.03632
 31
0.0
  0
LINE
  5
12E
330
1F
100
AcDbEntity
  8
TITLE_BLOCK
100
AcDbLine
 10
154.4298
 20
13.77952
 30
0.0
 11
156.8301
 21
13.77952
 31
0.0
  0
LINE
  5
12F
330
1F
100
AcDbEntity
  8
TITLE_BLOCK
100
AcDbLine
 10
154.01832
 20
13.77952
 30
0.0
 11
153.46968
 21
13.77952
 31
0.0
  0
LINE
  5
130
330
1F
100
AcDbEntity
  8
TITLE_BLOCK
100
AcDbLine
 10
153.0582
 20
13.77952
 30
0.0
 11
150.6579
 21
13.77952
 31
0.0
  0
MTEXT
  5
131
330
1F
100
AcDbEntity
  8
TITLE_BLOCK
100
AcDbMText
 10
150.315
 20
19.57072
 30
0.0
 40
1.2192
 41
29.87039999999999
 71
     2
 72
     1
  1
THIRD ANGLE PROJECTION
  7
ONSHAPE-STANDARD
  0
LINE
  5
132
330
1F
100
AcDbEntity
  8
TITLE_BLOCK
100
AcDbLine
 10
165.555
 20
10.0
 30
0.0
 11
165.555
 21
48.09999999999999
 31
0.0
  0
LINE
  5
133
330
1F
100
AcDbEntity
  8
TITLE_BLOCK
100
AcDbLine
 10
178.89
 20
20.668
 30
0.0
 11
178.89
 21
48.09999999999999
 31
0.0
  0
LINE
  5
134
330
1F
100
AcDbEntity
  8
TITLE_BLOCK
100
AcDbLine
 10
194.13
 20
20.668
 30
0.0
 11
194.13
 21
48.09999999999999
 31
0.0
  0
LINE
  5
135
330
1F
100
AcDbEntity
  8
TITLE_BLOCK
100
AcDbLine
 10
192.225
 20
10.0
 30
0.0
 11
192.225
 21
20.668
 31
0.0
  0
MTEXT
  5
136
330
1F
100
AcDbEntity
  8
TITLE_BLOCK
100
AcDbMText
 10
201.75
 20
47.00272
 30
0.0
 40
1.2192
 41
14.93520000000001
 71
     2
 72
     1
  1
SIGNATURE
  7
ONSHAPE-STANDARD
  0
LINE
  5
137
330
1F
100
AcDbEntity
  8
TITLE_BLOCK
100
AcDbLine
 10
209.37
 20
20.668
 30
0.0
 11
209.37
 21
48.09999999999999
 31
0.0
  0
LINE
  5
138
330
1F
100
AcDbEntity
  8
TITLE_BLOCK
100
AcDbLine
 10
165.555
 20
48.09999999999999
 30
0.0
 11
218.895
 21
48.09999999999999
 31
0.0
  0
LINE
  5
139
330
1F
100
AcDbEntity
  8
TITLE_BLOCK
100
AcDbLine
 10
165.555
 20
43.528
 30
0.0
 11
218.895
 21
43.528
 31
0.0
  0
LINE
  5
13A
330
1F
100
AcDbEntity
  8
TITLE_BLOCK
100
AcDbLine
 10
165.555
 20
38.956
 30
0.0
 11
218.895
 21
38.956
 31
0.0
  0
LINE
  5
13B
330
1F
100
AcDbEntity
  8
TITLE_BLOCK
100
AcDbLine
 10
165.555
 20
34.384
 30
0.0
 11
218.895
 21
34.384
 31
0.0
  0
LINE
  5
13C
330
1F
100
AcDbEntity
  8
TITLE_BLOCK
100
AcDbLine
 10
165.555
 20
29.812
 30
0.0
 11
218.895
 21
29.812
 31
0.0
  0
LINE
  5
13D
330
1F
100
AcDbEntity
  8
TITLE_BLOCK
100
AcDbLine
 10
165.555
 20
25.24
 30
0.0
 11
218.895
 21
25.24
 31
0.0
  0
LINE
  5
13E
330
1F
100
AcDbEntity
  8
TITLE_BLOCK
100
AcDbLine
 10
165.555
 20
20.668
 30
0.0
 11
218.895
 21
20.668
 31
0.0
  0
MTEXT
  5
13F
330
1F
100
AcDbEntity
  8
TITLE_BLOCK
100
AcDbMText
 10
179.56056
 20
47.00272
 30
0.0
 40
1.2192
 41
14.93519999999998
 71
     1
 72
     1
  1
NAME
  7
ONSHAPE-STANDARD
  0
MTEXT
  5
140
330
1F
100
AcDbEntity
  8
TITLE_BLOCK
100
AcDbMText
 10
214.1325
 20
47.00272
 30
0.0
 40
1.2192
 41
9.334500000000006
 71
     2
 72
     1
  1
DATE
  7
ONSHAPE-STANDARD
  0
MTEXT
  5
141
330
1F
100
AcDbEntity
  8
TITLE_BLOCK
100
AcDbMText
 10
166.22556
 20
42.43072
 30
0.0
 40
1.2192
 41
13.06830000000001
 71
     1
 72
     1
  1
DRAWN
  7
ONSHAPE-STANDARD
  0
MTEXT
  5
142
102
{ACAD_XDICTIONARY
360
143
102
}
330
1F
100
AcDbEntity
  8
TITLE_BLOCK
100
AcDbMText
 10
186.51
 20
41.242
 30
0.0
 40
1.024128
 41
15.23999999999998
 71
     5
 72
     1
  1
MARCELO ALARCÓN
  7
ONSHAPE-STANDARD-FIELDS
1001
ACAD
1000
ACAD_MTEXT_DEFINED_HEIGHT_BEGIN
1070
    46
1040
4.572000000000003
1000
ACAD_MTEXT_DEFINED_HEIGHT_END
  0
MTEXT
  5
149
102
{ACAD_XDICTIONARY
360
14A
102
}
330
1F
100
AcDbEntity
  8
TITLE_BLOCK
100
AcDbMText
 10
214.1325
 20
41.242
 30
0.0
 40
1.024128
 41
9.525000000000006
 71
     5
 72
     1
  1
2026-06-08
  7
ONSHAPE-STANDARD-FIELDS
1001
ACAD
1000
ACAD_MTEXT_DEFINED_HEIGHT_BEGIN
1070
    46
1040
4.572000000000003
1000
ACAD_MTEXT_DEFINED_HEIGHT_END
  0
MTEXT
  5
14F
330
1F
100
AcDbEntity
  8
TITLE_BLOCK
100
AcDbMText
 10
166.22556
 20
37.85872
 30
0.0
 40
1.2192
 41
13.06830000000001
 71
     1
 72
     1
  1
CHECKED
  7
ONSHAPE-STANDARD
  0
MTEXT
  5
150
330
1F
100
AcDbEntity
  8
TITLE_BLOCK
100
AcDbMText
 10
186.51
 20
36.67
 30
0.0
 40
1.024128
 41
15.23999999999998
 71
     5
 72
     1
  1
 
  7
ONSHAPE-STANDARD-FIELDS
1001
ACAD
1000
ACAD_MTEXT_DEFINED_HEIGHT_BEGIN
1070
    46
1040
4.571999999999996
1000
ACAD_MTEXT_DEFINED_HEIGHT_END
  0
MTEXT
  5
151
330
1F
100
AcDbEntity
  8
TITLE_BLOCK
100
AcDbMText
 10
214.1325
 20
36.67
 30
0.0
 40
1.024128
 41
9.525000000000006
 71
     5
 72
     1
  1
 
  7
ONSHAPE-STANDARD-FIELDS
1001
ACAD
1000
ACAD_MTEXT_DEFINED_HEIGHT_BEGIN
1070
    46
1040
4.571999999999996
1000
ACAD_MTEXT_DEFINED_HEIGHT_END
  0
MTEXT
  5
152
330
1F
100
AcDbEntity
  8
TITLE_BLOCK
100
AcDbMText
 10
166.22556
 20
33.28672
 30
0.0
 40
1.2192
 41
13.06830000000001
 71
     1
 72
     1
  1
APPROVED
  7
ONSHAPE-STANDARD
  0
MTEXT
  5
153
102
{ACAD_XDICTIONARY
360
154
102
}
330
1F
100
AcDbEntity
  8
TITLE_BLOCK
100
AcDbMText
 10
186.51
 20
32.098
 30
0.0
 40
1.024128
 41
15.23999999999998
 71
     5
 72
     1
  1
----
  7
ONSHAPE-STANDARD-FIELDS
1001
ACAD
1000
ACAD_MTEXT_DEFINED_HEIGHT_BEGIN
1070
    46
1040
4.572000000000003
1000
ACAD_MTEXT_DEFINED_HEIGHT_END
  0
MTEXT
  5
159
102
{ACAD_XDICTIONARY
360
15A
102
}
330
1F
100
AcDbEntity
  8
TITLE_BLOCK
100
AcDbMText
 10
214.1325
 20
32.098
 30
0.0
 40
1.024128
 41
9.525000000000006
 71
     5
 72
     1
  1
----
  7
ONSHAPE-STANDARD-FIELDS
1001
ACAD
1000
ACAD_MTEXT_DEFINED_HEIGHT_BEGIN
1070
    46
1040
4.572000000000003
1000
ACAD_MTEXT_DEFINED_HEIGHT_END
  0
MTEXT
  5
15F
330
1F
100
AcDbEntity
  8
TITLE_BLOCK
100
AcDbMText
 10
172.2225
 20
27.526
 30
0.0
 40
1.8288
 41
13.33500000000001
 71
     5
 72
     1
  1
 
  7
ONSHAPE-STANDARD-FIELDS
1001
ACAD
1000
ACAD_MTEXT_DEFINED_HEIGHT_BEGIN
1070
    46
1040
4.571999999999999
1000
ACAD_MTEXT_DEFINED_HEIGHT_END
  0
MTEXT
  5
160
330
1F
100
AcDbEntity
  8
TITLE_BLOCK
100
AcDbMText
 10
186.51
 20
27.526
 30
0.0
 40
1.024128
 41
15.23999999999998
 71
     5
 72
     1
  1
 
  7
ONSHAPE-STANDARD-FIELDS
1001
ACAD
1000
ACAD_MTEXT_DEFINED_HEIGHT_BEGIN
1070
    46
1040
4.571999999999999
1000
ACAD_MTEXT_DEFINED_HEIGHT_END
  0
MTEXT
  5
161
330
1F
100
AcDbEntity
  8
TITLE_BLOCK
100
AcDbMText
 10
214.1325
 20
27.526
 30
0.0
 40
1.024128
 41
9.525000000000006
 71
     5
 72
     1
  1
 
  7
ONSHAPE-STANDARD-FIELDS
1001
ACAD
1000
ACAD_MTEXT_DEFINED_HEIGHT_BEGIN
1070
    46
1040
4.571999999999999
1000
ACAD_MTEXT_DEFINED_HEIGHT_END
  0
MTEXT
  5
162
330
1F
100
AcDbEntity
  8
TITLE_BLOCK
100
AcDbMText
 10
172.2225
 20
22.954
 30
0.0
 40
1.8288
 41
13.33500000000001
 71
     5
 72
     1
  1
 
  7
ONSHAPE-STANDARD-FIELDS
1001
ACAD
1000
ACAD_MTEXT_DEFINED_HEIGHT_BEGIN
1070
    46
1040
4.571999999999999
1000
ACAD_MTEXT_DEFINED_HEIGHT_END
  0
MTEXT
  5
163
330
1F
100
AcDbEntity
  8
TITLE_BLOCK
100
AcDbMText
 10
186.51
 20
22.954
 30
0.0
 40
1.024128
 41
15.23999999999998
 71
     5
 72
     1
  1
 
  7
ONSHAPE-STANDARD-FIELDS
1001
ACAD
1000
ACAD_MTEXT_DEFINED_HEIGHT_BEGIN
1070
    46
1040
4.571999999999999
1000
ACAD_MTEXT_DEFINED_HEIGHT_END
  0
MTEXT
  5
164
330
1F
100
AcDbEntity
  8
TITLE_BLOCK
100
AcDbMText
 10
214.1325
 20
22.954
 30
0.0
 40
1.024128
 41
9.525000000000006
 71
     5
 72
     1
  1
 
  7
ONSHAPE-STANDARD-FIELDS
1001
ACAD
1000
ACAD_MTEXT_DEFINED_HEIGHT_BEGIN
1070
    46
1040
4.571999999999999
1000
ACAD_MTEXT_DEFINED_HEIGHT_END
  0
MTEXT
  5
165
330
1F
100
AcDbEntity
  8
TITLE_BLOCK
100
AcDbMText
 10
166.22556
 20
19.57072
 30
0.0
 40
1.2192
 41
26.13660000000002
 71
     1
 72
     1
  1
MATERIAL
  7
ONSHAPE-STANDARD
  0
MTEXT
  5
166
102
{ACAD_XDICTIONARY
360
383
102
}
330
1F
100
AcDbEntity
  8
TITLE_BLOCK
100
AcDbMText
 10
178.89
 20
15.334
 30
0.0
 40
1.8288
 41
26.67000000000002
 71
     5
 72
     1
  1
  Acrilico negro
  7
ONSHAPE-STANDARD-FIELDS
1001
ONSHAPE_NOTES_REORDERING_D
1071
        0
1070
     0
1001
ACAD
1000
ACAD_MTEXT_DEFINED_HEIGHT_BEGIN
1070
    46
1040
1.85371553133515
1000
ACAD_MTEXT_DEFINED_HEIGHT_END
  0
MTEXT
  5
167
330
1F
100
AcDbEntity
  8
TITLE_BLOCK
100
AcDbMText
 10
192.89556
 20
19.57072
 30
0.0
 40
1.2192
 41
26.13659999999999
 71
     1
 72
     1
  1
FINISH
  7
ONSHAPE-STANDARD
  0
MTEXT
  5
168
330
1F
100
AcDbEntity
  8
TITLE_BLOCK
100
AcDbMText
 10
205.56
 20
15.334
 30
0.0
 40
1.8288
 41
26.66999999999999
 71
     5
 72
     1
  1
 
  7
ONSHAPE-STANDARD-FIELDS
1001
ACAD
1000
ACAD_MTEXT_DEFINED_HEIGHT_BEGIN
1070
    46
1040
10.668
1000
ACAD_MTEXT_DEFINED_HEIGHT_END
  0
LINE
  5
169
330
1F
100
AcDbEntity
  8
TITLE_BLOCK
100
AcDbLine
 10
218.895
 20
10.0
 30
0.0
 11
218.895
 21
48.09999999999999
 31
0.0
  0
LINE
  5
16A
330
1F
100
AcDbEntity
  8
TITLE_BLOCK
100
AcDbLine
 10
228.42
 20
14.953
 30
0.0
 11
228.42
 21
22.573
 31
0.0
  0
LINE
  5
16B
330
1F
100
AcDbEntity
  8
TITLE_BLOCK
100
AcDbLine
 10
235.659
 20
10.0
 30
0.0
 11
235.659
 21
14.953
 31
0.0
  0
LINE
  5
16C
330
1F
100
AcDbEntity
  8
TITLE_BLOCK
100
AcDbLine
 10
270.33
 20
10.0
 30
0.0
 11
270.33
 21
14.953
 31
0.0
  0
LINE
  5
16D
330
1F
100
AcDbEntity
  8
TITLE_BLOCK
100
AcDbLine
 10
289.38
 20
14.953
 30
0.0
 11
289.38
 21
22.573
 31
0.0
  0
LINE
  5
16E
330
1F
100
AcDbEntity
  8
TITLE_BLOCK
100
AcDbLine
 10
218.895
 20
14.953
 30
0.0
 11
297.0
 21
14.953
 31
0.0
  0
LINE
  5
16F
330
1F
100
AcDbEntity
  8
TITLE_BLOCK
100
AcDbLine
 10
218.895
 20
22.573
 30
0.0
 11
297.0
 21
22.573
 31
0.0
  0
LINE
  5
170
330
1F
100
AcDbEntity
  8
TITLE_BLOCK
100
AcDbLine
 10
218.895
 20
38.575
 30
0.0
 11
297.0
 21
38.575
 31
0.0
  0
LINE
  5
171
330
1F
100
AcDbEntity
  8
TITLE_BLOCK
100
AcDbLine
 10
218.895
 20
48.09999999999999
 30
0.0
 11
297.0
 21
48.09999999999999
 31
0.0
  0
MTEXT
  5
172
330
1F
100
AcDbEntity
  8
TITLE_BLOCK
100
AcDbMText
 10
219.56556
 20
37.47772
 30
0.0
 40
1.2192
 41
9.334500000000006
 71
     1
 72
     1
  1
TITLE
  7
ONSHAPE-STANDARD
  0
MTEXT
  5
173
102
{ACAD_XDICTIONARY
360
174
102
}
330
1F
100
AcDbEntity
  8
TITLE_BLOCK
100
AcDbMText
 10
257.9475
 20
35.52699999999999
 30
0.0
 40
2.92608
 41
70.48499999999999
 71
     5
 72
     1
  1
----
  7
ONSHAPE-STANDARD-FIELDS
1001
ACAD
1000
ACAD_MTEXT_DEFINED_HEIGHT_BEGIN
1070
    46
1040
4.800599999999998
1000
ACAD_MTEXT_DEFINED_HEIGHT_END
  0
MTEXT
  5
179
102
{ACAD_XDICTIONARY
360
17A
102
}
330
1F
100
AcDbEntity
  8
TITLE_BLOCK
100
AcDbMText
 10
257.9475
 20
30.7264
 30
0.0
 40
2.92608
 41
70.48500000000001
 71
     5
 72
     1
  1
Fondo caja
  7
ONSHAPE-STANDARD-FIELDS
1001
ONSHAPE_NOTES_REORDERING_D
1071
        0
1070
     0
1001
ACAD
1000
ACAD_MTEXT_DEFINED_HEIGHT_BEGIN
1070
    46
1040
2.96594485013624
1000
ACAD_MTEXT_DEFINED_HEIGHT_END
  0
MTEXT
  5
17B
102
{ACAD_XDICTIONARY
360
17C
102
}
330
1F
100
AcDbEntity
  8
TITLE_BLOCK
100
AcDbMText
 10
257.9475
 20
25.9258
 30
0.0
 40
2.92608
 41
70.48499999999999
 71
     5
 72
     1
  1
----
  7
ONSHAPE-STANDARD-FIELDS
1001
ACAD
1000
ACAD_MTEXT_DEFINED_HEIGHT_BEGIN
1070
    46
1040
4.800599999999998
1000
ACAD_MTEXT_DEFINED_HEIGHT_END
  0
MTEXT
  5
181
330
1F
100
AcDbEntity
  8
TITLE_BLOCK
100
AcDbMText
 10
219.431448
 20
21.695176
 30
0.0
 40
0.9753599999999999
 41
9.334500000000006
 71
     1
 72
     1
  1
SIZE
  7
ONSHAPE-STANDARD
  0
MTEXT
  5
182
102
{ACAD_XDICTIONARY
360
183
102
}
330
1F
100
AcDbEntity
  8
TITLE_BLOCK
100
AcDbMText
 10
223.6575
 20
18.763
 30
0.0
 40
3.6576
 41
9.525000000000006
 71
     5
 72
     1
  1
A4
  7
ONSHAPE-STANDARD-FIELDS
1001
ACAD
1000
ACAD_MTEXT_DEFINED_HEIGHT_BEGIN
1070
    46
1040
7.620000000000001
1000
ACAD_MTEXT_DEFINED_HEIGHT_END
  0
MTEXT
  5
188
330
1F
100
AcDbEntity
  8
TITLE_BLOCK
100
AcDbMText
 10
228.956448
 20
21.695176
 30
0.0
 40
0.9753599999999999
 41
59.74079999999998
 71
     1
 72
     1
  1
DWG NO.
  7
ONSHAPE-STANDARD
  0
MTEXT
  5
189
102
{ACAD_XDICTIONARY
360
18A
102
}
330
1F
100
AcDbEntity
  8
TITLE_BLOCK
100
AcDbMText
 10
258.9
 20
18.763
 30
0.0
 40
3.6576
 41
60.95999999999998
 71
     5
 72
     1
  1
----
  7
ONSHAPE-STANDARD-FIELDS
1001
ACAD
1000
ACAD_MTEXT_DEFINED_HEIGHT_BEGIN
1070
    46
1040
7.620000000000001
1000
ACAD_MTEXT_DEFINED_HEIGHT_END
  0
MTEXT
  5
18F
330
1F
100
AcDbEntity
  8
TITLE_BLOCK
100
AcDbMText
 10
289.916448
 20
21.695176
 30
0.0
 40
0.9753599999999999
 41
7.467600000000004
 71
     1
 72
     1
  1
REV.
  7
ONSHAPE-STANDARD
  0
MTEXT
  5
190
102
{ACAD_XDICTIONARY
360
191
102
}
330
1F
100
AcDbEntity
  8
TITLE_BLOCK
100
AcDbMText
 10
293.571
 20
18.763
 30
0.0
 40
3.6576
 41
6.858000000000004
 71
     5
 72
     1
  1
-
  7
ONSHAPE-STANDARD-FIELDS
1001
ACAD
1000
ACAD_MTEXT_DEFINED_HEIGHT_BEGIN
1070
    46
1040
7.620000000000001
1000
ACAD_MTEXT_DEFINED_HEIGHT_END
  0
MTEXT
  5
196
330
1F
100
AcDbEntity
  8
TITLE_BLOCK
100
AcDbMText
 10
219.431448
 20
14.075176
 30
0.0
 40
0.9753599999999999
 41
16.42871999999998
 71
     1
 72
     1
  1
SCALE
  7
ONSHAPE-STANDARD
  0
MTEXT
  5
197
102
{ACAD_XDICTIONARY
360
198
102
}
330
1F
100
AcDbEntity
  8
TITLE_BLOCK
100
AcDbMText
 10
228.039
 20
12.4765
 30
0.0
 40
2.19456
 41
15.23999999999998
 71
     5
 72
     1
  1
1:2
  7
ONSHAPE-STANDARD-FIELDS
1001
ACAD
1000
ACAD_MTEXT_DEFINED_HEIGHT_BEGIN
1070
    46
1040
4.952999999999999
1000
ACAD_MTEXT_DEFINED_HEIGHT_END
  0
MTEXT
  5
19D
330
1F
100
AcDbEntity
  8
TITLE_BLOCK
100
AcDbMText
 10
236.195448
 20
14.075176
 30
0.0
 40
0.9753599999999999
 41
33.97757999999999
 71
     1
 72
     1
  1
WEIGHT
  7
ONSHAPE-STANDARD
  0
MTEXT
  5
19E
330
1F
100
AcDbEntity
  8
TITLE_BLOCK
100
AcDbMText
 10
252.9945
 20
12.4765
 30
0.0
 40
2.19456
 41
34.67099999999999
 71
     5
 72
     1
  1
 
  7
ONSHAPE-STANDARD-FIELDS
1001
ACAD
1000
ACAD_MTEXT_DEFINED_HEIGHT_BEGIN
1070
    46
1040
4.952999999999999
1000
ACAD_MTEXT_DEFINED_HEIGHT_END
  0
MTEXT
  5
19F
330
1F
100
AcDbEntity
  8
TITLE_BLOCK
100
AcDbMText
 10
270.866448
 20
14.075176
 30
0.0
 40
0.9753599999999999
 41
26.13660000000002
 71
     1
 72
     1
  1
SHEET
  7
ONSHAPE-STANDARD
  0
MTEXT
  5
1A0
102
{ACAD_XDICTIONARY
360
1A1
102
}
330
1F
100
AcDbEntity
  8
TITLE_BLOCK
100
AcDbMText
 10
284.427
 20
12.4765
 30
0.0
 40
2.19456
 41
25.14600000000002
 71
     5
 72
     1
  1
1 of 1
  7
ONSHAPE-STANDARD-FIELDS
1001
ACAD
1000
ACAD_MTEXT_DEFINED_HEIGHT_BEGIN
1070
    46
1040
4.952999999999999
1000
ACAD_MTEXT_DEFINED_HEIGHT_END
  0
MTEXT
  5
1A6
102
{ACAD_XDICTIONARY
360
1A7
102
}
330
1F
100
AcDbEntity
  8
ANNOTATION_TEXT
 62
     7
100
AcDbMText
 10
82.80160732135334
 20
110.5707900309657
 30
0.0
 40
3.5
 41
0.0
 71
     2
 72
     1
  1
 1:3
  7
ONSHAPE-STANDARD-VIEW-LABE
1001
ACAD
1000
ACAD_MTEXT_DEFINED_HEIGHT_BEGIN
1070
    46
1040
3.5
1000
ACAD_MTEXT_DEFINED_HEIGHT_END
  0
DIMENSION
  5
1B7
102
{ACAD_REACTORS
330
230
102
}
102
{ACAD_XDICTIONARY
360
1B8
102
}
330
1F
100
AcDbEntity
  8
ANNOTATION_TEXT
100
AcDbDimension
  2
*D2
 10
125.1349406546867
 20
94.61052055849908
 30
0.0000000000000004
 11
92.84202862244874
 21
94.61052055849908
 31
0.0000000000000004
 70
   161
  3
ONSHAPE-ISO-25$0
100
AcDbAlignedDimension
 13
40.46827398802
 23
116.554123364299
 33
0.0000000000000004
 14
125.1349406546867
 24
116.554123364299
 34
0.0000000000000004
1001
ACAD
1000
DSTYLE
1002
{
1070
    40
1040
1.0
1070
     4
1000
[]
1070
   144
1040
3.0
1070
     3
1000

1070
   288
1070
     1
1002
}
1001
ACAD_DIMASSOC_CALC_DIMLFAC
1040
-3.0
1001
ACAD_DIMASSOC_DIMLFAC
1040
-3.0
1001
ACAD_DIMASSOC_OVERRIDDEN_D
1040
0.0
  0
DIMENSION
  5
1D9
102
{ACAD_REACTORS
102
}
102
{ACAD_XDICTIONARY
360
1DA
102
}
330
1F
100
AcDbEntity
  8
ANNOTATION_TEXT
100
AcDbDimension
  2
*D3
 10
135.7945583979363
 20
116.554123364299
 30
0.0000000000000004
 11
135.7945583979363
 21
139.6682982614465
 31
0.0000000000000004
 70
   161
  3
ONSHAPE-ISO-25$0
100
AcDbAlignedDimension
 13
125.1349406546867
 23
179.554123364299
 33
0.0000000000000004
 14
125.1349406546867
 24
116.554123364299
 34
0.0000000000000004
1001
ACAD
1000
DSTYLE
1002
{
1070
    40
1040
1.0
1070
     4
1000
[]
1070
   144
1040
3.0
1070
     3
1000

1070
   288
1070
     1
1002
}
1001
ACAD_DIMASSOC_CALC_DIMLFAC
1040
-3.0
1001
ACAD_DIMASSOC_DIMLFAC
1040
-3.0
1001
ACAD_DIMASSOC_OVERRIDDEN_D
1040
0.0
  0
MTEXT
  5
1FB
102
{ACAD_XDICTIONARY
360
1FC
102
}
330
1F
100
AcDbEntity
  8
ANNOTATION_TEXT
 62
     7
 60
     1
100
AcDbMText
 10
246.3144421780691
 20
54.78970879194937
 30
0.0
 40
3.5
 41
0.0
 71
     2
 72
     1
  1

  7
ONSHAPE-STANDARD-VIEW-LABE
1001
ACAD
1000
ACAD_MTEXT_DEFINED_HEIGHT_BEGIN
1070
    46
1040
3.5
1000
ACAD_MTEXT_DEFINED_HEIGHT_END
  0
MTEXT
  5
202
102
{ACAD_XDICTIONARY
360
203
102
}
330
1F
100
AcDbEntity
  8
ANNOTATION_TEXT
 62
     7
 60
     1
100
AcDbMText
 10
220.0094404350811
 20
167.8233202678445
 30
0.0
 40
3.5
 41
0.0
 71
     2
 72
     1
  1

  7
ONSHAPE-STANDARD-VIEW-LABE
1001
ACAD
1000
ACAD_MTEXT_DEFINED_HEIGHT_BEGIN
1070
    46
1040
3.5
1000
ACAD_MTEXT_DEFINED_HEIGHT_END
  0
DIMENSION
  5
206
102
{ACAD_REACTORS
102
}
102
{ACAD_XDICTIONARY
360
207
102
}
330
1F
100
AcDbEntity
  8
ANNOTATION_TEXT
100
AcDbDimension
  2
*D4
 10
161.9181290117096
 20
177.1399869345112
 30
0.0
 11
161.9181290117096
 21
185.5355364349653
 31
0.0
 70
   161
  3
ONSHAPE-ISO-25$0
100
AcDbAlignedDimension
 13
177.6761071017478
 23
178.8066536011778
 33
0.0
 14
177.6761071017478
 24
177.1399869345112
 34
0.0
1001
ACAD
1000
DSTYLE
1002
{
1070
    40
1040
1.0
1070
     4
1000
[]
1070
   144
1040
3.0
1070
     3
1000

1070
   288
1070
     1
1002
}
1001
ACAD_DIMASSOC_CALC_DIMLFAC
1040
-3.0
1001
ACAD_DIMASSOC_DIMLFAC
1040
-3.0
1001
ACAD_DIMASSOC_OVERRIDDEN_D
1040
0.0
  0
DIMENSION
  5
22B
102
{ACAD_REACTORS
102
}
102
{ACAD_XDICTIONARY
360
22C
102
}
330
1F
100
AcDbEntity
  8
ANNOTATION_TEXT
100
AcDbDimension
  2
*D5
 10
40.46827398802
 20
104.0922716627635
 30
0.0
 11
54.12538896487119
 21
104.0922716627635
 31
0.0
 70
   160
  3
ONSHAPE-ISO-25$0
100
AcDbAlignedDimension
 13
66.13494065468667
 23
164.6874566976323
 33
-0.0000000000000004
 14
40.46827398802
 24
116.554123364299
 34
0.0000000000000004
100
AcDbRotatedDimension
1001
ACAD
1000
DSTYLE
1002
{
1070
    40
1040
1.0
1070
     4
1000
[]
1070
   144
1040
3.0
1070
     3
1000

1070
   288
1070
     1
1002
}
1001
ACAD_DIMASSOC_CALC_DIMLFAC
1040
-3.0
1001
ACAD_DIMASSOC_DIMLFAC
1040
-3.0
1001
ACAD_DIMASSOC_OVERRIDDEN_D
1040
0.0
  0
DIMENSION
  5
24D
102
{ACAD_REACTORS
102
}
102
{ACAD_XDICTIONARY
360
24E
102
}
330
1F
100
AcDbEntity
  8
ANNOTATION_TEXT
100
AcDbDimension
  2
*D6
 10
27.9181575161697
 20
179.554123364299
 30
0.0
 11
27.9181575161697
 21
191.4633647229225
 31
0.0
 70
   160
  3
ONSHAPE-ISO-25$0
100
AcDbAlignedDimension
 13
66.13494065468667
 23
168.054123364299
 33
-0.0000000000000004
 14
40.46827398802002
 24
179.554123364299
 34
0.0000000000000004
 50
90.0
100
AcDbRotatedDimension
1001
ACAD
1000
DSTYLE
1002
{
1070
    40
1040
1.0
1070
     4
1000
[]
1070
   144
1040
3.0
1070
     3
1000

1070
   288
1070
     1
1002
}
1001
ACAD_DIMASSOC_CALC_DIMLFAC
1040
-3.0
1001
ACAD_DIMASSOC_DIMLFAC
1040
-3.0
1001
ACAD_DIMASSOC_OVERRIDDEN_D
1040
0.0
  0
DIMENSION
  5
270
102
{ACAD_REACTORS
102
}
102
{ACAD_XDICTIONARY
360
271
102
}
330
1F
100
AcDbEntity
  8
ANNOTATION_TEXT
100
AcDbDimension
  2
*D7
 10
262.3427737684144
 20
194.1387680195709
 30
0.0
 11
209.1136374867779
 21
194.1387680195709
 31
0.0
 70
   161
  3
ONSHAPE-ISO-25$0
100
AcDbAlignedDimension
 13
177.6761071017478
 23
178.8066536011778
 33
0.0
 14
262.3427737684144
 24
178.8066536011778
 34
0.0
1001
ACAD
1000
DSTYLE
1002
{
1070
    40
1040
1.0
1070
     4
1000
[]
1070
   144
1040
3.0
1070
     3
1000

1070
   288
1070
     1
1002
}
1001
ACAD_DIMASSOC_CALC_DIMLFAC
1040
-3.0
1001
ACAD_DIMASSOC_DIMLFAC
1040
-3.0
1001
ACAD_DIMASSOC_OVERRIDDEN_D
1040
0.0
  0
MTEXT
  5
299
330
1F
100
AcDbEntity
  8
SKETCHED_GEOMETRY
 62
     7
100
AcDbMText
 10
74.92925774504111
 20
168.3554998476695
 30
0.0
 40
3.5
 41
3.12091280653951
 71
     1
 72
     1
  1
\fNoto Sans|b0|i0|c0|p0;\W1.0000000000;\T1.0000000000;\o\lA
  7
ONSHAPE-STANDARD
  0
ARC
  5
29A
330
1F
100
AcDbEntity
  8
DETAIL_VIEW_PARENT_BORDER
  6
ONS_PHANTOM
 62
     7
100
AcDbCircle
 10
68.50736615246979
 20
166.6054998476695
 30
0.0
 40
7.979963799655799
100
AcDbArc
 50
37.15487507413301
 51
322.845124925867
  0
POLYLINE
  5
29B
330
1F
100
AcDbEntity
  8
SKETCHED_GEOMETRY
  6
CONTINUOUS
 62
     7
100
AcDb2dPolyline
 66
     1
 10
0.0
 20
0.0
 30
0.0
 70
     1
  0
VERTEX
  5
29C
330
29B
100
AcDbEntity
  8
SKETCHED_GEOMETRY
  6
CONTINUOUS
 62
     7
100
AcDbVertex
100
AcDb2dVertex
 10
76.04322690249806
 20
169.2304998476695
 30
0.0
  0
VERTEX
  5
29D
330
29B
100
AcDbEntity
  8
SKETCHED_GEOMETRY
  6
CONTINUOUS
 62
     7
100
AcDbVertex
100
AcDb2dVertex
 10
75.22990049124122
 20
171.6309396531767
 30
0.0
  0
VERTEX
  5
29E
330
29B
100
AcDbEntity
  8
SKETCHED_GEOMETRY
  6
CONTINUOUS
 62
     7
100
AcDbVertex
100
AcDb2dVertex
 10
76.04322690249806
 20
169.2304998476695
 30
0.0
  0
VERTEX
  5
29F
330
29B
100
AcDbEntity
  8
SKETCHED_GEOMETRY
  6
CONTINUOUS
 62
     7
100
AcDbVertex
100
AcDb2dVertex
 10
74.86744390555562
 20
171.4251713321713
 30
0.0
  0
VERTEX
  5
2A0
330
29B
100
AcDbEntity
  8
SKETCHED_GEOMETRY
  6
CONTINUOUS
 62
     7
100
AcDbVertex
100
AcDb2dVertex
 10
76.04322690249806
 20
169.2304998476695
 30
0.0
  0
VERTEX
  5
2A1
330
29B
100
AcDbEntity
  8
SKETCHED_GEOMETRY
  6
CONTINUOUS
 62
     7
100
AcDbVertex
100
AcDb2dVertex
 10
74.49534306303657
 20
171.2374046113903
 30
0.0
  0
SEQEND
  5
2A2
330
29B
100
AcDbEntity
  8
SKETCHED_GEOMETRY
  6
CONTINUOUS
 62
     7
  0
POLYLINE
  5
2A3
330
1F
100
AcDbEntity
  8
SKETCHED_GEOMETRY
  6
CONTINUOUS
 62
     7
100
AcDb2dPolyline
 66
     1
 10
0.0
 20
0.0
 30
0.0
 70
     1
  0
VERTEX
  5
2A4
330
2A3
100
AcDbEntity
  8
SKETCHED_GEOMETRY
  6
CONTINUOUS
 62
     7
100
AcDbVertex
100
AcDb2dVertex
 10
76.04322690249806
 20
163.9804998476695
 30
0.0
  0
VERTEX
  5
2A5
330
2A3
100
AcDbEntity
  8
SKETCHED_GEOMETRY
  6
CONTINUOUS
 62
     7
100
AcDbVertex
100
AcDb2dVertex
 10
74.49534306303657
 20
161.9735950839488
 30
0.0
  0
VERTEX
  5
2A6
330
2A3
100
AcDbEntity
  8
SKETCHED_GEOMETRY
  6
CONTINUOUS
 62
     7
100
AcDbVertex
100
AcDb2dVertex
 10
76.04322690249806
 20
163.9804998476695
 30
0.0
  0
VERTEX
  5
2A7
330
2A3
100
AcDbEntity
  8
SKETCHED_GEOMETRY
  6
CONTINUOUS
 62
     7
100
AcDbVertex
100
AcDb2dVertex
 10
74.86744390555562
 20
161.7858283631678
 30
0.0
  0
VERTEX
  5
2A8
330
2A3
100
AcDbEntity
  8
SKETCHED_GEOMETRY
  6
CONTINUOUS
 62
     7
100
AcDbVertex
100
AcDb2dVertex
 10
76.04322690249806
 20
163.9804998476695
 30
0.0
  0
VERTEX
  5
2A9
330
2A3
100
AcDbEntity
  8
SKETCHED_GEOMETRY
  6
CONTINUOUS
 62
     7
100
AcDbVertex
100
AcDb2dVertex
 10
75.22990049124122
 20
161.5800600421624
 30
0.0
  0
SEQEND
  5
2AA
330
2A3
100
AcDbEntity
  8
SKETCHED_GEOMETRY
  6
CONTINUOUS
 62
     7
  0
MTEXT
  5
2AB
102
{ACAD_XDICTIONARY
360
2AC
102
}
330
1F
100
AcDbEntity
  8
ANNOTATION_TEXT
 62
     7
100
AcDbMText
 10
181.7561167379317
 20
117.6439763307772
 30
0.0
 40
3.5
 41
0.0
 71
     2
 72
     1
  1
 A ^J 2:3
  7
ONSHAPE-STANDARD-VIEW-LABE
1001
ACAD
1000
ACAD_MTEXT_DEFINED_HEIGHT_BEGIN
1070
    46
1040
3.5
1000
ACAD_MTEXT_DEFINED_HEIGHT_END
  0
DIMENSION
  5
2B2
102
{ACAD_REACTORS
102
}
102
{ACAD_XDICTIONARY
360
2B3
102
}
330
1F
100
AcDbEntity
  8
ANNOTATION_TEXT
100
AcDbDimension
  2
*D8
 10
177.0112657423655
 20
163.3215456674473
 30
0.0000000000000009
 11
196.4118058266979
 21
163.3215456674473
 31
0.0000000000000009
 70
   161
  3
ONSHAPE-ISO-25$0
100
AcDbAlignedDimension
 13
187.0779324090322
 23
139.8471437232789
 33
0.0000000000000009
 14
177.0112657423655
 24
139.8471437232789
 34
-0.0000000000000009
1001
ACAD
1000
DSTYLE
1002
{
1070
    40
1040
1.0
1070
     4
1000
[]
1070
   144
1040
1.5
1070
     3
1000

1070
   288
1070
     1
1002
}
1001
ACAD_DIMASSOC_CALC_DIMLFAC
1040
-1.5
1001
ACAD_DIMASSOC_DIMLFAC
1040
-1.5
1001
ACAD_DIMASSOC_OVERRIDDEN_D
1040
0.0
  0
DIMENSION
  5
2D5
102
{ACAD_REACTORS
102
}
102
{ACAD_XDICTIONARY
360
2D6
102
}
330
1F
100
AcDbEntity
  8
ANNOTATION_TEXT
100
AcDbDimension
  2
*D9
 10
161.9181290117096
 20
133.1138103899456
 30
0.0000000000000009
 11
161.9181290117096
 21
125.8927613436241
 31
0.0000000000000009
 70
   161
  3
ONSHAPE-ISO-25$0
100
AcDbAlignedDimension
 13
187.0779324090322
 23
139.8471437232789
 33
0.0000000000000009
 14
187.0779324090322
 24
133.1138103899456
 34
-0.0000000000000009
1001
ACAD
1000
DSTYLE
1002
{
1070
    40
1040
1.0
1070
     4
1000
[]
1070
   144
1040
1.5
1070
     3
1000

1070
   288
1070
     1
1002
}
1001
ACAD_DIMASSOC_CALC_DIMLFAC
1040
-1.5
1001
ACAD_DIMASSOC_DIMLFAC
1040
-1.5
1001
ACAD_DIMASSOC_OVERRIDDEN_D
1040
0.0
  0
ENDSEC
  0
SECTION
  2
OBJECTS
  0
DICTIONARY
  5
C
330
0
100
AcDbDictionary
  3
ACAD_FIELDLIST
350
1AC
  3
ACAD_GROUP
350
D
  3
ACAD_LAYOUT
350
1A
  3
ACAD_MATERIAL
350
43
  3
ACAD_MLEADERSTYLE
350
6B
  3
ACAD_MLINESTYLE
350
17
  3
ACAD_PLOTSETTINGS
350
19
  3
ACAD_SCALELIST
350
47
  3
ACAD_VISUALSTYLE
350
2A
  3
ACDB_RECOMPOSE_DATA
350
391
  3
ACDBHEADERROUNDTRIPXREC
350
359
  3
ACDBVARIABLEDICTIONARY
350
6E
  3
DWGPROPS
350
380
  3
ONSHAPE_DATA
350
1AD
  0
DICTIONARY
  5
386
330
8
100
AcDbDictionary
280
     1
  3
ACAD_XREC_ROUNDTRIP
360
387
  0
DICTIONARY
  5
381
330
11E
100
AcDbDictionary
280
     1
  3
ACAD_MTEXT_RT
360
382
  0
DICTIONARY
  5
143
330
142
100
AcDbDictionary
280
     1
  0
DICTIONARY
  5
14A
330
149
100
AcDbDictionary
280
     1
  0
DICTIONARY
  5
154
330
153
100
AcDbDictionary
280
     1
  0
DICTIONARY
  5
15A
330
159
100
AcDbDictionary
280
     1
  0
DICTIONARY
  5
383
330
166
100
AcDbDictionary
280
     1
  3
ACAD_MTEXT_RT
360
384
  0
DICTIONARY
  5
174
330
173
100
AcDbDictionary
280
     1
  0
DICTIONARY
  5
17A
330
179
100
AcDbDictionary
280
     1
  3
ACAD_MTEXT_RT
360
385
  0
DICTIONARY
  5
17C
330
17B
100
AcDbDictionary
280
     1
  0
DICTIONARY
  5
183
330
182
100
AcDbDictionary
280
     1
  0
DICTIONARY
  5
18A
330
189
100
AcDbDictionary
280
     1
  0
DICTIONARY
  5
191
330
190
100
AcDbDictionary
280
     1
  0
DICTIONARY
  5
198
330
197
100
AcDbDictionary
280
     1
  0
DICTIONARY
  5
1A1
330
1A0
100
AcDbDictionary
280
     1
  0
DICTIONARY
  5
1A7
330
1A6
100
AcDbDictionary
280
     1
  3
ONSHAPE_VIEW_ID
360
1A8
  0
DICTIONARY
  5
1B8
330
1B7
100
AcDbDictionary
280
     1
  3
ACAD_BREAKDATA
360
1BC
  3
OS_DIM_DISPLAY_FLAG_DATA
360
1B9
  0
DICTIONARY
  5
1DA
330
1D9
100
AcDbDictionary
280
     1
  3
ACAD_BREAKDATA
360
1DE
  3
OS_DIM_DISPLAY_FLAG_DATA
360
1DB
  0
DICTIONARY
  5
1FC
330
1FB
100
AcDbDictionary
280
     1
  3
ONSHAPE_VIEW_ID
360
1FD
  0
DICTIONARY
  5
203
330
202
100
AcDbDictionary
280
     1
  3
ONSHAPE_VIEW_ID
360
204
  0
DICTIONARY
  5
207
330
206
100
AcDbDictionary
280
     1
  3
ACAD_BREAKDATA
360
20B
  3
OS_DIM_DISPLAY_FLAG_DATA
360
208
  0
DICTIONARY
  5
22C
330
22B
100
AcDbDictionary
280
     1
  3
ACAD_BREAKDATA
360
230
  3
OS_DIM_DISPLAY_FLAG_DATA
360
22D
  0
DICTIONARY
  5
24E
330
24D
100
AcDbDictionary
280
     1
  3
ACAD_BREAKDATA
360
252
  3
OS_DIM_DISPLAY_FLAG_DATA
360
24F
  0
DICTIONARY
  5
271
330
270
100
AcDbDictionary
280
     1
  3
ACAD_BREAKDATA
360
275
  3
OS_DIM_DISPLAY_FLAG_DATA
360
272
  0
DICTIONARY
  5
2AC
330
2AB
100
AcDbDictionary
280
     1
  3
ONSHAPE_VIEW_ID
360
2AD
  0
DICTIONARY
  5
2B3
330
2B2
100
AcDbDictionary
280
     1
  3
ACAD_BREAKDATA
360
2B7
  3
OS_DIM_DISPLAY_FLAG_DATA
360
2B4
  0
DICTIONARY
  5
2D6
330
2D5
100
AcDbDictionary
280
     1
  3
ACAD_BREAKDATA
360
2DA
  3
OS_DIM_DISPLAY_FLAG_DATA
360
2D7
  0
ACAD_PROXY_OBJECT
  5
1AC
102
{ACAD_REACTORS
330
C
102
}
330
C
100
AcDbProxyObject
 90
      499
 91
      509
 93
       11
310
4580
330
146
330
147
330
14D
330
14E
330
157
330
158
330
15D
330
15E
330
177
330
178
330
17F
330
180
330
186
330
187
330
18D
330
18E
330
194
330
195
330
19B
330
19C
330
1A4
330
1A5
 94
        0
  0
DICTIONARY
  5
D
102
{ACAD_REACTORS
330
C
102
}
330
C
100
AcDbDictionary
  0
DICTIONARY
  5
1A
102
{ACAD_REACTORS
330
C
102
}
330
C
100
AcDbDictionary
  0
DICTIONARY
  5
43
102
{ACAD_REACTORS
330
C
102
}
330
C
100
AcDbDictionary
  3
BYBLOCK
350
45
  3
BYLAYER
350
44
  3
GLOBAL
350
46
  0
DICTIONARY
  5
6B
102
{ACAD_REACTORS
330
C
102
}
330
C
100
AcDbDictionary
  3
STANDARD
350
6C
  0
DICTIONARY
  5
17
102
{ACAD_REACTORS
330
C
102
}
330
C
100
AcDbDictionary
  3
STANDARD
350
18
  0
DICTIONARY
  5
19
102
{ACAD_REACTORS
330
C
102
}
330
C
100
AcDbDictionary
  0
DICTIONARY
  5
47
102
{ACAD_REACTORS
330
C
102
}
330
C
100
AcDbDictionary
  3
A0
350
48
  3
A1
350
49
  3
A2
350
4A
  3
A3
350
4B
  3
A4
350
4C
  3
A5
350
4D
  3
A6
350
4E
  3
A7
350
4F
  3
A8
350
50
  3
A9
350
51
  3
B0
350
52
  3
B1
350
53
  3
B2
350
54
  3
B3
350
55
  3
B4
350
56
  3
B5
350
57
  3
B6
350
58
  3
B7
350
59
  3
B8
350
5A
  3
B9
350
5B
  3
C0
350
5C
  3
C1
350
5D
  3
C2
350
5E
  3
C3
350
5F
  3
C4
350
60
  3
C5
350
61
  3
C6
350
62
  3
C7
350
63
  3
C8
350
64
  3
C9
350
65
  3
D0
350
66
  3
D1
350
67
  3
D2
350
68
  0
DICTIONARY
  5
2A
102
{ACAD_REACTORS
330
C
102
}
330
C
100
AcDbDictionary
  3
2DWIREFRAME
350
2F
  3
BASIC
350
32
  3
BRIGHTEN
350
36
  3
COLORCHANGE
350
3A
  3
CONCEPTUAL
350
34
  3
DIM
350
35
  3
EDGECOLOROFF
350
3D
  3
FACEPATTERN
350
39
  3
FLAT
350
2B
  3
FLATWITHEDGES
350
2C
  3
GOURAUD
350
2D
  3
GOURAUDWITHEDGES
350
2E
  3
HIDDEN
350
31
  3
JITTEROFF
350
3B
  3
LINEPATTERN
350
38
  3
OVERHANGOFF
350
3C
  3
REALISTIC
350
33
  3
SHADED
350
42
  3
SHADED_WITH_EDGES
350
41
  3
SHADES_OF_GRAY
350
3E
  3
SKETCHY
350
3F
  3
THICKEN
350
37
  3
WIREFRAME
350
30
  3
X-RAY
350
40
  0
XRECORD
  5
391
102
{ACAD_REACTORS
330
C
102
}
330
C
100
AcDbXrecord
 90
        1
330
11E
330
166
330
179
  0
DICTIONARY
  5
359
102
{ACAD_REACTORS
330
C
102
}
330
C
100
AcDbDictionary
  3
CEPSNID
350
363
  3
CEPSNTYPE
350
362
  3
DIMSTYLEDATA
350
379
  3
FINGERPRINTGUID
350
364
  3
HYPERLINKBASE
350
35C
  3
INSUNITS
350
361
  3
LAYOUTDICT
350
35E
  3
LWETCUNION
350
360
  3
PLOTSETDICT
350
35F
  3
PSVPSCALE
350
366
  3
PUCSBASE
350
369
  3
PUCSORGBACK
350
36F
  3
PUCSORGBOTTOM
350
36B
  3
PUCSORGFRONT
350
36E
  3
PUCSORGLEFT
350
36C
  3
PUCSORGRIGHT
350
36D
  3
PUCSORGTOP
350
36A
  3
PUCSORTHOREF
350
367
  3
PUCSORTHOVIEW
350
368
  3
STYLESHEET
350
35D
  3
TSTACKALIGN
350
35A
  3
TSTACKSIZE
350
35B
  3
UCSBASE
350
372
  3
UCSORGBACK
350
378
  3
UCSORGBOTTOM
350
374
  3
UCSORGFRONT
350
377
  3
UCSORGLEFT
350
375
  3
UCSORGRIGHT
350
376
  3
UCSORGTOP
350
373
  3
UCSORTHOREF
350
370
  3
UCSORTHOVIEW
350
371
  3
VERSIONGUID
350
365
  0
DICTIONARY
  5
6E
102
{ACAD_REACTORS
330
C
102
}
330
C
100
AcDbDictionary
  3
CANNOSCALE
350
388
  3
CMLEADERSTYLE
350
37B
  3
CTABLESTYLE
350
37A
  3
DIMASSOC
350
37E
  3
HIDETEXT
350
37F
  3
MSLTSCALE
350
389
  3
OLEFRAME
350
6F
  0
XRECORD
  5
380
102
{ACAD_REACTORS
330
C
102
}
330
C
100
AcDbXrecord
  1
DWGPROPS COOKIE
  2

  3

  4

  6

  7

  8
nobody
  9

300
=
301
=
302
=
303
=
304
=
305
=
306
=
307
=
308
=
309
=
 40
0.0
 41
2461200.967383449
 42
2461200.967384526
  1

 90
        0
  0
DICTIONARY
  5
1AD
102
{ACAD_REACTORS
330
C
102
}
330
C
100
AcDbDictionary
280
     1
  3
DIM_UNITS
360
1B0
  3
ONSHAPE_ALT_DIM_POSTION
360
1B2
  3
ONSHAPE_ALT_DIM_UNIT
360
1B1
  3
ONSHAPE_ALT_DIM_UNIT_ENABLE
360
1B3
  3
ONSHAPE_ANG_TOL_PRECISION
360
1B4
  3
ONSHAPE_BREAK_DIMENSION_DEFAULT
360
205
  3
ONSHAPE_DIMENSION_FIT_STANDARD
360
1AF
  3
ONSHAPE_DIMENSION_TEXT_HOR
360
1AE
  3
ONSHAPE_FITCLASS_TOL_PRECISION
360
1B5
  3
ONSHAPE_JOGDIMENSION_LOCK_
360
1B6
  3
ONSHAPE_SHOWDIMENSIONSLINE
360
2FB
  3
ONSHAPE_UNDERLINEOVERRIDEN
360
2FA
  3
ONSHAPE_VSHARP_EXTENSION
360
2F9
  3
ONSHAPE_WELD_STANDARD
360
2F8
  0
XRECORD
  5
387
102
{ACAD_REACTORS
330
386
102
}
330
386
100
AcDbXrecord
102
VTR_0.000_0.000_1.000_1.000_VISUALSTYLE
340
2F
102
VTR_0.000_0.000_1.000_1.000_GRIDDISPLAY
 70
     3
102
VTR_0.000_0.000_1.000_1.000_GRIDMAJOR
 70
     5
102
VTR_0.000_0.000_1.000_1.000_DEFAULTLIGHTING
280
     1
102
VTR_0.000_0.000_1.000_1.000_DEFAULTLIGHTINGTYPE
 70
     1
102
VTR_0.000_0.000_1.000_1.000_BRIGHTNESS
141
0.0
102
VTR_0.000_0.000_1.000_1.000_CONTRAST
142
0.0
  0
XRECORD
  5
382
102
{ACAD_REACTORS
330
381
102
}
330
381
100
AcDbXrecord
 40
77451.0
  1
{\pxqc;SCALE 1:2}
  0
XRECORD
  5
384
102
{ACAD_REACTORS
330
383
102
}
330
383
100
AcDbXrecord
 40
13397.0
  1
{\pxqc;  Acrilico negro}
  0
XRECORD
  5
385
102
{ACAD_REACTORS
330
17A
102
}
330
17A
100
AcDbXrecord
 40
5162.0
  1
{\pxqc;Fondo caja}
  0
XRECORD
  5
1A8
102
{ACAD_REACTORS
330
1A7
102
}
330
1A7
100
AcDbXrecord
330
0
  0
BREAKDATA
  5
1BC
102
{ACAD_REACTORS
330
1B8
102
}
330
1B8
100
AcDbBreakData
 70
     0
330
1B7
 90
        0
  0
XRECORD
  5
1B9
102
{ACAD_REACTORS
330
1B8
102
}
330
1B8
100
AcDbXrecord
 90
        1
 90
        0
  0
BREAKDATA
  5
1DE
102
{ACAD_REACTORS
330
1DA
102
}
330
1DA
100
AcDbBreakData
 70
     0
330
1D9
 90
        0
  0
XRECORD
  5
1DB
102
{ACAD_REACTORS
330
1DA
102
}
330
1DA
100
AcDbXrecord
 90
        1
 90
        0
  0
XRECORD
  5
1FD
102
{ACAD_REACTORS
330
1FC
102
}
330
1FC
100
AcDbXrecord
330
0
  0
XRECORD
  5
204
102
{ACAD_REACTORS
330
203
102
}
330
203
100
AcDbXrecord
330
0
  0
BREAKDATA
  5
20B
102
{ACAD_REACTORS
330
207
102
}
330
207
100
AcDbBreakData
 70
     0
330
206
 90
        0
  0
XRECORD
  5
208
102
{ACAD_REACTORS
330
207
102
}
330
207
100
AcDbXrecord
 90
        1
 90
        0
  0
BREAKDATA
  5
230
102
{ACAD_REACTORS
330
22C
102
}
330
22C
100
AcDbBreakData
 70
     0
330
22B
 90
        2
100
AcDbBreakPointRef
 71
     0
 72
     0
 91
       -1
 10
0.0
 20
0.0
 30
0.0
 11
0.0
 21
0.0
 31
0.0
331
1B7
 73
     5
 92
        0
100
AcDbBreakPointRef
 71
     0
 72
     0
 91
       -1
 10
0.0
 20
0.0
 30
0.0
 11
0.0
 21
0.0
 31
0.0
331
0
 73
     2
 92
        0
  0
XRECORD
  5
22D
102
{ACAD_REACTORS
330
22C
102
}
330
22C
100
AcDbXrecord
 90
        1
 90
        0
  0
BREAKDATA
  5
252
102
{ACAD_REACTORS
330
24E
102
}
330
24E
100
AcDbBreakData
 70
     0
330
24D
 90
        1
100
AcDbBreakPointRef
 71
     0
 72
     0
 91
       -1
 10
0.0
 20
0.0
 30
0.0
 11
0.0
 21
0.0
 31
0.0
331
0
 73
     2
 92
        0
  0
XRECORD
  5
24F
102
{ACAD_REACTORS
330
24E
102
}
330
24E
100
AcDbXrecord
 90
        1
 90
        0
  0
BREAKDATA
  5
275
102
{ACAD_REACTORS
330
271
102
}
330
271
100
AcDbBreakData
 70
     0
330
270
 90
        0
  0
XRECORD
  5
272
102
{ACAD_REACTORS
330
271
102
}
330
271
100
AcDbXrecord
 90
        1
 90
        0
  0
XRECORD
  5
2AD
102
{ACAD_REACTORS
330
2AC
102
}
330
2AC
100
AcDbXrecord
330
0
  0
BREAKDATA
  5
2B7
102
{ACAD_REACTORS
330
2B3
102
}
330
2B3
100
AcDbBreakData
 70
     0
330
2B2
 90
        0
  0
XRECORD
  5
2B4
102
{ACAD_REACTORS
330
2B3
102
}
330
2B3
100
AcDbXrecord
 90
        1
 90
        0
  0
BREAKDATA
  5
2DA
102
{ACAD_REACTORS
330
2D6
102
}
330
2D6
100
AcDbBreakData
 70
     0
330
2D5
 90
        0
  0
XRECORD
  5
2D7
102
{ACAD_REACTORS
330
2D6
102
}
330
2D6
100
AcDbXrecord
 90
        1
 90
        0
  0
MATERIAL
  5
45
102
{ACAD_REACTORS
330
43
102
}
102
{ACAD_XDICTIONARY
360
38C
102
}
330
43
100
AcDbMaterial
  1
BYBLOCK
  0
MATERIAL
  5
44
102
{ACAD_REACTORS
330
43
102
}
102
{ACAD_XDICTIONARY
360
38A
102
}
330
43
100
AcDbMaterial
  1
BYLAYER
  0
MATERIAL
  5
46
102
{ACAD_REACTORS
330
43
102
}
102
{ACAD_XDICTIONARY
360
38E
102
}
330
43
100
AcDbMaterial
  1
GLOBAL
  0
ACAD_PROXY_OBJECT
  5
6C
102
{ACAD_REACTORS
330
6B
102
}
330
6B
100
AcDbProxyObject
 90
      499
 91
      505
 93
      610
310
40901902A4063FBFFFFFE056BD1B81E855B9FC0AD7A3703D0AD73F4214DD185B99185C9900AD7A3703D0AC73F90140501A02B5E8DC0F42B1CFC02B5E8DC0F42B1CFE5764000000000000300FC0
340
14
340
0
340
11
340
0
 94
        0
1001
ACAD_MLEADERVER
1070
     2
  0
MLINESTYLE
  5
18
102
{ACAD_REACTORS
330
17
102
}
330
17
100
AcDbMlineStyle
  2
Standard
 70
     0
  3

 62
   256
 51
90.0
 52
90.0
 71
     2
 49
0.5
 62
   256
  6
BYLAYER
 49
-0.5
 62
   256
  6
BYLAYER
  0
ACAD_PROXY_OBJECT
  5
48
102
{ACAD_REACTORS
330
47
102
}
330
47
100
AcDbProxyObject
 90
      499
 91
      503
 93
       41
310
903313A31580
  0
ACAD_PROXY_OBJECT
  5
49
102
{ACAD_REACTORS
330
47
102
}
330
47
100
AcDbProxyObject
 90
      499
 91
      503
 93
      105
310
903313A324000000000000004000
  0
ACAD_PROXY_OBJECT
  5
4A
102
{ACAD_REACTORS
330
47
102
}
330
47
100
AcDbProxyObject
 90
      499
 91
      503
 93
      105
310
903313A344000000000000104000
  0
ACAD_PROXY_OBJECT
  5
4B
102
{ACAD_REACTORS
330
47
102
}
330
47
100
AcDbProxyObject
 90
      499
 91
      503
 93
      105
310
903313A354000000000000144000
  0
ACAD_PROXY_OBJECT
  5
4C
102
{ACAD_REACTORS
330
47
102
}
330
47
100
AcDbProxyObject
 90
      499
 91
      503
 93
      105
310
903313A384000000000000204000
  0
ACAD_PROXY_OBJECT
  5
4D
102
{ACAD_REACTORS
330
47
102
}
330
47
100
AcDbProxyObject
 90
      499
 91
      503
 93
      113
310
904313A31304000000000000244000
  0
ACAD_PROXY_OBJECT
  5
4E
102
{ACAD_REACTORS
330
47
102
}
330
47
100
AcDbProxyObject
 90
      499
 91
      503
 93
      113
310
904313A31364000000000000304000
  0
ACAD_PROXY_OBJECT
  5
4F
102
{ACAD_REACTORS
330
47
102
}
330
47
100
AcDbProxyObject
 90
      499
 91
      503
 93
      113
310
904313A32304000000000000344000
  0
ACAD_PROXY_OBJECT
  5
50
102
{ACAD_REACTORS
330
47
102
}
330
47
100
AcDbProxyObject
 90
      499
 91
      503
 93
      113
310
904313A333040000000000003E4000
  0
ACAD_PROXY_OBJECT
  5
51
102
{ACAD_REACTORS
330
47
102
}
330
47
100
AcDbProxyObject
 90
      499
 91
      503
 93
      113
310
904313A34304000000000000444000
  0
ACAD_PROXY_OBJECT
  5
52
102
{ACAD_REACTORS
330
47
102
}
330
47
100
AcDbProxyObject
 90
      499
 91
      503
 93
      113
310
904313A35304000000000000494000
  0
ACAD_PROXY_OBJECT
  5
53
102
{ACAD_REACTORS
330
47
102
}
330
47
100
AcDbProxyObject
 90
      499
 91
      503
 93
      121
310
905313A3130304000000000000594000
  0
ACAD_PROXY_OBJECT
  5
54
102
{ACAD_REACTORS
330
47
102
}
330
47
100
AcDbProxyObject
 90
      499
 91
      503
 93
      105
310
903323A310000000000000010100
  0
ACAD_PROXY_OBJECT
  5
55
102
{ACAD_REACTORS
330
47
102
}
330
47
100
AcDbProxyObject
 90
      499
 91
      503
 93
      105
310
903343A310000000000000410100
  0
ACAD_PROXY_OBJECT
  5
56
102
{ACAD_REACTORS
330
47
102
}
330
47
100
AcDbProxyObject
 90
      499
 91
      503
 93
      105
310
903383A310000000000000810100
  0
ACAD_PROXY_OBJECT
  5
57
102
{ACAD_REACTORS
330
47
102
}
330
47
100
AcDbProxyObject
 90
      499
 91
      503
 93
      113
310
90431303A310000000000000910100
  0
ACAD_PROXY_OBJECT
  5
58
102
{ACAD_REACTORS
330
47
102
}
330
47
100
AcDbProxyObject
 90
      499
 91
      503
 93
      121
310
9053130303A310000000000001650100
  0
ACAD_PROXY_OBJECT
  5
59
102
{ACAD_REACTORS
330
47
102
}
330
47
100
AcDbProxyObject
 90
      499
 91
      503
 93
      257
310
90E312F31323822203D2031272D3022000000000000200FC000000000000284000
  0
ACAD_PROXY_OBJECT
  5
5A
102
{ACAD_REACTORS
330
47
102
}
330
47
100
AcDbProxyObject
 90
      499
 91
      503
 93
      249
310
90D312F363422203D2031272D3022000000000000240FC000000000000284000
  0
ACAD_PROXY_OBJECT
  5
5B
102
{ACAD_REACTORS
330
47
102
}
330
47
100
AcDbProxyObject
 90
      499
 91
      503
 93
      249
310
90D312F333222203D2031272D3022000000000000280FC000000000000284000
  0
ACAD_PROXY_OBJECT
  5
5C
102
{ACAD_REACTORS
330
47
102
}
330
47
100
AcDbProxyObject
 90
      499
 91
      503
 93
      249
310
90D312F313622203D2031272D30220000000000002C0FC000000000000284000
  0
ACAD_PROXY_OBJECT
  5
5D
102
{ACAD_REACTORS
330
47
102
}
330
47
100
AcDbProxyObject
 90
      499
 91
      503
 93
      249
310
90D332F333222203D2031272D30220000000000002E0FC000000000000284000
  0
ACAD_PROXY_OBJECT
  5
5E
102
{ACAD_REACTORS
330
47
102
}
330
47
100
AcDbProxyObject
 90
      499
 91
      503
 93
      241
310
90C312F3822203D2031272D3022000000000000300FC000000000000284000
  0
ACAD_PROXY_OBJECT
  5
5F
102
{ACAD_REACTORS
330
47
102
}
330
47
100
AcDbProxyObject
 90
      499
 91
      503
 93
      249
310
90D332F313622203D2031272D3022000000000000320FC000000000000284000
  0
ACAD_PROXY_OBJECT
  5
60
102
{ACAD_REACTORS
330
47
102
}
330
47
100
AcDbProxyObject
 90
      499
 91
      503
 93
      241
310
90C312F3422203D2031272D3022000000000000340FC000000000000284000
  0
ACAD_PROXY_OBJECT
  5
61
102
{ACAD_REACTORS
330
47
102
}
330
47
100
AcDbProxyObject
 90
      499
 91
      503
 93
      241
310
90C332F3822203D2031272D3022000000000000360FC000000000000284000
  0
ACAD_PROXY_OBJECT
  5
62
102
{ACAD_REACTORS
330
47
102
}
330
47
100
AcDbProxyObject
 90
      499
 91
      503
 93
      241
310
90C312F3222203D2031272D3022000000000000380FC000000000000284000
  0
ACAD_PROXY_OBJECT
  5
63
102
{ACAD_REACTORS
330
47
102
}
330
47
100
AcDbProxyObject
 90
      499
 91
      503
 93
      241
310
90C332F3422203D2031272D30220000000000003A0FC000000000000284000
  0
ACAD_PROXY_OBJECT
  5
64
102
{ACAD_REACTORS
330
47
102
}
330
47
100
AcDbProxyObject
 90
      499
 91
      503
 93
      161
310
90A3122203D2031272D30224000000000000284000
  0
ACAD_PROXY_OBJECT
  5
65
102
{ACAD_REACTORS
330
47
102
}
330
47
100
AcDbProxyObject
 90
      499
 91
      503
 93
      257
310
90E312D312F3222203D2031272D30220000000000003E0FC000000000000284000
  0
ACAD_PROXY_OBJECT
  5
66
102
{ACAD_REACTORS
330
47
102
}
330
47
100
AcDbProxyObject
 90
      499
 91
      503
 93
      225
310
90A3322203D2031272D302200000000000002100000000000000284000
  0
ACAD_PROXY_OBJECT
  5
67
102
{ACAD_REACTORS
330
47
102
}
330
47
100
AcDbProxyObject
 90
      499
 91
      503
 93
      225
310
90A3622203D2031272D302200000000000006100000000000000284000
  0
ACAD_PROXY_OBJECT
  5
68
102
{ACAD_REACTORS
330
47
102
}
330
47
100
AcDbProxyObject
 90
      499
 91
      503
 93
      249
310
90D31272D3022203D2031272D30220000000000000A100000000000000284000
  0
ACAD_PROXY_OBJECT
  5
2F
102
{ACAD_REACTORS
330
2A
102
}
330
2A
100
AcDbProxyObject
 90
      499
 91
      501
 93
      436
310
42CC9915DA5C99599C985B595049028333333333333E33F0000000000000F90107901411070040501600405405064090741402480A0340
1001
ACAD
1000
AcDbSavedByObjectVersion
1070
     0
  0
ACAD_PROXY_OBJECT
  5
32
102
{ACAD_REACTORS
330
2A
102
}
330
2A
100
AcDbProxyObject
 90
      499
 91
      501
 93
      388
310
4150985CDA58D07406404333333333333E33F0000000000000F90107A41107004050150841D405064090741402480A0350
1001
ACAD
1000
AcDbSavedByObjectVersion
1070
     0
  0
ACAD_PROXY_OBJECT
  5
36
102
{ACAD_REACTORS
330
2A
102
}
330
2A
100
AcDbProxyObject
 90
      499
 91
      501
 93
      428
310
42109C9A59DA1D195B90C409028333333333333E33F0000000000000F9010790141107004050150841D405064090741402480A029950
1001
ACAD
1000
AcDbSavedByObjectVersion
1070
     0
  0
ACAD_PROXY_OBJECT
  5
3A
102
{ACAD_REACTORS
330
2A
102
}
330
2A
100
AcDbProxyObject
 90
      499
 91
      501
 93
      452
310
42D0DBDB1BDC90DA185B99D95104090240C333333333333E33F0000000000000F90108901411070040501508421405064090741402480A0350
1001
ACAD
1000
AcDbSavedByObjectVersion
1070
     0
  0
ACAD_PROXY_OBJECT
  5
34
102
{ACAD_REACTORS
330
2A
102
}
330
2A
100
AcDbProxyObject
 90
      499
 91
      501
 93
      500
310
4290DBDB98D95C1D1D585B10940D028333333333333E33F0000000000000F90107902409070040501000000000018199010841D405064090740C02480A0340
1001
ACAD
1000
AcDbSavedByObjectVersion
1070
     0
  0
ACAD_PROXY_OBJECT
  5
35
102
{ACAD_REACTORS
330
2A
102
}
330
2A
100
AcDbProxyObject
 90
      499
 91
      501
 93
      412
310
40D11A5B50B409028333333333333E33F0000000000000F9010790141107004050150841D405064090741402480A02677FFFFFD0
1001
ACAD
1000
AcDbSavedByObjectVersion
1070
     0
  0
ACAD_PROXY_OBJECT
  5
3D
102
{ACAD_REACTORS
330
2A
102
}
330
2A
100
AcDbProxyObject
 90
      499
 91
      501
 93
      452
310
43115919D950DBDB1BDC93D999916409028333333333333E33F0000000000000F9010790141107004050150841D405064090741402480A0350
1001
ACAD
1000
AcDbSavedByObjectVersion
1070
     0
  0
ACAD_PROXY_OBJECT
  5
39
102
{ACAD_REACTORS
330
2A
102
}
330
2A
100
AcDbProxyObject
 90
      499
 91
      501
 93
      444
310
42D19858D95C185D1D195C9B90F409028333333333333E33F0000000000000F9010790141107004050150841D405064090741402480A0350
1001
ACAD
1000
AcDbSavedByObjectVersion
1070
     0
  0
ACAD_PROXY_OBJECT
  5
2B
102
{ACAD_REACTORS
330
2A
102
}
330
2A
100
AcDbProxyObject
 90
      499
 91
      501
 93
      380
310
41119B185D240901404333333333333E33F0000000000000F9010740A907004050150841D405064090741402480A1B50
1001
ACAD
1000
AcDbSavedByObjectVersion
1070
     0
  0
ACAD_PROXY_OBJECT
  5
2C
102
{ACAD_REACTORS
330
2A
102
}
330
2A
100
AcDbProxyObject
 90
      499
 91
      501
 93
      468
310
43519B185D15DA5D1A115919D95CD0140901404333333333333E33F0000000000000F90107409019070040501600405405064090741402480A1B50
1001
ACAD
1000
AcDbSavedByObjectVersion
1070
     0
  0
ACAD_PROXY_OBJECT
  5
2D
102
{ACAD_REACTORS
330
2A
102
}
330
2A
100
AcDbProxyObject
 90
      499
 91
      501
 93
      404
310
41D1DBDD5C985D5910240902404333333333333E33F0000000000000F9010740A9070040501641D405064090741402480A1B50
1001
ACAD
1000
AcDbSavedByObjectVersion
1070
     0
  0
ACAD_PROXY_OBJECT
  5
2E
102
{ACAD_REACTORS
330
2A
102
}
330
2A
100
AcDbProxyObject
 90
      499
 91
      501
 93
      492
310
4411DBDD5C985D5915DA5D1A115919D95CD0340902404333333333333E33F0000000000000F90107409019070040501600405405064090741402480A1B50
1001
ACAD
1000
AcDbSavedByObjectVersion
1070
     0
  0
ACAD_PROXY_OBJECT
  5
31
102
{ACAD_REACTORS
330
2A
102
}
330
2A
100
AcDbProxyObject
 90
      499
 91
      501
 93
      476
310
41921A5919195B90640502408333333333333E33F0000000000000F901079024090700405020000000000001110200405405064090740C02480A0340
1001
ACAD
1000
AcDbSavedByObjectVersion
1070
     0
  0
ACAD_PROXY_OBJECT
  5
3B
102
{ACAD_REACTORS
330
2A
102
}
330
2A
100
AcDbProxyObject
 90
      499
 91
      501
 93
      428
310
42529A5D1D195C93D999914409028333333333333E33F0000000000000F9010790141107004050150A41D405064090741402480A0350
1001
ACAD
1000
AcDbSavedByObjectVersion
1070
     0
  0
ACAD_PROXY_OBJECT
  5
38
102
{ACAD_REACTORS
330
2A
102
}
330
2A
100
AcDbProxyObject
 90
      499
 91
      501
 93
      444
310
42D31A5B995C185D1D195C9B90E409028333333333333E33F0000000000000F9010790141107004050750841D405064090741402483A0350
1001
ACAD
1000
AcDbSavedByObjectVersion
1070
     0
  0
ACAD_PROXY_OBJECT
  5
3C
102
{ACAD_REACTORS
330
2A
102
}
330
2A
100
AcDbProxyObject
 90
      499
 91
      501
 93
      444
310
42D3DD995C9A185B99D3D999915409028333333333333E33F0000000000000F9010790141107004050150941D405064090741402480A0350
1001
ACAD
1000
AcDbSavedByObjectVersion
1070
     0
  0
ACAD_PROXY_OBJECT
  5
33
102
{ACAD_REACTORS
330
2A
102
}
330
2A
100
AcDbProxyObject
 90
      499
 91
      501
 93
      428
310
425499585B1A5CDD1A58D08409038333333333333E33F0000000000000F9010740A907004050150800405405064090740C02480A1B40
1001
ACAD
1000
AcDbSavedByObjectVersion
1070
     0
  0
ACAD_PROXY_OBJECT
  5
42
102
{ACAD_REACTORS
330
2A
102
}
330
2A
100
AcDbProxyObject
 90
      499
 91
      501
 93
      420
310
4194DA1859195911B40902404333333333333E33F0000000000000F9010740A41107004050150800405405064090840C02480A0B40
1001
ACAD
1000
AcDbSavedByObjectVersion
1070
     0
  0
ACAD_PROXY_OBJECT
  5
41
102
{ACAD_REACTORS
330
2A
102
}
330
2A
100
AcDbProxyObject
 90
      499
 91
      501
 93
      516
310
4454DA18591959081DDA5D1A08195919D95CD1A40902404333333333333E33F0000000000000F901074090142907004050250800405405064090740C02480A0B40
1001
ACAD
1000
AcDbSavedByObjectVersion
1070
     0
  0
ACAD_PROXY_OBJECT
  5
3E
102
{ACAD_REACTORS
330
2A
102
}
330
2A
100
AcDbProxyObject
 90
      499
 91
      501
 93
      532
310
4394DA1859195CC81BD98811DC985E5174090240C333333333333E33F0000000000000F901079024090741D01000000000000111010841D405064090740C02480A0340
1001
ACAD
1000
AcDbSavedByObjectVersion
1070
     0
  0
ACAD_PROXY_OBJECT
  5
3F
102
{ACAD_REACTORS
330
2A
102
}
330
2A
100
AcDbProxyObject
 90
      499
 91
      501
 93
      476
310
41D4DAD95D18DA1E51840502408333333333333E33F0000000000000F901079024090741D01000000000000111010B41D405064090741802480A0340
1001
ACAD
1000
AcDbSavedByObjectVersion
1070
     0
  0
ACAD_PROXY_OBJECT
  5
37
102
{ACAD_REACTORS
330
2A
102
}
330
2A
100
AcDbProxyObject
 90
      499
 91
      501
 93
      412
310
41D51A1A58DAD95B90D409028333333333333E33F0000000000000F9010790141107004050150C41D405064090741402480A0350
1001
ACAD
1000
AcDbSavedByObjectVersion
1070
     0
  0
ACAD_PROXY_OBJECT
  5
30
102
{ACAD_REACTORS
330
2A
102
}
330
2A
100
AcDbProxyObject
 90
      499
 91
      501
 93
      420
310
4255DA5C99599C985B595059028333333333333E33F0000000000000F90107901411070040501600405405064090740C02480A0340
1001
ACAD
1000
AcDbSavedByObjectVersion
1070
     0
  0
ACAD_PROXY_OBJECT
  5
40
102
{ACAD_REACTORS
330
2A
102
}
330
2A
100
AcDbProxyObject
 90
      499
 91
      501
 93
      404
310
41560B54985E51940902404000000000000E03F0000000000000F9010740501907004050150841D405064090740C02480A1B40
1001
ACAD
1000
AcDbSavedByObjectVersion
1070
     0
  0
XRECORD
  5
363
102
{ACAD_REACTORS
330
359
102
}
330
359
100
AcDbXrecord
340
0
  0
XRECORD
  5
362
102
{ACAD_REACTORS
330
359
102
}
330
359
100
AcDbXrecord
 90
        0
  0
XRECORD
  5
379
102
{ACAD_REACTORS
330
359
102
}
330
359
100
AcDbXrecord
1000
DSTYLE
1002
{
1070
   179
 70
     1
1070
   170
 70
     1
1070
   171
 70
     3
1070
   143
 40
0.0393700787401575
1070
   274
 70
     3
1070
   285
 70
     8
1070
    41
 40
2.5
1070
   342
340
74
1070
   343
340
74
1070
   344
340
74
1070
   141
 40
2.5
1070
   176
 70
     7
1070
   177
 70
     7
1070
   178
 70
     7
1070
   271
 70
     2
1070
    43
 40
3.75
1070
   278
 70
    44
1070
    44
 40
1.25
1070
    42
 40
0.625
1070
   147
 40
0.625
1070
   341
340
74
1070
   144
 40
2.0
1070
   371
 70
    13
1070
   372
 70
    13
1070
    77
 70
     1
1070
   272
 70
     2
1070
    73
 70
     0
1070
   172
 70
     1
1070
    74
 70
     0
1070
   283
 70
     0
1070
   340
340
73
1070
   140
 40
3.5
1070
   284
 70
     8
1070
   288
 70
     1
1070
    78
 70
     8
1002
}
  0
XRECORD
  5
364
102
{ACAD_REACTORS
330
359
102
}
330
359
100
AcDbXrecord
  1
{62653537-7233-7166-37b9-b73672327371}
  0
XRECORD
  5
35C
102
{ACAD_REACTORS
330
359
102
}
330
359
100
AcDbXrecord
  1

  0
XRECORD
  5
361
102
{ACAD_REACTORS
330
359
102
}
330
359
100
AcDbXrecord
 90
        4
  0
XRECORD
  5
35E
102
{ACAD_REACTORS
330
359
102
}
330
359
100
AcDbXrecord
340
1A
  0
XRECORD
  5
360
102
{ACAD_REACTORS
330
359
102
}
330
359
100
AcDbXrecord
 90
    10269
  0
XRECORD
  5
35F
102
{ACAD_REACTORS
330
359
102
}
330
359
100
AcDbXrecord
340
19
  0
XRECORD
  5
366
102
{ACAD_REACTORS
330
359
102
}
330
359
100
AcDbXrecord
 40
0.0
  0
XRECORD
  5
369
102
{ACAD_REACTORS
330
359
102
}
330
359
100
AcDbXrecord
340
0
  0
XRECORD
  5
36F
102
{ACAD_REACTORS
330
359
102
}
330
359
100
AcDbXrecord
 10
0.0
 20
0.0
 30
0.0
  0
XRECORD
  5
36B
102
{ACAD_REACTORS
330
359
102
}
330
359
100
AcDbXrecord
 10
0.0
 20
0.0
 30
0.0
  0
XRECORD
  5
36E
102
{ACAD_REACTORS
330
359
102
}
330
359
100
AcDbXrecord
 10
0.0
 20
0.0
 30
0.0
  0
XRECORD
  5
36C
102
{ACAD_REACTORS
330
359
102
}
330
359
100
AcDbXrecord
 10
0.0
 20
0.0
 30
0.0
  0
XRECORD
  5
36D
102
{ACAD_REACTORS
330
359
102
}
330
359
100
AcDbXrecord
 10
0.0
 20
0.0
 30
0.0
  0
XRECORD
  5
36A
102
{ACAD_REACTORS
330
359
102
}
330
359
100
AcDbXrecord
 10
0.0
 20
0.0
 30
0.0
  0
XRECORD
  5
367
102
{ACAD_REACTORS
330
359
102
}
330
359
100
AcDbXrecord
340
0
  0
XRECORD
  5
368
102
{ACAD_REACTORS
330
359
102
}
330
359
100
AcDbXrecord
 70
     0
  0
XRECORD
  5
35D
102
{ACAD_REACTORS
330
359
102
}
330
359
100
AcDbXrecord
  1

  0
XRECORD
  5
35A
102
{ACAD_REACTORS
330
359
102
}
330
359
100
AcDbXrecord
 90
        1
  0
XRECORD
  5
35B
102
{ACAD_REACTORS
330
359
102
}
330
359
100
AcDbXrecord
 90
       70
  0
XRECORD
  5
372
102
{ACAD_REACTORS
330
359
102
}
330
359
100
AcDbXrecord
340
0
  0
XRECORD
  5
378
102
{ACAD_REACTORS
330
359
102
}
330
359
100
AcDbXrecord
 10
0.0
 20
0.0
 30
0.0
  0
XRECORD
  5
374
102
{ACAD_REACTORS
330
359
102
}
330
359
100
AcDbXrecord
 10
0.0
 20
0.0
 30
0.0
  0
XRECORD
  5
377
102
{ACAD_REACTORS
330
359
102
}
330
359
100
AcDbXrecord
 10
0.0
 20
0.0
 30
0.0
  0
XRECORD
  5
375
102
{ACAD_REACTORS
330
359
102
}
330
359
100
AcDbXrecord
 10
0.0
 20
0.0
 30
0.0
  0
XRECORD
  5
376
102
{ACAD_REACTORS
330
359
102
}
330
359
100
AcDbXrecord
 10
0.0
 20
0.0
 30
0.0
  0
XRECORD
  5
373
102
{ACAD_REACTORS
330
359
102
}
330
359
100
AcDbXrecord
 10
0.0
 20
0.0
 30
0.0
  0
XRECORD
  5
370
102
{ACAD_REACTORS
330
359
102
}
330
359
100
AcDbXrecord
340
0
  0
XRECORD
  5
371
102
{ACAD_REACTORS
330
359
102
}
330
359
100
AcDbXrecord
 70
     0
  0
XRECORD
  5
365
102
{ACAD_REACTORS
330
359
102
}
330
359
100
AcDbXrecord
  1
{FAEB1C32-E019-11D5-929B-00C0DF256EC4}
  0
DICTIONARYVAR
  5
388
102
{ACAD_REACTORS
330
6E
102
}
330
6E
100
DictionaryVariables
280
     0
  1
1:1
  0
DICTIONARYVAR
  5
37B
102
{ACAD_REACTORS
330
6E
102
}
330
6E
100
DictionaryVariables
280
     0
  1
Standard
  0
DICTIONARYVAR
  5
37A
102
{ACAD_REACTORS
330
6E
102
}
330
6E
100
DictionaryVariables
280
     0
  1
Onshape-Standard
  0
DICTIONARYVAR
  5
37E
102
{ACAD_REACTORS
330
6E
102
}
330
6E
100
DictionaryVariables
280
     0
  1
2
  0
DICTIONARYVAR
  5
37F
102
{ACAD_REACTORS
330
6E
102
}
330
6E
100
DictionaryVariables
280
     0
  1
1
  0
DICTIONARYVAR
  5
389
102
{ACAD_REACTORS
330
6E
102
}
330
6E
100
DictionaryVariables
280
     0
  1
1
  0
DICTIONARYVAR
  5
6F
102
{ACAD_REACTORS
330
6E
102
}
330
6E
100
DictionaryVariables
280
     0
  1
0
  0
XRECORD
  5
1B0
102
{ACAD_REACTORS
330
1AD
102
}
330
1AD
100
AcDbXrecord
 70
     4
  0
XRECORD
  5
1B2
102
{ACAD_REACTORS
330
1AD
102
}
330
1AD
100
AcDbXrecord
 90
        0
  0
XRECORD
  5
1B1
102
{ACAD_REACTORS
330
1AD
102
}
330
1AD
100
AcDbXrecord
 90
        1
  0
XRECORD
  5
1B3
102
{ACAD_REACTORS
330
1AD
102
}
330
1AD
100
AcDbXrecord
 90
        0
  0
XRECORD
  5
1B4
102
{ACAD_REACTORS
330
1AD
102
}
330
1AD
100
AcDbXrecord
 90
        0
  0
ACAD_PROXY_OBJECT
  5
205
102
{ACAD_REACTORS
330
1AD
102
}
330
1AD
100
AcDbProxyObject
 90
      499
 91
      512
 93
       34
310
40C8804040
  0
XRECORD
  5
1AF
102
{ACAD_REACTORS
330
1AD
102
}
330
1AD
100
AcDbXrecord
300
ISO
  0
XRECORD
  5
1AE
102
{ACAD_REACTORS
330
1AD
102
}
330
1AD
100
AcDbXrecord
 90
        5
  0
XRECORD
  5
1B5
102
{ACAD_REACTORS
330
1AD
102
}
330
1AD
100
AcDbXrecord
 90
        3
  0
XRECORD
  5
1B6
102
{ACAD_REACTORS
330
1AD
102
}
330
1AD
100
AcDbXrecord
 90
        0
  0
ACAD_PROXY_OBJECT
  5
2FB
102
{ACAD_REACTORS
330
1AD
102
}
330
1AD
100
AcDbProxyObject
 90
      499
 91
      512
 93
       34
310
40C8804040
  0
ACAD_PROXY_OBJECT
  5
2FA
102
{ACAD_REACTORS
330
1AD
102
}
330
1AD
100
AcDbProxyObject
 90
      499
 91
      512
 93
       34
310
40C8804040
  0
XRECORD
  5
2F9
102
{ACAD_REACTORS
330
1AD
102
}
330
1AD
100
AcDbXrecord
 90
        0
  0
XRECORD
  5
2F8
102
{ACAD_REACTORS
330
1AD
102
}
330
1AD
100
AcDbXrecord
 90
        1
  0
DICTIONARY
  5
38C
330
45
100
AcDbDictionary
280
     1
  3
ACAD_XREC_ROUNDTRIP
360
38D
  0
DICTIONARY
  5
38A
330
44
100
AcDbDictionary
280
     1
  3
ACAD_XREC_ROUNDTRIP
360
38B
  0
DICTIONARY
  5
38E
330
46
100
AcDbDictionary
280
     1
  3
ACAD_XREC_ROUNDTRIP
360
38F
  0
XRECORD
  5
38D
102
{ACAD_REACTORS
330
38C
102
}
330
38C
100
AcDbXrecord
102
MATERIAL
148
0.0
149
0.0
149
0.0
 93
        0
 94
      127
282
     0
 72
     1
 77
     1
171
     1
175
     1
179
     1
273
     0
  0
XRECORD
  5
38B
102
{ACAD_REACTORS
330
38A
102
}
330
38A
100
AcDbXrecord
102
MATERIAL
148
0.0
149
0.0
149
0.0
 93
        0
 94
      127
282
     0
 72
     1
 77
     1
171
     1
175
     1
179
     1
273
     0
  0
XRECORD
  5
38F
102
{ACAD_REACTORS
330
38E
102
}
330
38E
100
AcDbXrecord
102
MATERIAL
148
0.0
149
0.0
149
0.0
 93
        0
 94
      127
282
     0
 72
     1
 77
     1
171
     1
175
     1
179
     1
273
     0
  0
ENDSEC
  0
EOF
